<svg id="Group_646" data-name="Group 646" xmlns="http://www.w3.org/2000/svg" xmlns:xlink="http://www.w3.org/1999/xlink" width="149.915" height="85.572" viewBox="0 0 149.915 85.572">
  <defs>
    <clipPath id="clip-path">
      <rect id="Rectangle_351" data-name="Rectangle 351" width="149.915" height="85.572" fill="#f2d499"/>
    </clipPath>
  </defs>
  <g id="Group_645" data-name="Group 645" clip-path="url(#clip-path)">
    <path id="Path_37488" data-name="Path 37488" d="M132.394,341.551q1.671,1.569,3.415,2.969H113.215a2.966,2.966,0,0,1-2.264-1.05c-.044-.053-.087-.106-.125-.161a.109.109,0,0,0-.013-.015,2.971,2.971,0,0,1-.527-2.23c.017-.095.034-.2.045-.3s.019-.218.04-.351a68.791,68.791,0,0,1,3.7-14.405c.817-2.2,1.743-4.385,2.769-6.521q.787,1.737,1.668,3.436t1.831,3.32a70.851,70.851,0,0,0,6.934,9.876q1.066,1.268,2.175,2.458,1.444,1.552,2.952,2.969" transform="translate(-89.355 -258.95)" fill="#f2d499"/>
    <path id="Path_37489" data-name="Path 37489" d="M347.772,139.005c-.013-.189-.021-.4-.025-.633a44.112,44.112,0,0,1,9.13-.949,58.73,58.73,0,0,1,9.084.688v1.45a12.642,12.642,0,0,1-.159,1.531,15.3,15.3,0,0,1-.769,2.886,11.7,11.7,0,0,1-1.23,2.416,7.612,7.612,0,0,1-6.774,3.454c-2.511,0-5.884-2.092-7.8-5.725a12.7,12.7,0,0,1-1.076-2.8,13.18,13.18,0,0,1-.381-2.318" transform="translate(-281.851 -111.382)" fill="#f2d499"/>
    <path id="Path_37490" data-name="Path 37490" d="M320.175,150.155a30.8,30.8,0,0,1-.313,3.191c-.144.987-.339,2.022-.589,3.081a32.47,32.47,0,0,1-4.5,10.614c-4.122,6.088-10.14,9.177-17.892,9.177-5.041,0-10.748-2.812-15.27-7.521a31.555,31.555,0,0,1-6.96-11.343q-.517-1.447-.893-2.947c-.256-1.02-.466-2.056-.622-3.1q1.071-.64,2.164-1.222a46.1,46.1,0,0,1,7.093-3.057,18.074,18.074,0,0,0,1.514,5.747,17.435,17.435,0,0,0,3.318,4.927,13.329,13.329,0,0,0,9.331,4.423,12.554,12.554,0,0,0,10.871-5.628,17.008,17.008,0,0,0,2.02-4.15,19.964,19.964,0,0,0,.724-2.884,18.183,18.183,0,0,0,.263-2.444c0-.028,0-.055,0-.083v-.47a46.87,46.87,0,0,1,9.738,3.693" transform="translate(-221.379 -118.708)" fill="#f2d499"/>
    <path id="Path_37491" data-name="Path 37491" d="M281.735,187.674c-.216,1.118-.485,2.31-.815,3.553-.292,1.107-.635,2.255-1.033,3.428a45.752,45.752,0,0,1-5.368,10.941c-6.663,9.846-16.329,14.837-28.731,14.837-9.515,0-18.754-4.754-26.02-13.386A51.724,51.724,0,0,1,212.3,195.1q-.682-1.515-1.27-3.062-.6-1.589-1.1-3.2a58.221,58.221,0,0,1,7.5-6.738q.338,1.583.811,3.123.46,1.509,1.044,2.967a36.475,36.475,0,0,0,7.527,11.718c5.516,5.745,12.383,9.041,18.84,9.041,9.494,0,16.893-3.818,21.991-11.351a36.528,36.528,0,0,0,4.739-10.46c.3-1.065.555-2.119.764-3.142.229-1.128.4-2.219.527-3.256a46.968,46.968,0,0,1,8.057,6.932" transform="translate(-170.155 -146.492)" fill="#f2d499"/>
    <path id="Path_37492" data-name="Path 37492" d="M258.01,279.293a2.968,2.968,0,0,1-2.967,3.055H185.467a48.277,48.277,0,0,1-4.391-2.969q-1.825-1.381-3.572-2.969a57.776,57.776,0,0,1-5.423-5.643,66.406,66.406,0,0,1-8.162-12.325q-.85-1.648-1.609-3.337-.77-1.705-1.444-3.445a72.219,72.219,0,0,1,5.526-8.146c.394,1.078.824,2.149,1.285,3.2q.676,1.552,1.446,3.064a56.288,56.288,0,0,0,7.087,10.737c8.22,9.768,18.807,15.148,29.806,15.148,13.947,0,25.3-5.882,32.83-17.011a49.19,49.19,0,0,0,4.675-8.739c.491-1.183.925-2.352,1.309-3.5.421-1.245.781-2.462,1.091-3.636.172.235.341.47.508.709a59.332,59.332,0,0,1,5.152,8.988,68.108,68.108,0,0,1,2.791,6.987v0q.816,2.411,1.457,4.887a67.517,67.517,0,0,1,2.179,14.938" transform="translate(-130.384 -196.777)" fill="#f2d499"/>
    <path id="Path_37493" data-name="Path 37493" d="M549.044,300.944v0c-.546,1.372-1.148,2.763-1.813,4.158v0c-.625,1.307-1.306,2.621-2.047,3.928q-1.154,2.038-2.509,4.049a54.035,54.035,0,0,1-3.65,4.8q-1.325,1.555-2.746,2.969-1.575,1.572-3.263,2.969h-8.586a40.535,40.535,0,0,0,4.381-2.969,42.443,42.443,0,0,0,3.428-2.969,47.41,47.41,0,0,0,6.337-7.576,57.126,57.126,0,0,0,4.6-8.205v0c.618-1.342,1.171-2.678,1.666-3.993v0c.534-1.412,1-2.8,1.414-4.152a68.07,68.07,0,0,1,2.791,6.987" transform="translate(-425.054 -238.254)" fill="#fff"/>
    <path id="Path_37494" data-name="Path 37494" d="M23.955,215.331a3.546,3.546,0,0,1-.378-.02,3.464,3.464,0,0,1-3.07-3.817C21.718,200.324,6.533,174.641.58,165.687a3.464,3.464,0,0,1,5.768-3.837c.23.345,5.687,8.574,11.033,18.783,7.389,14.109,10.757,24.744,10.013,31.607a3.464,3.464,0,0,1-3.44,3.091" transform="translate(0 -129.927)" fill="#f2d499"/>
    <path id="Path_37495" data-name="Path 37495" d="M649.575,215.331a3.54,3.54,0,0,0,.378-.02,3.464,3.464,0,0,0,3.07-3.817c-1.211-11.169,13.974-36.853,19.927-45.807a3.464,3.464,0,0,0-5.768-3.837c-.23.345-5.687,8.574-11.033,18.783-7.389,14.109-10.757,24.744-10.013,31.607a3.464,3.464,0,0,0,3.439,3.091" transform="translate(-523.614 -129.927)" fill="#f2d499"/>
  </g>
</svg>
