<svg xmlns="http://www.w3.org/2000/svg" width="164.866" height="157.307" viewBox="0 0 164.866 157.307">
  <path id="Union_16" data-name="Union 16" d="M157.04.442c-1.959.933-4.69,2.028-6.633,2.881A187.452,187.452,0,0,1,131.5,10.207C105.935.453,71.6,9.2,58,33.935a71.754,71.754,0,0,0-16.629,4.521c-11.8-5.341-23.8-10.294-36.06-14.513a4,4,0,0,0-5.044,5.13C4.073,40.253,10.281,51.038,9.686,63.14c-.489,12.4-6.081,24.014-6.248,36.5-4.161,77.05,135.212,74.108,133.4-.195,18.13-11.056,28.622-33.829,24.4-54.87-4.7-12.581-4.223-25.681,2.037-37.681C164.952,3.658,162.129,0,158.919,0A4.221,4.221,0,0,0,157.04.442Zm-21.5,15.824c5.672-1.613,11.3-3.48,16.877-5.466-12.713,30.99,16.14,47.8-16.254,81.565-1.5-9.678-5.2-18.991-9.718-27.569-2.166-4.148-8.521-.593-6.144,3.437C177.731,156.619-3.15,186.422,11.461,91.206c1.5-7.64,4.244-14.993,5.216-22.784,2.141-11.762-1.819-22.995-5.92-33.915,9.746,3.782,19.313,8,28.745,12.523a4.16,4.16,0,0,0,3.538.037,64.453,64.453,0,0,1,54.029,2.245c5.537,2.984,10.135-5.5,4.577-8.546A73.359,73.359,0,0,0,64.831,33.24c13.886-19.8,43.87-25.753,65.437-16.175a2.938,2.938,0,0,0,1.1.2C132.754,17.264,134.238,16.487,135.537,16.266ZM64.89,65.741c-2.48,3.108-1.642,7.7-3.429,10.909l.113-.113C56,83.264,51.3,79.838,44.157,78.673c-1.917-.184-3.045,1.716-4.105,3.118-2.047,2.871-.012,6.5,2.552,8.061,7.792,4.645,4.857,8.044-.3,13.3-2.9,2.714-5,3.378-4.308,8.034,1.534,5.066,6.271,4.544,10.978,4.02,4.168-.47,8.313-.934,10.185,2.492,1.361,2.93-.51,6.68,1.126,9.485,2.067,3.782,7.168,7.057,11.157,3.8,4.978-4.031,4.485-12.728,10.768-15.118,3.338-.756,6.777.561,10.3.674,6.746.243,8.809-6.252,5.774-11.622-1.714-2.837-5.908-3.721-7.2-6.911-1.653-5.142,5.424-7.742,7.791-11.233C95.169,74.06,94.01,78.414,84.031,81.23c-2.722-2.347-6.51-3.2-8.818-5.892-.847-2.369-.236-5.356-1.308-7.871a5.386,5.386,0,0,0-5.238-3.423A4.686,4.686,0,0,0,64.89,65.741ZM61.258,84.9c6-4.019,6.734-6.777,7.645-13.008.392,2.9.3,6.194,2.924,8.146,2.25,2.262,5.04,3.167,7.551,4.705,1.629,1.031,2.768,2.973,4.855,2.191,0,0,5.538-1.829,8.528-2.833.111.135.224.259.347.394C82.531,89.8,80.66,99.143,87.347,106.459a12.953,12.953,0,0,0-2.379-.166c-7.978-.853-12.937,4.267-16.386,10.45-2.056-8.879-9.3-11.146-18.921-10.316,5.313-6.5,7.534-13.881.215-19.887a25.587,25.587,0,0,0,4.529.476A10.952,10.952,0,0,0,61.258,84.9Zm1.484,11.719c-.467,9.36,13.072,8.632,11.882-.616a5.9,5.9,0,0,0-6.092-4.772C65.627,91.23,62.785,93.018,62.742,96.619Z" transform="translate(164.319 156.807) rotate(180)" fill="#f2d499" stroke="rgba(0,0,0,0)" stroke-miterlimit="10" stroke-width="1"/>
</svg>
