<svg xmlns="http://www.w3.org/2000/svg" xmlns:xlink="http://www.w3.org/1999/xlink" width="160.709" height="143.451" viewBox="0 0 160.709 143.451">
  <defs>
    <clipPath id="clip-path">
      <rect id="Rectangle_220" data-name="Rectangle 220" width="133.32" height="91.58" fill="#5f7766"/>
    </clipPath>
  </defs>
  <g id="Group_751" data-name="Group 751" transform="matrix(0.883, 0.469, -0.469, 0.883, 39.384, -7.414)">
    <g id="Group_373" data-name="Group 373" transform="translate(6.668 4.851)" clip-path="url(#clip-path)">
      <path id="Path_1067" data-name="Path 1067" d="M12.615,80.051a3.7,3.7,0,0,0,1.208-.035,1.524,1.524,0,0,0,.2.791c.242.524,0,0,.535.487s.9.107.96.718a.872.872,0,0,0,.422.772s.511.088.6.122a1.641,1.641,0,0,0,.559.116s.192.172.849-.166c.687-.352-.051.362.316.136a8.853,8.853,0,0,0,3.054-1.415c.744-.456.409-.562,1.319-.793.49-.124-.307.276,1.392-.269.514-.164.394-.041.836-.543a3.011,3.011,0,0,1,.279-.717c.313-.234-.256-.279.228-.447-.049-.517-.116-1.041-.22-1.581l.055-.616-.16-1.04-.012-.18c-.565-.183-.272-1.481-.272-1.481s.709.456.355-.555a2.888,2.888,0,0,0-1.246-1.481,4.713,4.713,0,0,1-.736-2.206,2.434,2.434,0,0,0-.82-1.776l-1.46-2.571L20.29,64.8l.348-.161.018-.064-.068-.411-.189-.409.352-.162c-.295-.094-.331-.383-.1-.509s.051-.521.032-.645a6.971,6.971,0,0,0,0-.722l-.073-.213a1.566,1.566,0,0,0-.232-.28c-.118-.136-.077-.29-.2-.441s-.184-.182-.218-.34-.084-.431-.232-.5-.055.216-.352.162-.3-.055-.289-.192.293-.135.293-.135l-.038-.25-.285-.155a1.613,1.613,0,0,1-.432-.393,3.148,3.148,0,0,0-.538-.473l-.45-.2a14.9,14.9,0,0,0-.289-1.943l-.373.177-.415-1.615-.025-.194a3.939,3.939,0,0,1-1.278-1.14s.329.211.427.046l-.015-.01-.3-.272c-.2-.113-.251-.168-.126-.235l.124-.066-.221-.186a1.367,1.367,0,0,1-.452-.168l-.275-.318-.644-.624a1.032,1.032,0,0,0,0-.315c-.025-.216-.312-.075-.312-.075l.045.406a12.873,12.873,0,0,1-.781-1.1l.175-.381s.265-.019.207-.133a.448.448,0,0,0-.389-.27l-.1.066-.24.092-.5-.912.124-.3-.023-.341-.184-.458a1.064,1.064,0,0,1,.109-.388l-.222-.4-.216-.166-.015-.131-.05-.206c-.05-.17-.208-.116-.288-.076l-.046.026.128.429c-.336-.344-.894-.254-1.219-.638l.068-.28.033-.14s.264-.051.184-.164a.492.492,0,0,0-.455-.238l-.089.083-.094.052-.133.074c-.212-.252-.6-.269-.792-.522l-.107-.128-.649.055-.1-.342-.758.1a1.127,1.127,0,0,1,.026-.405c-.142-.183-.618.084-.7-.018l-.2-.241-.008.007c-.448.33.061-.44-.292-.056,0,0-.067-.3-.954.007s-.931.45-.931.45-.107.017-.466.324-.487.78-.267.987-.4.7-.4.7a.435.435,0,0,0,.135.525c.281.206-.457.376-.858.463s-.788.939-.931,1.118S0,50.013.137,50.368a.644.644,0,0,0,.477.436s-.744.714-.595,1.141l.146.418a10.374,10.374,0,0,0,.811,1.512,1.4,1.4,0,0,1,.3.148c.351.22-.447,1.013-.447,1.013l.3.059.083.22s-.271.074-.254.2.016.124.309.1.151-.264.308-.234.256.282.314.424.121.16.27.28.13.285.268.4a1.58,1.58,0,0,1,.272.241l.1.2a6.666,6.666,0,0,1,.095.728c.037.117.26.517.041.661s-.153.434.153.512l-.338.189.226.415.1.422-.013.069-.34.18-.023.012-.017.425.172.092a5.3,5.3,0,0,1-.331.742l-.327.234a4.866,4.866,0,0,1,1.41.543,3.511,3.511,0,0,1,.583.545l.144.163a1.8,1.8,0,0,0,.328.3l.3.192c.035.173.058.292.058.292s-.188-.009-.26.071l-.033.066c0,.08,0,.119.043.149a.963.963,0,0,0,.27.093c.31.084.192-.258.351-.163s.232.417.281.607.111.229.254.419.114.367.248.538a2.311,2.311,0,0,1,.264.352l.093.256a4.248,4.248,0,0,1,.051.724c0,.055.011.129.011.129.025.123.176.469.1.66l.354.2a4.286,4.286,0,0,1,.6.6,2.188,2.188,0,0,0,.482.5l.309.207.06.3s-.3-.026-.293.135,0,.162.316.25.192-.261.352-.162l.044.047a1.364,1.364,0,0,1,.24.568,1.007,1.007,0,0,0,.254.419c.143.19.114.367.248.537a2.23,2.23,0,0,1,.265.352l.014.038L10,71.59a2.184,2.184,0,0,0,.483.5l.308.207c.036.176.06.3.06.3s-.3-.026-.294.135,0,.162.317.251.191-.261.351-.162.236.427.284.614.111.228.254.419.114.367.248.538a2.353,2.353,0,0,1,.265.351l.093.257c.067.319.035.716.062.853s.252.63.021.759-.168.474.146.608l-.352.162.23.5.1.49-.013.075-.371.172-.015.471.178.121a5.839,5.839,0,0,1-.315.76c.162.164.26-.009.574.083m44.022-49.9c.034.171.063.3.092.426a6.2,6.2,0,0,0,.228.84l.237.607c-.009.375-.029.583-.029.583s-.179-.162-.271-.073a.142.142,0,0,0-.051.1.619.619,0,0,0,0,.31,1.883,1.883,0,0,0,.233.381c.276.4.261-.326.387-.028a4.265,4.265,0,0,1,.094,1.323,3.766,3.766,0,0,0,.123.947c.083.451,0,.748.082,1.158a8.359,8.359,0,0,1,.153.833c0,.177.015.358.015.534-.022.487-.115,1.009-.162,1.345-.013.1-.025.181-.027.24a4.79,4.79,0,0,1-.1,1.267c.093.21.194.4.284.624a14.107,14.107,0,0,1,.4,1.541,7.184,7.184,0,0,0,.319,1.266l.237.606c-.009.374-.029.583-.029.583s-.279-.272-.323.023-.043.294.232.69.26-.326.386-.027a1.029,1.029,0,0,1,.029.119,5.169,5.169,0,0,1,.065,1.2,3.743,3.743,0,0,0,.123.947c.083.451,0,.747.082,1.157a8.394,8.394,0,0,1,.153.833c0,.027,0,.053,0,.079.009.045.02.087.029.132a7.179,7.179,0,0,0,.32,1.265l.236.606c-.009.374-.029.584-.029.584s-.279-.272-.322.023-.043.294.232.69.26-.326.386-.027a4.224,4.224,0,0,1,.094,1.323,3.8,3.8,0,0,0,.122.947c.083.451,0,.748.083,1.157a8.222,8.222,0,0,1,.152.834c0,.177.015.359.015.534-.028.626-.176,1.318-.19,1.584-.015.292.059,1.326-.2,1.385s-.3.728-.037,1.208l-.386.027.077,1.075-.043.962c-.011.041-.023.085-.034.125l-.408.029-.152.84.136.353a10.408,10.408,0,0,1-.525,1.132c.108.419.254.182.529.584a3.166,3.166,0,0,0,1.174.849,5.385,5.385,0,0,0-.041,1.574c.081,1.129,0,0,.373,1.283s.839.875.716,2.019a3.165,3.165,0,0,0,.181,1.712,4.863,4.863,0,0,1,.541.673,2.23,2.23,0,0,0,.5.63s.134.455.868.342c.764-.118-.155.614.264.483a4.632,4.632,0,0,0,3.356-.249c.85-.262.559-.706,1.5-.437.509.146-.375.266,1.421.565.543.091.391.224.964-.349a5.619,5.619,0,0,1,.478-1.083c.369-.187-.165-.7.35-.635.1-.969.192-1.966.25-3.019l.234-1.07.148-2,.041-.333c-.491-.756.169-2.877.169-2.877s.551,1.358.5-.734a9.736,9.736,0,0,0-.768-3.612,17.776,17.776,0,0,1-.067-4.535,9,9,0,0,0-.272-3.823l-.657-5.741c-.123-.473-.254-.921-.385-1.363l.383-.028c.013-.033.024-.069.037-.1l.055-.79-.063-.883.386-.027c-.257-.391-.208-.939.053-.992s.2-.9.218-1.14c.017-.219.173-.79.209-1.3,0-.144-.007-.293-.008-.439a5.613,5.613,0,0,0-.142-.682c-.075-.336.009-.58-.067-.949a2.58,2.58,0,0,1-.111-.776,2.837,2.837,0,0,0-.077-1.085c-.122-.244-.117.348-.386.027s-.27-.322-.222-.563.322-.023.322-.023.023-.172.036-.48l-.229-.5a4.988,4.988,0,0,1-.3-1.035,9.726,9.726,0,0,0-.38-1.26c-.117-.246-.247-.463-.373-.689.133-1.136.24-2.326.308-3.58l-.412.029.121-2.978.041-.332a10.283,10.283,0,0,1-.817-2.756s.236.579.386.391l-.01-.028L70.3,22.61c-.146-.322-.172-.445-.033-.455l.14-.01-.137-.447a2.479,2.479,0,0,1-.36-.6l-.137-.7-.349-1.43a2.162,2.162,0,0,0,.125-.465.276.276,0,0,0-.254-.356l-.123.634c-.108-.724-.2-1.463-.254-2.228l.324-.4s.246.187.246-.017a.915.915,0,0,0-.226-.691l-.12.009-.257-.072c-.017-.567-.035-1.13-.021-1.674l.254-.288.147-.468.066-.752a1.092,1.092,0,0,1,.294-.4c.021-.283.02-.5.025-.686l-.1-.391a1.624,1.624,0,0,0,.057-.172c.021-.073.044-.164.069-.295a.266.266,0,0,0-.2-.346.377.377,0,0,0-.053-.01l-.123.634c-.107-.724-.6-1.108-.658-1.873l.216-.265.108-.132s.246.188.246-.017a.914.914,0,0,0-.225-.691l-.121.009-.106-.03-.151-.043c-.015-.483-.314-.882-.308-1.351,0-.081-.005-.166,0-.246l-.529-.593.147-.468-.639-.692a1.084,1.084,0,0,1,.294-.395c.025-.334-.5-.579-.5-.779s.017-.344.023-.465l-.011,0c-.554-.174.354-.365-.17-.382,0,0,.161-.349-.659-1.1s-.964-.7-.964-.7-.085-.115-.557-.283a.656.656,0,0,0-.912.65c0,.525-.792.2-.792.2s-.334.144-.289.787-.589-.2-.933-.72S60.578.848,60.348.844,58.663.136,58.511.894a3.587,3.587,0,0,0,.039,1.557s-1.054-.322-1.21.7c-.054.338-.109.671-.156,1.024a39.149,39.149,0,0,0-.213,4.363c.064.243.13.513.186.8.194.983-.908,1.327-.908,1.327l.237.606c-.009.375-.029.585-.029.585s-.278-.272-.322.023-.043.294.232.69.26-.326.386-.027a4.24,4.24,0,0,1,.095,1.323,3.758,3.758,0,0,0,.122.947c.083.451,0,.748.083,1.158a8.368,8.368,0,0,1,.153.834c0,.177.014.358.015.533-.029.626-.176,1.318-.19,1.584-.014.292.059,1.326-.2,1.386s-.3.728-.038,1.208l-.386.027.077,1.075-.043.963c-.011.041-.022.084-.034.125l-.383.027H56l-.152.84.136.353a9.934,9.934,0,0,1-.551,1.184l-.386.165a13.532,13.532,0,0,1,1.194,2.337,14.194,14.194,0,0,1,.4,1.54m52.936,40.214a3.567,3.567,0,0,0,.938.788,1.781,1.781,0,0,0-.377.8c-.166.606,0,0,.079.774s.612.708.246,1.26a1.022,1.022,0,0,0-.2.938s.323.425.365.514a1.652,1.652,0,0,0,.34.482s.028.277.748.447c.751.177-.282.27.144.332a8.043,8.043,0,0,0,3.237.921c.865.129.686-.2,1.521.241.45.236-.415.021,1.221.743.495.218.32.242.991.119a3.171,3.171,0,0,1,.7-.425c.393.017,0-.421.474-.228.315-.482.624-.985.912-1.527l.457-.5.581-1.023.113-.165c-.3-.551.788-1.49.788-1.49s.232.893.64-.245a3.508,3.508,0,0,0,.044-2.168,6.066,6.066,0,0,1,.894-2.463,3.069,3.069,0,0,0,.534-2.144l.536-3.292-.1-.843.374.087.055-.046.21-.416.115-.5.377.087c-.169-.28-.013-.566.249-.527s.369-.439.433-.565a7.981,7.981,0,0,0,.457-.659l.077-.242a1.955,1.955,0,0,0,0-.409c-.006-.2.122-.316.121-.537a.886.886,0,0,1,.043-.453c.072-.165.2-.45.133-.614s-.179.162-.379-.082-.2-.244-.107-.365.316.068.316.068l.126-.253-.127-.329a1.946,1.946,0,0,1-.1-.642,3.575,3.575,0,0,0-.128-.784l-.233-.469a20.11,20.11,0,0,0,.965-1.889l-.4-.083.66-1.608.1-.173a3.951,3.951,0,0,1-.3-1.706s.127.373.306.3l-.005-.017-.066-.4c-.085-.211-.089-.284.049-.258l.138.027-.054-.278a1.338,1.338,0,0,1-.244-.411l-.01-.415-.086-.866a1,1,0,0,0,.2-.228c.12-.172-.186-.252-.186-.252l-.23.322a9.628,9.628,0,0,1,.138-1.284l.384-.148s.207.157.242.044a.405.405,0,0,0-.1-.431l-.119-.021-.238-.1.268-.929.3-.1.222-.228.192-.4a.962.962,0,0,1,.354-.156l.14-.375-.027-.238.085-.083.117-.149c.088-.128-.057-.2-.139-.234l-.049-.017-.228.326c.017-.424-.4-.74-.329-1.175l.255-.1.127-.051s.209.155.244.041a.406.406,0,0,0-.107-.429l-.12-.02-.1-.039-.14-.055c.065-.271-.161-.554-.079-.812l.037-.136-.42-.435.22-.229-.514-.511a.947.947,0,0,1,.351-.16c.077-.18-.4-.42-.36-.529s.071-.185.1-.253l-.01,0c-.515-.205.4-.133-.107-.244,0,0,.214-.162-.469-.736s-.832-.575-.832-.575a1.592,1.592,0,0,0-.5-.263c-.435-.183-.913-.107-1,.181s-.806-.045-.806-.045a.44.44,0,0,0-.408.375c-.057.36-.545-.224-.8-.575s-1.192-.3-1.417-.347-1.539-.708-1.808-.326a1.153,1.153,0,0,0-.206.848s-.982-.378-1.3.142l-.314.52a13.4,13.4,0,0,0-.907,2.3l.053.468c.031.567-1.1.522-1.1.522l.131.372-.125.306s-.228-.2-.318-.055-.091.147.112.416.308-.12.381.067a1.326,1.326,0,0,1-.126.726,1.18,1.18,0,0,0-.037.531c.007.258-.123.4-.115.634a2.637,2.637,0,0,1,.008.476l-.077.288c-.133.327-.395.663-.453.8-.063.153-.166.719-.431.692s-.419.318-.246.632l-.38-.072-.112.586-.208.5-.055.058-.377-.073-.024-.005-.293.409.071.216a5.675,5.675,0,0,1-.744.5l-.4,0a6.406,6.406,0,0,1,.745,1.508,4.653,4.653,0,0,1,.113.905l.011.246a2.195,2.195,0,0,0,.068.5l.12.377-.134.3s-.142-.128-.248-.1l-.067.038c-.049.073-.071.11-.059.162a1.025,1.025,0,0,0,.157.257c.2.275.312-.109.379.08a1.314,1.314,0,0,1-.149.719,1.18,1.18,0,0,0-.058.528c0,.258-.136.393-.135.628a2.779,2.779,0,0,1-.007.476l-.085.284a4.831,4.831,0,0,1-.406.666l-.072.119c-.058.123-.155.522-.334.638l.155.4a4.889,4.889,0,0,1,.093.909,2.523,2.523,0,0,0,.067.746l.11.379c-.084.178-.141.3-.141.3s-.216-.215-.314-.073-.1.142.089.421.314-.1.377.087l0,.07a1.606,1.606,0,0,1-.172.648,1.18,1.18,0,0,0-.066.529c-.008.258-.144.391-.148.627a2.668,2.668,0,0,1-.019.476l-.013.041v.077a2.487,2.487,0,0,0,.055.748l.107.382-.144.3s-.214-.218-.314-.077-.1.142.085.425.316-.1.376.091a1.325,1.325,0,0,1-.178.716,1.191,1.191,0,0,0-.075.529c-.012.258-.149.391-.156.626a2.683,2.683,0,0,1-.023.477l-.094.283c-.156.318-.441.636-.509.77s-.218.706-.479.662-.438.291-.286.616l-.375-.1-.15.579-.244.485-.059.055-.4-.105-.322.389.055.222a5.833,5.833,0,0,1-.738.429c.015.248.2.168.381.457" transform="translate(0 -0.001)" fill="#5f7766"/>
    </g>
  </g>
</svg>
