<svg id="Group_758" data-name="Group 758" xmlns="http://www.w3.org/2000/svg" xmlns:xlink="http://www.w3.org/1999/xlink" width="624.465" height="439.811" viewBox="0 0 624.465 439.811">
  <defs>
    <clipPath id="clip-path">
      <rect id="Rectangle_388" data-name="Rectangle 388" width="624.465" height="439.811" fill="#f2d499"/>
    </clipPath>
  </defs>
  <g id="Group_757" data-name="Group 757" clip-path="url(#clip-path)">
    <path id="Path_37756" data-name="Path 37756" d="M267.883,131.319c-15.634,16.582-85.525,6.182-131.36,2.849-40.408-2.938-87.235-3.378-113.68,27.317-9.657,11.209-15.378,26.391-12.92,40.98,3.9,23.136,26.561,38.623,49.112,45.093s46.6,6.743,68.9,14.036c18.227,5.962,37.405,22.622,31.649,40.916-2.412,7.669-8.718,13.338-14.321,19.1-20.3,20.893-34.323,53.121-20.967,79.011,17.077,33.105,65.73,33.08,99.4,17.144s62.826-42.851,99.417-49.828c31.142-5.938,62.848,3.529,93.76,10.568C475.06,391.761,541.943,394.68,588.4,357.217c18.662-15.049,33.16-39.735,25.6-62.486-14.156-42.592-86.674-38.956-102.2-81.07-8.82-23.928,6.32-49.849,23.362-68.821s37.615-37.284,42.564-62.3c4.77-24.113-7.662-50.15-28.446-63.275S500.859,5.694,478.7,16.341c-20.914,10.051-37.462,29.069-59.99,34.63-28.513,7.04-56.856-9.312-85.247-16.828s-67.935,1.548-70.928,30.764c-1.594,15.564,8.513,29.959,10.107,45.522s-15.959,34.124-27.49,23.55" fill="#f2d499"/>
    <path id="Path_37757" data-name="Path 37757" d="M204.069,133.1l-25-2.229c-15.153-1.469-33.043-3.549-52.018-4.78-18.939-1.213-39.2-1.439-58.333,2.33a111.773,111.773,0,0,0-20.865,6.413A107.829,107.829,0,0,0,24,148.7l-5.741,4.456A62.976,62.976,0,0,0,7.966,167.688a63.21,63.21,0,0,0-4.917,11.476,37.8,37.8,0,0,0-1.18,4.262s1.816-8.4-.473-.107a46.783,46.783,0,0,0-1.343,9.094,45.4,45.4,0,0,0,1.009,12.119c2.91,12.243-1.311-9.232.573-.1a55.128,55.128,0,0,0,6.874,17.712A63.4,63.4,0,0,0,21.34,237.2c8.123,6.626,11.124,8.521,22.413,13.8,11.534,4.822,19.224,6.527,29.7,8.538,7.813,1.393,13.059,2.046,21.073,3.287,4.346.692,8.735,1.4,12.873,2.229a124.785,124.785,0,0,1,20.6,5.7,55.211,55.211,0,0,1,12.035,6.946c2.415,1.772,7.86,6.544,9.959,11.391,2.359,4.779,1.359,8.615,1.169,8.889-.385.327-.532,2.629-2.971,6.055-2.29,3.534-7.267,8.091-11.867,13.37l-.428-.394a109.915,109.915,0,0,0-16.988,24.176,89.068,89.068,0,0,0-8.958,25.419,28.64,28.64,0,0,0-.58,3.514l-.572-.07-.038,0a63.024,63.024,0,0,0,1.388,24.843,61.376,61.376,0,0,0,4.176,10.377c5.38,11.6,14.94,20.438,23.837,25.553l3.5,2.444c19.765,8.4,43.455,8.527,67.454,1.524,8.96-2.285,23.791-8.848,38-17.549l9.407-5.752,18.022-11.388c4.313-2.742,8.609-5.358,12.937-7.842,7.9-4.251,12.361-6.123,12.361-6.123s-3.631,1.99-1.8,1.288l2-.846c3.141-1.327,4.7-1.985,6.614-2.792,1.881-.693,4.048-1.751,8.475-3.258,8.955-3.034-6.85,1.579-.169-.557,6.622-2.529,21.118-4.659,29.856-4.191a170.126,170.126,0,0,1,22.385,1.859c10.827,1.62,17.736,3.385,27.755,5.594,7.525,1.7,12.633,2.862,20.615,4.672,4.441.928,8.951,2.015,13.363,2.812,12.166,2.548,25.288,4.377,33.8,5.323l6.118.576a294.156,294.156,0,0,0,32.69.78c5.653-.29,10.854-1.045,16.8-1.787,8.686-1.358,23.784-3.949,40.082-10.509a130.347,130.347,0,0,0,24.163-12.49,46.7,46.7,0,0,0,5.9-4.2,98.5,98.5,0,0,0,12.872-11.032,90.47,90.47,0,0,0,10.427-12.2c.058.035-4.53,6.714.4.28,4.51-6.78,4.866-6.654,9.169-17.761,3.585-11.434-3.451,8.154-.546-.2.288-.894.715-2.221,1.062-3.3a59.181,59.181,0,0,0,2.581-17.5c-.065-6.537-1.5-13.25-3.7-17.736a44.3,44.3,0,0,0-6.544-11.578c-2.3-3.242-5.347-6.352-10.268-10.468-10.1-7.89-17.068-11.363-26.717-15.888L557.9,242.441l-1.723-.819-2.947-1.356c-10.854-5.136-16.962-9.13-20.349-11.836a33.406,33.406,0,0,1-4.432-3.821,22.93,22.93,0,0,1-4.386-4.858,20,20,0,0,1-3.444-5.4,27.759,27.759,0,0,1-2.916-8.27c-.374-1.975-.476-3.032-.476-3.032-.1.044,1.393,5.727.481-.055-.254-5.9-.457-5.861.836-14.643,2.014-8.849-2.015,6.409-.564-.14,1.131-6.663,7.938-20.083,13.473-27.05,5.327-7.114,7.136-9.177,14.763-17.569,7.668-8.387,12.952-13.615,19.686-22.109a110.745,110.745,0,0,0,12.252-18.869,78.79,78.79,0,0,0,5.444-13.71,65.659,65.659,0,0,0,1.976-25.712,67.612,67.612,0,0,0-4.69-17.579A75.267,75.267,0,0,0,569.69,27.064c-5.255-6.622-11.508-11.135-11.8-11.7a48.629,48.629,0,0,0-10.2-6.673A70.483,70.483,0,0,0,527.142,2l.107-.571a87.419,87.419,0,0,0-55.24,8.2c-1.01.475-2.043,1.014-2.98,1.54l-.3-.536a206.093,206.093,0,0,0-18.361,11.658L443.174,27.6c-7.971,5.22-15.368,9.347-21.884,11.291-8.34,2.678-3.709,1.806-12.28,3.5a80.648,80.648,0,0,1-14.345.546l-6.17-.385s-2.452-.5-8.171-2.153c-5.749-1.6-14.636-4.721-28.216-9.474-13.774-4.584-14.043-4.329-14.54-4.5l-3.222-.708A88.054,88.054,0,0,0,317.987,23.6c-17.989-.169-24.263,2.654-29.824,4.431a70.081,70.081,0,0,0-9.089,3.93,50.08,50.08,0,0,0-14.453,10.889c-12.059,14.4-11.827,29.23-4.851,47.764l2.78,7.061a79.542,79.542,0,0,1,2.912,8.925c1.271,5.15,1.133,7.472.75,9.72a22.464,22.464,0,0,1-.737,3.1,31.317,31.317,0,0,1-1.89,4.115c-1.019,1.959-2.2,3.689-1.362,3.59.89-.168-1.288,2.374-3.83,3.818-2.55,1.534-4.89,1.561-3.988,1.723-4.312,1.706-6.32.543-5.953,1.888.243,1.031,3.287,3.226,7.261,2.992,6.241.6,14.821-9.863,9.033-2.194a15.6,15.6,0,0,1-5.822,3.919c-2.441.8-6.317,3.257-14.139.9-2.089-.929-4-2.3-3.536-1.737a23.561,23.561,0,0,0,2.846,2.449,17.326,17.326,0,0,0,10.844,2.754,23.4,23.4,0,0,0,12.326-5.423,37.939,37.939,0,0,0,11.658-16.784c1.055-2.24,2.081-8.514,1.28-13.1-.557-4.207-1.408-7.184-.692-5.95-3.007-13.105-8.684-24.041-8.6-33.663-.214-9.565,5.439-17.513,15.267-22.313,6.463-3.231,14.21-4.8,21.925-5.232a71.526,71.526,0,0,1,21.7,1.9c7.308,1.854,14.977,4.614,22.709,7.387l7.8,2.813c9.482,2.81,27.454,9.451,45.458,9.212a71.022,71.022,0,0,0,22.835-3.938,70.15,70.15,0,0,0,8.845-3.691s-2.124,1.186-4.71,2.341c-2.5,1.25-5.558,2.3-6.708,2.847-1.222.433-.515.462,4-1.15,4.441-1.591,12.736-5.32,23.96-13.148,11.18-7.765,20.395-14.862,29-19.057a67.319,67.319,0,0,1,40.2-6.224A42.283,42.283,0,0,1,529,21.642a55.419,55.419,0,0,1,8.241,2.956A52.145,52.145,0,0,1,555,37.768a54.138,54.138,0,0,1,12.708,27.346c1.731,10.7-1.028,21.588-6.76,31.5-11.75,19.852-30.856,35.145-42.166,50.627-11.487,15.024-15.475,27.234-15.475,27.234-5.06,12.623-7.061,28.527-1.573,42.948,5.326,14.421,16.957,24.874,28.123,31.681,22.5,13.678,46.612,19.625,62.571,32.8,7.859,6.213,12.419,14.008,13.419,22.461l-.573.057.011,1.875a37.479,37.479,0,0,1-2.815,14.939,62.925,62.925,0,0,1-9.454,16.105l-.453-.363c-5.04,7.324-14.939,14.4-15.944,14.487-.479.687-17.113,10.361-22.292,12.17a154.381,154.381,0,0,1-28.374,8.119l-10.065,1.594c-6.235.667-10.2,1.24-16.165,1.491a215.7,215.7,0,0,1-22.619-.088c-8.931-.48-11.388-.567-18.7-1.508-7.323-.742-19.956-3.059-25.983-4.059-6.044-.96,8.068,1.708-.11.57a123.484,123.484,0,0,1-13.845-2.639c-5.71-1.421.108-.473.108-.473l-11.492-2.8L394.462,361.2l-5.543-1.118c-4.077-.784-10.716-2.181-21.38-3.636a149.378,149.378,0,0,0-34.551-.9,117.363,117.363,0,0,0-19.344,3.78c-30.343,7.671-55.3,26.706-81.443,41.194l.3.541c-10.571,5.948-20.568,10.512-31.415,13.159a92.455,92.455,0,0,1-32.7,2.11,63.423,63.423,0,0,1-6.859-1.369c-8.2-1.345-21.746-7.337-27.079-18.038a35.692,35.692,0,0,1-4.7-14.3,45.4,45.4,0,0,1-.242-6.587c-.344.114.907,11.829.9,8.288a4.05,4.05,0,0,1-.1-.543,47.722,47.722,0,0,1,.147-13.345,54.332,54.332,0,0,1,1.558-7.3c.4-1.5.763-2.106.835-2.075l.2.067a69.523,69.523,0,0,1,3.694-9.236,84.1,84.1,0,0,1,6.745-12.142,101.3,101.3,0,0,1,10.245-12.3c4.05-4.284,9.249-9.115,13.1-16.548a32.864,32.864,0,0,0,1.9-25.188c-.19.251-.6-4.875-7.05-13.161-6.664-7.878-8.335-7.613-8.216-7.8a50.208,50.208,0,0,1,12.2,14.793c-11.857-20.573-34.572-28.071-53.611-31.542l-9.4-2.223s5.239.53.061-.365c-12.532-2.053-17.51-2.482-17.51-2.482l-.029.179-2.256.015c-13.752-2.317-26.46-5.184-37.066-11.016-1.712-1.044-3.366-2.149-4.947-3.324a58.41,58.41,0,0,1-7.706-6.072A43.941,43.941,0,0,1,23.8,210.99a24.386,24.386,0,0,1-1.976-5.263l-.329-1.417a30.586,30.586,0,0,1-.94-12.577,38.089,38.089,0,0,1,1.574-7.562l1.283-3.08a47.461,47.461,0,0,1,2.7-5.146l3.936-6.175.117-.264a47.306,47.306,0,0,0-6.886,10.707,52.264,52.264,0,0,1,10.986-16.086A59.477,59.477,0,0,1,51.43,152.114l5.218-1.851,2.7-.726s-4.214,1.792.121.349a113.852,113.852,0,0,1,11.714-3.335l3.718-.888-.031-.179.818-.321,1.19-.414a191.283,191.283,0,0,1,32.518-2.36l5.987.142c5.11-.092,10.257-.066,15.436.028l11.222,1.1,18.343.722,9.267,1.328c8.279.826,15.406.656,20.421,1.07l11.663.894.085-.01c5.44-.492,8.6,1,9.995.3,0,0,2.133.173,6.867.2a163.54,163.54,0,0,0,22.558-1.33c10.5-1.36,15.71-3.426,18.123-4.332,2.422-.928,2.166-.913,2.166-.913l2.274-1.2a20.024,20.024,0,0,0,5.87-4.4c4.342-5.273-2.064,2.7-15.654,5.406-13.461,2.342-3.831-.532-3.831-.532l-3.6.318c-2.819.186-7.659.625-15.781.83-16.259-.184,6.176-.01,19.567-3.049,13.161-3.531,4.336-2.964,4.856-3.294.232-.171,4.8-2.2,6.553-3.958,1.605-1.795,2.011-1.915-5.541.788-9.092,2.548-18.806,2.79-25.679,3.07-6.972.115-11.423.032-11.423.032s9.8-1.072-15.067-2.494" fill="#f2d499"/>
  </g>
</svg>
