<svg xmlns="http://www.w3.org/2000/svg" xmlns:xlink="http://www.w3.org/1999/xlink" width="1400" height="944" viewBox="0 0 1400 944">
  <defs>
    <clipPath id="clip-path">
      <rect id="Rectangle_426" data-name="Rectangle 426" width="1400" height="944" transform="translate(0 5984)" fill="#fff"/>
    </clipPath>
    <clipPath id="clip-path-2">
      <rect id="Rectangle_253" data-name="Rectangle 253" width="1663.396" height="910.854" fill="#ffedc7"/>
    </clipPath>
  </defs>
  <g id="Mask_Group_116" data-name="Mask Group 116" transform="translate(0 -5984)" clip-path="url(#clip-path)">
    <g id="Group_464" data-name="Group 464" transform="translate(-149.804 6038.65)">
      <g id="Group_463" data-name="Group 463" clip-path="url(#clip-path-2)">
        <path id="Path_1117" data-name="Path 1117" d="M261.9,837.071c.123.01.28.013.481.009-.159-.005-.321-.005-.481-.009" transform="translate(0)" fill="#ffedc7"/>
        <path id="Path_1118" data-name="Path 1118" d="M1621.664,630.892,1663.4,67.757s-79.81-40.406-161.873-60.842-191.032,6.851-315.305,50.048S981.351,5.685,841.211,6.915,641.333,88.748,457.671,38.806s-314.636,0-314.636,0L128.4,214.67l-57.251-4.863L0,910.854c75.867-48.654,172.127-76.283,261.9-73.783-.356-.029-.379-.116-.064-.263,58.051-1.382,105.9,31.681,160.481,45.5,67.555,17.106,137.007,4.273,203.748-10.031C732.4,849.49,835.635,908.44,942.254,892.5c138.6-20.722,186.542-108.854,375.367-84.959,100.624,12.734,182.477-.54,237-15.717l54.2,12.369,2.37-31.975c11.775-5.036,18-8.466,18-8.466Z" fill="#ffedc7"/>
      </g>
    </g>
  </g>
</svg>
