<svg id="Group_743" data-name="Group 743" xmlns="http://www.w3.org/2000/svg" xmlns:xlink="http://www.w3.org/1999/xlink" width="139.018" height="167.556" viewBox="0 0 139.018 167.556">
  <defs>
    <clipPath id="clip-path">
      <rect id="Rectangle_385" data-name="Rectangle 385" width="139.018" height="167.555" fill="#5f7766"/>
    </clipPath>
  </defs>
  <g id="Group_742" data-name="Group 742" transform="translate(0 0)" clip-path="url(#clip-path)">
    <path id="Path_37726" data-name="Path 37726" d="M51.215,159.927c-7.164,10.822-26.48,67.391-43.887,48.133a8.642,8.642,0,0,1,.909-10.036c11.036-15.6,24.855-28.752,37.855-42.72a3.325,3.325,0,0,0-4.858-4.542q-.1.11-.195.228c-3.856,4.969-8.051,9.721-12.339,14.427-7.41,9.527-30.251,28.4-28.616,40.091.666,7.26,7.143,12.928,14.337,13.23,13.835.448,24.647-18.851,30.783-29.267,4.61-7.937,9.185-17.328,13.989-25.1a4.567,4.567,0,0,0-7.978-4.449" transform="translate(0 -51.191)" fill="#5f7766"/>
    <path id="Path_37727" data-name="Path 37727" d="M155.975,33.776l.235.7c.825,4.206-2.833,4.537-5.475.684l-.775-1.384C136.95,4.828,93.768-5.839,69.591,27.228A4.578,4.578,0,0,1,65.4,29.295c-22.308,30.152-2.02,74,37.4,72.939,10.97.8,21.5-3.369,30.791-8.943a2.591,2.591,0,0,1,3.126,4.073c-19.956,20.087-56.2,17.981-73.882-4.084C47.883,74.614,46,45.74,60.879,26.472q.228-.294.46-.586a4.56,4.56,0,0,1,.73-3.85c19.742-27.375,64.99-30.2,86.351-3.093a49.259,49.259,0,0,1,7.555,14.833" transform="translate(-17.311 0.001)" fill="#5f7766"/>
    <path id="Path_37728" data-name="Path 37728" d="M31.5,17.583a2.076,2.076,0,0,1-2.876-.526,19.911,19.911,0,0,0-8.575-6.877,18.887,18.887,0,0,0-1.829-.665A22.15,22.15,0,0,0,5.774,9.344,4.584,4.584,0,0,1,.1,6.212c-1.533-10,15.846-5.541,20.742-2.955a25.089,25.089,0,0,1,8.555,6.923,20.441,20.441,0,0,1,2.869,4.949,2.073,2.073,0,0,1-.757,2.455" transform="matrix(0.985, -0.174, 0.174, 0.985, 78.822, 23.913)" fill="#5f7766"/>
  </g>
</svg>
