<svg xmlns="http://www.w3.org/2000/svg" width="75.696" height="81.526" viewBox="0 0 75.696 81.526">
  <path id="chocolate-bar_8095441" d="M47.266,55.807c.771,5.446-5.5,6.581-9.7,6.433a2.255,2.255,0,0,1-2.091-.789,5.713,5.713,0,0,1-.822-2.629c-.069-3.191-.081-6.4-.063-9.626q1.568.046,3.129.063c.747,0,1.494.019,2.242.027a1.1,1.1,0,0,0,.029-2.191l-.1,0-2.2-.034c-1.026,0-2.056-.016-3.09-.051.038-4.274.115-8.566.165-12.856q2.962-.074,5.891-.2c1.335-.108,2.7-.2,4.039-.435l.085.033c1.69.917,1.6,3,1.633,4.694.035,8.069,4.984,5.376,3.725-.184a15.6,15.6,0,0,0-2.736-5.286c.054-.021.108-.041.161-.064.47-.248,1.333-.6,1.322-1.3.037-3.161.884-6.432.32-9.65a6.833,6.833,0,0,0-2-3.871l-.008-.007c3.265-2.425,3.063-7.776,2.353-11.443C47.624-.567,36.4-2.389,32.51,3.641a6.608,6.608,0,0,0-1.671-1.517c-1.585-1.5-11-2.81-10.265.664A7.65,7.65,0,0,1,20.8,6.5c-.49,2.057-2.635,3.144-4.387,4.139-3.611,1.952-5.789,2.973-6.464,7.373A3.25,3.25,0,0,1,8.957,19.9c-2.1,1.119-4.875.6-7.171.4-1.83.2-1.625,1.906-1.6,3.3-.269,2.717-.465,6.768,1.145,9.143a4.222,4.222,0,0,0-.656,1.215C.406,38.037-.466,44.123,2.538,47.293c-3.69,3.376-2.6,11.463-.005,15.152,3.4,3.677,11.488,3.913,14.988.112A5.282,5.282,0,0,0,19.2,63.889a13.129,13.129,0,0,0,6.7,1.2c2.414-.127,5.627-.9,7.3-2.807a5.628,5.628,0,0,0,.366.585,4.551,4.551,0,0,0,3.9,1.789c5.672.547,13.5-2.171,12.611-9.128A1.415,1.415,0,1,0,47.266,55.807ZM3.8,24.08c3.154.155,7.4-.135,8.837-3.522.769-1.538.6-3.325,1.518-4.666.459-.336.937-.656,1.423-.967.231,5.152.273,10.44.282,15.741a88.48,88.48,0,0,0-10.474.119c-.032,0-.062-.006-.1-.006C3.014,30.912,3.9,25.65,3.8,24.08ZM4.25,35.136l.006-.13a.18.18,0,0,1,0,.079C4.247,35.113,4.261,35.116,4.25,35.136Zm0,.015a1.369,1.369,0,0,1,1-.481h.108a2.487,2.487,0,0,0,.278-.032c.172-.008.336-.01.479-.015,3.216-.113,6.473-.176,9.748-.219,0,3.842.005,7.674.071,11.45a56.069,56.069,0,0,0-10.553.624,3.465,3.465,0,0,1-.916-1.037C2.926,42.352,4.209,38.5,4.25,35.151ZM16.6,59.856c-2.289,3.011-11.4,2.581-11.875-1.677-.593-2.468-1.563-6.407.25-8.5A67.611,67.611,0,0,1,16,48.665c.1,3.8.281,7.528.6,11.138,0,.018,0,.036,0,.053ZM23.861,3.675c3.668-.546,7.451.878,7.658,5.052q.257,3.738.4,7.478c-4.17.063-8.345.044-12.482.167q-.015-1.637-.054-3.274a2.484,2.484,0,0,0-.083-.486c3.046-2.013,5.438-4.377,4.56-8.937Zm-4.413,14.9c4.176-.077,8.368,0,12.561.057.139,4.291.2,8.585.216,12.878-4.317-.1-8.656-.442-12.99-.685C19.352,26.746,19.448,22.661,19.448,18.579Zm-.318,15.787c4.367-.045,8.753-.073,13.1-.157.007,4.23-.012,8.461-.013,12.692-4.429-.244-8.913-.707-13.37-.936C18.9,42.1,19.013,38.234,19.129,34.366ZM30.282,62.042a13.033,13.033,0,0,1-8.985.232c-1.073-.428-2.316-1.084-2.227-2.3-.2-3.769-.26-7.544-.245-11.321,4.462.031,8.941.293,13.4.465.005,3.322.027,6.643.086,9.964.036.311.08.623.136.932a3.8,3.8,0,0,1-2.16,2.03ZM46.553,30.531a61.053,61.053,0,0,1-11.758,1.015c.036-4.306.03-8.606-.085-12.882,3.2.025,6.393.01,9.579-.127a1.1,1.1,0,0,0,.12.07C48.835,20.833,46.657,26.566,46.553,30.531ZM33.73,5.879a1.328,1.328,0,0,0,.113-.121C36.587,2.28,42.877,3,45.352,6.472c1.139,2.361,1.584,6.752-.048,8.965-3.528.43-7.1.62-10.674.713q-.1-2.77-.281-5.522a11.981,11.981,0,0,0-.619-4.749Z" transform="translate(75.696 57.118) rotate(151)" fill="#f2d499"/>
</svg>
