<svg xmlns="http://www.w3.org/2000/svg" width="182.546" height="186.993" viewBox="0 0 182.546 186.993">
  <g id="asteroid_7815567" transform="translate(-6.088 0)">
    <g id="Group_767" data-name="Group 767" transform="translate(6.088 26.808)">
      <path id="Path_37769" data-name="Path 37769" d="M165.378,93.482c-10.143-12.223-25.742-25.77-42.54-17.583-10.587,4.646-18.774,14.1-30.42,15.624a26.749,26.749,0,0,1-9.6-.749C63.845,87.062,41.763,90.2,31.5,108.565a5.742,5.742,0,0,0-.05,5.734c-5.029,8.088-8.763,16.9-13.229,25.289a41.043,41.043,0,0,0-8.205,11.46c-7.705,13.48-3.29,51.3,6.39,62.763,7.976,7.813,19.505,9.475,29.781,12.272,25.638,7.68,51.224,2.745,72.251-13.808,7.653-2.41,16.41,1.014,24.364-1.214,7.778-1,18.513-15.866,8.193-20.065a5.784,5.784,0,0,0-7.158,4.49c-.5,3.678-3.489,5.227-6.96,5.235-22.126-.286-18.542-1.1-36.449,11.116-16.248,9.7-35.778,10.238-53.7,5.288-8.27-2.01-18.29-3.318-24.59-9.059a10.824,10.824,0,0,1-2.246-2.982A43.545,43.545,0,0,1,33,182.34c9.106-8.31,17.117-2.141,17.329-7.655-.378-6.5,5.72-12.609,12.274-11.609a3.23,3.23,0,0,0,.586-6.433c-8.5-1.155-17.1,4.641-19.567,12.853-15.687.772-24.4,8.708-28.574,17.294-2.81-13.181-3.874-26.893,3.95-38.353,7.829-8.846,10.988-21,16.861-31.238a5.77,5.77,0,0,0,5.763-3.179,24.014,24.014,0,0,1,9.995-10.348c28.227-12.879,36.228,9.815,67.545-16.007,4.732-3.306,9.447-5.952,14.166-6.169,10.717-.432,20.231,10.032,26.257,16.54,2.4,3.823-3.388,7.86-4.825,11.6-3.984,6.264-9.478,15.646-11.876,23.422-4.644,11.994-.7,27.039,10.815,33.682a4.182,4.182,0,0,0,4.137-7.269c-18.706-10.324-5.718-33.28,3.045-46.279,3.7-5.494,10.063-13.1,4.5-19.708Z" transform="translate(-6.088 -73.402)" fill="#5f7766"/>
      <path id="Path_37770" data-name="Path 37770" d="M267.241,197.463c-8.531-1.429-17.815,5.006-17.94,13.863a2.634,2.634,0,0,0,4.89,1.318c1.436-2.713,4.312-4.8,7.375-4.595C273.324,214.032,277.13,199.124,267.241,197.463Z" transform="translate(-160.475 -152.027)" fill="#5f7766"/>
      <path id="Path_37771" data-name="Path 37771" d="M242.463,337.822c-6.464-.357-12.328,1.683-18.146,4.263-6.537,1.939-12.154,9.1-9.214,15.97,5.056,8.118,12.564-8.231,17.258-10.629a19.27,19.27,0,0,1,10.4-3.436A3.1,3.1,0,0,0,242.463,337.822Z" transform="translate(-138.258 -241.225)" fill="#5f7766"/>
    </g>
    <g id="Group_768" data-name="Group 768" transform="translate(6.982 0)">
      <path id="Path_37772" data-name="Path 37772" d="M45.066,17.536C43.235,5.133,28.229-.317,18.316,6.7l.34-.179c-10.8,5.416-16.1,36.917.371,37.787C32.226,42.823,47.2,32.343,45.066,17.536ZM31.66,26.264c-2.02,4.4-13.613,17.76-16.238,7.935-1.127-6.665,1.048-17.023,7.158-20.566C31.7,9.212,36.963,18.9,31.66,26.264Z" transform="translate(-8.535 -2.287)" fill="#5f7766"/>
      <path id="Path_37773" data-name="Path 37773" d="M228.529,7.82c-.322,4.38-2.131,12.458,4.1,13.375A14.754,14.754,0,0,0,246.839,8.7c.716-10.933-16.387-11.931-18.31-.878Z" transform="translate(-147.871 0)" fill="#5f7766"/>
      <path id="Path_37774" data-name="Path 37774" d="M467.869,449.915c-6.984-3.48-15.981,1.575-14.619,9.81.265,3.058,1.23,12.633,7.318,12.139C469.707,470.378,477.737,455.69,467.869,449.915Z" transform="translate(-290.743 -284.889)" fill="#5f7766"/>
    </g>
  </g>
</svg>
