<svg xmlns="http://www.w3.org/2000/svg" width="129.697" height="132.537" viewBox="0 0 129.697 132.537">
  <g id="cooking_8661820" transform="translate(-5.487)">
    <path id="Path_37759" data-name="Path 37759" d="M366.247,348.791c-1.161-1.654-3.345-1.13-4.451.3-4.912,4.984,1.089,8.656-8.494,13.332a2.153,2.153,0,0,0,1.623,3.988C361.7,364.07,370.8,356.641,366.247,348.791Z" transform="translate(-256.787 -257.741)" fill="#f2d499"/>
    <path id="Path_37760" data-name="Path 37760" d="M155.452,90.3q-4.07.524-8.169.9c-6.8-12.544-19.745-19.933-33.551-21.92a10.811,10.811,0,0,0,2.734-11.391c-4.127-9.851-18.6-7.789-18.02,3.573a9.026,9.026,0,0,0,3.265,7.451c-14.756,1.221-28.757,8.643-35.636,22.569-2.6.335-5.188.768-7.768,1.322a2.259,2.259,0,0,0,.194,4.456c.554.24,3.694.467,8.536.646-.314,12.158-4.868,24.8-.88,36.8,1.592,4.817,5.76,9.5,10.813,10.657a2.284,2.284,0,0,0,2.234-3.741c-8.1-8.8-8.919-22.6-8.04-34.019.174-3.232.392-6.359.384-9.554,17.722.458,49.331.355,69.028-1.358.2,2.209.445,4.4.723,6.593l.459,3.631c.165,1.207.319,2.41.532,3.616a1.818,1.818,0,0,0,3.557.128c.3-1.211.518-2.424.737-3.635l.607-3.622c.344-2.076.847-5.1,1.215-7.129a3.825,3.825,0,0,0,.062-.454c8.668-1.231,12.475-3.007,6.985-5.51Zm-45.387,1.662c-11.526-.871-23.183-1.837-34.745-1.284,12.169-20.1,45.5-21.893,61.518-5.2a27.962,27.962,0,0,1,4.421,6.2,289.152,289.152,0,0,1-31.194.29Z" transform="translate(-37.809 -38.227)" fill="#f2d499"/>
    <path id="Path_37761" data-name="Path 37761" d="M131.123,393.885c-40.7,1.274-81.85,3.353-122.48-.25-3.922-.427-4.363,5.692-.339,5.743,40.711,1.176,82.162,2.143,122.916,2.415C136.527,401.789,136.516,393.776,131.123,393.885Z" transform="translate(0 -291.722)" fill="#f2d499"/>
    <g id="Group_763" data-name="Group 763" transform="translate(14.008 0)">
      <path id="Path_37762" data-name="Path 37762" d="M429.242,5.337a3.976,3.976,0,0,0-4.492,3.381,16.125,16.125,0,0,1-3.858,8.232c-2.375,2.9-5.211,6.642-5.511,10.68a1.8,1.8,0,0,0,3.466.808,12.723,12.723,0,0,1,2.508-3.941,45.921,45.921,0,0,1,3.812-3.49c3.627-2.938,12.2-13.238,4.075-15.669Z" transform="translate(-317.783 -3.926)" fill="#f2d499"/>
      <path id="Path_37763" data-name="Path 37763" d="M50.889,5.041c-4.941,1.447-2.177,4.738-3.58,7.936-1.446,2.987-4.664,5.38-6.736,8.438a11.076,11.076,0,0,0-2.163,6.434,1.8,1.8,0,0,0,3.543.337,7.939,7.939,0,0,1,2.356-3.714c1.808-1.765,4.452-3.371,6.507-5.245C54.957,16.356,59.163,4.74,50.889,5.041Z" transform="translate(-38.406 -3.732)" fill="#f2d499"/>
      <path id="Path_37764" data-name="Path 37764" d="M153.943.884c-1.729,3.141-4.368,5.523-6.9,8.009-1.775,1.933-5.127,7.667-.9,8.638a5.59,5.59,0,0,0,6.655-3.7c.795-4.223,3.709-7.288,4.659-11.5A1.935,1.935,0,0,0,153.943.884Z" transform="translate(-116.739 0)" fill="#f2d499"/>
      <path id="Path_37765" data-name="Path 37765" d="M337.267,9.468c-.357,2.076-3.021,7.016-4.27,9.91a.67.67,0,0,1,.165-.059c-2.3,1.242,0,4.575,2.037,2.945a48.777,48.777,0,0,0,8.9-9.134C347.825,8.2,339.4,3.441,337.267,9.468Z" transform="translate(-256.149 -4.924)" fill="#f2d499"/>
    </g>
    <path id="Path_37766" data-name="Path 37766" d="M175.984,475.929c-4.833-6.26-11.014-6.068-17.685-3.075a4.58,4.58,0,0,1-2.765,0c-5.327-2.873-13.2-3.739-17.326,1.7-6.8-4.838-11.122-2.968-18.262-.438-6.585-1.123-13.819-2.621-19.612,1.817a2.222,2.222,0,0,0,2.6,3.6,9.968,9.968,0,0,1,3.719-1.718c4.64-1.12,9.3,1.044,13.95,1.282,1.769-.367,3.552-.9,5.127-1.395,4.467-1.987,6.932.366,10.4,3,7.9,3.033,5.034-6.749,16.168-.6,4.4,2.061,9.371-.018,13.237-2.117,2.594-1.245,5.248.126,7.6,1.377A2.281,2.281,0,0,0,175.984,475.929Z" transform="translate(-69.63 -348.763)" fill="#f2d499"/>
  </g>
</svg>
