<svg xmlns="http://www.w3.org/2000/svg" xmlns:xlink="http://www.w3.org/1999/xlink" width="665.71" height="515.704" viewBox="0 0 665.71 515.704">
  <defs>
    <clipPath id="clip-path">
      <rect id="Rectangle_394" data-name="Rectangle 394" width="611.133" height="434.883" fill="none"/>
    </clipPath>
  </defs>
  <g id="Group_765" data-name="Group 765" transform="translate(0 85.054) rotate(-8)">
    <g id="Group_764" data-name="Group 764" clip-path="url(#clip-path)">
      <path id="Path_37767" data-name="Path 37767" d="M262.364,129.947c-15.3,16.4-83.7,6.113-128.556,2.817-39.545-2.905-85.373-3.34-111.253,27.011C13.1,170.858,7.505,185.87,9.911,200.3c3.815,22.877,25.994,38.19,48.064,44.588s45.605,6.668,67.428,13.879c17.838,5.9,36.606,22.369,30.973,40.458-2.36,7.583-8.532,13.188-14.015,18.89-19.868,20.659-33.59,52.526-20.519,78.126,16.712,32.734,64.327,32.709,97.278,16.952s61.485-42.371,97.295-49.27c30.477-5.872,61.506,3.489,91.758,10.45,56.946,13.1,122.4,15.99,167.867-21.053,18.263-14.88,32.452-39.29,25.052-61.786-13.854-42.115-84.824-38.519-100.014-80.162-8.632-23.66,6.185-49.29,22.863-68.05s36.812-36.866,41.655-61.6c4.668-23.843-7.5-49.588-27.839-62.566s-47.391-13.418-69.074-2.89C448.215,26.2,432.021,45,409.974,50.5c-27.9,6.961-55.642-9.208-83.427-16.639s-66.485,1.531-69.414,30.419c-1.56,15.39,8.331,29.623,9.891,45.012s-15.618,33.742-26.9,23.286" transform="translate(-0.2 -0.099)" fill="#bc756a"/>
      <path id="Path_37768" data-name="Path 37768" d="M199.712,131.61l-24.463-2.2c-14.829-1.453-32.338-3.509-50.908-4.726-18.535-1.2-38.36-1.423-57.088,2.3a108.558,108.558,0,0,0-20.42,6.341,105.3,105.3,0,0,0-23.349,13.711l-5.618,4.406A71.171,71.171,0,0,0,2.984,177.156a37.692,37.692,0,0,0-1.155,4.214s1.777-8.311-.463-.106a46.707,46.707,0,0,0-1.314,8.992,45.343,45.343,0,0,0,.987,11.983c2.848,12.106-1.283-9.129.561-.1a54.855,54.855,0,0,0,6.727,17.514,62.512,62.512,0,0,0,12.557,14.885c7.95,6.552,10.887,8.426,21.935,13.641,11.288,4.768,18.814,6.454,29.07,8.442,7.646,1.377,12.78,2.023,20.623,3.25,4.253.684,8.549,1.389,12.6,2.2a121.14,121.14,0,0,1,20.165,5.64,53.91,53.91,0,0,1,11.778,6.868c2.363,1.752,7.692,6.471,9.746,11.263,2.309,4.725,1.33,8.518,1.144,8.789-.377.323-.521,2.6-2.908,5.987-2.241,3.494-7.112,8-11.614,13.22l-.419-.39a108.7,108.7,0,0,0-16.625,23.905,88.673,88.673,0,0,0-8.767,25.134,28.586,28.586,0,0,0-.568,3.475l-.56-.069-.037,0a62.944,62.944,0,0,0,1.358,24.565,61.054,61.054,0,0,0,4.087,10.261c5.265,11.467,14.621,20.209,23.328,25.267l3.422,2.417c19.343,8.3,42.527,8.431,66.014,1.507,8.769-2.259,23.283-8.749,37.191-17.352l9.206-5.687,17.637-11.26c4.221-2.711,8.425-5.3,12.661-7.754,7.731-4.2,12.1-6.054,12.1-6.054s-3.553,1.968-1.758,1.274l1.954-.837c3.074-1.312,4.6-1.963,6.473-2.761,1.841-.685,3.962-1.731,8.294-3.221,8.764-3-6.7,1.561-.165-.551,6.481-2.5,20.667-4.607,29.219-4.144a164.816,164.816,0,0,1,21.907,1.838c10.6,1.6,17.357,3.347,27.162,5.531,7.364,1.686,12.363,2.83,20.175,4.62,4.346.918,8.76,1.992,13.078,2.78,11.906,2.519,24.748,4.328,33.074,5.263l5.987.57a284.923,284.923,0,0,0,31.992.771c5.532-.287,10.622-1.033,16.438-1.767,8.5-1.343,23.276-3.9,39.226-10.391a127.116,127.116,0,0,0,23.647-12.35,45.723,45.723,0,0,0,5.779-4.151,96.672,96.672,0,0,0,12.6-10.908,89.255,89.255,0,0,0,10.2-12.061c.057.035-4.433,6.639.388.277,4.414-6.7,4.762-6.579,8.973-17.562,3.509-11.306-3.377,8.063-.534-.2.282-.884.7-2.2,1.039-3.264a59.08,59.08,0,0,0,2.526-17.306c-.064-6.464-1.468-13.1-3.621-17.537a43.924,43.924,0,0,0-6.4-11.448c-2.253-3.206-5.233-6.281-10.049-10.351-9.88-7.8-16.7-11.236-26.147-15.71l-18.92-8.482-1.686-.81-2.884-1.341c-10.622-5.078-16.6-9.028-19.915-11.7a32.807,32.807,0,0,1-4.337-3.778,22.594,22.594,0,0,1-4.292-4.8,19.8,19.8,0,0,1-3.37-5.341,27.64,27.64,0,0,1-2.854-8.177c-.366-1.953-.466-3-.466-3-.1.044,1.363,5.663.471-.054-.249-5.835-.447-5.8.818-14.479,1.971-8.75-1.972,6.337-.552-.138,1.107-6.588,7.769-19.858,13.185-26.747,5.213-7.034,6.984-9.074,14.448-17.372,7.5-8.293,12.676-13.462,19.266-21.861a109.635,109.635,0,0,0,11.99-18.658,78.385,78.385,0,0,0,5.328-13.556,65.57,65.57,0,0,0,1.934-25.424,67.392,67.392,0,0,0-4.59-17.382,74.6,74.6,0,0,0-10.95-18.339c-5.143-6.548-11.262-11.01-11.546-11.565A47.565,47.565,0,0,0,536,8.6a68.481,68.481,0,0,0-20.109-6.617l.1-.565a84.781,84.781,0,0,0-54.061,8.108c-.988.47-2,1-2.916,1.523l-.295-.53a201.411,201.411,0,0,0-17.969,11.527l-7.039,5.25c-7.8,5.162-15.04,9.242-21.417,11.164-8.162,2.648-3.63,1.786-12.018,3.459a78.124,78.124,0,0,1-14.039.54l-6.038-.381s-2.4-.5-8-2.129c-5.626-1.578-14.324-4.668-27.614-9.368-13.48-4.533-13.743-4.28-14.23-4.446l-3.153-.7a85.345,85.345,0,0,0-16.01-2.1c-17.6-.167-23.745,2.624-29.187,4.381a68.211,68.211,0,0,0-8.895,3.886,49.044,49.044,0,0,0-14.144,10.767c-11.8,14.238-11.574,28.9-4.747,47.229l2.721,6.982a79.228,79.228,0,0,1,2.85,8.825c1.244,5.092,1.109,7.388.734,9.611a22.413,22.413,0,0,1-.721,3.069,31.125,31.125,0,0,1-1.85,4.069c-1,1.937-2.152,3.648-1.333,3.55.871-.166-1.26,2.347-3.748,3.775-2.5,1.517-4.786,1.544-3.9,1.7-4.22,1.687-6.185.537-5.826,1.867.238,1.019,3.217,3.19,7.106,2.958,6.108.6,14.5-9.753,8.84-2.169a15.261,15.261,0,0,1-5.7,3.875c-2.389.794-6.182,3.221-13.837.888-2.044-.919-3.91-2.278-3.461-1.718a23.136,23.136,0,0,0,2.785,2.422,16.828,16.828,0,0,0,10.612,2.723,22.775,22.775,0,0,0,12.063-5.362,37.519,37.519,0,0,0,11.409-16.6c1.033-2.215,2.037-8.419,1.253-12.95-.545-4.16-1.378-7.1-.677-5.883-2.943-12.958-8.5-23.772-8.419-33.286-.209-9.458,5.323-17.317,14.941-22.063,6.325-3.195,13.907-4.746,21.457-5.173a69.306,69.306,0,0,1,21.238,1.878c7.152,1.833,14.657,4.562,22.224,7.3l7.638,2.781c9.28,2.779,26.868,9.345,44.487,9.109a68.868,68.868,0,0,0,22.348-3.894,68.282,68.282,0,0,0,8.656-3.65s-2.079,1.173-4.609,2.315c-2.445,1.236-5.439,2.278-6.565,2.815-1.2.428-.5.457,3.913-1.137,4.346-1.573,12.464-5.26,23.448-13,10.941-7.678,19.96-14.7,28.385-18.843a65.272,65.272,0,0,1,39.339-6.154,41.013,41.013,0,0,1,5.682,1.163,53.862,53.862,0,0,1,8.065,2.923,51.059,51.059,0,0,1,17.383,13.022,53.774,53.774,0,0,1,12.437,27.04c1.694,10.581-1.006,21.346-6.616,31.143-11.5,19.63-30.2,34.751-41.266,50.06-11.242,14.856-15.145,26.929-15.145,26.929-4.952,12.482-6.91,28.207-1.539,42.467,5.212,14.259,16.595,24.6,27.523,31.326,22.017,13.525,45.617,19.405,61.235,32.429,7.691,6.143,12.154,13.851,13.132,22.209l-.561.056.011,1.854a37.4,37.4,0,0,1-2.755,14.772,62.37,62.37,0,0,1-9.252,15.925l-.443-.359c-4.932,7.242-14.62,14.236-15.6,14.325-.469.679-16.748,10.245-21.816,12.034a149.907,149.907,0,0,1-27.768,8.028l-9.85,1.576c-6.1.659-9.984,1.226-15.82,1.474a208.915,208.915,0,0,1-22.136-.087c-8.74-.475-11.145-.561-18.3-1.491-7.167-.734-19.53-3.025-25.428-4.013-5.915-.949,7.9,1.689-.108.564a119.739,119.739,0,0,1-13.549-2.609c-5.588-1.4.106-.468.106-.468l-11.247-2.769-12.352-2.609-5.425-1.105c-3.99-.775-10.487-2.157-20.924-3.6a144.7,144.7,0,0,0-33.813-.889,113.817,113.817,0,0,0-18.931,3.738c-29.7,7.585-54.123,26.407-79.7,40.732l.3.535c-10.345,5.881-20.129,10.394-30.744,13.012a89.578,89.578,0,0,1-32,2.086,61.515,61.515,0,0,1-6.713-1.354c-8.024-1.33-21.282-7.255-26.5-17.836a35.549,35.549,0,0,1-4.595-14.136,45.353,45.353,0,0,1-.237-6.513c-.337.113.888,11.7.881,8.2a4.042,4.042,0,0,1-.093-.537,47.671,47.671,0,0,1,.144-13.2,54.2,54.2,0,0,1,1.525-7.215c.4-1.481.747-2.082.817-2.052l.2.066a69.158,69.158,0,0,1,3.615-9.133,83.389,83.389,0,0,1,6.6-12.006,99.937,99.937,0,0,1,10.026-12.163c3.964-4.236,9.052-9.013,12.815-16.363a32.8,32.8,0,0,0,1.857-24.906c-.186.248-.591-4.82-6.9-13.014-6.522-7.79-8.157-7.528-8.041-7.714a49.536,49.536,0,0,1,11.937,14.627c-11.6-20.342-33.834-27.757-52.466-31.189l-9.2-2.2s5.127.524.06-.361c-12.264-2.03-17.136-2.454-17.136-2.454l-.028.177-2.208.015c-13.458-2.291-25.9-5.126-36.275-10.893-1.675-1.032-3.294-2.125-4.841-3.287a57.258,57.258,0,0,1-7.541-6,43.373,43.373,0,0,1-9.216-11.6,24.274,24.274,0,0,1-1.934-5.2l-.322-1.4a30.546,30.546,0,0,1-.92-12.436,38,38,0,0,1,1.54-7.477l1.256-3.045a47.1,47.1,0,0,1,2.642-5.088l3.852-6.106.115-.261a46.836,46.836,0,0,0-6.739,10.587A51.7,51.7,0,0,1,33.53,162.288a58.213,58.213,0,0,1,16.8-11.878l5.107-1.83,2.641-.718s-4.124,1.772.118.345a110.535,110.535,0,0,1,11.464-3.3l3.639-.878-.03-.177.8-.317,1.165-.409a185.314,185.314,0,0,1,31.824-2.334l5.859.14c5-.091,10.038-.065,15.106.028l10.982,1.086,17.951.714,9.069,1.313c8.1.817,15.077.649,19.985,1.058l11.414.884.083-.01c5.324-.486,8.419.989,9.782.293,0,0,2.087.171,6.72.2a158.431,158.431,0,0,0,22.076-1.315c10.279-1.345,15.375-3.388,17.736-4.283,2.37-.918,2.12-.9,2.12-.9l2.225-1.188a19.609,19.609,0,0,0,5.745-4.348c4.249-5.214-2.02,2.667-15.32,5.345-13.174,2.316-3.749-.526-3.749-.526l-3.526.314c-2.759.184-7.5.618-15.444.821-15.912-.182,6.044-.01,19.149-3.015,12.88-3.491,4.243-2.931,4.752-3.257.227-.169,4.7-2.173,6.413-3.914,1.571-1.775,1.968-1.894-5.423.779-8.9,2.519-18.4,2.759-25.131,3.036-6.823.114-11.179.032-11.179.032s9.588-1.06-14.745-2.466" transform="translate(0 0)" fill="#a7675d"/>
    </g>
  </g>
</svg>
