<svg xmlns="http://www.w3.org/2000/svg" width="192.487" height="191.067" viewBox="0 0 192.487 191.067">
  <g id="bench_8098720" transform="translate(0 -1.888)">
    <path id="Path_1122" data-name="Path 1122" d="M192.46,36.933a4.152,4.152,0,0,0-4.583-3.67q-3.2.308-6.4.559c.091-3.5.072-6.992-.117-10.473-.323-4.3-2.382-24.337-9.445-15.358-2.863,8.6-2.164,17.71-.664,26.527C121.813,37.3,71.83,32.035,22.287,31.539c.77-7.743,1.77-15.465,2.64-23.124a5.716,5.716,0,1,0-11.372-.659c.191,7.606.246,15.69.295,23.751-2.747,0-5.493.021-8.237.062-7.7.15-7.387,11.735.381,11.385l7.931-.409c.031,3.535.071,7.021.134,10.409a117.263,117.263,0,0,1-.6,15.106c-.679,6.3,9.244,6.136,8.286-.185a150.83,150.83,0,0,1-.345-25.628c50.255-1.438,100.686.8,150.969-.253a151.441,151.441,0,0,1-.476,27.373,3.188,3.188,0,0,0,6.329.773c.954-9.368,2.21-18.869,2.866-28.367q3.631-.105,7.261-.234A4.158,4.158,0,0,0,192.46,36.933Z" transform="translate(0 0)" fill="#bc756a"/>
    <g id="Group_473" data-name="Group 473" transform="translate(3.82 18.392)">
      <path id="Path_1123" data-name="Path 1123" d="M417.822,211.816c-13.9,2.685-34.565,3.6-35.418-15.05-1.1-40.419-2.963-89.11-3.083-129.535,0-4.06.054-8.116.13-12.171a2.564,2.564,0,0,0-5.122-.22c-2.463,44.315-1.359,96.244-1.783,140.715.109,27.427,25.36,31.281,47.281,27.476A5.7,5.7,0,1,0,417.822,211.816Z" transform="translate(-236.306 -49.935)" fill="#f2d499"/>
      <path id="Path_1124" data-name="Path 1124" d="M233.947,323.676a50.987,50.987,0,0,1-10.432.282c-9.992-.64-21.412-.964-31.488-1.139-8.486.071-7.253,12.944,1.13,11.336a118.626,118.626,0,0,1,12.457-2.1c.512-.059,1.027-.113,1.541-.168a5.765,5.765,0,0,0,0,.7c1.107,16.079,1.755,33.533,2.831,49.808-6.858-.87-14.251-1.235-20.6,1.947-7.587,7.433,10.52,9.986,15.219,8.465,8.467-2.294,17.38-2.328,26.1-2.269,4.084.312,4.478-6.129.369-6.3-5.165-.275-10.292-.643-15.412-1.18,1.2-16.68,2.228-34.021,2.89-50.595a5.554,5.554,0,0,0-.124-1.412q2.476-.1,4.942-.146a38.538,38.538,0,0,1,10.151,1.041,4.241,4.241,0,1,0,.434-8.279Z" transform="translate(-120.039 -218.669)" fill="#f2d499"/>
      <path id="Path_1125" data-name="Path 1125" d="M58.283,49.048a3.21,3.21,0,0,0-6.419-.108c-1.134,43.717-.446,88.732-.683,132.422-.124,5.107-.411,10.29-.848,15.386-.179,5.234-1.382,10.966-7.155,12.414-9.657,2.742-20.168.153-30.109,1.276a3.214,3.214,0,0,0-.127,6.385c16.443,2.993,44.008,9.723,48.107-13.788,2.149-15.538,1.329-31.277-.091-46.838-3.049-35.466-2.9-71.582-2.675-107.149Z" transform="translate(-10.16 -45.788)" fill="#f2d499"/>
    </g>
  </g>
</svg>
