<svg id="Group_362" data-name="Group 362" xmlns="http://www.w3.org/2000/svg" xmlns:xlink="http://www.w3.org/1999/xlink" width="93.972" height="69.561" viewBox="0 0 93.972 69.561">
  <defs>
    <clipPath id="clip-path">
      <rect id="Rectangle_207" data-name="Rectangle 207" width="93.972" height="69.561" fill="#bc756a"/>
    </clipPath>
  </defs>
  <g id="Group_361" data-name="Group 361" clip-path="url(#clip-path)">
    <path id="Path_1044" data-name="Path 1044" d="M178.263,12.178l.488-.381,2.1-1.6.374-.327c.468-.39.775-.234.775-.234l.279-.256.3-.184s-.1.158.049.072a.915.915,0,0,0,.327-.277c.175-.191-.2.037-.058-.088a5.7,5.7,0,0,1,.677-.435,4.98,4.98,0,0,0,.49-.31l.61-.354.436-.27.288-.15.885-.362c.163-.068.732-.336.784-.282s.425-.092.678-.266l.042.1.6-.256.548-.185.073-.016.038.1,0,.006.484-.123.194-.1c.251-.031.489-.062.7-.067l.112.076a9.813,9.813,0,0,1,1.29-.687A8.217,8.217,0,0,1,192.707,5l.246-.077.486-.158.354-.126.344-.051s-.094.066-.041.082a.153.153,0,0,0,.057,0,1.063,1.063,0,0,0,.182-.028l.224-.094c.233-.107-.2-.045-.018-.1a5.222,5.222,0,0,1,.786-.129,4.982,4.982,0,0,0,.567-.089l.694-.081.5-.073.321-.022.8.022.143,0a5.726,5.726,0,0,1,.757.03l.386-.073.944-.07.778-.03L201.6,3.9l.349.046s-.18.056-.006.087a.816.816,0,0,0,.429-.016c.256-.047-.179-.091.009-.1h.073a5.28,5.28,0,0,1,.728.081c.224.036.3.028.577.052l.7.1a4.973,4.973,0,0,1,.508.058l.047.009.081.009.779.082.381.028.342.093s-.188.031-.019.085a.928.928,0,0,0,.428.051c.26,0-.164-.12.025-.1a5.637,5.637,0,0,1,.783.2,4.417,4.417,0,0,0,.528.145c.255.064.41.158.644.224a4.455,4.455,0,0,1,.478.158l.295.126c.34.157.693.386.837.455s.725.36.716.432.342.274.639.362l-.048.093.581.308.5.309.06.046-.055.1.407.3.2.085a6.234,6.234,0,0,1,.484.482c.231.118.137.008.389.086a1.724,1.724,0,0,0,.64.052s.205.175.774.566,0,0,.694.4.588.164,1.089.633a5.393,5.393,0,0,0,.8.647s.335.139.4.183a1.829,1.829,0,0,0,.372.179s.213.172.329.007.207.3.249.172c.523-.031.582-.3.661-.626.082-.254-.181-.43.151-.442.182,0,.028.184.582.072.168-.033.2.061.063-.321l-.407-.63c-.009-.151-.378-.312-.235-.367a19.6,19.6,0,0,0-1.481-1.406L218.639,7,217.6,6.167l-.172-.138a9.073,9.073,0,0,1-1.55-1.109s.86.379-.322-.367a10.9,10.9,0,0,0-2.206-1.063l-2.764-1.344a8.994,8.994,0,0,0-1.806-.668,7.209,7.209,0,0,0-.763-.15,34.229,34.229,0,0,0-3.838-.661l-.936-.029.011-.1-.066-.019-.524-.079-.595-.046.007-.1c-.279.036-.645,0-.665-.072s-.6-.1-.757-.114l-.873-.092-.3-.009-.47.035-.648.016c-.254.019-.322.041-.531.042a4.816,4.816,0,0,0-.739.044c-.169.039.233.024.008.1a.721.721,0,0,1-.387.084c-.162,0-.008-.087-.008-.087l-.324.012-.34.085-.7.148c-.359.069-.671.142-.851.2l-.463.166a22.462,22.462,0,0,0-2.388.346l.027.108c-.655.13-1.317.288-1.958.463l-.217.052c-.475.264-1.725.787-1.725.787s.354-.193.228-.191l-.017.008-.4.2c-.2.113-.271.148-.285.113l-.014-.035-.275.14-.352.241-.425.21-.857.464-.295.092c-.211.074-.2.163-.2.163l.4-.138-1.328.693-.265.034s.091-.122-.031-.059a1.289,1.289,0,0,0-.391.271l.016.029-.02.089-.981.538-.193.029-.288.116-.44.244a.864.864,0,0,1-.259.063l-.4.235-.211.168-.1.049-.174.091c-.147.08-.17.148-.172.178v.016l.372-.2c-.4.289-.554.555-.966.865l-.172.049-.086.025s.073-.132-.04-.053a1.094,1.094,0,0,0-.348.328l.02.026,0,.038,0,.054-.683.621L178,8.5l-.236.374-.264.162-.26.449a.852.852,0,0,1-.243.1c-.172.141-.219.367-.318.455l-.231.205v0c0,.2-.234.086-.16.212,0,0-.2.115-.423.651s-.171.54-.171.54a.564.564,0,0,0-.039.252c0,.179.211.139.452-.1s.221.083.221.083.121.007.406-.293,0,.219-.174.53.154.319.19.371-.03.673.329.376a6.042,6.042,0,0,0,.681-.678s.025.366.508-.022" transform="translate(-128.171)" fill="#bc756a"/>
    <path id="Path_1045" data-name="Path 1045" d="M231.548,58.1l.24-.182c.3-.229.846-.568,1.41-.935l.268-.237a.5.5,0,0,1,.6-.1l.188-.2.214-.127s-.061.128.05.072.111-.056.218-.21-.151.011-.059-.086a2.617,2.617,0,0,1,.465-.314,2.477,2.477,0,0,0,.327-.231l.408-.256.284-.2.192-.106c.231-.111.5-.2.6-.239s.478-.236.524-.179.291-.037.443-.171l.043.1.385-.164.355-.111.048-.007.036.1,0,.006.32-.051.121-.075a2.907,2.907,0,0,1,.471.03l.081.088a4.518,4.518,0,0,1,.83-.511l.588-.206.167-.047.328-.105.239-.09.235-.015s-.064.055-.027.077a.083.083,0,0,0,.039.01.366.366,0,0,0,.124-.012l.151-.076c.159-.085-.134-.062-.013-.1a2.62,2.62,0,0,1,.538-.062,2.572,2.572,0,0,0,.389-.049l.477-.037.346-.046.222-.005.556.049.1.01a2.965,2.965,0,0,1,.526.042l.27-.065c.141-.02.382-.058.661-.072l.547-.049.267-.043.247.028s-.126.066,0,.087a.431.431,0,0,0,.3-.036c.181-.058-.128-.083,0-.1l.052,0a2.368,2.368,0,0,1,.513.037,2.373,2.373,0,0,0,.391.032l.474.057.347.016.032,0h.055a4.328,4.328,0,0,0,.535,0l.264-.022.236.046s-.131.056-.015.086.116.031.3-.015-.113-.09.019-.1a2.687,2.687,0,0,1,.548.062c.15.03.209.015.393.037l.447.111.328.071.2.066.561.282c.1.053.485.2.471.277s.213.2.418.226l-.045.095.376.188.314.2.036.034-.054.1.248.207.133.048a3.359,3.359,0,0,1,.265.361c.145.074.1-.011.269.025a1.135,1.135,0,0,0,.469-.036,4.874,4.874,0,0,0,.461.41c.341.285,0-.007.441.274s.417.095.7.449a2.052,2.052,0,0,0,.481.488s.235.1.284.13a1.04,1.04,0,0,0,.269.126.193.193,0,0,0,.279-.011c.149-.149.11.23.176.126a.828.828,0,0,0,.723-.554c.132-.213-.053-.338.238-.37.158-.015-.02.149.486.02.154-.038.156.036.132-.266a4.329,4.329,0,0,1-.192-.492c.03-.126-.246-.242-.109-.295a10.734,10.734,0,0,0-.91-1.159l-.321-.416c-.222-.242-.457-.471-.7-.7l-.117-.116a5.386,5.386,0,0,1-1.1-.907s.658.277-.217-.312a5.655,5.655,0,0,0-1.684-.75l-2.1-.87a3.988,3.988,0,0,0-1.848-.369l-2.748-.261c-.228,0-.451-.008-.657.01l.005-.1-.045-.014-.355-.047-.4-.017,0-.1c-.189.055-.437.023-.451-.049s-.406-.081-.515-.092l-.6-.089-.2-.007-.322.025-.447.007a2.536,2.536,0,0,1-.367.024,2.3,2.3,0,0,0-.513.019c-.118.033.162.032,0,.1s-.157.075-.27.064,0-.087,0-.087l-.227-.006-.238.067-.5.1a5.1,5.1,0,0,0-.6.138l-.328.126a16.062,16.062,0,0,0-1.714.12l.022.109q-.713.1-1.43.247l-.161.028a13.078,13.078,0,0,1-1.267.59s.259-.147.162-.159l-.012.007-.3.148c-.142.092-.2.12-.211.084l-.014-.035-.2.111a1.946,1.946,0,0,1-.252.2l-.309.164-.611.369-.217.062c-.154.054-.131.14-.131.14l.288-.1-.931.537-.2.008s.052-.1-.034-.058a.632.632,0,0,0-.263.213l.017.028v.081l-.678.394-.145.006-.2.076-.305.166a.51.51,0,0,1-.192.025l-.271.162-.139.119-.074.029-.122.056c-.1.05-.109.107-.106.133l0,.015.259-.127c-.264.2-.345.417-.625.618l-.128.014-.064.007s.038-.1-.039-.054a.6.6,0,0,0-.227.223l.019.026,0,.032,0,.046c-.18.125-.275.283-.466.41l-.1.069-.17.3-.216.111-.2.383a1,1,0,0,1-.214.081c-.148.124-.164.345-.248.432l-.2.215v0c.034.193-.215.119-.119.231,0,0-.2.149-.234.76,0,.6.079.567.079.567a.5.5,0,0,0,.105.226c.107.139.24,0,.325-.275s.228-.009.228-.009.1-.038.235-.325c.154-.278.06.178.078.435s.3.168.353.2.381.352.473.15a3.589,3.589,0,0,0,.184-.383.26.26,0,0,0,.379.051" transform="translate(-167.178 -35.781)" fill="#bc756a"/>
    <path id="Path_1046" data-name="Path 1046" d="M256.422,108.659l.235-.182.946-.819.138-.191a.345.345,0,0,1,.446-.057l.09-.16.134-.1s-.012.107.06.064.072-.043.112-.172-.115,0-.071-.077a1.154,1.154,0,0,1,.281-.252,1.229,1.229,0,0,0,.194-.19l.252-.213.169-.172.122-.09c.15-.1.336-.173.4-.211s.3-.221.358-.169.217-.04.294-.172l.061.085.248-.173.238-.127.035-.009.058.087,0,.006.224-.078.068-.08a2.2,2.2,0,0,1,.359-.024l.089.071a3.166,3.166,0,0,1,.429-.582,3.41,3.41,0,0,1,.345-.279l.1-.072.189-.155.13-.128.155-.055s-.024.062.009.075l.03,0a.186.186,0,0,0,.081-.032.563.563,0,0,0,.075-.1c.075-.112-.112-.03-.047-.094a1.258,1.258,0,0,1,.336-.166,1.46,1.46,0,0,0,.239-.126l.3-.133.208-.12.141-.055.377-.075.067-.014a1.4,1.4,0,0,1,.348-.085l.148-.123.392-.222.326-.179.154-.1.164-.031s-.058.091.026.083.084-.008.177-.107-.106-.047-.031-.1l.031-.016a1.287,1.287,0,0,1,.333-.094,1.138,1.138,0,0,0,.26-.086l.322-.087a1.712,1.712,0,0,1,.228-.086l.022,0,.036-.014a2.18,2.18,0,0,0,.346-.144l.163-.092.167-.019s-.066.088.019.085.085,0,.189-.089-.1-.058-.021-.1a1.316,1.316,0,0,1,.378-.074,1.167,1.167,0,0,0,.269-.068c.127-.04.216-.022.332-.055l.238-.063.154-.018a4.28,4.28,0,0,1,.462.017c.085,0,.383-.037.4.032s.212.068.348-.008l.011.1.309-.027.276.006.036.009.009.11.239.037.1-.035a2.848,2.848,0,0,1,.32.147c.12-.028.053-.068.169-.141a.9.9,0,0,0,.254-.315,1.666,1.666,0,0,0,.454.033c.327-.006,0,0,.376-.083s.271-.207.6-.148a1.055,1.055,0,0,0,.5,0s.172-.107.212-.122a.668.668,0,0,0,.2-.115s.138-.021.131-.221.175.062.152-.055a1.132,1.132,0,0,0,.053-.91c-.047-.237-.2-.174-.077-.418.065-.131.066.11.231-.361.05-.143.087-.1-.072-.271a1.965,1.965,0,0,1-.325-.167c-.047-.106-.228.02-.19-.116-.306-.066-.623-.111-.96-.152l-.339-.089-.643-.068-.107-.016a2.161,2.161,0,0,1-.933-.062s.449-.147-.237-.138a3.514,3.514,0,0,0-1.181.237,9.806,9.806,0,0,1-1.477.128,3,3,0,0,0-1.236.222c-.614.149-1.224.313-1.825.506l-.417.2-.029-.1h-.035l-.255.048-.278.087-.032-.1c-.11.1-.288.13-.321.065s-.3.027-.378.045l-.43.066-.14.043-.207.1-.295.117a1.025,1.025,0,0,1-.237.11,1.167,1.167,0,0,0-.337.135c-.067.057.12-.007.041.1s-.077.106-.156.122-.034-.08-.034-.08l-.152.047-.134.117a2.018,2.018,0,0,1-.294.2,2.617,2.617,0,0,0-.351.253l-.174.183a10.171,10.171,0,0,0-1.113.409l.054.1-.9.411-.1.043a4.664,4.664,0,0,1-.7.643s.135-.152.062-.157L259.2,102l-.163.153c-.073.089-.1.117-.125.085l-.021-.031-.109.109a.909.909,0,0,1-.121.188l-.176.154-.347.336-.145.057c-.1.047-.06.124-.06.124l.191-.088-.565.472-.155,0s.013-.091-.042-.052a.341.341,0,0,0-.151.183l.021.025.02.072-.436.335-.115,0-.145.063-.206.139a.369.369,0,0,1-.15.019l-.18.14-.084.1-.053.024-.087.048c-.071.044-.062.095-.053.118l.006.013.181-.11c-.166.177-.175.367-.356.542l-.1.013-.051.007s0-.093-.047-.047a.349.349,0,0,0-.129.2l.023.023.012.028.016.04c-.115.11-.158.26-.27.366l-.058.057-.044.241-.137.078-.041.287a.349.349,0,0,1-.146.034c-.082.072-.037.232-.084.278l-.108.105v0c.068.147-.15.019-.052.123,0,0-.113.051-.113.385s.039.348.039.348a.355.355,0,0,0,.05.169c.058.126.208.138.318.016s.2.1.2.1.1.029.221-.127.073.157.035.338.222.253.267.3.194.464.375.327a1.168,1.168,0,0,0,.3-.343.24.24,0,0,0,.377.081" transform="translate(-185.52 -71.296)" fill="#bc756a"/>
    <path id="Path_1047" data-name="Path 1047" d="M62,55.943a7.394,7.394,0,0,0-.153-.808,3.184,3.184,0,0,0-.439-1.046c-.154-.212.142.324-.089.054a2.558,2.558,0,0,1-.374-.454c-.142-.195.068-.055.068-.055a3.167,3.167,0,0,0-.318-.373,4.3,4.3,0,0,0-.437-.3l-.417-.249c.121.07-.133-.027-.553-.147a7.6,7.6,0,0,0-1.1-.275,1.8,1.8,0,0,0-.459-.014l-1.9-.5-.019.11-1.592-.352-.176-.045A12.017,12.017,0,0,1,52.5,51.43s.33,0,.24-.062h-.016l-.366-.014c-.185.008-.253,0-.248-.034l.005-.038-.252-.006a2.167,2.167,0,0,1-.35.038l-.386-.027-.8-.034-.243-.074c-.178-.045-.211.038-.211.038l.334.086-1.222-.118-.193-.117s.119-.051.007-.066a.878.878,0,0,0-.39.007l0,.032-.057.062-.909-.12-.14-.088-.245-.072-.405-.071a.668.668,0,0,1-.2-.1l-.374-.051h-.22l-.09-.026-.157-.037c-.134-.029-.184.009-.2.031l-.009.013.339.074c-.4-.02-.641.092-1.063.062l-.133-.073-.066-.036s.117-.055,0-.067a.867.867,0,0,0-.391.022l0,.032-.022.027-.032.038c-.266-.02-.5.04-.758.015l-.136-.012-.353.115-.25-.059-.189.065c0-.218,0-.424,0-.647l.035-.711-.013-1.338,0-.222a8.19,8.19,0,0,1-.031-1.929s.187.931.118-.478A15.678,15.678,0,0,0,42.153,43a29.757,29.757,0,0,1-.141-3.054,14.943,14.943,0,0,0-.177-2.58l-.335-3.88c-.043-.312-.095-.632-.173-.981l.1-.014v-.079l-.077-.63c-.05-.242-.106-.489-.184-.746l.1-.03a2.872,2.872,0,0,1-.3-.915c.091-.03-.4-.929-.655-1.189a4.36,4.36,0,0,0-1.267-1.118,3.669,3.669,0,0,0-.529-.242,3.786,3.786,0,0,0-.9-.188,4.561,4.561,0,0,0-1.262.013,6.818,6.818,0,0,0-.938.247,3.963,3.963,0,0,0-1.106.535c-.223.172.341-.167.056.089a2.506,2.506,0,0,1-.474.4c-.2.138-.054-.068-.054-.068l-.375.3-.31.381L32.6,30a7.877,7.877,0,0,0-.509.862l-.2.467-1.416,1.957.095.059-1.127,1.669-.13.183a18.393,18.393,0,0,1-.827,1.725s.158-.374.06-.293l-.008.018-.2.408c-.085.211-.122.287-.155.268l-.033-.019-.129.283a3.212,3.212,0,0,1-.136.409l-.218.427-.425.891-.189.249c-.131.184-.069.251-.069.251l.246-.347L26.529,40.8l-.205.176s.011-.152-.059-.032a1.322,1.322,0,0,0-.185.444l.029.015.031.086-.558.987-.151.127-.187.251-.264.434a.917.917,0,0,1-.194.185l-.23.4-.107.249-.069.093-.111.163c-.092.14-.081.211-.069.239l.008.015.234-.357c-.214.447-.225.76-.46,1.224l-.133.123-.066.061s.006-.152-.06-.03a1.253,1.253,0,0,0-.17.45l.029.015.014.035.02.05c-.149.292-.209.58-.358.86l-.077.148-.066.441-.177.258-.072.518a.927.927,0,0,1-.187.191c-.107.2-.062.429-.125.548l-.146.277,0,0c.018.049-.014.059-.028.086-.087,0-.158,0-.128-.072L20.633,49.3l-.569-.1-1.076-.1-.178-.022a5.367,5.367,0,0,1-1.551-.138s.761-.1-.375-.159a10.235,10.235,0,0,0-1.992.09,19.532,19.532,0,0,1-2.464-.128,9.272,9.272,0,0,0-2.133-.026c-1.086.027-2.19.078-3.311.21l-.8.168-.013-.1-.061,0-.466.035-.523.085-.018-.1a2.247,2.247,0,0,1-.986.174,4.7,4.7,0,0,0-1.163.228,10.78,10.78,0,0,0-1.267.384,1.134,1.134,0,0,0-.33.2l-.44.36a2.078,2.078,0,0,0-.475.537,5.241,5.241,0,0,0-.267.561,1.894,1.894,0,0,0-.162.864c.024.177.046-.226.109.018A.941.941,0,0,1,.2,52.7c0,.147-.1-.01-.1-.01a1.72,1.72,0,0,0,.037.315,3.049,3.049,0,0,0,.3.4l.61.817a4.55,4.55,0,0,0,.784.919l.505.441L3.775,57.4l.081-.076,1.072,1.255.115.143a13,13,0,0,1,1.217.992s-.27-.2-.232-.1l.013.009.288.234c.154.107.208.15.181.178l-.027.027.2.156a2.216,2.216,0,0,1,.308.179l.3.256.632.506.155.2c.118.144.193.1.193.1L8.049,61.2l.931.826.089.21s-.126-.03-.045.049a.858.858,0,0,0,.322.228l.022-.024.083-.017.677.636.063.155.16.2.294.295a.648.648,0,0,1,.1.2l.276.263.182.128.06.074.108.121c.094.1.158.1.185.091l.015-.006-.239-.257c.323.248.582.3.912.571l.068.136.034.068s-.128-.023-.042.052a.907.907,0,0,0,.336.209l.021-.026.034-.009.048-.013c.207.172.432.264.633.43l.106.087.357.111.171.194.421.123a.26.26,0,0,1,.028.048c-.256.664-.54,1.488-.795,2.248l-.106.481c-.138.585-.476.655-.476.655l-.056.374-.118.331s-.018-.187-.084-.024a.809.809,0,0,0-.073.421c-.007.258.126-.157.1.028a5.613,5.613,0,0,1-.227.768,5.111,5.111,0,0,0-.149.556l-.2.672-.12.494-.1.307-.347.886c-.059.165-.236.765-.312.77s-.212.382-.238.687l-.1-.029-.185.624-.192.546-.032.068-.1-.028-.006,0-.2.463-.033.217-.36.614-.127.051c-.019.432-.066.923-.147,1.474l-.192.927-.057.256-.1.52-.052.394-.112.36s-.016-.122-.055-.076a.183.183,0,0,0-.03.055.915.915,0,0,0-.055.2c0,.045,0,.118-.005.27,0,.285.12-.184.1.023L8.913,84.13a5.876,5.876,0,0,0-.07.99,4.243,4.243,0,0,0,.088,1.126,3.262,3.262,0,0,0,.276.69l.078.145a2.407,2.407,0,0,0,.181.264,2.717,2.717,0,0,0,.948.78,1.989,1.989,0,0,0,.2.094,5.944,5.944,0,0,0,1.165.272,4.561,4.561,0,0,0,.653-.084,6.733,6.733,0,0,0,1.559-.467,4.263,4.263,0,0,0,.989-.507l.33-.225.338-.15s-.133.146.04.078a.822.822,0,0,0,.374-.25c.2-.184-.205.025-.049-.092l.064-.041a7.472,7.472,0,0,1,.666-.358,3.976,3.976,0,0,0,.51-.308l.624-.364.433-.291.042-.024.068-.048.644-.468.295-.25.311-.176s-.113.155.047.074a.849.849,0,0,0,.339-.275c.178-.193-.2.038-.057-.088a6.641,6.641,0,0,1,.68-.446,5.284,5.284,0,0,0,.479-.335l.588-.4.411-.311.273-.179.831-.481c.152-.092.668-.458.729-.415s.4-.172.616-.4l.061.085.533-.385.49-.32.067-.034.065.089.441-.252.159-.155.633-.266c.2-.172.059-.125.225-.331a1.568,1.568,0,0,0,.272-.581,6.921,6.921,0,0,0,.786-.542c.547-.417,0,0,.585-.542s.321-.512.9-.887c.075-.049.128-.09.191-.133.477.493,1.144,1.114,1.743,1.664l.369.268c.445.334.364.664.364.664l.3.185.235.225s-.168-.051-.056.068a.7.7,0,0,0,.332.217c.219.1-.082-.17.067-.081a4.828,4.828,0,0,1,.565.48,4.358,4.358,0,0,0,.416.334l.494.42.375.285.223.2.616.63c.118.112.559.487.531.557s.239.328.491.461L37,83.612l.459.39.389.37.045.053-.066.08,0,.005.316.343.173.108.377.545-.01.133a12.951,12.951,0,0,1,1.206.66l.718.506.2.143.411.278.32.189.264.23s-.112-.029-.088.022a.155.155,0,0,0,.035.047.846.846,0,0,0,.147.12l.231.1c.247.1-.109-.175.062-.084s.491.339.69.477a6.1,6.1,0,0,0,.752.432,7.66,7.66,0,0,0,1.016.47,5.285,5.285,0,0,0,.743.181,4.269,4.269,0,0,0,.466.064,3.506,3.506,0,0,0,1.16-.063l.173-.046.03-.01a4.307,4.307,0,0,0,.969-.55,2.87,2.87,0,0,0,.331-.471,3.853,3.853,0,0,0,.5-1.286,3.434,3.434,0,0,0,.075-1.194l-.069-.594-.028-.548s.1.273.087-.007a.764.764,0,0,0-.088-.412c-.088-.227-.06.181-.1.01l-.012-.067c-.034-.186-.048-.491-.06-.68a4.4,4.4,0,0,0-.069-.534c-.028-.265-.043-.41-.068-.653L48.6,81.9l0-.044-.014-.074a6.975,6.975,0,0,0-.144-.714l-.094-.342c-.012-.207-.02-.327-.02-.327s.089.154.087-.011a.7.7,0,0,0-.1-.389c-.1-.223-.054.181-.1.013a4.926,4.926,0,0,1-.095-.741,4.128,4.128,0,0,0-.084-.531c-.035-.263-.055-.406-.087-.647-.032-.171-.055-.291-.089-.466l-.035-.3c-.015-.331-.035-.743-.041-.884-.014-.162-.1-.738-.029-.771s.038-.405-.064-.672l.1-.015-.088-.6-.048-.534v-.069l.109-.016-.011-.466-.059-.2.073-.627c-.056-.232-.081-.1-.181-.323a1.408,1.408,0,0,0-.373-.47,6.187,6.187,0,0,0-.085-.87c-.089-.623,0,0-.178-.708s-.279-.484-.312-1.115a3.672,3.672,0,0,0-.132-.893l.52-.166,1.014-.416.17-.066a5.809,5.809,0,0,1,1.446-.638s-.623.472.411-.049a9.346,9.346,0,0,0,1.7-1.1s1.142-.717,2.192-1.216a8.847,8.847,0,0,0,1.795-1.133c.894-.615,1.722-1.184,2.64-1.89l.617-.587.066.079.056-.032.4-.311.424-.412.075.073c.152-.244.422-.528.494-.506s.469-.485.575-.661a4.912,4.912,0,0,0,.576-.96,3.464,3.464,0,0,0,.15-.428,3.78,3.78,0,0,0,.129-.73A4.952,4.952,0,0,0,62,55.943M23.1,50.8c-.009-.019-.021-.018-.032-.034a1.01,1.01,0,0,0,.077-.129c.149-.326.1.032.037.373-.03-.069-.046-.138-.083-.211m34.865,5.555-.009.029c0,.028-.009.112-.057.135l.047.08a.7.7,0,0,1-.089.371l-.21.4-.121.221-.181.163s.039-.136-.062-.061-.095.074-.187.246.155-.036.071.077l-.036.041a2.831,2.831,0,0,1-.431.36,4.628,4.628,0,0,0-.357.3l-.471.342-.347.271-.035.023-.055.044-.528.434-.245.226-.266.155s.089-.144-.048-.073-.138.071-.285.246.179-.025.057.088a4.358,4.358,0,0,1-.59.383,3.889,3.889,0,0,0-.42.283l-.522.327-.368.256-.244.143-.756.357c-.137.071-.613.346-.667.3s-.37.105-.569.288l-.052-.091-.5.281-.458.218-.062.021-.053-.1-.41.159-.154.116-.585.127c-.188.125-.063.107-.228.269a1.335,1.335,0,0,0-.3.493,6.193,6.193,0,0,0-.76.34c-.536.269,0,0-.586.376s-.352.408-.919.616a3.477,3.477,0,0,0-.821.4s-.23.233-.287.279a1.594,1.594,0,0,0-.271.259s-.215.126-.1.3-.315.082-.219.166c-.108.487.12.634.375.83a.285.285,0,0,0,.158.062c.012.075.02.136-.049.119.014.222.027.454.041.679,0,.025-.008.063,0,.074.019.31.037.615.056.934v.6l.08,1.114.009.185a5.7,5.7,0,0,1,.132,1.6s-.235-.754-.092.408a10.838,10.838,0,0,0,.433,2,19.084,19.084,0,0,1,.285,2.5,10.6,10.6,0,0,0,.276,2.1l.429,3.156.155.753-.1.01-.006.056.01.433.034.368-.1,0c.064.023.043.06-.03.043s-.082.007-.082.007a.33.33,0,0,1-.084-.038l-.006-.005.021.026c.008.016-.013-.014,0,0l.006.017,0,0s-.014-.034-.011,0l.019.125c0,.076-.006.074-.017.051a.345.345,0,0,1,0-.1l-.011-.026-.019.05s-.009.029-.057.04c.031.047-.188-.052-.321-.116l-.331-.125-1.36-1.272-.071.086-1.2-1.141-.129-.132a11.2,11.2,0,0,1-1.3-.886s.286.174.239.076l-.014-.009-.307-.211c-.162-.094-.219-.136-.194-.165l.024-.029-.212-.143a2.235,2.235,0,0,1-.32-.159l-.315-.237-.661-.474-.167-.2c-.126-.138-.2-.087-.2-.087l.237.261-.971-.791-.1-.208s.127.026.043-.051a.9.9,0,0,0-.331-.218L37.072,79l-.082.02-.695-.625-.067-.154-.163-.2-.3-.295a.651.651,0,0,1-.1-.2l-.279-.263-.181-.13-.059-.075-.108-.123c-.093-.1-.157-.1-.184-.093l-.015.006.237.261c-.32-.252-.579-.306-.906-.584L34.1,76.4l-.033-.069s.127.026.042-.052a.9.9,0,0,0-.331-.218l-.021.025-.034.008-.048.012c-.2-.179-.428-.274-.62-.451l-.1-.092-.352-.126-.163-.2-.415-.144a.648.648,0,0,1-.1-.2c-.133-.13-.341-.125-.421-.2l-.187-.179h0c-.184.035-.079-.2-.192-.112,0,0-.111-.16-.586-.292-.031-.009-.028,0-.055-.012.03-.048.048-.139,0-.395-.029-.162.056-.173-.3-.105a5.708,5.708,0,0,1-.587.271c-.14-.021-.315.287-.354.142l-1.5,1-.55.318-.992.658-.168.1a6.336,6.336,0,0,1-1.428.944s.6-.594-.424.127a13.308,13.308,0,0,0-1.682,1.4,19.537,19.537,0,0,1-2.243,1.491,13.29,13.29,0,0,0-1.884,1.262c-.941.629-1.885,1.26-2.843,1.829l-.661.461-.05-.091-.056.018-.41.19-.445.23-.048-.093c-.177.158-.461.276-.509.22-.025-.027-.143.012-.265.058s-.051.01-.083.019a.24.24,0,0,1-.026-.078v-.006l-.008.029c-.008.016,0-.015-.006,0s-.017.015-.017.015.02-.032-.009-.007l-.105.1-.063.036,0-.018a.422.422,0,0,1,.092-.068l.019-.026-.056.015a.061.061,0,0,1-.062-.025l-.068-.076c-.029,0-.047-.059-.044-.218l.667-1.918-.107-.03.593-1.691L13.884,80a13.075,13.075,0,0,1,.319-1.67s-.051.358.022.268l0-.017.077-.394c.025-.2.041-.274.078-.264l.036.01.051-.272a2.544,2.544,0,0,1,.024-.383l.1-.414L14.775,76l.119-.252c.08-.185,0-.233,0-.233l-.151.349.358-1.3.155-.19s.025.136.064.018a1.049,1.049,0,0,0,.075-.421l-.032-.009-.05-.071.312-.96.117-.136.125-.251.159-.423a.719.719,0,0,1,.148-.192l.136-.39.051-.235.046-.092.073-.161c.059-.137.033-.2.015-.221l-.011-.012-.151.349c.11-.427.06-.7.192-1.148l.1-.127.052-.063s.025.135.064.018a1.047,1.047,0,0,0,.075-.421l-.032-.009-.021-.029-.029-.042c.087-.278.089-.541.179-.809l.046-.142L16.95,68l.125-.251-.027-.47a.731.731,0,0,1,.147-.192c.069-.189-.016-.389.025-.5l.094-.264,0,0c-.1-.163.157-.169.03-.238,0,0,.01-.041.015-.051.159-.051.34-.134.147-.318-.042-.04-.076-.059-.117-.1a1.47,1.47,0,0,0,0-.239c-.062-.523-.106-.514-.106-.514a.521.521,0,0,0-.084-.226c-.079-.14-.224-.03-.324.226a.6.6,0,0,0-.1-.126l-.395-.373-1.742-1.533-.361-.245c-.434-.31-.346-.636-.346-.636l-.288-.171-.225-.212s.164.045.056-.067a.656.656,0,0,0-.317-.206c-.211-.093.075.165-.068.08a4.416,4.416,0,0,1-.537-.461,4.878,4.878,0,0,0-.392-.324l-.464-.411-.351-.281-.206-.2-.561-.625c-.106-.113-.508-.492-.475-.559s-.209-.324-.441-.465l.072-.076-.411-.4-.344-.377L8.94,57.14l.073-.074,0,0-.27-.351L8.591,56.6c-.116-.193-.224-.378-.3-.55l.026-.128a10.237,10.237,0,0,1-1.089-.73l-.628-.551-.168-.158-.34-.3-.262-.209a1.558,1.558,0,0,1-.166-.21s.058,0,.066-.033V53.7c-.012-.026-.018-.039-.034-.048a.464.464,0,0,0-.1-.025c-.114-.028-.021.091-.088.058a.753.753,0,0,1-.194-.218c-.032-.051-.044-.049-.1-.093s-.046-.074-.1-.112L5,53.177l-.035-.055c-.016-.054.067-.111.124-.123l.038-.012a.281.281,0,0,1,.188-.025.182.182,0,0,1-.007-.069.293.293,0,0,1,.121-.118.727.727,0,0,0,.145-.1l.08-.069L5.84,52.6s-.131.092.015.086a.561.561,0,0,0,.338-.1c.194-.1-.163-.051-.016-.1l.058-.016a4.661,4.661,0,0,1,.6-.074,3.553,3.553,0,0,0,.481-.065l.593-.048.432-.052h.041l.069-.009.666-.089.325-.061.305.013s-.151.073,0,.087a.647.647,0,0,0,.371-.052c.219-.068-.163-.076,0-.1a3.954,3.954,0,0,1,.7,0,4.448,4.448,0,0,0,.51-.01L11.96,52l.455-.016L12.7,52l.849.1c.158.013.721.027.742.1s.381.1.653.049l0,.1.586.014.52.042.066.013,0,.111.448.068.2-.025.59.178c.232-.016.11-.062.34-.124a1.362,1.362,0,0,0,.513-.288,5.733,5.733,0,0,0,.852.062c.615.015,0,0,.712-.059s.512-.2,1.126-.128a3.39,3.39,0,0,0,.936.006s.316-.108.389-.124a1.542,1.542,0,0,0,.364-.115s.252-.021.224-.222.326.062.274-.055a.593.593,0,0,0,.12-.332c.072.1.2.108.236.134.051.038.174.684.431.254a5.826,5.826,0,0,0,.448-.936s.141.355.482-.227l.341-.582,1.38-2.534.21-.5c.267-.606.617-.625.617-.625l.14-.391.193-.334s-.025.2.078.04a.98.98,0,0,0,.17-.438c.066-.275-.161.147-.093-.048a6.284,6.284,0,0,1,.407-.78,6.134,6.134,0,0,0,.281-.567l.364-.679.242-.5.175-.308.573-.872c.1-.165.439-.763.514-.752s.31-.361.421-.678l.091.052.355-.619.343-.534.051-.064.09.052.006,0,.326-.443.1-.221c.184-.208.365-.4.532-.561l.139-.023a15.346,15.346,0,0,1,.589-1.509l.477-.923.138-.251.261-.5.176-.376.223-.314s-.024.122.028.09a.186.186,0,0,0,.046-.043.973.973,0,0,0,.115-.169l.094-.251c.091-.267-.174.13-.088-.056a5.147,5.147,0,0,1,.46-.7l.3-.441a4.384,4.384,0,0,1,.368-.425,1.866,1.866,0,0,1,.243-.249l.152-.1a1.024,1.024,0,0,1,.393-.1l.059,0c.025,0,.136-.01.162.04a.409.409,0,0,1,.1-.044.356.356,0,0,1,.241.069,1.166,1.166,0,0,1,.209.223,2.227,2.227,0,0,1,.143.219l.062.266s-.1-.116-.084.023a.663.663,0,0,0,.129.338c.108.208.043-.177.1-.02l.018.064a3.848,3.848,0,0,1,.1.691l.064.617.053.772.064.558,0,.052.011.088.12.85.081.409c0,.247.007.388.007.388s-.083-.187-.087.008a.988.988,0,0,0,.081.465c.085.27.062-.211.1-.009a6.92,6.92,0,0,1,.061.883,6.26,6.26,0,0,0,.058.634c.021.311.034.488.053.773l.064.559.018.355c0,.4-.008.88-.01,1.05a3.629,3.629,0,0,1-.018.916c-.069.033-.063.476.022.8l-.1.007.049.717.014.639-.006.082-.111.007-.019.553.047.238-.113.736c.041.282.074.129.159.4a1.8,1.8,0,0,0,.343.6,8.669,8.669,0,0,0,.03,1.046c.052.753,0,0,.136.865s.252.611.249,1.367a5.122,5.122,0,0,0,.1,1.145s.142.379.165.467a2.248,2.248,0,0,0,.155.438s.017.046.024.073c-.095.131-.174.291.076.328.086.012.146.008.225.014-.017.1-.053.215.006.176.306.255.5.222.689.112a.65.65,0,0,0,.225.071l.532.075,2.29.249.434,0c.531,0,.647.317.647.317l.333-.025.305.045s-.159.057-.007.087a.636.636,0,0,0,.377-.018c.225-.048-.156-.09.009-.1a4.024,4.024,0,0,1,.7.065,3.958,3.958,0,0,0,.506.033l.615.064.448.022.282.037.82.178c.153.026.7.1.713.169s.36.142.631.114l-.014.1.568.077.5.1.063.02-.015.1v.007l.426.12.194,0,.574.258.056.118a10.859,10.859,0,0,1,1.308-.072l.832.06.228.024.453.035.334.006.3.076s-.1.027-.061.061a.124.124,0,0,0,.045.025.629.629,0,0,0,.159.037l.217-.016c.228-.025-.146-.105.019-.1a1.235,1.235,0,0,1,.531.134.363.363,0,0,0,.2.031.313.313,0,0,1,.08.012l.076.043a.246.246,0,0,1,.1.059l.034.063a.323.323,0,0,1-.012.181" transform="translate(0 -19.934)" fill="#bc756a"/>
  </g>
</svg>
