<svg id="Group_734" data-name="Group 734" xmlns="http://www.w3.org/2000/svg" xmlns:xlink="http://www.w3.org/1999/xlink" width="712.297" height="392.171" viewBox="0 0 712.297 392.171">
  <defs>
    <clipPath id="clip-path">
      <rect id="Rectangle_381" data-name="Rectangle 381" width="712.297" height="392.171" fill="#f2d499"/>
    </clipPath>
  </defs>
  <g id="Group_733" data-name="Group 733" clip-path="url(#clip-path)">
    <path id="Path_37715" data-name="Path 37715" d="M394.3,96.144a11.462,11.462,0,0,1-11.463-11.463V11.463a11.463,11.463,0,1,1,22.927,0V84.681A11.462,11.462,0,0,1,394.3,96.144" transform="translate(-38.148)" fill="#f2d499"/>
    <path id="Path_37716" data-name="Path 37716" d="M521.657,126.065A11.471,11.471,0,0,1,511.116,110.1l28.731-67.346a11.465,11.465,0,0,1,21.091,9L532.208,119.1a11.465,11.465,0,0,1-10.55,6.968" transform="translate(-50.839 -3.566)" fill="#f2d499"/>
    <path id="Path_37717" data-name="Path 37717" d="M263.756,126.065a11.465,11.465,0,0,1-10.55-6.968l-28.73-67.346a11.465,11.465,0,0,1,21.091-9L274.3,110.1a11.471,11.471,0,0,1-10.541,15.964" transform="translate(-22.276 -3.566)" fill="#f2d499"/>
    <path id="Path_37718" data-name="Path 37718" d="M347.864,144.941c-.063-.9-.1-1.918-.117-3.007a209.589,209.589,0,0,1,43.379-4.511,279.044,279.044,0,0,1,43.163,3.268v6.888a60.084,60.084,0,0,1-.756,7.275,72.734,72.734,0,0,1-3.655,13.712,55.6,55.6,0,0,1-5.843,11.48c-7.473,11.047-18.007,16.413-32.188,16.413-11.93,0-27.956-9.94-37.059-27.2a60.318,60.318,0,0,1-5.114-13.307,62.617,62.617,0,0,1-1.81-11.011" transform="translate(-34.652 -13.694)" fill="#f2d499"/>
    <path id="Path_37719" data-name="Path 37719" d="M496.632,164.011a146.551,146.551,0,0,1-1.486,15.162c-.684,4.691-1.612,9.607-2.8,14.64-3.953,16.72-10.786,34.772-21.383,50.429-19.583,28.928-48.178,43.6-85.011,43.6-23.949,0-51.068-13.361-72.551-35.735a149.933,149.933,0,0,1-33.07-53.9q-2.458-6.874-4.241-14c-1.215-4.844-2.215-9.769-2.953-14.748q5.092-3.039,10.282-5.807a219.035,219.035,0,0,1,33.7-14.523,85.881,85.881,0,0,0,7.194,27.308,82.836,82.836,0,0,0,15.765,23.409c12.821,13.352,28.982,21.014,44.333,21.014,21.951,0,39.814-9.247,51.653-26.741a80.81,80.81,0,0,0,9.6-19.718,94.841,94.841,0,0,0,3.439-13.7,86.379,86.379,0,0,0,1.251-11.615c.009-.135.009-.261.009-.4v-2.233a222.7,222.7,0,0,1,46.269,17.548" transform="translate(-27.217 -14.594)" fill="#f2d499"/>
    <path id="Path_37720" data-name="Path 37720" d="M639.592,293.954q1.864,4.011,3.628,8.094-1.769-4.092-3.628-8.094" transform="translate(-63.733 -29.291)" fill="#f2d499"/>
    <path id="Path_37721" data-name="Path 37721" d="M190.467,394.332q-5.267-5.645-10.336-11.678a336.606,336.606,0,0,1-32.944-46.926q-4.538-7.752-8.7-15.774-4.173-8.063-7.923-16.323c-4.87,10.146-9.273,20.508-13.153,30.978q-12-34.1-34.832-77.718c-25.4-48.5-51.327-87.6-52.419-89.242A16.458,16.458,0,0,0,2.755,185.878c28.286,42.544,100.434,164.575,94.679,217.644A16.419,16.419,0,0,0,101.94,416.7l.014.021a.512.512,0,0,1,.063.072c.18.261.387.513.594.765a14.094,14.094,0,0,0,10.759,4.988H220.719q-8.279-6.645-16.224-14.109-7.158-6.739-14.028-14.109" transform="translate(0 -15.974)" fill="#f2d499"/>
    <path id="Path_37722" data-name="Path 37722" d="M221.173,248.963a245.754,245.754,0,0,0,35.474,56.767c34.52,41.011,78.421,63.6,123.628,63.6,58.928,0,104.855-23.715,136.512-70.5a217.419,217.419,0,0,0,25.507-51.986c1.891-5.573,3.52-11.029,4.907-16.287,1.567-5.906,2.845-11.57,3.872-16.882a223.164,223.164,0,0,0-38.283-32.935c-.585,4.925-1.414,10.111-2.5,15.468-.99,4.862-2.2,9.868-3.628,14.928-4.745,16.765-12.038,34.213-22.518,49.7-24.22,35.789-59.378,53.931-104.486,53.931-30.675,0-63.3-15.657-89.513-42.956a173.313,173.313,0,0,1-35.762-55.678q-2.769-6.928-4.961-14.1-2.242-7.306-3.854-14.838a276.637,276.637,0,0,0-35.627,32.017q2.336,7.644,5.2,15.2,2.782,7.347,6.032,14.55" transform="translate(-20.919 -18.01)" fill="#f2d499"/>
    <path id="Path_37723" data-name="Path 37723" d="M555.415,366.556a271.409,271.409,0,0,0,21.843-38.985v-.009c2.935-6.375,5.564-12.722,7.914-18.97v-.009c2.539-6.708,4.763-13.3,6.717-19.727a281.909,281.909,0,0,0-24.49-42.7c-.792-1.134-1.585-2.251-2.413-3.367-1.468,5.582-3.187,11.362-5.186,17.278-1.828,5.438-3.89,10.993-6.212,16.612A234.887,234.887,0,0,1,531.376,318.2c-35.789,52.878-89.729,80.825-155.986,80.825-52.257,0-102.568-25.561-141.617-71.974a267.509,267.509,0,0,1-33.682-51.014q-3.66-7.185-6.861-14.559c-2.188-5.015-4.232-10.1-6.1-15.225a341.851,341.851,0,0,0-26.263,38.706q3.2,8.252,6.861,16.368,3.606,8.022,7.644,15.855a315.121,315.121,0,0,0,38.787,58.559,273.408,273.408,0,0,0,25.759,26.813q8.306,7.549,16.972,14.109a231.954,231.954,0,0,0,20.861,14.109H488.2A192.577,192.577,0,0,0,509.02,416.66a201.685,201.685,0,0,0,16.287-14.109,225.221,225.221,0,0,0,30.108-36" transform="translate(-16.029 -24.192)" fill="#f2d499"/>
    <path id="Path_37724" data-name="Path 37724" d="M761.725,163.062a16.455,16.455,0,0,0-22.817,4.588c-1.091,1.64-27.02,40.738-52.42,89.242q-22.546,43.055-34.542,76.908l0-.007q-2.715-10.088-6.05-19.952c-2.593,6.519-5.456,13.127-8.616,19.754v.009c-2.971,6.212-6.2,12.452-9.724,18.664q-5.483,9.683-11.921,19.241a256.623,256.623,0,0,1-17.341,22.824q-6.294,7.387-13.046,14.109-7.482,7.468-15.5,14.109h79.321a14.177,14.177,0,0,0,4.844-.855l.006,0c.444.037.89.063,1.341.063a16.781,16.781,0,0,0,1.794-.1,16.458,16.458,0,0,0,14.588-18.137c-5.754-53.068,66.394-175.1,94.679-217.643a16.459,16.459,0,0,0-4.591-22.817" transform="translate(-56.772 -15.974)" fill="#f2d499"/>
  </g>
</svg>
