<svg xmlns="http://www.w3.org/2000/svg" width="94.566" height="100.831" viewBox="0 0 94.566 100.831">
  <path id="Union_29" data-name="Union 29" d="M41.635,99.26c-8.887-3.946-.069-12.885,5.734-8.893a3.892,3.892,0,0,1,.815,1.418c22.4.449,40.861-17.448,42.417-39.888l.132-2.156a1.367,1.367,0,0,1,2.732.013C94.7,75.146,73.074,97.9,47.859,97.875l-.038.289c-.141,1.226-1.566,1.617-3.065,1.617A9.394,9.394,0,0,1,41.635,99.26ZM25.313,95.5c-7.855-1.212-4.071-12.488,2.948-9.151,5.113,2.271,2.354,9.169-2.518,9.169C25.6,95.518,25.457,95.512,25.313,95.5Zm22.3-20.822A9.995,9.995,0,0,1,40.392,78.4a8.708,8.708,0,0,1-8.587-5.53c-.249-.6-.7-.72-1.331-.874-8.3.064-13.328-8.2-9.093-15.535a7.107,7.107,0,0,1-2.357-3.838c-2.082-5.556,1.09-12.4,6.779-13.706-2.045-4-.165-9.42,5.045-10,.847-7.919,12.206-12.295,16.283-5.282a9.812,9.812,0,0,1,2.637-2.208c5.855-2.04,8.371,1.715,10.62,6.25,2,2.362,5.338,1.239,7.065,4.717a9.384,9.384,0,0,1,1.11,5.352,14.408,14.408,0,0,1,5.159,3.626,9.932,9.932,0,0,1-1.1,14.328c6.835,6.636.542,16.691-8.466,16.961-2.326,2.675-4.785,6.768-8.983,6.457q-.317.025-.624.025C51.41,79.138,49.071,77.241,47.617,74.678Zm2.019-4.114-.005.026c.706,2.458,2.458,5.14,5.268,4.665a3.494,3.494,0,0,0,2.014-.616c1.675-1.29,2.483-3.7,3.854-5.365A4.846,4.846,0,0,1,62.4,67.806c5.67-1.413,9.123-4.775,6.626-10.531a9.411,9.411,0,0,1-2.8.064,1.379,1.379,0,0,1-.032-2.752c5.191-.212,7.581-6.033,3.643-9.562a6.686,6.686,0,0,0-3.809-1.578,3.073,3.073,0,0,1-2.695-3.606,2.3,2.3,0,0,1,.58-1.334c1.129-1.444.866-4.839-1.108-5.468a15.439,15.439,0,0,1-2.721-.949c-2.975-1.373-3.528-4.037-5.306-6.386a2.953,2.953,0,0,0-4.294.263c-5.154,9.478.777,20.143-.35,30.321a3.038,3.038,0,1,1-6.052-.539c.867-4.7.108-9.856-.242-14.7-.2-3.663-.344-8.3.746-12.295a6.477,6.477,0,0,0-2.09-2.182c-2.179-1.032-5.211.109-6.6,2.048-1.492,3.028-1.263,4.088-5.085,4.465a2.4,2.4,0,0,0-1.566.694c-1.357,1.424-.63,3.952.853,4.986,1.943,1.341-.357,4.292-2.115,2.721l-.068-.059c-.243.077-.7.2-.894.289-6.057,1.771-5.3,12.365,1.446,11.826a3.05,3.05,0,0,1,3.276,2.811c-.293,3.164-2.55,3.818-5.085,3.151a2.962,2.962,0,0,1-.248.359,4.621,4.621,0,0,0,.65,6.489c2.19,1.431,5.783.808,7.644,3.272,1.018,1.174,1.121,2.888,2.363,3.87,2.747,2.579,7.932.59,8.1-3.273a2.236,2.236,0,1,1,4.459.34ZM31.308,28.744l-.07.052.179-.07c.048-.025.064-.049.042-.049A.4.4,0,0,0,31.308,28.744Zm-30.838,21C-3.743,24.235,21.1-.355,46.229,2.962A4.2,4.2,0,0,1,47.7.537c2.808-1.617,7.862.629,8.268,3.946.4,5.043-4.617,5.6-8.382,4.736-.561-.083-1.478.128-1.555-.668-.032-.629-.076-1.36-.1-2.13a32.858,32.858,0,0,0-7.695.038,35.279,35.279,0,0,0-17.488,7.6C10.489,22.868,5.916,36.536,3.888,49.607A1.642,1.642,0,0,1,2.17,51.133,1.642,1.642,0,0,1,.469,49.742ZM85.222,36.3c-5.2-6.392,6.39-11.891,8.231-4.011a4.967,4.967,0,0,1-4.875,5.751A4.1,4.1,0,0,1,85.222,36.3Z" transform="translate(0.51 0.55)" fill="#f2d499" stroke="rgba(0,0,0,0)" stroke-miterlimit="10" stroke-width="1"/>
</svg>
