<svg xmlns="http://www.w3.org/2000/svg" width="110.814" height="157.059" viewBox="0 0 110.814 157.059">
  <path id="Union_22" data-name="Union 22" d="M104.783,154.273c.4-3.454-2.464-94.173-1.207-116.808q-4.128-.03-8.287-.093a67.715,67.715,0,0,1-6.168,7.612c-10.432,11.757-18.984,1.4-24.836-8.356q-7.864-.231-15.737-.462c-.967,11.25.1,22.7-.84,33.956,4.571-.428,9.149-.845,13.649-1.689a15.313,15.313,0,0,1,.666-9.044c.55-2.371,3.65-3.1,4.2-.4.642,5.879,2.4,11.647,3.291,17.524.861,6.172,3.1,15.518-2.539,20.158a1.919,1.919,0,0,1-2.921-.063,1.83,1.83,0,0,1,.464-2.64c3.231-2.269,2.015-8.5,1.272-11.862-.674-2.557-1.721-5.128-2.666-7.722-2.657.069-5.306-.015-7.946-.185-2.618-.171-5.222-.4-7.808-.76a63.115,63.115,0,0,1-2.255,10.833c-2,7.668,8.878,14.713,13.355,19.932,2.951,3.27-2.161,7.605-4.919,4.214-5.484-6.715-13.563-12.9-13.9-22.387,4.741-14.474,4.794-29.775,4.453-44.937-2.028,3.074-4.367,5.862-5.291,6.381-10.014,9.023-18.652-3.074-22.7-11.754a2.1,2.1,0,0,1-.1-.222q-5.126-.045-10.212-.034c.372,10.215.582,20.514.681,30.641.148,13.575.226,72.752,0,86.336-.084,4.242-6.53,4.112-6.483-.109,1.519-27.009,2.238-99.809,2.47-126.882a1.457,1.457,0,0,1,2.913-.054q.174,3.53.3,7.086c32.169-1.511,66.107-.636,98.184-1.487l.247.007c.782-6.357,2.17-9.253,4.494-5.877a96.958,96.958,0,0,1,.982,10.152c.846,11.864-.47,23.705-1.16,35.537-.357,11.832-.249,71.539,0,83.377a1.825,1.825,0,0,1-3.65.087ZM40.5,35.946q-10.173-.263-20.263-.407C30.944,53,32.478,44.393,40.5,35.946Zm31.549,4.98c1.8,1.837,3.585,3.7,6,4.392,4.1.368,7.2-4.078,9.692-8.081q-9.608-.2-19.309-.489C69.6,38.186,70.8,39.6,72.048,40.925ZM46.873,19.754c-8.691-9.014.642-23.788,12.641-18.723,13.844,6.306,7.14,22.806-3.522,22.805C53.131,23.836,49.984,22.647,46.873,19.754ZM49.754,7.4a5.023,5.023,0,0,0-2.539,4.444c-.52,6.506,8.73,10.191,13.206,5.964A5.95,5.95,0,0,0,61.94,12.5c-.352-3.994-4.288-5.971-8.082-5.971A9.529,9.529,0,0,0,49.754,7.4Z" transform="translate(0.5 0.513)" fill="#f2d499" stroke="rgba(0,0,0,0)" stroke-miterlimit="10" stroke-width="1"/>
</svg>
