<svg xmlns="http://www.w3.org/2000/svg" xmlns:xlink="http://www.w3.org/1999/xlink" width="127.696" height="151.166" viewBox="0 0 127.696 151.166">
  <defs>
    <clipPath id="clip-path">
      <rect id="Rectangle_220" data-name="Rectangle 220" width="78.786" height="129.762" fill="#f2d499"/>
    </clipPath>
  </defs>
  <g id="Group_376" data-name="Group 376" transform="matrix(0.899, 0.438, -0.438, 0.899, 56.884, 0)">
    <g id="Group_373" data-name="Group 373" clip-path="url(#clip-path)">
      <path id="Path_1067" data-name="Path 1067" d="M78.333,93.776c-.487-1.892.089,1.45-.225.04-.03-.151-.075-.371-.112-.552a28.432,28.432,0,0,0-1.7-5.32,21.163,21.163,0,0,0-2.147-3.827,25.4,25.4,0,0,0-3.415-4.107,23.828,23.828,0,0,0-3.028-2.459l-.3-.214c-.175-.114-.332-.239-.516-.34a24.87,24.87,0,0,0-4.131-2.081c-.828-.336-1.143-.424-1.143-.424-.893-.282-1.787-.552-2.7-.744-1.607-.452-2.518-.62-2.518-.62s1.3.116.034-.188a12.551,12.551,0,0,0-3.136-.285c-1.841-.016,1.344.286-.018.228a44.9,44.9,0,0,0-5.829.05,27.919,27.919,0,0,0-4.12.673,35.95,35.95,0,0,0-4.867,1.443A32.769,32.769,0,0,0,35.1,76.593c-.707.359-1.422.766-2.1,1.2a18.279,18.279,0,0,0-5.477,5.031,17.76,17.76,0,0,0-1.782,3.321c-.548,1.343-.879,2.6-.96,2.679-.252.138-.88,3.339-.511,5.726l-.228.016A19.377,19.377,0,0,0,25.085,99.7a17.5,17.5,0,0,0,2.06,4.274l.335.52-.2.142a17.84,17.84,0,0,0,2.81,3.2c.492.38,1.014.714,1.523,1.063a21.856,21.856,0,0,0,4.846,2.713,11.714,11.714,0,0,0,3.091.415,12.454,12.454,0,0,0,4.547-.448,16.986,16.986,0,0,0,7.328-1.856,11.319,11.319,0,0,0,2.492-1.5,32.6,32.6,0,0,0,2.569-2.466A12.764,12.764,0,0,0,59.225,101a15.575,15.575,0,0,0,.869-4.994,10.683,10.683,0,0,0-.906-4.2,9.491,9.491,0,0,0-3.252-3.983,8.372,8.372,0,0,0-1.606-.792,9.029,9.029,0,0,0-2.274-.534,7.973,7.973,0,0,0-2.741.157,4.258,4.258,0,0,0-.838.245c-.037-.1-2.309.855-1.789,1.159.438.124-2.6,1.564-1.991,1.554-1.155,2.69.311,1.678,1.4,1.41.873-.206,2.2-1,1.466.009-.251.532-.965.327-.853,1.911.106.478-.168.538.877-.155a3.761,3.761,0,0,1,2.312-.829c.408.094,1.574-.055,1.318.226,1.651.259,3.16,3.012,2.359,5.495a7.788,7.788,0,0,1-1.394,2.5,10.458,10.458,0,0,1-4.681,3.407,9.531,9.531,0,0,1-.949.3,10.327,10.327,0,0,1-5.267.479,10.836,10.836,0,0,1-3.278-1.039,7.174,7.174,0,0,0,1.271.284c.322-.076-.354-.009-2.892-1.5a10.611,10.611,0,0,1-4.215-5.776,13.236,13.236,0,0,1-.591-3.075,11.428,11.428,0,0,1,.728-4.362c.83-2.457,3.031-4.75,6.373-6.189A32.9,32.9,0,0,1,47.66,80.22a25.954,25.954,0,0,1,3.906-.255c6.674.13,12.977,3.026,16.457,8.372a18.2,18.2,0,0,1,2.18,4.015l-.214.075.085.316a15.674,15.674,0,0,1,.543,2.459,14.353,14.353,0,0,1,.221,2.76l-.228,0a5.459,5.459,0,0,1-.425,2.918c-.139.056-.89,2.445-1.365,3.1a24.036,24.036,0,0,1-2.475,3.445l-.986,1.169-1.63,1.832c-.834.878-1.5,1.4-2.484,2.3a22.733,22.733,0,0,1-2.178,1.727c-.877.648-2.494,1.6-3.24,2.091-.742.5,1.084-.535.114.2a6.64,6.64,0,0,1-1.764,1.068c-.769.356-.085-.171-.085-.171s-.544.26-1.542.674c-.526.3-1.079.522-1.622.782a18.7,18.7,0,0,1-3.5,1.232,35.271,35.271,0,0,1-4.4.92c-.875.148-1.659.248-2.483.311a26.886,26.886,0,0,1-11.762-3.1l-.109.219a24.38,24.38,0,0,1-7.835-6.311c-.22-.294-.468-.568-.667-.874a18.329,18.329,0,0,1-3.023-4.768,20.346,20.346,0,0,1-1.193-3.594s.621,1.953.558,1.34l-.033-.091c-.226-.721-.423-1.458-.6-2.207-.268-1.128-.326-1.566-.24-1.577l.082-.01c-.092-.525-.163-1.058-.224-1.6a18.439,18.439,0,0,1-.277-2.219c-.029-.849-.02-1.707.009-2.568a46.716,46.716,0,0,1,.475-5.366l.406-1.652c.3-1.185.168-1.37.168-1.37-.212.733-.4,1.481-.577,2.241a31.464,31.464,0,0,1,2.272-7.754l.755-1.06s-.2.682.129.068a23.262,23.262,0,0,0,1.146-2.086l-.059-.041.065-.332a21.32,21.32,0,0,1,3.966-4.192l.82-.481,1.355-.86c.744-.463,1.483-.938,2.274-1.341a9.487,9.487,0,0,1,1.251-.477c.925-.4,1.607-.768,2.235-.995l1.31-.587.585-.167,1-.306a3.261,3.261,0,0,0,1.218-.494l.039-.044c-.742.183-1.474.389-2.193.628A39.479,39.479,0,0,1,40.6,65.365l.939-.021.466-.011s-.724.264.024.144a25,25,0,0,0,2.577-.464l-.008-.072.131-.073.189-.105a47.7,47.7,0,0,1,5.086-.391l.913.031c.78-.09,1.558-.132,2.341-.17.563.061,1.112.181,1.664.275.916-.031,1.815.038,2.729.075a9.969,9.969,0,0,1,1.292.479c1.154.324,2.222.315,2.895.583a14.989,14.989,0,0,1,1.543.624H63.4c.841,0,1.025.681,1.319.5,0,0,1.069.511,3.662,1.79,2.553,1.4,2.476,1.355,2.476,1.355a5.418,5.418,0,0,0,1.057.611c.713.36.277-.561-1.185-1.913-1.5-1.3-.106-.71-.106-.71s-.179-.523-2.287-1.916c-2.181-1.283,1.041.1,2.809,1.411,1.779,1.273,1.1-.006,1.251-.067.148-.1,3.171,1.794.987-.575a21.671,21.671,0,0,0-5.451-3.9s1.875.194-2.084-1.813a29.757,29.757,0,0,0-4.11-1.583,46.441,46.441,0,0,0-18.4-1.461c-1.038.158-2.183.341-3.406.591-4.122.867-5.381.639-5.381.639-.844.31-1.7.579-2.526.925-1.533.511-2.371.85-2.371.85s1.113-.63-.072-.177a12.432,12.432,0,0,0-2.774,1.363c-1.569.92,1.285-.436.1.2a54.218,54.218,0,0,0-5.032,2.953,27.32,27.32,0,0,0-3.313,2.668,31.155,31.155,0,0,0-3.551,3.851,31.655,31.655,0,0,0-2.1,3.2c-.416.691-.794,1.426-1.133,2.136a38.489,38.489,0,0,0-2.455,6.49c-.4,1.226-1.137,5.577-1.278,5.739a17.872,17.872,0,0,0-.541,5.164l-.229-.009a46.336,46.336,0,0,0,.057,4.752,41.233,41.233,0,0,0,.461,4.271l.086.55-.223.044-.014,0a33.3,33.3,0,0,0,.832,3.728l.62,1.57a33.286,33.286,0,0,0,2.069,5.009l.142.69a34.223,34.223,0,0,0,8.173,7.826,35.755,35.755,0,0,0,6.227,3.527c.709.347,1.258.52,1.818.745a24.575,24.575,0,0,0,3.7,1.151c.921.2,1.834.415,2.77.53a21.179,21.179,0,0,0,2.6.441s-.8,0-.436.105a2.78,2.78,0,0,0,.414.084,9.242,9.242,0,0,0,1.4.152l1.818-.032c1.877-.127-1.388-.2,0-.229a51.887,51.887,0,0,0,5.931-.4,26.319,26.319,0,0,0,4.155-.879,37.947,37.947,0,0,0,4.879-1.611c1.246-.534,2.081-.925,3.353-1.583.7-.35,1.407-.711,2.066-1.1a52.809,52.809,0,0,0,4.947-3.1l.831-.63c.875-.594,3.266-2.8,4.18-3.609l1.819-2.169a37.424,37.424,0,0,0,3.974-5.844,19.978,19.978,0,0,0,2.141-5.737,20.635,20.635,0,0,0,.378-2.973A15.192,15.192,0,0,0,78.6,97.1s.163,1.388.191-.006a10.957,10.957,0,0,0-.452-3.323M7.455,47.307a2.184,2.184,0,0,0,.714-.02.9.9,0,0,0,.116.467c.143.31,0,0,.316.288s.534.063.567.424a.516.516,0,0,0,.249.456s.3.052.353.072a.97.97,0,0,0,.33.068s.113.1.5-.1c.406-.208-.03.214.186.08a5.232,5.232,0,0,0,1.8-.836c.44-.269.242-.332.779-.469.29-.074-.181.163.823-.159.3-.1.233-.024.494-.321a1.78,1.78,0,0,1,.165-.424c.185-.138-.151-.165.135-.264-.029-.305-.068-.615-.13-.934l.033-.364-.095-.615-.007-.106c-.334-.108-.161-.875-.161-.875s.419.27.21-.328a1.707,1.707,0,0,0-.736-.875,2.785,2.785,0,0,1-.435-1.3,1.438,1.438,0,0,0-.485-1.05L12.32,38.6l-.329-.309.206-.1.011-.038-.04-.243-.112-.242.208-.1c-.174-.055-.2-.226-.059-.3s.03-.308.019-.381a4.12,4.12,0,0,0,0-.427l-.043-.126a.926.926,0,0,0-.137-.166c-.07-.081-.046-.171-.12-.261s-.109-.108-.129-.2-.05-.255-.137-.3-.033.128-.208.1-.175-.032-.171-.113.173-.08.173-.08l-.022-.148-.168-.092A.953.953,0,0,1,11,34.851a1.86,1.86,0,0,0-.318-.28l-.266-.12A8.8,8.8,0,0,0,10.25,33.3l-.22.1-.245-.954-.015-.115a2.328,2.328,0,0,1-.755-.674s.194.125.252.027l-.009-.006-.177-.161c-.118-.066-.148-.1-.075-.139l.073-.039-.131-.11a.808.808,0,0,1-.267-.1l-.162-.188-.381-.369a.61.61,0,0,0,0-.186c-.015-.127-.184-.044-.184-.044l.026.24a7.608,7.608,0,0,1-.461-.648l.1-.225s.157-.011.122-.079a.265.265,0,0,0-.23-.16l-.06.039-.142.054-.3-.539.074-.175-.014-.2-.109-.271a.628.628,0,0,1,.065-.229L6.9,27.92l-.128-.1-.009-.078-.03-.122c-.03-.1-.123-.068-.17-.045l-.027.015.076.253c-.2-.2-.528-.15-.72-.377l.04-.166.019-.083s.156-.03.109-.1a.291.291,0,0,0-.269-.14l-.052.049-.055.031-.079.044c-.125-.149-.356-.159-.468-.308l-.063-.076-.384.032-.059-.2-.448.058a.666.666,0,0,1,.015-.24c-.084-.108-.365.05-.416-.011l-.12-.142,0,0c-.265.2.036-.26-.172-.033,0,0-.039-.175-.564,0s-.55.266-.55.266-.063.01-.275.191-.288.461-.158.583-.238.414-.238.414a.257.257,0,0,0,.08.31c.166.122-.27.222-.507.273s-.465.555-.55.661-.723.664-.643.874a.381.381,0,0,0,.282.258s-.439.422-.351.674l.086.247a6.131,6.131,0,0,0,.479.893.824.824,0,0,1,.18.088c.207.13-.264.6-.264.6l.176.035.049.13s-.16.044-.15.118.009.073.183.058.089-.156.182-.138.151.167.185.251.071.094.159.166.077.168.159.235a.934.934,0,0,1,.161.142l.061.119a3.939,3.939,0,0,1,.056.43c.022.069.153.305.024.391s-.09.257.09.3l-.2.112.134.245.061.249-.007.041-.2.106-.013.007-.01.251.1.054a3.13,3.13,0,0,1-.2.439l-.193.138a2.876,2.876,0,0,1,.833.321,2.075,2.075,0,0,1,.344.322l.085.1a1.062,1.062,0,0,0,.194.18l.18.114.034.173s-.111-.006-.153.042l-.02.039c0,.047,0,.07.025.088a.569.569,0,0,0,.16.055c.183.05.114-.153.207-.1s.137.246.166.358.065.135.15.247.067.217.147.318a1.366,1.366,0,0,1,.156.208l.055.151a2.511,2.511,0,0,1,.03.428l.006.076c.015.073.1.277.059.39l.209.117a2.533,2.533,0,0,1,.353.357,1.293,1.293,0,0,0,.285.3l.183.122.035.176s-.175-.015-.173.08,0,.1.186.148.113-.154.208-.1l.026.028a.806.806,0,0,1,.142.336.6.6,0,0,0,.15.247c.085.113.067.217.146.317a1.318,1.318,0,0,1,.157.208l.008.022.027.031a1.291,1.291,0,0,0,.286.3l.182.122c.021.1.035.176.035.176s-.175-.015-.174.08,0,.1.187.148.113-.154.207-.1.14.253.168.363.066.135.15.247.067.217.147.318a1.39,1.39,0,0,1,.157.207l.055.152c.04.188.02.423.037.5s.149.372.012.449-.1.28.086.36l-.208.1.136.3.062.29-.008.044-.22.1-.009.279.105.072a3.45,3.45,0,0,1-.186.449c.1.1.154-.005.339.049M33.47,17.819c.02.1.037.175.054.252a3.663,3.663,0,0,0,.135.5l.14.358c-.005.221-.017.345-.017.345s-.106-.1-.16-.043a.084.084,0,0,0-.03.056.366.366,0,0,0,0,.183,1.113,1.113,0,0,0,.138.225c.163.234.154-.193.229-.017a2.52,2.52,0,0,1,.055.782,2.226,2.226,0,0,0,.072.56c.049.267,0,.442.048.684a4.941,4.941,0,0,1,.09.492c0,.1.009.212.009.316-.013.288-.068.6-.1.795-.008.056-.015.107-.016.142a2.831,2.831,0,0,1-.057.749c.055.124.115.238.168.369a8.337,8.337,0,0,1,.236.91,4.246,4.246,0,0,0,.188.748l.14.358c-.005.221-.017.345-.017.345s-.165-.161-.191.014-.026.174.137.408.154-.193.228-.016a.609.609,0,0,1,.017.07,3.054,3.054,0,0,1,.039.712,2.212,2.212,0,0,0,.072.56c.049.266,0,.441.048.684a4.961,4.961,0,0,1,.09.492c0,.016,0,.031,0,.046s.012.051.017.078a4.242,4.242,0,0,0,.189.748l.14.358c-.005.221-.017.345-.017.345s-.165-.161-.19.013-.026.174.137.408.154-.193.228-.016a2.5,2.5,0,0,1,.055.782,2.245,2.245,0,0,0,.072.56c.049.266,0,.442.049.684a4.858,4.858,0,0,1,.09.493c0,.1.009.212.009.316-.017.37-.1.779-.112.936s.035.783-.119.819-.178.43-.022.714l-.228.016.045.635-.025.568-.02.074-.241.017-.09.5.081.209a6.151,6.151,0,0,1-.31.669c.064.248.15.108.312.345a1.871,1.871,0,0,0,.694.5,3.182,3.182,0,0,0-.024.93c.048.667,0,0,.22.758s.5.517.423,1.193a1.87,1.87,0,0,0,.107,1.012,2.874,2.874,0,0,1,.319.4,1.318,1.318,0,0,0,.3.372s.079.269.513.2c.451-.07-.092.363.156.285a2.737,2.737,0,0,0,1.983-.147c.5-.155.33-.417.888-.258.3.086-.222.157.84.334.321.054.231.133.57-.206a3.321,3.321,0,0,1,.282-.64c.218-.111-.1-.412.207-.375.061-.572.114-1.162.148-1.784l.138-.632.087-1.181.024-.2c-.29-.447.1-1.7.1-1.7s.325.8.3-.434a5.753,5.753,0,0,0-.454-2.135,10.5,10.5,0,0,1-.04-2.68,5.32,5.32,0,0,0-.161-2.259L42.5,28.125c-.073-.279-.15-.544-.228-.805L42.5,27.3c.007-.019.014-.041.022-.061l.032-.467-.037-.522.228-.016c-.152-.231-.123-.555.031-.586s.118-.532.129-.674.1-.467.124-.77c0-.085,0-.173,0-.259a3.317,3.317,0,0,0-.084-.4c-.044-.2.006-.343-.04-.561a1.525,1.525,0,0,1-.066-.459,1.676,1.676,0,0,0-.045-.641c-.072-.144-.069.206-.228.016s-.16-.19-.131-.333.19-.013.19-.013.013-.1.021-.284l-.135-.293a2.948,2.948,0,0,1-.179-.611,5.748,5.748,0,0,0-.225-.744c-.069-.145-.146-.274-.22-.407.079-.672.142-1.375.182-2.116l-.244.017.071-1.76.024-.2a6.077,6.077,0,0,1-.483-1.628s.14.342.228.231l-.006-.017-.111-.385c-.086-.19-.1-.263-.019-.269l.083-.006-.081-.264a1.465,1.465,0,0,1-.213-.353l-.081-.412-.206-.845a1.277,1.277,0,0,0,.074-.275.163.163,0,0,0-.15-.21l-.073.375c-.064-.428-.118-.864-.15-1.317l.192-.234s.145.111.145-.01a.541.541,0,0,0-.133-.408l-.071.005L40.708,9.1c-.01-.335-.021-.668-.012-.989l.15-.17.087-.277.039-.445a.645.645,0,0,1,.174-.234c.012-.167.012-.3.015-.406L41.1,6.344a.961.961,0,0,0,.033-.1c.012-.043.026-.1.041-.174a.157.157,0,0,0-.119-.2.223.223,0,0,0-.031-.006l-.073.375c-.063-.428-.356-.655-.389-1.107l.128-.157.064-.078s.145.111.145-.01a.54.54,0,0,0-.133-.408l-.072.006-.063-.018-.089-.025c-.009-.285-.185-.521-.182-.8,0-.048,0-.1,0-.146l-.313-.35.087-.277-.378-.409a.641.641,0,0,1,.174-.233c.015-.2-.3-.342-.293-.46s.01-.2.014-.275l-.006,0c-.327-.1.209-.216-.1-.226,0,0,.1-.206-.389-.648S38.587.2,38.587.2s-.05-.068-.329-.167a.388.388,0,0,0-.539.384c0,.31-.468.117-.468.117s-.2.085-.171.465-.348-.119-.551-.426S35.8.5,35.663.5s-1-.419-1.085.029a2.12,2.12,0,0,0,.023.92s-.623-.19-.715.414c-.032.2-.065.4-.092.605a23.135,23.135,0,0,0-.126,2.579c.038.144.077.3.11.474.114.581-.537.784-.537.784l.14.358c-.006.222-.017.345-.017.345s-.164-.161-.19.013-.026.174.137.408.154-.193.228-.016a2.506,2.506,0,0,1,.056.782,2.22,2.22,0,0,0,.072.559c.049.266,0,.442.049.684a4.945,4.945,0,0,1,.09.493c0,.1.008.212.009.315-.017.37-.1.779-.112.936-.008.173.035.784-.118.819s-.178.43-.022.714l-.228.016.045.635-.025.569c-.007.024-.013.05-.02.074l-.227.016h-.015l-.09.5.08.209a5.87,5.87,0,0,1-.325.7l-.228.1a8,8,0,0,1,.706,1.381,8.389,8.389,0,0,1,.236.91M64.753,41.584a2.108,2.108,0,0,0,.554.465,1.053,1.053,0,0,0-.223.473c-.1.358,0,0,.046.457s.362.418.145.744a.6.6,0,0,0-.12.554s.191.251.216.3a.976.976,0,0,0,.2.285s.017.164.442.264c.444.1-.166.159.085.2a4.753,4.753,0,0,0,1.913.544c.511.076.406-.116.9.142.266.14-.245.013.722.439.292.129.189.143.586.07a1.873,1.873,0,0,1,.411-.251c.232.01,0-.249.28-.135.186-.285.369-.582.539-.9l.27-.3.343-.6.066-.1c-.176-.325.465-.88.465-.88s.137.528.378-.145A2.073,2.073,0,0,0,73,41.931a3.585,3.585,0,0,1,.528-1.456,1.813,1.813,0,0,0,.316-1.267l.317-1.946-.059-.5.221.051.032-.027.124-.246.068-.293.223.051c-.1-.166-.007-.334.147-.311s.218-.26.256-.334a4.718,4.718,0,0,0,.27-.389l.046-.143a1.156,1.156,0,0,0,0-.242c0-.12.072-.186.071-.317a.524.524,0,0,1,.026-.268c.042-.1.12-.266.079-.363s-.106.1-.224-.048-.118-.144-.063-.216.187.04.187.04l.075-.15-.075-.194a1.15,1.15,0,0,1-.056-.38,2.112,2.112,0,0,0-.076-.463l-.138-.277a11.888,11.888,0,0,0,.57-1.117l-.239-.049.39-.951.059-.1a2.335,2.335,0,0,1-.175-1.008s.075.22.181.18l0-.01-.039-.238c-.05-.125-.053-.168.029-.153l.081.016-.032-.164a.791.791,0,0,1-.144-.243l-.006-.245-.051-.512a.591.591,0,0,0,.12-.135c.071-.1-.11-.149-.11-.149l-.136.19a5.689,5.689,0,0,1,.081-.759l.227-.087s.122.093.143.026a.239.239,0,0,0-.059-.255l-.07-.013-.141-.056.158-.549L76.3,25.8l.131-.135.113-.237a.569.569,0,0,1,.209-.092l.083-.222-.016-.14.05-.049.069-.088c.052-.076-.034-.12-.082-.138l-.029-.01-.135.193c.01-.251-.237-.437-.194-.694l.151-.06.075-.03s.124.092.144.024a.24.24,0,0,0-.063-.254l-.071-.012-.058-.023-.083-.032c.039-.16-.1-.327-.047-.48l.022-.081-.248-.257.13-.135-.3-.3a.559.559,0,0,1,.207-.095c.046-.107-.238-.248-.213-.312l.057-.15-.006,0c-.3-.121.238-.079-.063-.144,0,0,.127-.1-.277-.435s-.492-.34-.492-.34a.941.941,0,0,0-.3-.155c-.257-.108-.539-.063-.589.107S74,20.993,74,20.993a.26.26,0,0,0-.241.221c-.034.212-.322-.133-.472-.34s-.7-.177-.837-.2-.91-.418-1.068-.193a.681.681,0,0,0-.122.5s-.58-.223-.766.084l-.185.307a7.919,7.919,0,0,0-.536,1.358L69.8,23c.018.335-.652.308-.652.308l.078.22-.074.181s-.135-.12-.188-.033-.054.087.066.246.182-.071.225.039a.784.784,0,0,1-.075.429.7.7,0,0,0-.022.314c0,.153-.073.236-.068.375a1.557,1.557,0,0,1,0,.281l-.045.17c-.079.193-.233.392-.268.473s-.1.425-.255.409-.248.188-.146.373l-.225-.042-.066.346-.123.3-.033.034-.223-.043-.014,0-.173.242.042.128a3.353,3.353,0,0,1-.44.293h-.239a3.786,3.786,0,0,1,.44.891,2.751,2.751,0,0,1,.067.535l.007.146a1.3,1.3,0,0,0,.04.293l.071.223-.079.177s-.084-.076-.147-.061l-.04.022c-.029.043-.042.065-.035.1a.606.606,0,0,0,.093.152c.115.162.184-.064.224.047a.777.777,0,0,1-.088.425.7.7,0,0,0-.034.312c0,.152-.081.233-.08.371a1.642,1.642,0,0,1,0,.281l-.05.168a2.856,2.856,0,0,1-.24.393l-.042.07c-.034.073-.092.308-.2.377l.092.236a2.889,2.889,0,0,1,.055.537,1.491,1.491,0,0,0,.04.441l.065.224-.083.176s-.127-.127-.186-.043-.059.084.052.249.186-.061.223.052l0,.041a.949.949,0,0,1-.1.383.7.7,0,0,0-.039.312c0,.152-.085.231-.088.371a1.577,1.577,0,0,1-.011.281l-.008.024v.045a1.47,1.47,0,0,0,.033.442l.063.226-.085.175s-.127-.129-.186-.045-.059.084.05.251.186-.059.222.054a.783.783,0,0,1-.105.423.7.7,0,0,0-.044.312c-.007.153-.088.231-.092.37a1.584,1.584,0,0,1-.014.282l-.055.167c-.092.188-.261.376-.3.455s-.129.417-.283.391-.259.172-.169.364l-.221-.057-.089.342-.144.286-.035.033-.234-.062-.19.23.033.131a3.445,3.445,0,0,1-.436.253c.009.146.12.1.225.27" transform="translate(0 0)" fill="#f2d499"/>
    </g>
  </g>
</svg>
