<svg xmlns="http://www.w3.org/2000/svg" width="99.723" height="97.728" viewBox="0 0 99.723 97.728">
  <path id="Union_17" data-name="Union 17" d="M75.369,91.491C84.863,83.479,93.856,72.28,93.9,59.33a2.156,2.156,0,0,1,2.119-2.191c3.969.37,1.264,5.343,1.071,7.741-2.556,11.826-9.443,22.206-17.7,30.886a2.931,2.931,0,0,1-2.1.955C74.938,96.721,72.977,93.552,75.369,91.491ZM21.277,95.874c-8.43-7.016-16.853-15.916-19.044-26.98C-.88,52.515.79,35.773,1.24,19.252A2.792,2.792,0,0,1,.027,16.435c.916-11.548,18.008-10.5,20.365-.782a27.74,27.74,0,0,1,1.563-2.89C34.532-5.559,62.7-3.218,75.341,13.808A32.493,32.493,0,0,1,79.412,20.7c1.466-7.344,4.54-12.618,10.94-12.063,4.854.192,8.088,4.589,8.231,9.157.8,7.62-1.456,15.2-1.192,22.746a1.324,1.324,0,0,1-2.627.313c-.757-7.52,1.242-15.169.193-22.6-.263-6.61-7.952-7.57-10.086-1.807-2.141,11.911-1.178,25.514-1.292,38.307a10.933,10.933,0,0,1-1.72,7.378c-2.541,4.248-7.388,6.859-10.922,9.882a1.671,1.671,0,0,1-2.569-2.035c2.184-4.311,7.245-7.6,8.965-11.825a6.275,6.275,0,0,0,.364-1.238l-.021-.313c.057-.292.1-.6.143-.939a5.732,5.732,0,0,0-.579-2.5C72.985,46.8,64.626,55.546,61.35,59.3c-2.755,3.1-5.353,6.431-8.587,9.093,2.6,3.038,5.268,6.084,6.5,9.769,1.285,4.831-.636,9.89-3.733,13.575-1.4,1.408-5.661,6.453-7.459,3.714a1.661,1.661,0,0,1,.385-2.091c4.269-3.971,8.416-11.5,3.648-16.486A199.3,199.3,0,0,1,39.978,60.832c-2.6-3.622-4.583-6.674-8.145-8.958-2.948-1.6-6.653-2.711-9.658-.719-7.309,6.5,3.134,13.938,8.087,18.121,1.5,1.544,8.738,6.489,5.817,8.652a1.669,1.669,0,0,1-2.355-.569c-4.3-5.6-11.149-8.8-15.383-14.593a10.257,10.257,0,0,1-.264-12.957,2.279,2.279,0,0,1-.064-.334c-1.149-10.53-1.521-21.061-1.642-31.626a4.871,4.871,0,0,0-1.9-3.415c-2.684-2.3-8.787-2.085-8.588,2.462a2.816,2.816,0,0,1-1.32,2.427c-.158,7.826-.429,17.766-.193,24.924.743,24.07,5.161,31.235,19.33,49.406a1.66,1.66,0,0,1-2.427,2.22Zm27.681-32.33c.514.775,1.078,1.53,1.67,2.276a35.926,35.926,0,0,0,3.2-3.154,35.126,35.126,0,0,1-5.093.6Zm8.383-5.056c3.778-4.669,7.522-9.384,13.295-11.622a10.555,10.555,0,0,1,5.354-.618,8.9,8.9,0,0,1,2.141.633c-.007-5.276-.133-11.542.233-17.461C74.709,4.883,42.587-3.639,26.159,15.922l.136-.178a36.588,36.588,0,0,0-5.068,9.342,1.7,1.7,0,0,1-.751.941c-.154,6.988-.181,14.012,1.3,20.81,3.834-1.644,8.473-.712,12.1,1.11,4.176,2.322,7.315,5.836,10.259,9.523C48.4,58.389,53.061,59.471,57.341,58.487ZM47.859,44.126a22.8,22.8,0,0,0,.307-2.861,39.038,39.038,0,0,0-.157-5.919,13.667,13.667,0,0,1-5.539.483c-2.3-.127-7.417-2.312-3.891-4.745A27.183,27.183,0,0,1,46.7,30.031a13.441,13.441,0,0,1-.628-4.3,11.013,11.013,0,0,1,.892-4.575,1.8,1.8,0,0,1,3.184-.149,22.821,22.821,0,0,1,2.192,9.357c2.9.3,5.8.712,8.623.961a1.628,1.628,0,0,1-.464,3.223,40.245,40.245,0,0,0-8.223-.035c-.214,3.443-.764,6.887-1.2,10.181A1.492,1.492,0,0,1,49.529,46,1.583,1.583,0,0,1,47.859,44.126Z" transform="translate(0.504 0.507)" fill="#f2d499" stroke="rgba(0,0,0,0)" stroke-miterlimit="10" stroke-width="1"/>
</svg>
