<svg xmlns="http://www.w3.org/2000/svg" xmlns:xlink="http://www.w3.org/1999/xlink" width="17.991" height="17.503" viewBox="0 0 17.991 17.503">
  <defs>
    <clipPath id="clip-path">
      <rect id="Rectangle_214" data-name="Rectangle 214" width="14.146" height="14.835" transform="translate(0 0)" fill="#f2d499"/>
    </clipPath>
  </defs>
  <g id="Group_731" data-name="Group 731" transform="matrix(0.259, 0.966, -0.966, 0.259, 14.33, 0)">
    <g id="Group_366" data-name="Group 366" transform="translate(0 0)" clip-path="url(#clip-path)">
      <path id="Subtraction_1" data-name="Subtraction 1" d="M10.9,14.836h0a6.4,6.4,0,0,1-1.1-.1c.009.008.012.014.01.019s-.046.021-.123.021a15.811,15.811,0,0,1-2.42-.382,5.446,5.446,0,0,1-2.2-.824.171.171,0,0,1-.03-.162H5.028a1.066,1.066,0,0,1-.2-.058l-.01,0-.078-.026a1.428,1.428,0,0,0-.376-.088c-.054,0-.088.015-.1.043-.1.171-.145.2-.234.2H3.974l-.067,0a1.113,1.113,0,0,0-.247.028A5.584,5.584,0,0,1,1.7,13.09a3.406,3.406,0,0,1-.868-.518,2.173,2.173,0,0,1-.593-.762C.176,10.99.142,10.737.109,10.493.08,10.273.049,10.046,0,9.4.536,8.159,1.07,7.159,1.688,6c.205-.384.417-.781.64-1.208A13.95,13.95,0,0,1,4.491,1.471,5.728,5.728,0,0,1,5.765.4,2.63,2.63,0,0,1,7.092,0,2.4,2.4,0,0,1,8.828.839a8.29,8.29,0,0,1,1.6,2.833,15.616,15.616,0,0,0,1.545,2.586A13.577,13.577,0,0,1,13.694,9.3a6.392,6.392,0,0,1,.453,2.366,4.118,4.118,0,0,1-.15,1.05,3.042,3.042,0,0,1-.413.892,2.639,2.639,0,0,1-1.054.895A3.765,3.765,0,0,1,10.9,14.836ZM9.387,11.343c.207,0,.65.055.733.182.092.093.164.14.213.14a.056.056,0,0,0,.042-.017.183.183,0,0,0,.029-.129c.088.079.152.119.192.119a.038.038,0,0,0,.036-.021c.038-.072-.055-.308-.135-.424A12.4,12.4,0,0,1,9.331,9.13v0A19.574,19.574,0,0,0,7.824,6.45a2.037,2.037,0,0,1-.434-.689A1.586,1.586,0,0,0,7.2,5.386.072.072,0,0,1,7.16,5.4c-.11,0-.231-.261-.349-.514h0A2.11,2.11,0,0,0,6.606,4.5a1.089,1.089,0,0,0,.058-.35c0-.017,0-.031,0-.04a.1.1,0,0,0-.026,0c-.118,0-.311.182-.574.542A13.7,13.7,0,0,0,5.28,5.9,18.445,18.445,0,0,0,4.116,8.254a.127.127,0,0,0,0-.023s-.008.042-.022.132a5.362,5.362,0,0,1-.469,1.774c-.023-.042-.034-.069-.041-.084s-.007-.016-.008-.016,0,0,0,.007h0a.233.233,0,0,1-.112.133.45.45,0,0,0-.036.369c.1.268.5.435.851.581a2.34,2.34,0,0,1,.535.272l.2-.027h0a4.592,4.592,0,0,1,.611-.059,1.076,1.076,0,0,1,.436.077A2.055,2.055,0,0,1,6.3,11.38c.177,0,.367.016.569.032h0l.019,0c.193.016.412.034.616.034a1.712,1.712,0,0,0,.656-.1,1.875,1.875,0,0,1,.37.065h0a2.4,2.4,0,0,0,.56.086,1.116,1.116,0,0,0,.36-.057c-.136-.029-.21-.056-.208-.074S9.3,11.343,9.387,11.343Z" transform="translate(-0.001 -0.001)" fill="#f2d499" stroke="rgba(0,0,0,0)" stroke-miterlimit="10" stroke-width="1"/>
      <path id="Path_1064" data-name="Path 1064" d="M.177.52C-.046.332-.1.077.264,0,.492.075.271.218.271.218.393.4,1.07.49.177.52" transform="translate(4.505 11.885)" fill="#f2d499"/>
    </g>
  </g>
</svg>
