<?xml version="1.0" standalone="no"?><svg xmlns="http://www.w3.org/2000/svg" viewBox="0 0 1440 320"><path fill="#f7e3bd" fill-opacity="1" d="M0,224L21.8,213.3C43.6,203,87,181,131,192C174.5,203,218,245,262,234.7C305.5,224,349,160,393,128C436.4,96,480,96,524,122.7C567.3,149,611,203,655,197.3C698.2,192,742,128,785,90.7C829.1,53,873,43,916,69.3C960,96,1004,160,1047,197.3C1090.9,235,1135,245,1178,229.3C1221.8,213,1265,171,1309,160C1352.7,149,1396,171,1418,181.3L1440,192L1440,0L1418.2,0C1396.4,0,1353,0,1309,0C1265.5,0,1222,0,1178,0C1134.5,0,1091,0,1047,0C1003.6,0,960,0,916,0C872.7,0,829,0,785,0C741.8,0,698,0,655,0C610.9,0,567,0,524,0C480,0,436,0,393,0C349.1,0,305,0,262,0C218.2,0,175,0,131,0C87.3,0,44,0,22,0L0,0Z"></path></svg>