<?xml version="1.0" standalone="no"?><svg xmlns="http://www.w3.org/2000/svg" viewBox="0 0 1440 320"><path fill="#f7e3bd" fill-opacity="1" d="M0,224L21.8,213.3C43.6,203,87,181,131,192C174.5,203,218,245,262,234.7C305.5,224,349,160,393,128C436.4,96,480,96,524,122.7C567.3,149,611,203,655,197.3C698.2,192,742,128,785,90.7C829.1,53,873,43,916,69.3C960,96,1004,160,1047,197.3C1090.9,235,1135,245,1178,229.3C1221.8,213,1265,171,1309,160C1352.7,149,1396,171,1418,181.3L1440,192L1440,320L1418.2,320C1396.4,320,1353,320,1309,320C1265.5,320,1222,320,1178,320C1134.5,320,1091,320,1047,320C1003.6,320,960,320,916,320C872.7,320,829,320,785,320C741.8,320,698,320,655,320C610.9,320,567,320,524,320C480,320,436,320,393,320C349.1,320,305,320,262,320C218.2,320,175,320,131,320C87.3,320,44,320,22,320L0,320Z"></path></svg>