<?xml version="1.0" standalone="no"?><svg xmlns="http://www.w3.org/2000/svg" viewBox="0 0 1440 320"><path fill="#7a9280" fill-opacity="1" d="M0,160L26.7,154.7C53.3,149,107,139,160,154.7C213.3,171,267,213,320,240C373.3,267,427,277,480,261.3C533.3,245,587,203,640,192C693.3,181,747,203,800,213.3C853.3,224,907,224,960,197.3C1013.3,171,1067,117,1120,112C1173.3,107,1227,149,1280,165.3C1333.3,181,1387,171,1413,165.3L1440,160L1440,320L1413.3,320C1386.7,320,1333,320,1280,320C1226.7,320,1173,320,1120,320C1066.7,320,1013,320,960,320C906.7,320,853,320,800,320C746.7,320,693,320,640,320C586.7,320,533,320,480,320C426.7,320,373,320,320,320C266.7,320,213,320,160,320C106.7,320,53,320,27,320L0,320Z"></path></svg>