<svg xmlns="http://www.w3.org/2000/svg" xmlns:xlink="http://www.w3.org/1999/xlink" width="50.331" height="50.331" viewBox="0 0 50.331 50.331">
  <defs>
    <filter id="Ellipse_5" x="0" y="0" width="50.331" height="50.331" filterUnits="userSpaceOnUse">
      <feOffset dy="3" input="SourceAlpha"/>
      <feGaussianBlur stdDeviation="3" result="blur"/>
      <feFlood flood-opacity="0.161"/>
      <feComposite operator="in" in2="blur"/>
      <feComposite in="SourceGraphic"/>
    </filter>
    <clipPath id="clip-path">
      <path id="Path_13" data-name="Path 13" d="M0,0H15.821V15.821H0Z" transform="translate(0 0)" fill="#fff"/>
    </clipPath>
    <filter id="Ellipse_7" x="0" y="0" width="50.331" height="50.331" filterUnits="userSpaceOnUse">
      <feOffset dy="3" input="SourceAlpha"/>
      <feGaussianBlur stdDeviation="3" result="blur-2"/>
      <feFlood flood-opacity="0.161"/>
      <feComposite operator="in" in2="blur-2"/>
      <feComposite in="SourceGraphic"/>
    </filter>
  </defs>
  <g id="Group_31" data-name="Group 31" transform="translate(9 6)">
    <g transform="matrix(1, 0, 0, 1, -9, -6)" filter="url(#Ellipse_5)">
      <path id="Ellipse_5-2" data-name="Ellipse 5" d="M16.165,1.376a14.794,14.794,0,0,0-5.756,28.418A14.794,14.794,0,0,0,21.922,2.537a14.7,14.7,0,0,0-5.756-1.162m0-1.376A16.165,16.165,0,1,1,0,16.165,16.165,16.165,0,0,1,16.165,0Z" transform="translate(9 6)" fill="#fff"/>
    </g>
    <g id="Mask_Group_5" data-name="Mask Group 5" transform="translate(0 0)" clip-path="url(#clip-path)">
      <g transform="matrix(1, 0, 0, 1, -9, -6)" filter="url(#Ellipse_7)">
        <path id="Ellipse_7-2" data-name="Ellipse 7" d="M16.165,1.376a14.794,14.794,0,0,0-5.756,28.418A14.794,14.794,0,0,0,21.922,2.537a14.7,14.7,0,0,0-5.756-1.162m0-1.376A16.165,16.165,0,1,1,0,16.165,16.165,16.165,0,0,1,16.165,0Z" transform="translate(9 6)" fill="#a2a2a2"/>
      </g>
    </g>
  </g>
</svg>
