<svg xmlns="http://www.w3.org/2000/svg" xmlns:xlink="http://www.w3.org/1999/xlink" width="32.331" height="32.331" viewBox="0 0 32.331 32.331">
  <defs>
    <clipPath id="clip-path">
      <path id="Path_13" data-name="Path 13" d="M0,0H15.821V15.821H0Z" transform="translate(0 0)" fill="#fff"/>
    </clipPath>
    <filter id="Ellipse_7" x="-9" y="-6" width="50.331" height="50.331" filterUnits="userSpaceOnUse">
      <feOffset dy="3" input="SourceAlpha"/>
      <feGaussianBlur stdDeviation="3" result="blur"/>
      <feFlood flood-opacity="0.161"/>
      <feComposite operator="in" in2="blur"/>
      <feComposite in="SourceGraphic"/>
    </filter>
  </defs>
  <g id="Group_944" data-name="Group 944" transform="translate(-680.547 -620.396)">
    <circle id="Ellipse_50" data-name="Ellipse 50" cx="6" cy="6" r="6" transform="translate(703 630.727) rotate(90)" fill="#fff"/>
    <g id="Group_943" data-name="Group 943" transform="translate(712.878 620.396) rotate(90)">
      <path id="Ellipse_5" data-name="Ellipse 5" d="M16.165,1.376a14.794,14.794,0,0,0-5.756,28.418A14.794,14.794,0,0,0,21.922,2.537a14.7,14.7,0,0,0-5.756-1.162m0-1.376A16.165,16.165,0,1,1,0,16.165,16.165,16.165,0,0,1,16.165,0Z" transform="translate(0 0)" fill="#fff"/>
      <g id="Mask_Group_5" data-name="Mask Group 5" transform="translate(0 0)" clip-path="url(#clip-path)">
        <g transform="matrix(0, -1, 1, 0, 0, 32.33)" filter="url(#Ellipse_7)">
          <path id="Ellipse_7-2" data-name="Ellipse 7" d="M16.165,1.376a14.794,14.794,0,0,0-5.756,28.418A14.794,14.794,0,0,0,21.922,2.537a14.7,14.7,0,0,0-5.756-1.162m0-1.376A16.165,16.165,0,1,1,0,16.165,16.165,16.165,0,0,1,16.165,0Z" transform="translate(32.33 0) rotate(90)" fill="#a2a2a2"/>
        </g>
      </g>
    </g>
  </g>
</svg>
