<svg id="Group_924" data-name="Group 924" xmlns="http://www.w3.org/2000/svg" xmlns:xlink="http://www.w3.org/1999/xlink" width="959.246" height="805.03" viewBox="0 0 959.246 805.03">
  <defs>
    <clipPath id="clip-path">
      <rect id="Rectangle_163" data-name="Rectangle 163" width="959.246" height="805.03" fill="#eaf0ec"/>
    </clipPath>
  </defs>
  <g id="Group_304" data-name="Group 304" transform="translate(0)" clip-path="url(#clip-path)">
    <path id="Path_1013" data-name="Path 1013" d="M10.22,63.633a26.438,26.438,0,0,1,37.115,4.638C52.846,75.377,137.806,186,192.176,347.587c14.356-57.56,38.566-112.726,70.1-157.6,69.448-99.1,173.4-151.439,300.41-151.439,130.2,0,220.96,74.668,274.17,137.3,37.332,43.93,68.5,97.066,90.471,152.669,15,38.275,25.735,77.711,31.025,116.059.144.943.217,1.812.291,2.538a17.345,17.345,0,0,0,.291,2.1A21.753,21.753,0,0,1,937.479,474.6H916.964a26.361,26.361,0,0,1-9.28-17.543c-.147-1.378-.291-2.825-.435-4.2-.726-7.323-1.6-14.573-2.755-21.749-12.326-83.513-46.976-161.3-100.547-224.077C736.308,127.717,652.869,85.744,562.689,85.744c-137.083,0-244.666,70.391-302.8,198.124-1.6,3.478-3.117,6.885-4.564,10.366-.8,1.956-1.6,3.986-2.394,5.942-1.087,2.612-2.1,5.22-3.043,7.9a477.684,477.684,0,0,0-16.529,54.735c-.652,2.538-1.234,5.146-1.739,7.754a435.977,435.977,0,0,0-8.267,60.533s-.564,10.178-.737,15.207l0,.033a132.336,132.336,0,0,0,1.742,24.446c.03.166.015.273.033.424.2,1.135.438,2.251.633,3.385,4.2,23.2,7.467,47.05,9.5,71.408a710.006,710.006,0,0,1,.8,114.612A26.413,26.413,0,0,1,209,685.116c-.726,0-1.378-.074-2.03-.074a26.527,26.527,0,0,1-24.431-28.417C204.719,361.291,8.19,104.086,5.582,100.748A26.432,26.432,0,0,1,10.22,63.633" transform="translate(-0.001 103.462)" fill="#eaf0ec"/>
  </g>
</svg>
