<svg id="day_4876379" xmlns="http://www.w3.org/2000/svg" width="35.429" height="34.341" viewBox="0 0 35.429 34.341">
  <g id="Group_240" data-name="Group 240" transform="translate(22.625 0.305)">
    <path id="Path_940" data-name="Path 940" d="M328.279,15.335a3.344,3.344,0,0,0,2.2,3.652c2.452,1.1,5.927.484,7.13-2.1,1.97-4.186-2.906-8.141-6.771-5.678a6.1,6.1,0,0,0-2.559,4.126Zm-1.189-.2a7.4,7.4,0,0,1,4.1-5.463A6.157,6.157,0,0,1,337.9,10.9a6.235,6.235,0,0,1,.03,8.881,6.788,6.788,0,0,1-4.052,1.793,6.686,6.686,0,0,1-5.321-1.787A5.017,5.017,0,0,1,327.089,15.13Z" transform="translate(-326.967 -9.167)" fill="#f2d499"/>
  </g>
  <g id="Group_241" data-name="Group 241" transform="translate(0)">
    <path id="Path_941" data-name="Path 941" d="M15.319,32.2a22.238,22.238,0,0,1-8.31.564,9.043,9.043,0,0,1-4.836-2.4A10.073,10.073,0,0,1,0,23.45a23.008,23.008,0,0,1,.534-4.732A22.966,22.966,0,0,1,3.438,11,19.832,19.832,0,0,1,5.52,8.151C6.091,7.516,6.649,6.841,7.3,6.243c1.178-1.134,2.858-2,4.539-1.271a11.2,11.2,0,0,1,3.524,2.311A10.293,10.293,0,0,1,18.417,12.5c.208.814.276,1.668.455,2.491.044.226.127.572.18.8.834,3.83,2.407,7.727,1.582,11.715a.6.6,0,0,1-1.187-.218c.669-3.238-.427-6.448-1.253-9.574-.207-.806-.413-1.636-.6-2.45s-.26-1.632-.471-2.435a8.91,8.91,0,0,0-2.291-4.1,10.786,10.786,0,0,0-2.552-1.928,3.322,3.322,0,0,0-2.047-.569c-1.457.342-2.526,1.9-3.46,2.992A20.9,20.9,0,0,0,2.5,19.511c-.5,3.01-.836,7.047,1.249,9.531l-.057-.061c2.316,2.36,5.923,2.427,9.041,2.233.805-.055,1.61-.137,2.418-.19a.6.6,0,0,1,.165,1.178Z" transform="translate(0 -4.702)" fill="#5f7766"/>
  </g>
  <g id="Group_242" data-name="Group 242" transform="translate(9.874 12.884)">
    <path id="Path_942" data-name="Path 942" d="M144.281,193.743a40.35,40.35,0,0,1,.6,6.226,114.428,114.428,0,0,1-.772,13.7.6.6,0,1,1-1.207-.009c.153-2.071.281-4.163.337-6.237.014-.826.034-1.652,0-2.477-.125-2.067-.525-4.127-.541-6.2a22.276,22.276,0,0,1,.392-5.018A.615.615,0,0,1,144.281,193.743Z" transform="translate(-142.686 -193.262)" fill="#5f7766"/>
  </g>
  <g id="Group_243" data-name="Group 243" transform="translate(10.566 16.751)">
    <path id="Path_943" data-name="Path 943" d="M153.119,255.162a4.1,4.1,0,0,0,3.371-2.7,2.367,2.367,0,0,0-.016-1.254,1.074,1.074,0,0,1,2.067-.584,4.772,4.772,0,0,1-3.4,5.211,5.006,5.006,0,0,1-2,.275.477.477,0,0,1-.02-.951Z" transform="translate(-152.694 -249.861)" fill="#5f7766"/>
  </g>
  <g id="Group_244" data-name="Group 244" transform="translate(5.667 15.17)">
    <path id="Path_944" data-name="Path 944" d="M86.9,232.563a5.135,5.135,0,0,1-4.973-5.414.486.486,0,0,1,.961,0,3.751,3.751,0,0,0,2.646,3.185,3.416,3.416,0,0,0,1.333.12A1.063,1.063,0,1,1,86.9,232.563Z" transform="translate(-81.902 -226.731)" fill="#5f7766"/>
  </g>
  <g id="Group_245" data-name="Group 245" transform="translate(0.49 31.319)">
    <path id="Path_945" data-name="Path 945" d="M41.042,464.4a3.932,3.932,0,0,0-.943.087c-.565.151-1.13.331-1.688.513l.07-.021c-4,1.686-8.392.541-12.512.056a18.1,18.1,0,0,0-6.9.718c-.394.084-.983.245-1.382.29a9.288,9.288,0,0,1-1.663.015h.11a18.6,18.6,0,0,1-6.376-1.117l.048.011a10.8,10.8,0,0,0-2.093-.133.6.6,0,1,1-.006-1.192c.354.01.729.01,1.12.017a6.346,6.346,0,0,1,1.219.123c.51.144,1.014.3,1.522.429a13.992,13.992,0,0,0,4.474.535,7.257,7.257,0,0,0,1.67-.1c2.746-.717,5.561-1.636,8.446-1.445,3.072.088,6.155.741,9.214.579a13.354,13.354,0,0,0,2.527-.406,13.837,13.837,0,0,1,1.933-.28,3.673,3.673,0,0,1,1.234.127A.6.6,0,0,1,41.042,464.4Z" transform="translate(-7.085 -463.07)" fill="#bc756a"/>
  </g>
</svg>
