<svg xmlns="http://www.w3.org/2000/svg" width="35.942" height="35.79" viewBox="0 0 35.942 35.79">
  <g id="greenhouse_7729285" transform="translate(0 4)">
    <path id="Path_1071" data-name="Path 1071" d="M149.892,195.587c-4.564-.713-7.272,1.227-8.129,3.44-1.321-3.165-6.759-5.324-8.606-1.834-.861,3.135,1.9,7.06,5.215,7.056a3.985,3.985,0,0,0,1.182-.194,1.61,1.61,0,0,0,.162.2c1.494,1.16.817,3.737,2.071,3.75a.806.806,0,0,0,.838-.773,5.96,5.96,0,0,1,.865-3.477,4.726,4.726,0,0,0,1.739.388c2.494-.066,4.3-2.291,4.958-4.526C150.422,198.629,151.423,195.827,149.892,195.587Zm-11.568,7.445c-1.814.083-3.241-1.553-3.675-3.2-.229-.747-.47-1.876.179-2.428,1.856-1.017,4.5,1.093,5.074,2.807C140.265,201.51,139.849,202.915,138.323,203.032Zm3.693.878a3.243,3.243,0,0,0-.7-1.12,3.645,3.645,0,0,0,.436-.769,3.264,3.264,0,0,0,.836,1.156A7.624,7.624,0,0,0,142.017,203.91Zm3.2-.986c-2.3-.014-2.02-3.205-.665-4.293a6.652,6.652,0,0,1,4.62-1.547C149.143,199.5,148.077,202.849,145.221,202.924Z" transform="translate(-123.661 -185.762)" fill="#5f7766"/>
    <path id="Path_1072" data-name="Path 1072" d="M35.035,27.644c-3.184-2.486-4.192,3.924-14.068-.65a5.778,5.778,0,0,0-2.9-.459c-2.851.2-5.277,2.185-8.073,2.3-2.882.373-5.591-1.3-8.459-1.348-.171-1.131.592-6.686.295-9.374a1.084,1.084,0,0,0,.376-.866,14.111,14.111,0,0,1-.078-1.772c2.153-2.122,4.51-4.107,6.79-6.075C12.128,6.544,15.955.378,20.807,3.47c3.26,2.761,6.357,5.766,9.864,8.262a9.159,9.159,0,0,1,2.959,3.283c1.307,2.559-.87,6.2.78,6.34a.785.785,0,0,0,.865-.7,25.925,25.925,0,0,0,.207-3.041,7.2,7.2,0,0,0-2.556-5.691c-2.238-1.938-4.665-3.586-6.814-5.654-2.169-1.729-3.905-4.3-6.721-5.046C14.365.205,11,5.206,7.692,8.08c-2.364,1.939-4.713,3.8-6.956,5.873C-.278,14.8.054,16.205.048,17.331a1.073,1.073,0,0,0,.536.893c.35,7.592-3.347,18.766,8.227,18.3a16.732,16.732,0,0,0,1.73-.092c6.985-1.694,14.454,2.084,21.345-.453,3.08-1.145,5.421-5.477,3.149-8.33Zm-1.26,3.848c-2.511,5.879-11.7,3.12-16.775,3.124a20.111,20.111,0,0,0-6.761.44c-4.86.521-8.724-.751-8.689-6.309,3.347.612,6.613,2.6,10.133,1.769,2.453-.476,5.258-2.271,7.669-1.834,4.143,1.765,9.214,3.435,13.367.719a1.728,1.728,0,0,1,.9-.28s.008,0,.01.005,0,0,0,0a.274.274,0,0,1,.056.063A3.732,3.732,0,0,1,33.774,31.492Z" transform="translate(-0.001 -5.091)" fill="#f2d499"/>
  </g>
</svg>
