<svg xmlns="http://www.w3.org/2000/svg" xmlns:xlink="http://www.w3.org/1999/xlink" width="329.951" height="255.556" viewBox="0 0 329.951 255.556">
  <defs>
    <clipPath id="clip-path">
      <rect id="Rectangle_52" data-name="Rectangle 52" width="325.639" height="249.911" fill="#f2d499"/>
    </clipPath>
  </defs>
  <g id="Group_140" data-name="Group 140" transform="matrix(1, -0.017, 0.017, 1, 0, 5.683)">
    <g id="Group_139" data-name="Group 139" clip-path="url(#clip-path)">
      <path id="Path_851" data-name="Path 851" d="M123.594,154.625q-2.683,0-5.376-.221a70.553,70.553,0,0,1-24.472-6.78,66.753,66.753,0,0,1-20.972-15.9,63.52,63.52,0,0,1-13.065-23.776,68.67,68.67,0,0,1,5.342-52.09A47.512,47.512,0,0,1,82.5,37.1a39.783,39.783,0,0,1,24.517-4.023,79.358,79.358,0,0,1,22.148,6.418A65.173,65.173,0,0,1,147.53,51.316c10.508,9.513,15.755,23.778,13.366,36.336a29.252,29.252,0,0,1-3.053,8.65,27.884,27.884,0,0,1-5.463,6.874,28.188,28.188,0,0,1-14.125,7.112,25.019,25.019,0,0,1-7.337.119,21.127,21.127,0,0,1-15.191-10.216,23.712,23.712,0,0,1-3.457-15.6,14.954,14.954,0,0,1,.508-2.507,9.738,9.738,0,0,1,.572-1.765c.331-.857.564-1.32.564-1.32l1.693.847,1.655.561a26.217,26.217,0,0,0-1.12,4.719,20.07,20.07,0,0,0,3.118,12.906,16.975,16.975,0,0,0,12.259,8.124,20.576,20.576,0,0,0,5.986-.145,23.855,23.855,0,0,0,11.844-6.089,23.509,23.509,0,0,0,4.551-5.779,24.863,24.863,0,0,0,2.52-7.3c2.04-11.025-2.7-23.586-12.063-32.011A60.856,60.856,0,0,0,127.249,43.9a75.123,75.123,0,0,0-20.878-6,35,35,0,0,0-21.462,3.486A42.648,42.648,0,0,0,69.426,58.191a63.872,63.872,0,0,0-4.938,48.373,58.475,58.475,0,0,0,12.038,21.907,61.744,61.744,0,0,0,19.4,14.735,65.716,65.716,0,0,0,22.734,6.331,60.212,60.212,0,0,0,22.415-2.339,76.541,76.541,0,0,0,34.678-23.222,49.927,49.927,0,0,0,9.589-16.191,47.6,47.6,0,0,0,2.382-17.1,60.593,60.593,0,0,0-8.834-28.593,86.043,86.043,0,0,0-14.54-17.884,127.443,127.443,0,0,0-11.26-9.513l-3.12-2.312c-.783-.582-1.158-.912-1.158-.912l2.111-2.92c.067.038,1.641.98,4.453,3a118.548,118.548,0,0,1,11.792,9.616A88.966,88.966,0,0,1,182.6,59.794a64.777,64.777,0,0,1,9.672,30.666,52.065,52.065,0,0,1-2.541,18.825,54.5,54.5,0,0,1-10.4,17.767A81.186,81.186,0,0,1,142.5,151.818a65.187,65.187,0,0,1-18.9,2.807" transform="translate(45.994 23.095)" fill="#f2d499"/>
      <path id="Path_852" data-name="Path 852" d="M136.021,57.217l-.271-1.775-.928-1.557a16.225,16.225,0,0,1,3.263-1.489c1.8-.736,4.611-1.82,8.017-3.088,4.593-1.711,14.214-5.211,27.052-9.439,12.894-4.244,22.68-7.131,27.366-8.475,3.459-.995,6.365-1.8,8.4-2.315a15.693,15.693,0,0,1,3.388-.705l1.017,3.4a16.387,16.387,0,0,1-3.341,1.3l-8.125,2.683-27.165,8.825-35.3,11.74a15.925,15.925,0,0,1-3.37.892" transform="translate(109.053 22.951)" fill="#f2d499"/>
      <path id="Path_853" data-name="Path 853" d="M215.45,106.274a17.457,17.457,0,0,1-3.574-1.071l-8.476-3c-5.787-2.073-16.546-5.926-28.273-9.922-10.846-3.692-20.9-6.968-28.444-9.41l-8.654-2.833a17.294,17.294,0,0,1-3.381-1.3l.836-1.644.188-1.764a17.942,17.942,0,0,1,3.638.772c2.071.525,5.123,1.369,8.715,2.408,5.054,1.463,15.5,4.587,28.7,9.088S200.105,96,205,97.935c3.491,1.377,6.423,2.572,8.478,3.459a17.442,17.442,0,0,1,3.247,1.559Z" transform="translate(108.912 60.932)" fill="#f2d499"/>
      <path id="Path_854" data-name="Path 854" d="M162.137,158.18c-1.566,0-4.716-3.815-20.878-24.675-18.875-24.353-18.767-25.2-18.662-26.015l.094-.745.642-.5c1.774-1.3,1.954-1.438,21.849,24.23,18.894,24.378,18.774,25.225,18.658,26.042l-.109.758-.624.465a1.67,1.67,0,0,1-.971.445" transform="translate(99.152 85.575)" fill="#f2d499"/>
      <path id="Path_855" data-name="Path 855" d="M83.893,159.871l-1.585-.841-1.8-.291a51.8,51.8,0,0,1,1.671-7.1,143.872,143.872,0,0,0,4.37-32.925,50.719,50.719,0,0,1,.246-7.192l3.563-.208a31.1,31.1,0,0,1,.756,7.462,106.722,106.722,0,0,1-4.564,34.182,30.808,30.808,0,0,1-2.659,6.912" transform="translate(65.121 90.039)" fill="#f2d499"/>
      <path id="Path_856" data-name="Path 856" d="M50.262,100.353a3.6,3.6,0,0,1-1.807-.369l-.812-.494-.1-.9c-.213-1.659,1.252-2.167,3.108-2.809,1.071-.373,2.4-.836,3.824-1.478,1.443-.635,2.679-1.319,3.67-1.867,1.717-.951,3.071-1.7,4.168-.436l.57.658-.145.948c-.3,1.628-3.471,3.974-6.23,5.217a16.956,16.956,0,0,1-6.244,1.528" transform="translate(38.438 73.875)" fill="#f2d499"/>
      <path id="Path_857" data-name="Path 857" d="M57.733,62.733c-5.079,0-12.154-.069-20.525-.333-12.289-.383-21.625-.991-26.1-1.32-3.6-.266-6.2-.488-7.939-.68A13.373,13.373,0,0,1,0,59.9L.5,58.13.239,56.368a14.085,14.085,0,0,1,3.332-.09l7.782.242,26.02.924,33.907.942a12.737,12.737,0,0,1,3.214.3v3.536a14.475,14.475,0,0,1-3.326.3c-1.794.083-4.549.145-7.823.179-1.416.016-3.31.031-5.611.031" transform="translate(0 45.473)" fill="#f2d499"/>
      <path id="Path_858" data-name="Path 858" d="M84.409,50.171c-.993,0-4.363-1.525-31.147-18.23C23.46,13.351,23.284,12.555,23.1,11.712l-.163-.743.78-1.246.747-.183c.8-.2,1.626-.394,31.424,18.192,31.23,19.478,31.131,19.637,29.937,21.58l-.394.64-.745.181a1.142,1.142,0,0,1-.273.038" transform="translate(18.551 7.684)" fill="#f2d499"/>
      <path id="Path_859" data-name="Path 859" d="M89.521,29.991v-.007l-1.328-.474c-.516-.463-1.223-1.1-1.878-14.373C85.58.172,86.2.137,88.049.038L88.8,0l.591.514c.492.443,1.235,1.111,1.885,14.379s.009,13.979-.458,14.491l-.508.557Zm-.175-3.614.11,2.077-.09-2.077Z" transform="translate(69.574)" fill="#f2d499"/>
      <path id="Path_860" data-name="Path 860" d="M122.71,35.914l-.671-.563,0,0c-1.38-1.141-.752-2.086,2.12-6.423,1.5-2.27,3.563-5.378,5.671-8.871,2.174-3.605,3.983-6.953,5.3-9.4,2.4-4.443,2.9-5.369,4.6-4.633l.751.324.275.8c.633,1.943-4.115,11.181-6.676,15.464-2.234,3.733-8.438,12.828-10.538,13.161Zm1.642-3.343-1.216,1.521,1.279-1.469Z" transform="translate(98.146 4.692)" fill="#f2d499"/>
    </g>
  </g>
</svg>
