<svg id="Group_929" data-name="Group 929" xmlns="http://www.w3.org/2000/svg" xmlns:xlink="http://www.w3.org/1999/xlink" width="1400" height="703.519" viewBox="0 0 1400 703.519">
  <defs>
    <clipPath id="clip-path">
      <rect id="Rectangle_416" data-name="Rectangle 416" width="1400" height="703.519" fill="#7a9280"/>
    </clipPath>
  </defs>
  <g id="Group_928" data-name="Group 928" clip-path="url(#clip-path)">
    <path id="Path_84081" data-name="Path 84081" d="M1398.8,43.358c-4.06.254-8.11.589-12.11,1.046-35.47,3.575-68.44,12.827-100.56,25.391-34.33,13.488-66.36,29.991-100.37,43.916q-13.38,5.408-27.14,10.207c-.11.041-.29.091-.5.183a.578.578,0,0,0-.23.041c-.15.051-.3.091-.48.162a4.086,4.086,0,0,1-.5.152l-.18.071h-.03c-.06,0-.11.051-.14.051a.075.075,0,0,0-.09.041c-.09,0-.15.051-.21.051h-.03a1.29,1.29,0,0,1-.27.061l-.03.02-.12.03c0,.02-.03.02-.03.02a.186.186,0,0,1-.08.02c-1.04.315-2.08.66-3.12.975-4.62,1.361-9.3,2.63-14.04,3.768a260.619,260.619,0,0,1-27.34,5.21c-.75.091-2.58.295-3.65.437h-.03a2.424,2.424,0,0,1-.26.02.532.532,0,0,1-.24.02c-1.19.091-2.37.183-3.53.254q-6.435.442-12.88.447c-4.95.051-9.9-.041-14.82-.295-1.95-.132-7.29-.63-7.29-.538-6.87-.823-13.68-1.95-20.41-3.311-8.47-1.747-16.71-3.991-24.91-6.348-.63-.213-1.13-.325-1.51-.437a.576.576,0,0,0-.18-.041c-1.34-.457-2.67-.934-4-1.412q-5.475-1.889-10.85-3.961c-30.98-11.934-59.45-27.259-87.63-42.606C856.23,42.86,793.04,9.436,714.71,1.748A380.245,380.245,0,0,0,674.32.021a380.17,380.17,0,0,0-40.38,1.727C555.61,9.436,492.42,42.86,429.64,77.006c-28.18,15.346-56.65,30.672-87.64,42.606q-5.37,2.057-10.84,3.961c-1.33.477-2.67.955-4,1.412a.576.576,0,0,0-.18.041c-.38.112-.89.234-1.51.437-8.2,2.356-16.44,4.6-24.91,6.348-6.73,1.361-13.54,2.5-20.42,3.311,0-.091-5.33.406-7.28.538-4.92.254-9.87.345-14.82.295q-6.435,0-12.88-.447c-1.16-.071-2.34-.163-3.53-.254a.532.532,0,0,1-.24-.02,2.079,2.079,0,0,1-.26-.02h-.03c-1.07-.142-2.91-.345-3.65-.437a260.62,260.62,0,0,1-27.34-5.21c-4.75-1.138-9.42-2.407-14.05-3.768-1.03-.315-2.07-.66-3.11-.975a.288.288,0,0,1-.09-.02s-.03,0-.03-.02c-.03-.01-.07-.02-.11-.03l-.03-.02a1.057,1.057,0,0,1-.27-.061h-.03c-.06,0-.12-.051-.21-.051a.08.08,0,0,0-.09-.041c-.03,0-.09-.051-.15-.051h-.03l-.17-.071a4.08,4.08,0,0,1-.5-.152c-.18-.071-.33-.112-.48-.162a.579.579,0,0,0-.23-.041c-.2-.091-.39-.142-.5-.183-9.16-3.22-18.23-6.6-27.14-10.207C128.88,99.786,96.85,83.282,62.51,69.795A413.859,413.859,0,0,0,0,50.508V618.061a413.857,413.857,0,0,1,62.51,19.287c34.34,13.487,66.37,29.991,100.38,43.916,8.91,3.605,17.98,6.988,27.14,10.207.11.041.3.091.5.183a.578.578,0,0,1,.23.041c.15.051.3.091.48.162a4.088,4.088,0,0,0,.5.152l.17.071h.03c.06,0,.12.051.15.051a.08.08,0,0,1,.09.041c.09,0,.15.051.21.051h.03a1.054,1.054,0,0,0,.27.061l.03.02c.04.01.08.02.11.03,0,.02.03.02.03.02a.287.287,0,0,0,.09.02c1.04.315,2.08.66,3.11.975,4.63,1.361,9.3,2.63,14.05,3.768a260.608,260.608,0,0,0,27.34,5.21c.74.091,2.58.294,3.65.437h.03a2.084,2.084,0,0,0,.26.02.533.533,0,0,0,.24.02c1.19.091,2.37.183,3.53.254q6.45.442,12.88.447c4.95.051,9.9-.041,14.82-.295,1.95-.132,7.28-.63,7.28-.538,6.88-.813,13.69-1.95,20.42-3.311,8.47-1.747,16.71-3.991,24.91-6.348.62-.2,1.13-.325,1.51-.437a.576.576,0,0,1,.18-.041c1.33-.457,2.67-.934,4-1.412q5.475-1.9,10.84-3.961c30.99-11.934,59.46-27.259,87.64-42.606,62.78-34.145,125.97-67.57,204.3-75.258a380.161,380.161,0,0,1,40.38-1.727,380.236,380.236,0,0,1,40.39,1.727c78.33,7.688,141.52,41.113,204.3,75.258,28.18,15.346,56.65,30.672,87.63,42.606q5.385,2.072,10.85,3.961c1.33.477,2.66.955,4,1.412a.576.576,0,0,1,.18.041c.38.112.88.223,1.51.437,8.2,2.356,16.44,4.6,24.91,6.348,6.73,1.361,13.54,2.488,20.41,3.311,0-.091,5.34.406,7.29.538,4.92.254,9.87.345,14.82.295q6.45,0,12.88-.447c1.16-.071,2.34-.163,3.53-.254a.533.533,0,0,0,.24-.02,2.432,2.432,0,0,0,.26-.02h.03c1.07-.142,2.9-.345,3.65-.437a260.607,260.607,0,0,0,27.34-5.21c4.74-1.138,9.42-2.407,14.04-3.768,1.04-.315,2.08-.66,3.12-.975a.186.186,0,0,0,.08-.02s.03,0,.03-.02l.12-.03.03-.02a1.286,1.286,0,0,0,.27-.061h.03c.06,0,.12-.051.21-.051a.075.075,0,0,1,.09-.041c.03,0,.08-.051.14-.051h.03l.18-.071a4.094,4.094,0,0,0,.5-.152c.18-.071.33-.112.48-.162a.578.578,0,0,1,.23-.041c.21-.091.39-.142.5-.183q13.74-4.829,27.14-10.207c34.01-13.924,66.04-30.428,100.37-43.916,32.12-12.563,65.09-21.816,100.56-25.391,4-.457,8.05-.792,12.11-1.046.4-.03.8-.051,1.2-.071V43.287c-.4.02-.8.041-1.2.071" transform="translate(0 0)" fill="#7a9280"/>
    <rect id="Rectangle_415" data-name="Rectangle 415" width="1400" height="435.472" transform="translate(0 268.047)" fill="#7a9280"/>
  </g>
</svg>
