<svg id="hand-grip_8098644" xmlns="http://www.w3.org/2000/svg" width="36.303" height="36.889" viewBox="0 0 36.303 36.889">
  <path id="Path_1073" data-name="Path 1073" d="M114.408,14.654c-1.495-4.466-3.456-9.174-7.113-12.3a5.745,5.745,0,0,0-2.5-1.791,5.879,5.879,0,0,0-7.446,2.139A13.573,13.573,0,0,0,95,5.3a31.05,31.05,0,0,0-4.406,9.248,1.121,1.121,0,1,0,2.168.568,30.215,30.215,0,0,1,3.331-8.982,7,7,0,0,0,.162,2.278c1.026,4.655,7.595,6.512,10.716,2.777a7.5,7.5,0,0,0,1.649-4.019,22.5,22.5,0,0,1,3.259,4.654,19.179,19.179,0,0,1,1.326,3.19A.629.629,0,0,0,114.408,14.654ZM105.38,9.735c-1.929,2.04-5.712,1.389-7.292-.788-1.522-2.108-.509-5.491,1.528-6.885C104.76-.565,109.331,5.3,105.38,9.735Z" transform="translate(-84.309 0)" fill="#f2d499"/>
  <g id="Group_382" data-name="Group 382" transform="translate(0 13.91)">
    <path id="Path_1074" data-name="Path 1074" d="M366.076,210.583a.815.815,0,1,0-1.533.555c.668,1.568,1.069,3.9-1.455,3.1-1.936-.415-3.443-2.477-3.764-4.528-.133-1.2-.14-2.434-.351-3.621-.081-2.3-2.528-8.363-1.486-9.844a19.316,19.316,0,0,1,4.207-1.254c.993-.136,2.618-.394,2.523,1.058-.083,2.41-1.262,4.728-1.169,7.224,0,.984.45,2.759,1.831,2.177,1.086-.59.471-1.375.356-2.3-.39-3.074,2.962-8.176-1-9.914-2.244-.56-4.421.372-6.494,1.07a3.173,3.173,0,0,0-1.683,1.042c-1.382,2.482.6,6.036,1,8.639.98,3.176.208,6.916,2.566,9.557C362.956,217.236,368.161,216.46,366.076,210.583Z" transform="translate(-330.251 -193.06)" fill="#bc756a"/>
    <path id="Path_1075" data-name="Path 1075" d="M13.777,202.062c-3.048-.533-11.179-1.56-9.3,3.8a16.405,16.405,0,0,1,1.3,2.157c1.156,2.96-.607,6.127-1.2,9.072-2.777,9.277,6.847,8.788,8.078.916.366-2.265.357-4.557,1.038-6.753C14.105,208.757,17.44,203.158,13.777,202.062Zm-.576,6.449c-1.271,3.1-1.49,6.572-2.051,9.815-.389,1.9-2.482,4.907-4.667,3.93-2.043-1.757.988-7.117,1.387-9.453a8.105,8.105,0,0,0-1.358-7.894,1.745,1.745,0,0,1-.1-.381c-.089-1.1,5.6-.8,6.56-.818.373.057.658.062.871.319C14.3,205.459,13.591,207.109,13.2,208.511Z" transform="translate(-4.068 -200.998)" fill="#bc756a"/>
  </g>
</svg>
