<svg xmlns="http://www.w3.org/2000/svg" width="46.418" height="39.47" viewBox="0 0 46.418 39.47">
  <g id="Group_383" data-name="Group 383" transform="translate(-3492.202 -6886.17)">
    <g id="privacy_5188443" transform="matrix(0.921, 0.391, -0.391, 0.921, 3517.527, 6886.17)">
      <path id="Path_1076" data-name="Path 1076" d="M22.911,5.727a2.355,2.355,0,0,0-3.7-1.708,2.162,2.162,0,0,0-.221-.911,2.124,2.124,0,0,0-2.967-.931,2.4,2.4,0,0,0-.6-1.4C13.78-.864,11.972.336,11.507,2.126a1.969,1.969,0,0,0-1.628-.383A2.633,2.633,0,0,0,8.463,2.819C7.3,4.567,8.072,6.757,8.094,8.665c-.079,1.015-.121,4.064-.126,5.115,0,.668-.5,1.634-1.276,1.487-1.036-.5-2.488-1.19-3.5-1.68a2.466,2.466,0,0,0-.882-.174.641.641,0,0,0-.632.377,2.435,2.435,0,0,0-1.136.717,2.316,2.316,0,0,0,.125,3.12c.845.532,1.706,1.053,2.549,1.624,2.872,1.934,6.059,4,9.677,3.856,1.4,0,2.979-.015,4.376-.044a8.875,8.875,0,0,0,1.569-.107,4.432,4.432,0,0,0,3.415-3.236.392.392,0,0,0-.745-.229,4.4,4.4,0,0,1-.32.565,3.834,3.834,0,0,1-.753.82,3.777,3.777,0,0,1-2.791.838c-1.07-.009-2.223-.013-3.292.016-.949.01-1.91.1-2.858.061-3.917-.24-6.979-2.964-10.283-4.782a1.506,1.506,0,0,1,.562-2.435.653.653,0,0,0,.535.223,1.16,1.16,0,0,1,.366.047c1.038.452,2.5,1.092,3.54,1.549a1.764,1.764,0,0,0,1.393-.078,2.75,2.75,0,0,0,1.48-2.467c0-.162-.046-3.575-.052-4.071.4-2.15-1.159-5.092.45-6.8a2.79,2.79,0,0,1,.262-.224A1.1,1.1,0,0,1,11.4,3.36c0,.885.086,1.757.143,2.631-.017.976-.076,1.957-.07,2.931-.009.373-.024.746-.034,1.119A.5.5,0,0,0,12.441,10c-.029-.749-.05-1.491-.059-2.234.037-.643.028-1.289,0-1.931a18.745,18.745,0,0,0-.079-2.09c-.011-1.177.172-2.35,1.374-2.693,1.6.206,1.1,1.8,1.08,2.951-.141,1.011-.1,5.852-.1,6.967a.691.691,0,0,0,1.382,0c-.01-1.776.013-5.548,0-7.708a1.224,1.224,0,0,1,1.8-.229c.538.4.451,1.193.429,1.78-.012.513-.023,1.026-.039,1.539-.043,1.54-.094,3.079-.17,4.618a.692.692,0,1,0,1.382,0q-.077-1.539-.124-3.079-.036-1.086-.063-2.173a1.679,1.679,0,0,1,.245-.375,1.242,1.242,0,0,1,1.764-.107c.387.3.353,1.118.413,1.564a46.612,46.612,0,0,1,.216,5.421c0,.9-.022,1.816-.078,2.71a.389.389,0,0,0,.776.049c.078-1.221.132-2.442.178-3.662.043-1.735.161-3.865.139-5.592Z" transform="translate(0 0)" fill="#f2d499"/>
    </g>
    <g id="privacy_5188443-2" data-name="privacy_5188443" transform="matrix(-0.978, 0.208, -0.208, -0.978, 3519.608, 6920.843)">
      <path id="Path_1076-2" data-name="Path 1076" d="M23.069,17.5a2.371,2.371,0,0,1-3.722,1.719,2.177,2.177,0,0,1-.222.917,2.138,2.138,0,0,1-2.987.938,2.419,2.419,0,0,1-.606,1.408c-1.657,1.655-3.477.447-3.946-1.356a1.983,1.983,0,0,1-1.639.385,2.651,2.651,0,0,1-1.425-1.083c-1.175-1.76-.394-3.965-.372-5.886-.08-1.022-.122-4.092-.127-5.15,0-.673-.506-1.645-1.285-1.5-1.043.5-2.5,1.2-3.522,1.691a2.483,2.483,0,0,1-.888.175.645.645,0,0,1-.637-.379A2.452,2.452,0,0,1,.548,8.666,2.332,2.332,0,0,1,.674,5.525c.851-.536,1.718-1.06,2.567-1.635C6.132,1.942,9.341-.139,12.985.007c1.406,0,3,.015,4.406.044a8.936,8.936,0,0,1,1.58.108,4.463,4.463,0,0,1,3.439,3.258.394.394,0,0,1-.75.231,4.435,4.435,0,0,0-.322-.569,3.86,3.86,0,0,0-.758-.826,3.8,3.8,0,0,0-2.81-.843c-1.077.009-2.238.014-3.315-.016-.955-.01-1.923-.1-2.878-.061C7.632,1.574,4.55,4.317,1.223,6.148A1.516,1.516,0,0,0,1.79,8.6a.658.658,0,0,1,.538-.224A1.168,1.168,0,0,0,2.7,8.328c1.046-.455,2.521-1.1,3.564-1.56a1.776,1.776,0,0,1,1.4.078A2.769,2.769,0,0,1,9.154,9.33c0,.163-.046,3.6-.053,4.1.4,2.165-1.167,5.127.453,6.845a2.809,2.809,0,0,0,.264.226,1.11,1.11,0,0,0,1.656-.611c0-.891.086-1.769.144-2.649-.018-.983-.076-1.971-.07-2.951-.009-.376-.024-.751-.034-1.127a.507.507,0,0,1,1.012.039c-.03.754-.05,1.5-.06,2.25.038.647.028,1.3,0,1.944a18.875,18.875,0,0,1-.079,2.1c-.011,1.185.173,2.366,1.383,2.711,1.615-.207,1.108-1.817,1.087-2.971-.142-1.018-.1-5.892-.1-7.015a.7.7,0,0,1,1.391,0c-.01,1.788.013,5.586,0,7.761a1.233,1.233,0,0,0,1.814.23c.542-.4.454-1.2.432-1.792-.012-.517-.023-1.033-.039-1.55-.043-1.55-.094-3.1-.171-4.65a.7.7,0,1,1,1.391,0q-.077,1.55-.125,3.1-.037,1.094-.063,2.188a1.691,1.691,0,0,0,.246.378A1.25,1.25,0,0,0,21.414,18c.39-.3.356-1.126.416-1.575a46.932,46.932,0,0,0,.217-5.458c0-.9-.023-1.829-.078-2.729a.392.392,0,0,1,.782-.049c.078,1.229.133,2.458.179,3.688.043,1.747.162,3.891.14,5.63Z" transform="translate(0 0)" fill="#bc756a"/>
    </g>
  </g>
</svg>
