<svg id="asteroid_7815567" xmlns="http://www.w3.org/2000/svg" width="34.586" height="34.983" viewBox="0 0 34.586 34.983">
  <g id="Group_237" data-name="Group 237" transform="translate(0 5.015)">
    <path id="Path_931" data-name="Path 931" d="M36.268,77.159c-1.922-2.287-4.877-4.821-8.06-3.289-2.006.869-3.557,2.638-5.764,2.923a5.13,5.13,0,0,1-1.819-.14c-3.6-.694-7.779-.106-9.723,3.328a1.062,1.062,0,0,0-.009,1.073c-.953,1.513-1.66,3.162-2.506,4.731a7.681,7.681,0,0,0-1.555,2.144c-1.46,2.522-.623,9.6,1.211,11.742,1.511,1.462,3.7,1.773,5.642,2.3a14.877,14.877,0,0,0,13.689-2.583c1.45-.451,3.109.19,4.616-.227,1.474-.187,3.508-2.968,1.552-3.754a1.1,1.1,0,0,0-1.356.84,1.181,1.181,0,0,1-1.319.979c-4.192-.053-3.513-.206-6.906,2.08a13.148,13.148,0,0,1-10.175.989c-1.567-.376-3.465-.621-4.659-1.695a2.028,2.028,0,0,1-.426-.558,8.124,8.124,0,0,1,2.484-4.255c1.725-1.555,3.243-.4,3.283-1.432A2.116,2.116,0,0,1,16.8,90.179a.6.6,0,1,0,.111-1.2,3.5,3.5,0,0,0-3.707,2.4,5.947,5.947,0,0,0-5.414,3.235c-.532-2.466-.734-5.031.748-7.175,1.483-1.655,2.082-3.929,3.195-5.844A1.1,1.1,0,0,0,12.82,81a4.519,4.519,0,0,1,1.894-1.936c5.348-2.409,6.864,1.836,12.8-2.995A5.449,5.449,0,0,1,30.2,74.917c2.031-.081,3.833,1.877,4.975,3.094.456.715-.642,1.471-.914,2.17a20.466,20.466,0,0,0-2.25,4.382,5.146,5.146,0,0,0,2.049,6.3.785.785,0,1,0,.784-1.36c-3.544-1.931-1.083-6.226.577-8.658.7-1.028,1.907-2.451.852-3.687Z" transform="translate(-6.088 -73.402)" fill="#bc756a"/>
    <path id="Path_932" data-name="Path 932" d="M252.7,197.3a2.909,2.909,0,0,0-3.4,2.593.5.5,0,0,0,.927.247,1.549,1.549,0,0,1,1.4-.86C253.853,200.4,254.574,197.612,252.7,197.3Z" transform="translate(-232.471 -188.801)" fill="#bc756a"/>
    <path id="Path_933" data-name="Path 933" d="M219.637,337.789a7.48,7.48,0,0,0-3.438.8c-1.239.363-2.3,1.7-1.746,2.988.958,1.519,2.38-1.54,3.27-1.988a3.682,3.682,0,0,1,1.97-.643A.579.579,0,0,0,219.637,337.789Z" transform="translate(-199.894 -319.718)" fill="#bc756a"/>
  </g>
  <g id="Group_238" data-name="Group 238" transform="translate(0.169 0)">
    <path id="Path_934" data-name="Path 934" d="M15.457,6.209a3.258,3.258,0,0,0-5.068-2.027l.064-.033c-2.045,1.013-3.05,6.907.07,7.069C13.024,10.94,15.862,8.98,15.457,6.209Zm-2.54,1.633c-.383.822-2.579,3.323-3.077,1.485-.214-1.247.2-3.185,1.356-3.848C12.924,4.652,13.922,6.465,12.917,7.842Z" transform="translate(-8.535 -3.356)" fill="#f2d499"/>
    <path id="Path_935" data-name="Path 935" d="M228.131,1.463c-.061.819-.4,2.331.778,2.5A2.784,2.784,0,0,0,231.6,1.627c.136-2.045-3.1-2.232-3.469-.164Z" transform="translate(-212.849 0)" fill="#f2d499"/>
    <path id="Path_936" data-name="Path 936" d="M455.907,449.009a1.869,1.869,0,0,0-2.77,1.835c.05.572.233,2.363,1.386,2.271C456.256,452.837,457.777,450.089,455.907,449.009Z" transform="translate(-422.348 -418.135)" fill="#f2d499"/>
  </g>
</svg>
