<svg xmlns="http://www.w3.org/2000/svg" width="80.663" height="80.663" viewBox="0 0 80.663 80.663">
  <g id="Group_948" data-name="Group 948" transform="translate(0.05 0.05)">
    <ellipse id="Ellipse_17" data-name="Ellipse 17" cx="40.281" cy="40.282" rx="40.281" ry="40.282" fill="#fff" stroke="#6a806c" stroke-miterlimit="10" stroke-width="0.1"/>
    <path id="Path_827" data-name="Path 827" d="M110.706,14.639c-2.107.543-4.428-.033-6.522-.483-2.244-.007-1.784,3.109.326,2.786,1.964.04,5.107-.063,6.741-1.208a.621.621,0,0,0-.546-1.1" transform="translate(-66.553 30.343)" fill="#fff"/>
    <path id="Path_828" data-name="Path 828" d="M126.3,12.553c-5.9-7.966-19.032-9.062-24.9-.489a12.746,12.746,0,0,0-1.854,5.45.778.778,0,0,0,1.515.316,17.141,17.141,0,0,1,2.364-4.371l-.063.083c7.99-9.544,23.939-4.8,24.492,7.83a.774.774,0,1,0,1.545-.09,14.776,14.776,0,0,0-3.1-8.729" transform="translate(-73.908 11.562)" fill="#fff"/>
    <path id="Path_829" data-name="Path 829" d="M113.264,14.162c-1.315-.117-2.667-.31-4.022-.449a10.7,10.7,0,0,0-1.022-4.378.84.84,0,0,0-1.485.07,5.17,5.17,0,0,0-.416,2.141,6.316,6.316,0,0,0,.293,2.011,12.646,12.646,0,0,0-3.788.493c-1.644,1.139.742,2.161,1.814,2.22a6.353,6.353,0,0,0,2.583-.226,18.349,18.349,0,0,1,.073,2.77,10.757,10.757,0,0,1-.143,1.338.763.763,0,0,0,1.5.266c.2-1.541.459-3.153.559-4.764a18.691,18.691,0,0,1,3.835.017.762.762,0,0,0,.216-1.508" transform="translate(-67.576 18.15)" fill="#5f7766"/>
    <path id="Path_830" data-name="Path 830" d="M117.571,14.123a1.007,1.007,0,0,0-.989,1.025c-.02,6.059-4.215,11.3-8.642,15.047a1.374,1.374,0,1,0,1.878,2c3.848-4.061,7.061-8.919,8.253-14.451.09-1.122,1.352-3.449-.5-3.622" transform="translate(-55.535 30.267)" fill="#5f7766"/>
    <path id="Path_831" data-name="Path 831" d="M135.2,32.52a5.128,5.128,0,0,0,.8-3.452c.053-5.986-.4-12.351.6-17.924,1-2.7,4.581-2.247,4.7.846.489,3.479-.443,7.058-.09,10.576a.617.617,0,0,0,1.225-.146c-.123-3.532.929-7.078.556-10.643a4.236,4.236,0,0,0-3.838-4.284c-6.192-.539-5.709,10.663-5.7,17.894a4.146,4.146,0,0,0-1-.3,4.908,4.908,0,0,0-2.5.29c-4.195,1.631-6.092,6.076-9.331,8.869-.276-.35-.539-.7-.779-1.065-2.157-2.587-4.015-5.613-7.034-7.3a6.9,6.9,0,0,0-5.643-.519c-.982-4.521-.543-9.255-.533-13.852-.366-5.22-9.162-6.056-9.611-.373a1.308,1.308,0,0,0,.566,1.318c-.21,7.73-.989,15.563.463,23.227,1.022,5.177,4.95,9.341,8.882,12.624a.776.776,0,0,0,1.132-1.039c-6.608-8.5-8.669-11.855-9.015-23.117-.11-3.349.017-8,.09-11.662a1.319,1.319,0,0,0,.616-1.135c-.093-2.127,2.753-2.227,4-1.152a2.281,2.281,0,0,1,.886,1.6c.057,4.944.23,9.871.766,14.8a1.088,1.088,0,0,0,.03.156,4.81,4.81,0,0,0,.123,6.062c1.974,2.71,5.17,4.208,7.174,6.828a.777.777,0,0,0,1.1.266c1.362-1.012-2.014-3.326-2.713-4.048-2.31-1.957-7.181-5.44-3.772-8.479,1.4-.932,3.129-.413,4.5.336a14.338,14.338,0,0,1,3.8,4.191,93.277,93.277,0,0,0,5.653,7.5c2.224,2.334.29,5.856-1.7,7.713a.779.779,0,0,0-.18.979c.839,1.282,2.826-1.079,3.479-1.738a7.239,7.239,0,0,0,1.741-6.352,14.444,14.444,0,0,0-3.029-4.571,37.5,37.5,0,0,0,4-4.255c1.528-1.754,5.426-5.846,7.41-2.87a2.684,2.684,0,0,1,.27,1.168c-.02.156-.04.3-.067.439l.01.146a2.963,2.963,0,0,1-.17.579c-.8,1.977-3.163,3.515-4.181,5.533a.78.78,0,0,0,1.2.952C131.757,35.729,134.018,34.507,135.2,32.52Z" transform="translate(-79.772 14.203)" fill="#5f7766"/>
  </g>
</svg>
