<svg id="Group_950" data-name="Group 950" xmlns="http://www.w3.org/2000/svg" width="296.77" height="480.121" viewBox="0 0 296.77 480.121">
  <g id="Group_94" data-name="Group 94" transform="translate(0 0)">
    <path id="Path_782" data-name="Path 782" d="M0,246.761c0,8.075,66.434,14.624,148.385,14.624s148.385-6.549,148.385-14.624-66.434-14.624-148.385-14.624S0,238.683,0,246.761" transform="translate(0 218.735)" fill="#e5e0e0"/>
    <path id="Path_783" data-name="Path 783" d="M42.53,111.48s22.118.13,17.338,29.875c-4.034,25.1-17.338-29.875-17.338-29.875" transform="translate(125.26 24.58)" fill="#ffd033"/>
    <path id="Path_784" data-name="Path 784" d="M54.03,172.087s-3.64-6.309,3.154-10.434,9.951-4.37,9.951-4.37,16.015-29.606,28.393-31.547,1.7,31.547-41.5,46.352" transform="translate(57.996 47.389)" fill="#f4b282"/>
    <path id="Path_785" data-name="Path 785" d="M73.786,155.855,119.4,105.4Z" transform="translate(-15.153 14.794)" fill="#6199c7"/>
    <path id="Path_786" data-name="Path 786" d="M79.058,158.683l-6.014,2.586,2.142-6.085L120.8,104.728l3.875,3.5Z" transform="translate(-18.49 13.715)" fill="#f2d499"/>
    <path id="Path_787" data-name="Path 787" d="M97.908,127.565l-4.879,2.714-2.5,1.383,1.122-2.453,2.374-5.14Z" transform="translate(-37.328 44.837)" fill="#facea5"/>
    <path id="Path_788" data-name="Path 788" d="M94.9,127.108l-2.5,1.383,1.122-2.453Z" transform="translate(-39.197 48.006)" fill="#6199c7"/>
    <path id="Path_789" data-name="Path 789" d="M59.4,126.715a2.535,2.535,0,0,1-.117-3.032c1.579-2.27,4.832-6.145,8.668-6.145,5.427,0,6.979,8.915,6.979,8.915l17.053,16.667s28.228-26.592,39.082-27.756,9.758,31.245-33.655,45.976c0,0-12.015,1.161-29.846-24.422Z" transform="translate(6.432 30.782)" fill="#f4b282"/>
    <path id="Path_790" data-name="Path 790" d="M86.262,139.874S49.107,154,36.706,172.992c0,0-3.087,12.344,17.455,17,0,0,65.615,13.32,87.321-1.023s5.636-51.03,5.636-51.03-28.682,11.629-60.856,1.939" transform="translate(48.584 67.15)" fill="#8c9a8f"/>
    <path id="Path_791" data-name="Path 791" d="M66.879,103.791l3.053,20.062s-6.985,6.648-18.1,1.2l-2.393-16.025Z" transform="translate(97.858 12.207)" fill="#f4b282"/>
    <path id="Path_792" data-name="Path 792" d="M53.14,81.6c-1.333,1.383-20.73,17.056-10.095,33.867s11.986,23.678,11.5,29.423,6.283,20.581,34.694,21.053,43.025-10.711,49.913-29.34c10.2-27.574-53.772-88.448-86.013-55" transform="translate(52.494 -39.235)" fill="#f4b282"/>
    <path id="Path_793" data-name="Path 793" d="M36.063,92.485s-10.032,21.051,7.77,35.111c16.842,13.3,19.005,41.731,40.468,49.944,7.152,2.737,17.839.329,28.208-4.519,0,0,52.613-19.394,28.943-73.469S46.841,60.39,36.063,92.485" transform="translate(62.454 -52.406)" fill="#5f423d"/>
    <path id="Path_794" data-name="Path 794" d="M62.916,105.244s-2.364-15.511,6.609-16.592,20.143,26.2,4.934,28.594-11.543-12-11.543-12" transform="translate(51.662 -12.204)" fill="#f4b282"/>
    <path id="Path_795" data-name="Path 795" d="M66.431,98.151s-1.785,8.2,2.5,6.241.535-6.6.535-6.6-.892-5.349,2.5-5.706c0,0-4.994-3.924-5.529,6.064" transform="translate(52.445 -7.848)" fill="#c98758"/>
    <path id="Path_796" data-name="Path 796" d="M88.331,75.291S71.008,71.017,72.584,91.716s14.17,23.167,14.17,23.167,6.75-8.772,9-12.6-7.423-26.994-7.423-26.994" transform="translate(11.558 -34.241)" fill="#5f423d"/>
    <path id="Path_797" data-name="Path 797" d="M30.88,107.341S29.09,75.366,64,63.223s68.96,5.411,75.791,35.01c0,0,8.122-1.312,13.077,11.572,4.66,12.117-2.181,43.077-18.5,54.842s-103.492-57.3-103.492-57.3" transform="translate(61.935 -59.333)" fill="#5f423d"/>
    <path id="Path_798" data-name="Path 798" d="M137.771,182.743s-33.395,12.6-63.708-.183v-5.01l.023-2.687.055-24.523a179.524,179.524,0,0,1-15.342,11.3c-.757.522-1.539,1.018-2.348,1.513h-.026c-2.166,1.357-4.409,2.661-6.6,3.809,0,0-11.819-9.08-12.185-17.5,0,0,1.513-1.592,4.018-4.07.6-.6,1.252-1.252,1.983-1.957,6.7-6.575,17.844-16.986,26.95-23.062,10.982-7.332,18.314-7.567,18.314-7.567s12.86,1.826,18.1-1.2c0,0,22.7-6.914,29.924,61.96.1.916.183,1.826.261,2.74.209,2.087.391,4.227.574,6.445" transform="translate(60.786 24.46)" fill="#f2d499"/>
    <path id="Path_799" data-name="Path 799" d="M85.048,141.888c-.757.522-1.539,1.018-2.348,1.513h-.026a49.264,49.264,0,0,1-14.765-17.766c.6-.6,1.252-1.252,1.983-1.957a46.778,46.778,0,0,0,15.157,18.209" transform="translate(34.537 44.21)" fill="#7a9280"/>
    <path id="Path_800" data-name="Path 800" d="M101,137.967c-8.271,3.888-18.7,5.166-28.776,5.166a171.623,171.623,0,0,1-34.357-3.914l.026-2.687c7.094,1.565,42.837,8.688,62.847-1.3.1.913.183,1.826.261,2.74" transform="translate(96.987 62.792)" fill="#7a9280"/>
    <path id="Path_801" data-name="Path 801" d="M92.781,151.371s-21.7,27.438-23.266,55.108c-2.413,42.67,53.571-37.52,53.571-44.864s-30.305-10.244-30.305-10.244" transform="translate(-7.493 88.77)" fill="#7a9280"/>
    <path id="Path_802" data-name="Path 802" d="M70.352,154s-14.9,31.649-10.134,58.954c3.032,17.387,8.185,11.893,16.38-.8,11.65-18.048,26.574-50.863,25.6-55.061C100.524,149.935,70.352,154,70.352,154" transform="translate(39.864 91.151)" fill="#7a9280"/>
    <rect id="Rectangle_35" data-name="Rectangle 35" width="89.507" height="9.946" transform="translate(88.972 284.951)" fill="#955c53"/>
    <rect id="Rectangle_36" data-name="Rectangle 36" width="89.507" height="9.946" transform="translate(67.217 383.9)" fill="#955c53"/>
    <path id="Path_803" data-name="Path 803" d="M75.275,363.324H94.807l16.581-72.167,2.286-9.954,20.456-88.977,2.288-9.954,1.91-8.334,3.212-13.92-19.561.232L118.8,174.082Z" transform="translate(-41.173 102.686)" fill="#955c53"/>
    <path id="Path_804" data-name="Path 804" d="M40.1,363.823H59.629l7.754-33.8,9.75-42.451,3.387-14.611,2.286-9.954,20.344-88.544.144-.665,2.142-9.289,1.012-4.428-19.417-.376-1.1,4.8-2.171,9.4-.115.551-1.91,8.3-2.286,9.954-12.067,52.4L58.993,281.7l-1.359,5.845-.955,4.109Z" transform="translate(85.702 102.187)" fill="#955c53"/>
    <path id="Path_805" data-name="Path 805" d="M9.466,159.953l.955,4.167,2.113,9.145.172.809,20.372,88.544,2.286,9.954L56.256,363.43h19.5L32.035,173.118l-2.951-12.79Z" transform="translate(196.312 102.579)" fill="#bc756a"/>
    <path id="Path_806" data-name="Path 806" d="M44.611,160.107l3.212,13.917,1.939,8.48,2.286,9.954,20.458,88.977,1.359,5.845.955,4.109,8.8,38.37,7.783,33.8h19.5L93.368,287.308,90.01,272.7l-2.286-9.954L83.618,244.86l-12.039-52.4L69.293,182.5l-1.91-8.3-.057-.318L65.1,164.245l-1.012-4.37Z" transform="translate(69.47 102.454)" fill="#bc756a"/>
    <rect id="Rectangle_37" data-name="Rectangle 37" width="89.507" height="9.946" transform="translate(129.675 266.708)" fill="#ffb700"/>
    <rect id="Rectangle_38" data-name="Rectangle 38" width="89.507" height="9.946" transform="translate(150.968 365.203)" fill="#bc756a"/>
    <path id="Path_807" data-name="Path 807" d="M26.035,174.581H27.28l19.532-.143,20.14-.146,12.383-.086,7.118-.057,32.669-.232,19.532-.115,19.85-.146,10.33-.086,9.174-.057h.491l-2.661-12.761-.78-.029-19.621-.376-13.628-.261-19.417-.376h-.751l-38.428.433-19.472.232-13.716.144-19.561.232h-.2Z" transform="translate(50.342 102.187)" fill="#ffb700"/>
    <path id="Path_808" data-name="Path 808" d="M31.557,181.8h152.7a11.834,11.834,0,0,0,0-23.668H31.557a11.834,11.834,0,0,0,0,23.668" transform="translate(49.211 99.651)" fill="#bc756a"/>
    <path id="Path_809" data-name="Path 809" d="M113.544,175.929s-1.954,14.99-4.237,14.99-15.968,9.453-22.16,6.844,15.968-20.529,16.294-24.114Z" transform="translate(-41.307 124.619)" fill="#5f7766"/>
    <path id="Path_810" data-name="Path 810" d="M99.276,176.422s1.093,10-6.844,12.553c-2.171.7-15.968,9.45-22.16,6.841s11.639-17.372,11.966-20.957Z" transform="translate(17.497 126.566)" fill="#5f7766"/>
  </g>
</svg>
