<svg xmlns="http://www.w3.org/2000/svg" width="80.663" height="80.663" viewBox="0 0 80.663 80.663">
  <g id="Group_947" data-name="Group 947" transform="translate(0.05 0.05)">
    <ellipse id="Ellipse_15" data-name="Ellipse 15" cx="40.282" cy="40.281" rx="40.282" ry="40.281" fill="#7a9280" stroke="#6a806c" stroke-miterlimit="10" stroke-width="0.1"/>
    <path id="Path_814" data-name="Path 814" d="M17.571,5.493c-5.157-2.177-9.168,4.175-5.433,8.05,6.319,5.879,12.98-4.611,5.433-8.05m-5.287,4.651a2.161,2.161,0,0,1,1.092-1.911c1.864-.9,5.027-.186,5.237,2.191a2.558,2.558,0,0,1-.652,2.284c-1.924,1.818-5.9.233-5.676-2.563" transform="translate(24.702 11.596)" fill="#f2d499"/>
    <path id="Path_815" data-name="Path 815" d="M28.744,20.8c-.236-1.162-1.568-.846-1.8.173a6.584,6.584,0,0,0-.286,3.888c-1.934.363-3.9.543-5.866.726.419-5.014-.09-10.12.409-15.127a.942.942,0,0,0-.559-1.025c-.153-.26-.509-.343-1.149-.16-5.257,3.948-5.2,10.387-10.883.826a.781.781,0,0,0-1.4.7c1.741,3.732,5.453,8.932,9.757,5.054a11.978,11.978,0,0,0,2.274-2.743c.146,6.518.123,13.1-1.914,19.318.143,4.078,3.615,6.738,5.972,9.624a1.392,1.392,0,1,0,2.114-1.811c-1.924-2.244-6.6-5.273-5.739-8.569a27.069,27.069,0,0,0,.969-4.657c1.112.153,2.23.253,3.356.326s2.274.11,3.416.08c.406,1.115.856,2.22,1.145,3.319.32,1.445.842,4.125-.546,5.1a.787.787,0,0,0-.2,1.135A.824.824,0,0,0,29.067,37c2.424-1.994,1.461-6.012,1.092-8.666C29.776,25.806,29.021,23.326,28.744,20.8Z" transform="translate(16.412 21.204)" fill="#f2d499"/>
    <path id="Path_816" data-name="Path 816" d="M26.789,9.341a1.393,1.393,0,0,0-1.911.479c-1.238,1.744-2.843,5.4-5.25,5.18a6.241,6.241,0,0,1-2.58-1.888c-.955-1.015-1.841-2.147-2.71-3.252a.629.629,0,0,0-1.032.712c2.517,4.364,6.348,9.618,11.079,4.284a30.463,30.463,0,0,0,2.823-3.512A1.4,1.4,0,0,0,26.789,9.341Z" transform="translate(30.611 21.128)" fill="#f2d499"/>
    <path id="Path_817" data-name="Path 817" d="M52.2,13.087a41.725,41.725,0,0,0-.423-4.364c-1-1.451-1.595-.206-1.931,2.527l-.107,0c-13.786.366-28.37-.01-42.2.639q-.055-1.528-.13-3.046a.626.626,0,0,0-1.252.023C6.062,20.5,5.7,32.2,5.05,43.807a1.394,1.394,0,0,0,2.786.047q.145-8.759.05-17.514c-.043-4.354-.133-8.782-.293-13.173,13.8-.037,28.227.762,42.019.862-.539,9.731.609,28.194.436,29.678a.784.784,0,0,0,1.568-.037c-.107-5.09-.07-10.22.083-15.307.3-5.087.862-10.177.5-15.277" transform="translate(11.596 18.723)" fill="#f2d499"/>
  </g>
</svg>
