<svg xmlns="http://www.w3.org/2000/svg" xmlns:xlink="http://www.w3.org/1999/xlink" width="123.92" height="80.308" viewBox="0 0 123.92 80.308">
  <defs>
    <clipPath id="clip-path">
      <rect id="Rectangle_311" data-name="Rectangle 311" width="120.368" height="34.317" fill="#f2d499"/>
    </clipPath>
  </defs>
  <g id="Group_951" data-name="Group 951" transform="translate(0 48.958) rotate(-24)">
    <g id="Group_565" data-name="Group 565" clip-path="url(#clip-path)">
      <path id="Path_1222" data-name="Path 1222" d="M275.155,21.665a2.583,2.583,0,0,1-2.583-2.583V2.583a2.583,2.583,0,0,1,5.166,0v16.5a2.583,2.583,0,0,1-2.583,2.583" transform="translate(-217.27 0)" fill="#f2d499"/>
      <path id="Path_1223" data-name="Path 1223" d="M402.517,56.128a2.585,2.585,0,0,1-2.375-3.6l6.474-15.176a2.583,2.583,0,0,1,4.753,2.027l-6.474,15.176a2.584,2.584,0,0,1-2.377,1.57" transform="translate(-318.793 -28.524)" fill="#f2d499"/>
      <path id="Path_1224" data-name="Path 1224" d="M122.352,56.128a2.584,2.584,0,0,1-2.377-1.57L113.5,39.382a2.583,2.583,0,0,1,4.753-2.027l6.474,15.176a2.585,2.585,0,0,1-2.375,3.6" transform="translate(-90.307 -28.524)" fill="#f2d499"/>
      <path id="Path_1227" data-name="Path 1227" d="M27.142,392.855a.281.281,0,0,0-.032,0,.048.048,0,0,1,.016,0h.016Z" transform="translate(-21.61 -313.149)" fill="#f2d499"/>
      <path id="Path_1228" data-name="Path 1228" d="M593.054,405.374a.333.333,0,0,1,.044.02.029.029,0,0,1-.012,0,.161.161,0,0,0-.032-.016" transform="translate(-472.731 -323.128)" fill="#f2d499"/>
    </g>
  </g>
</svg>
