<svg xmlns="http://www.w3.org/2000/svg" width="80.663" height="80.663" viewBox="0 0 80.663 80.663">
  <g id="Group_946" data-name="Group 946" transform="translate(0.05 0.05)">
    <ellipse id="Ellipse_16" data-name="Ellipse 16" cx="40.282" cy="40.282" rx="40.282" ry="40.282" fill="#f2d499" stroke="#6a806c" stroke-miterlimit="10" stroke-width="0.1"/>
    <path id="Path_818" data-name="Path 818" d="M82.091,19.559a7.529,7.529,0,0,0-2.7-1.881,4.838,4.838,0,0,0-.579-2.776c-.9-1.8-2.647-1.222-3.692-2.447-1.175-2.354-2.49-4.3-5.55-3.243A5.1,5.1,0,0,0,68.2,10.358c-2.131-3.639-8.066-1.368-8.509,2.74a3.484,3.484,0,0,0-2.637,5.19c-2.973.679-4.631,4.228-3.542,7.111a3.678,3.678,0,0,0,1.232,1.991,5.266,5.266,0,0,0,4.751,8.06c.33.08.566.14.7.453a4.553,4.553,0,0,0,4.488,2.87,5.237,5.237,0,0,0,3.775-1.931,4.106,4.106,0,0,0,4.1,2.287l-.166.013c2.2.173,3.492-1.957,4.711-3.349,4.707-.14,8-5.356,4.424-8.8A5.129,5.129,0,0,0,82.091,19.559ZM59.926,13.011c.093-.057.1-.033.057-.01l-.093.037.037-.027M76.175,33.275a2.522,2.522,0,0,0-.856.762c-.716.862-1.139,2.114-2.014,2.783a1.836,1.836,0,0,1-1.052.32c-1.468.246-2.384-1.145-2.753-2.42l0-.013a1.169,1.169,0,0,0-2.33-.176,2.6,2.6,0,0,1-4.235,1.7c-.649-.509-.7-1.4-1.235-2.007-.972-1.278-2.85-.955-3.995-1.7a2.386,2.386,0,0,1-.34-3.366,1.576,1.576,0,0,0,.13-.186c1.325.346,2.5.007,2.657-1.635a1.589,1.589,0,0,0-1.711-1.458c-3.526.28-3.922-5.217-.756-6.135.1-.047.34-.11.466-.15l.037.03c.919.816,2.121-.716,1.105-1.412a1.814,1.814,0,0,1-.446-2.587,1.26,1.26,0,0,1,.819-.36c2-.2,1.878-.746,2.657-2.317a3.021,3.021,0,0,1,3.449-1.062,3.365,3.365,0,0,1,1.092,1.132,20.614,20.614,0,0,0-.389,6.378c.183,2.51.579,5.187.126,7.624a1.587,1.587,0,0,0,3.163.28c.589-5.28-2.51-10.813.183-15.73a1.551,1.551,0,0,1,2.244-.136c.929,1.218,1.218,2.6,2.773,3.312a8.074,8.074,0,0,0,1.421.493c1.032.326,1.169,2.087.579,2.836a1.19,1.19,0,0,0-.3.692,1.6,1.6,0,0,0,1.408,1.871,3.507,3.507,0,0,1,1.991.819,2.806,2.806,0,0,1-1.9,4.96.715.715,0,0,0,.017,1.428,4.953,4.953,0,0,0,1.461-.033C80.943,30.8,79.138,32.543,76.175,33.275Z" transform="translate(-27.494 16.3)" fill="#7a9280"/>
    <path id="Path_819" data-name="Path 819" d="M64.151,13.925c1.535,2.047,4.78.293,4.3-2.081-.962-4.088-7.021-1.235-4.3,2.081" transform="translate(-3.545 19.305)" fill="#7a9280"/>
    <path id="Path_825" data-name="Path 825" d="M74.291,8.731c.01.4.033.779.05,1.105.04.413.519.3.812.346,1.967.449,4.587.16,4.381-2.457C79.321,6,76.681,4.839,75.213,5.678a2.182,2.182,0,0,0-.769,1.258C61.311,5.215,48.331,17.972,50.532,31.2a.907.907,0,0,0,1.788-.07c1.059-6.781,3.449-13.872,8.812-18.443A18.5,18.5,0,0,1,70.27,8.751a17.286,17.286,0,0,1,4.021-.02" transform="translate(-34.215 8.999)" fill="#7a9280"/>
    <path id="Path_824" data-name="Path 824" d="M57.4,19.079c-3.669-1.731-5.646,4.118-1.541,4.747,2.683.22,4.291-3.535,1.541-4.747" transform="translate(-26.561 40.117)" fill="#7a9280"/>
    <path id="Path_826" data-name="Path 826" d="M83.86,13.63l-.07,1.119c-.812,11.642-10.46,20.926-22.165,20.693a2.015,2.015,0,0,0-.426-.736c-3.033-2.071-7.64,2.567-3,4.614.8.316,3.1.576,3.233-.569l.02-.15c13.176.013,24.479-11.792,23.833-24.965a.715.715,0,0,0-1.428-.007" transform="translate(-20.375 26.574)" fill="#7a9280"/>
    <path id="Path_84083" data-name="Path 84083" d="M63.454,12.667c3.376,2.161,5.673-4.128,1.874-5.03-2.976-.749-4.374,3.569-1.874,5.03" transform="translate(-8.917 13.074)" fill="#7a9280"/>
  </g>
</svg>
