<svg xmlns="http://www.w3.org/2000/svg" width="80.982" height="80.982" viewBox="0 0 80.982 80.982">
  <g id="Group_949" data-name="Group 949" transform="translate(0.05 0.05)">
    <ellipse id="Ellipse_18" data-name="Ellipse 18" cx="40.441" cy="40.441" rx="40.441" ry="40.441" fill="#bc756a" stroke="#6a806c" stroke-miterlimit="10" stroke-width="0.1"/>
    <path id="Path_832" data-name="Path 832" d="M146.666,13.077c.023,2.086,3.222,2.129,3.556.184a1.8,1.8,0,1,0-3.556-.184" transform="translate(-111.955 21.865)" fill="#fff"/>
    <path id="Path_833" data-name="Path 833" d="M160.369,18.718c.388-.949,1.644-1.213,2.156-2.059.909-1.6.291-3.533-1.728-3.459a12.629,12.629,0,0,1-3.085.2c-1.882-.712-1.735-3.3-3.225-4.5-1.193-.969-2.721.007-3.339,1.133-.491.836.07,1.952-.338,2.824-1.193,2.172-5.468-.906-6.337,1.938-.207,1.387.421,1.584,1.29,2.393,1.544,1.564,2.423,2.577.09,3.961a1.744,1.744,0,0,0-.765,2.4c.318.418.655.983,1.23.929,2.139-.348,3.546-1.367,5.214.635l-.033-.033c.535.956.284,2.323,1.026,3.249a1.646,1.646,0,0,0,2.7-.515c.321-.749.137-1.638.391-2.343.692-.8,1.825-1.056,2.64-1.755,2.988.839,3.335,2.136,4.445-1.651C161.994,21.024,159.875,20.249,160.369,18.718ZM154.6,24.069c-.789.582-.759,1.564-.876,2.426-.274-1.855-.495-2.677-2.289-3.874a4.167,4.167,0,0,0-3.409-.488c2.193-1.788,1.527-3.987-.063-5.922,2.881.247,5.05-.428,5.665-3.072,1.033,1.842,2.517,3.366,4.906,3.112a3.781,3.781,0,0,0,.712-.05c-2,2.179-1.44,4.96,1.725,6.541-.037.04-.07.077-.1.117-.9-.3-2.553-.842-2.553-.842-.625-.234-.966.344-1.454.652a10.55,10.55,0,0,0-2.259,1.4" transform="translate(-117.173 15.809)" fill="#f2d499"/>
    <path id="Path_834" data-name="Path 834" d="M189.932,50.856a13.421,13.421,0,0,1-.612-11.22,15.957,15.957,0,0,0-7.306-16.34c.541-22.125-41.189-23-39.943-.057.05,3.717,1.724,7.176,1.872,10.869.177,3.6-1.681,6.815-2.821,10.144a1.2,1.2,0,0,0,1.511,1.527c3.67-1.257,7.263-2.731,10.8-4.321a21.617,21.617,0,0,0,4.98,1.347c4.071,7.366,14.351,9.97,22.005,7.065a56.1,56.1,0,0,1,5.662,2.049c.581.254,1.4.582,1.985.859a1.441,1.441,0,0,0,1.872-1.922m-8.309-2.791c-.495-.084-1.08-.434-1.577-.237-6.457,2.851-15.434,1.08-19.592-4.816a22.051,22.051,0,0,0,11.023-2.243,1.445,1.445,0,0,0-1.37-2.543,19.4,19.4,0,0,1-16.176.668,1.25,1.25,0,0,0-1.059.01c-2.824,1.347-5.689,2.6-8.606,3.73,1.227-3.252,2.413-6.6,1.771-10.1-.291-2.319-1.113-4.509-1.561-6.785C140.1-2.6,194.257,6.271,177.061,32.591a1.052,1.052,0,0,0,1.838,1.023,26.52,26.52,0,0,0,2.911-8.209c9.7,10.053,1.059,15.06,4.866,24.288-1.671-.592-3.356-1.146-5.054-1.628" transform="translate(-125.118 10.803)" fill="#f2d499"/>
  </g>
</svg>
