<svg xmlns="http://www.w3.org/2000/svg" xmlns:xlink="http://www.w3.org/1999/xlink" width="149.915" height="59.865" viewBox="0 0 149.915 59.865">
  <defs>
    <clipPath id="clip-path">
      <rect id="Rectangle_352" data-name="Rectangle 352" width="149.915" height="59.865" fill="#bc756a"/>
    </clipPath>
  </defs>
  <g id="Group_648" data-name="Group 648" transform="translate(0 -5.865)">
    <g id="Group_647" data-name="Group 647" transform="translate(0 5.865)" clip-path="url(#clip-path)">
      <path id="Path_37496" data-name="Path 37496" d="M162.178,30.33a17.523,17.523,0,0,0-2.984-.777,71.572,71.572,0,0,1,7.478-10.7A56.531,56.531,0,0,1,183.085,5.36,44.76,44.76,0,0,1,204.307,0a51.331,51.331,0,0,1,24.977,6A48.118,48.118,0,0,1,245.556,20.79a60.033,60.033,0,0,1,5.566,9.883,22.918,22.918,0,0,0-2.938.713,21.856,21.856,0,0,0-2.8,1.086c-.158.072-.314.149-.471.227-2.323,1.157-4.227,2.921-6.416,4.284a8.072,8.072,0,0,1-3.291,1.334.6.6,0,0,0-.088.019h0l-.078.006c-.137.011-.274.023-.412.03-.309.015-.617.015-.924,0-.171-.008-.341-.025-.513-.036-.021,0-.072-.008-.12-.013a.053.053,0,0,0-.017,0,.055.055,0,0,1-.017,0,.129.129,0,0,1-.027,0h-.008l0,0H233a.032.032,0,0,0-.013,0c-.288-.05-.575-.111-.859-.179a17.294,17.294,0,0,1-1.806-.575l-.107-.038-.019-.01s0,0-.006,0-.036-.017-.065-.029c-.166-.071-.33-.147-.494-.223-.33-.156-.657-.32-.979-.49a38.79,38.79,0,0,1-3.619-2.218c-2.273-1.54-4.467-3.177-6.858-4.537-4.886-2.782-10.584-4.85-16.283-4.12-5.038.646-9.1,3.453-13.141,6.325a44,44,0,0,1-5.637,3.581c-.231.116-.463.227-.7.335q-.143.066-.286.126l0,0-.076.029c-.528.2-1.058.387-1.6.532a12.87,12.87,0,0,1-1.313.28h0c-.034,0-.349.036-.467.044-.316.023-.635.032-.953.029-.276,0-.553-.015-.829-.04-.069-.006-.139-.011-.208-.019a.032.032,0,0,1-.013,0l-.274-.04a13.558,13.558,0,0,1-1.759-.438q-.457-.146-.9-.318l-.2-.08h0l0,0-.044-.017-.139-.059c-.589-.271-1.172-.551-1.746-.858-2.188-1.166-4.248-2.557-6.456-3.687-.061-.03-.12-.061-.181-.09a23.047,23.047,0,0,0-2.773-1.191" transform="translate(-128.858)" fill="#bc756a"/>
      <path id="Path_37497" data-name="Path 37497" d="M217.047,177.273c-.185-1.4-.415-2.8-.688-4.192q-.417-2.115-.96-4.21a71,71,0,0,0-2.266-7.15l-.055.006a.174.174,0,0,1-.03,0l-.025,0-.017,0c-.269.044-.535.082-.8.132q-1.018.189-2.012.478-.566.163-1.121.36c-.17.061-.339.122-.507.189l-.181.071-.038.015-.011.006a.217.217,0,0,1-.025.01c-.1.044-.244.1-.244.1l-.328.152c-.112.053-.225.107-.335.164q-.56.28-1.1.6a34.01,34.01,0,0,0-3.032,2.094c-2.321,1.723-4.7,3.173-7.632,3.495a14.838,14.838,0,0,1-8.025-1.776,51.088,51.088,0,0,1-6.847-4.339,47.135,47.135,0,0,0-7.106-4.215c-.737-.345-.97-.444-1.656-.707q-.875-.337-1.772-.616-1.043-.323-2.111-.553c-.284-.059-.566-.114-.852-.164-.175-.03-.354-.059-.532-.084l-.063-.01a.007.007,0,0,1-.006,0l-.122-.01a19.945,19.945,0,0,0-3.846-.008l-.131.013h0c-.036.006-.09.017-.162.029-.143.025-.284.05-.425.076q-.48.091-.955.215a16.236,16.236,0,0,0-1.618.511c-.162.059-.324.128-.486.189h0l-.008,0c-.238.112-.48.219-.717.333-.484.234-.957.488-1.425.753-.945.537-1.86,1.128-2.761,1.74-1.854,1.26-3.642,2.616-5.521,3.842a24.322,24.322,0,0,1-6.062,2.988,14.328,14.328,0,0,1-7.14.318c-4.417-.918-8.026-3.826-11.981-5.854-.406-.206-.814-.4-1.227-.591l-.112-.051a0,0,0,0,0,0,0h0l-.109-.04c-.122-.046-.244-.1-.366-.141-.274-.1-.553-.2-.833-.284-.042-.013-.086-.027-.128-.038a13.1,13.1,0,0,0-1.294-.324c-.168-.032-.335-.061-.5-.09a.149.149,0,0,0-.027,0c-.257-.029-.511-.053-.77-.069-.158-.01-.318-.017-.476-.019a77.354,77.354,0,0,0-3.36,7.735q-.795,2.138-1.45,4.3-.737,2.433-1.292,4.869c-.4,1.782-.73,3.558-.974,5.317a3.25,3.25,0,0,0-.04.354c-.013.1-.03.2-.046.3a2.989,2.989,0,0,0,.522,2.233s0,0,.006.008c.044.061.09.12.139.179a2.99,2.99,0,0,0,2.279,1.056H214.606a2.985,2.985,0,0,0,2.984-3.074,64.676,64.676,0,0,0-.543-6.624m-4.844.234q-.56.1-1.115.238a20.1,20.1,0,0,0-2.018.6c-.17.061-.339.124-.507.189l-.179.072a.184.184,0,0,0-.04.015l-.28.12c-.109.05-.219.1-.328.151-.49.232-.97.486-1.437.76-.7.41-1.364.871-2.02,1.347-.339.248-.675.5-1.012.747a23.876,23.876,0,0,1-3.518,2.239,12.067,12.067,0,0,1-4.114,1.258,13.833,13.833,0,0,1-6.889-1.258c-.385-.164-.762-.339-1.136-.52a34.607,34.607,0,0,1-4.16-2.466c-.905-.61-1.8-1.246-2.687-1.873a46.966,46.966,0,0,0-7.106-4.213c-.737-.347-.97-.446-1.656-.709-.583-.223-1.174-.431-1.772-.614-.7-.215-1.4-.4-2.111-.553-.284-.061-.566-.116-.852-.164-.175-.03-.354-.059-.532-.086l-.036-.006h-.008a.012.012,0,0,0-.008,0c-.036,0-.082-.006-.139-.011a20.1,20.1,0,0,0-3.846-.01l-.128.013-.013,0-.154.029c-.143.025-.284.048-.425.074-.32.063-.638.133-.955.215a16.248,16.248,0,0,0-1.618.511c-.156.059-.312.122-.469.183a.067.067,0,0,0-.017.008c-.242.114-.486.219-.726.335-.484.236-.957.488-1.425.753-.945.537-1.86,1.128-2.761,1.74-1.854,1.262-3.642,2.618-5.521,3.844-.278.181-.56.36-.844.534a22.813,22.813,0,0,1-5.218,2.454,14.088,14.088,0,0,1-2.557.532,14.3,14.3,0,0,1-3.23,0c-.454-.05-.9-.122-1.353-.215A22.617,22.617,0,0,1,128.662,181c-2.186-1.256-4.312-2.653-6.586-3.674l-.112-.051-.006,0-.008,0c-.025-.008-.057-.021-.1-.036l-.366-.139c-.274-.1-.553-.2-.833-.286a14,14,0,0,0-1.422-.362c-.168-.032-.335-.059-.5-.088a.149.149,0,0,0-.027,0c-.257-.029-.511-.053-.77-.069l-.12-.006c-.44-.023-.882-.025-1.322-.008-.057,0-.116,0-.173.008h0q-.014-.089-.034-.177c-.061-.314-.128-.631-.2-.953q-.126-.557-.269-1.132c-.006-.027-.011-.055-.019-.082-.063-.248-.128-.5-.194-.747v0c-.09-.335-.183-.673-.282-1.016.208-.021.414-.038.621-.053a15.613,15.613,0,0,1,2.332.017c.261.023.522.05.779.088a19.87,19.87,0,0,1,6.468,2.136c2.209,1.132,4.269,2.521,6.456,3.689.574.3,1.157.587,1.746.858.008,0,.019.008.032.015l.015.006.031.011a.231.231,0,0,0,.032.013l.011.006h0l.01,0,.006,0a.049.049,0,0,0,.013,0l0,0a.061.061,0,0,0,.017.006l0,0,.008,0a0,0,0,0,0,0,0l.006,0,.2.08c.3.114.6.221.9.316a13.257,13.257,0,0,0,1.759.438c.048.01.166.025.234.036h0a.053.053,0,0,0,.017,0c.008,0,.011,0,.015,0,.076.01.152.015.227.023.276.023.553.036.829.038.318,0,.636-.006.953-.027.126-.01.469-.051.469-.046a12.369,12.369,0,0,0,1.313-.278c.545-.147,1.075-.335,1.6-.534l.1-.036a.027.027,0,0,1,.011,0l.257-.116c.234-.107.467-.219.7-.333a43.8,43.8,0,0,0,5.637-3.583c4.038-2.87,8.1-5.679,13.141-6.323,5.7-.732,11.4,1.338,16.283,4.12,2.392,1.359,4.585,3,6.858,4.535a38.384,38.384,0,0,0,3.619,2.218c.322.171.65.335.979.49.164.078.328.152.494.225l.048.021a.067.067,0,0,0,.017.008l.131.048a17.3,17.3,0,0,0,1.807.577c.181.044.362.084.545.12l.314.057a.13.13,0,0,1,.027,0h0l.061.01.12.013c.172.013.341.029.513.036.307.015.615.015.924,0,.137-.008.274-.021.412-.031l.078-.006h0a.6.6,0,0,1,.088-.019c.112-.021.221-.042.324-.065a8.053,8.053,0,0,0,2.967-1.269c2.19-1.364,4.093-3.129,6.416-4.286a22.448,22.448,0,0,1,5.082-1.8,23.17,23.17,0,0,1,2.938-.469c.252-.025.5-.044.755-.059q-.237.809-.459,1.614v0c-.244.882-.475,1.763-.7,2.641v0a.014.014,0,0,1,0,.008v0c-.24.038-.48.076-.718.12" transform="translate(-89.244 -127.106)" fill="#bc756a"/>
      <path id="Path_37498" data-name="Path 37498" d="M137.335,176.337s.008,0,.011,0a.312.312,0,0,0-.034,0l0,0a.072.072,0,0,1,.019,0" transform="translate(-111.146 -142.734)" fill="#bc756a"/>
      <path id="Path_37499" data-name="Path 37499" d="M137.507,176.331l-.015,0,0,0Z" transform="translate(-111.291 -142.729)" fill="#bc756a"/>
      <path id="Path_37500" data-name="Path 37500" d="M83.062,162.3q.92,1.941,1.721,3.781c-.1.044-.191.088-.286.133a18.333,18.333,0,0,0-2.782,1.681l-.029.021-.008.006-.015.013c-.1.1-.223.181-.332.273-.173.147-.345.3-.513.452-.375.345-.737.709-1.079,1.09-.191.212-.37.429-.551.648l-.03.036,0,0a.041.041,0,0,0-.006.01c-.015.023-.03.048-.048.07-.581-1.387-1.2-2.8-1.862-4.208a19.064,19.064,0,0,1,5.82-4.007" transform="translate(-62.523 -131.373)" fill="#bc756a"/>
      <path id="Path_37501" data-name="Path 37501" d="M137.372,258.415a.055.055,0,0,1,.017,0h.013l-.03,0" transform="translate(-111.194 -209.168)" fill="#bc756a"/>
      <path id="Path_37502" data-name="Path 37502" d="M109.61,240.4q.02.089.034.177c-.253.013-.5.032-.757.057-.03,0-.061.006-.093.011a.024.024,0,0,0-.011,0,.016.016,0,0,0-.013,0,.148.148,0,0,0-.029,0h-.008a.169.169,0,0,1-.025,0l-.067.008c-.015,0-.03.006-.042.008-.2.036-.4.071-.6.111-.3.059-.606.122-.905.2a16.2,16.2,0,0,0-1.549.484c-.088.032-.509.2-.52.2-.114.05-.231.1-.345.156-.046.019-.09.042-.135.063a15.94,15.94,0,0,0-1.563.861,36.553,36.553,0,0,0-.972-4.246,19.668,19.668,0,0,1,2.908-1.235q.52-.172,1.054-.312a17.537,17.537,0,0,1,2.672-.49c.1.343.192.68.282,1.016v0c.067.252.131.5.194.747.008.027.013.055.019.082q.143.575.269,1.132c.071.322.137.638.2.953" transform="translate(-82.574 -191.408)" fill="#bc756a"/>
      <path id="Path_37503" data-name="Path 37503" d="M703.312,270.931a.33.33,0,0,1,.042.019.027.027,0,0,1-.011,0,.151.151,0,0,0-.03-.015" transform="translate(-569.288 -219.302)" fill="#bc756a"/>
      <path id="Path_37504" data-name="Path 37504" d="M27.548,75.106a2.9,2.9,0,0,1-.046.292,3.481,3.481,0,0,1-3.413,2.816,3.181,3.181,0,0,1-.379-.021,3.478,3.478,0,0,1-2.132-1.044s-.006-.006-.006-.008a3.467,3.467,0,0,1-.951-2.786,17.076,17.076,0,0,0-.21-4.492,36.555,36.555,0,0,0-.972-4.246,73.365,73.365,0,0,0-2.858-7.956c-.581-1.387-1.2-2.8-1.862-4.208A209.6,209.6,0,0,0,.582,28.291a3.484,3.484,0,0,1,5.8-3.859c.231.347,5.717,8.623,11.094,18.888q1.666,3.181,3.06,6.127.92,1.941,1.721,3.781,1.506,3.456,2.592,6.544.7,1.981,1.221,3.809c.1.343.192.68.282,1.016v0c.067.252.131.5.194.747.008.027.013.055.019.082q.143.575.269,1.132c.071.322.137.638.2.953q.02.089.034.177h0a31.493,31.493,0,0,1,.535,4.088c.013.213.023.425.03.633a19,19,0,0,1-.09,2.695" transform="translate(0 -18.519)" fill="#bc756a"/>
      <path id="Path_37505" data-name="Path 37505" d="M641.706,75.106a2.888,2.888,0,0,0,.046.292,3.481,3.481,0,0,0,3.413,2.816,3.183,3.183,0,0,0,.379-.021,3.478,3.478,0,0,0,2.132-1.044s.006-.006.006-.008a3.467,3.467,0,0,0,.951-2.786,17.078,17.078,0,0,1,.21-4.492,36.568,36.568,0,0,1,.972-4.246,73.37,73.37,0,0,1,2.858-7.956c.581-1.387,1.2-2.8,1.862-4.208a209.6,209.6,0,0,1,14.138-25.164,3.484,3.484,0,0,0-5.8-3.859c-.231.347-5.717,8.623-11.094,18.888q-1.666,3.181-3.06,6.127-.92,1.941-1.721,3.781-1.506,3.456-2.592,6.544-.7,1.981-1.222,3.809c-.1.343-.192.68-.282,1.016v0c-.067.252-.131.5-.194.747-.008.027-.013.055-.019.082q-.143.575-.269,1.132c-.07.322-.137.638-.2.953q-.02.089-.034.177h0a31.472,31.472,0,0,0-.536,4.088c-.013.213-.023.425-.031.633a19,19,0,0,0,.09,2.695" transform="translate(-519.339 -18.519)" fill="#bc756a"/>
    </g>
  </g>
</svg>
