<svg xmlns="http://www.w3.org/2000/svg" width="57.669" height="58.824" viewBox="0 0 57.669 58.824">
  <g id="Group_916" data-name="Group 916" transform="translate(-827.166 -5347.691)">
    <path id="Path_987" data-name="Path 987" d="M204.709,155.851a70.423,70.423,0,0,1,2.275-8.236.979.979,0,0,0-1.856-.624c-.7,2.051-1.457,4.28-2.075,6.35a10.1,10.1,0,0,0-.427,5.4c.861,6.166,4.1,11.71,4.033,17.96a1.012,1.012,0,0,0,1.92.393,11.51,11.51,0,0,0,.819-5.827c-.4-5.5-4.581-9.9-4.689-15.415" transform="translate(634.126 5228.088)" fill="#f2d499"/>
    <path id="Path_988" data-name="Path 988" d="M208.752,145.368c6.144-2.177,4.721-11.228-1.36-12.261-3.856-.718-7.207,2.951-6.916,6.671.339,4.208,4.171,7.189,8.277,5.59m-.343-8.136-.072-.082c5.8,5.409-5.353,10.151-5.9,2.468.146-2.745,3.939-4,5.975-2.386" transform="translate(632.126 5214.675)" fill="#f2d499"/>
    <path id="Path_989" data-name="Path 989" d="M226.52,153.308a4.491,4.491,0,0,1-3.008-1.545c-2.815-2.7-4.765-6.685-8.513-8.375-12.709-6.571-15.106,5.484-16.862,15.245-.744,4.631,1.087,9.157,1.589,13.654a16.18,16.18,0,0,1-1.8,8.569,1.742,1.742,0,0,0,3.184,1.413c4.557-10.245-.325-13.644-.2-22.611.026-.427.08-.961.134-1.384.775-3.955,1.244-8.236,3.236-11.756,2.426-4.472,8-2.446,11.423-.349,3.65,2.448,5.969,8.584,10.867,8.706a.784.784,0,0,0-.046-1.567" transform="translate(629.408 5223.227)" fill="#f2d499"/>
    <path id="Path_990" data-name="Path 990" d="M241.772,181.1a23.985,23.985,0,0,1-1.1-2.657,15.8,15.8,0,0,1-.528-8.341c.588-2.965,1.519-5.961,1.511-9.041.068-3.351-1.023-6.507-1.6-9.809-.369-1.667-.7-3.4-1.216-5.044-2.175-6.051-10.454-5.75-15.014-2.636-3.86,1.912-7.177,8.421-11,8.9-3.417.724-1.266,6.4,4.615,1.457,2.905-2.428,4.785-5.889,7.909-7.883,2.865-2.043,7.937-3.1,10.522-.144a5.086,5.086,0,0,1,.847,1.848c.969,3.473,1.657,7.014,2.516,10.524,1.214,9.358-4.224,13.188.209,23.818a1.268,1.268,0,1,0,2.331-1" transform="translate(642.928 5223.108)" fill="#bc756a"/>
    <path id="Path_991" data-name="Path 991" d="M223.383,149.1c-.419-.742-.75-3-1.9-2.62-1.156.534-.006,1.872.094,2.735,3.236,9.838-4.129,16.974-2.634,27.227a1.742,1.742,0,1,0,3.453-.463,23.082,23.082,0,0,1-.108-6.894c1.108-6.844,3.89-13.03,1.1-19.984" transform="translate(650.525 5228.183)" fill="#bc756a"/>
    <path id="Path_992" data-name="Path 992" d="M229.866,139.611a5.905,5.905,0,0,0-5.722-6.489c-3.937-.2-6.655,3.549-5.975,7.285,1.244,6.37,11.348,5.8,11.7-.8m-8.449-1.537c1.382-2.528,6.607-1.75,6.487,1.431-.116,5.393-9.366,3.6-6.487-1.431" transform="translate(649.845 5214.773)" fill="#bc756a"/>
  </g>
</svg>
