<svg xmlns="http://www.w3.org/2000/svg" width="62.431" height="62.804" viewBox="0 0 62.431 62.804">
  <g id="Group_919" data-name="Group 919" transform="translate(-803.896 -5123.847)">
    <path id="Path_997" data-name="Path 997" d="M365.239,142.508c3.927-10.185-12.432-13.677-12.7-2.743.131,6.914,9.8,9.05,12.7,2.743m-10.6-2.816c.306-4.252,8.556-4.16,8.176,1.005-.678,4.935-8.4,4.039-8.176-1.005" transform="translate(460.227 4996.442)" fill="#f4c985"/>
    <path id="Path_998" data-name="Path 998" d="M366.2,166.119c-.143-.727.162-3.025-.451-3.568-2.709-2.995-6.574-6.1-6.119-10.515.167-1.253,1.368-2.993-.545-3.493-1.843-.257-1.758,2.061-1.851,3.322-.184,4.806,3.177,8.678,6.1,12.076-.1,3.23-.24,6.957-.434,10.179a1.862,1.862,0,1,0,3.722-.015c-.167-2.429-.318-5.542-.425-7.986" transform="translate(464.346 5010.041)" fill="#f4c985"/>
    <path id="Path_999" data-name="Path 999" d="M377.955,153.513c-1.954-2.063-4.069-4.334-6.074-6.343-11.477-12.576-26.032.866-23.843,14.887a1.861,1.861,0,1,0,3.667-.641c-1.018-5.33.973-11.729,5.6-14.9-.1,7.866-.008,15.725-1.189,23.512-.393,1.559-1.657,3.027-2.446,4.471a50.026,50.026,0,0,0-2.429,5.3,1.07,1.07,0,0,0,1.764,1.114,56.928,56.928,0,0,0,4.216-5.383c3.423-4.06,2.705-6.835,2.626-11.8-.165-6.083-.468-12.231-.421-18.32,7.214-2.7,12.4,5.313,17.217,9.4.86.545,2.215,2.914,3.282,2,.992-1.058-1.422-2.414-1.974-3.3" transform="translate(456.078 5004.456)" fill="#f4c985"/>
    <path id="Path_1000" data-name="Path 1000" d="M397.676,179.4c-.511-.049-1.1-.122-1.736-.2.009-.039.021-.079.03-.12,1.325-5.832-2.315-11.192-6.391-14.974-.883-1.11-.045-2.923-.357-4.331a.838.838,0,0,0-1.665.171c-.085,1.787-1.088,4.009.287,5.623,2.98,3.446,5.986,7.921,4.505,12.644a2.1,2.1,0,0,0-.077.646c-2.27-.092-4.509.137-5.807,1.34-.571,1.071-.25,2.4-.353,3.508a14.486,14.486,0,0,1-4.359.616c-.21-10.643-1.041-22.31-.682-32.994a5.692,5.692,0,0,1,2.7.011c8.764,1.319,16.089-7.592,15.569-15.909-.162-1.24-.349-4.693-2-4.627a1.053,1.053,0,0,0-.941,1.154,15.18,15.18,0,0,1,0,3.431c-.693,5.285-3.955,10.716-9.1,12.616-1.693.641-3.423.359-5.2.4-4.6.049-7.389,4.742-9.268,8.374-1.15,2.281-2.146,4.646-3.483,6.81-.425,1.123-2.446,2.271-1.278,3.468,1.494,1.422,3.756-3.686,4.447-4.7,1.635-2.824,3.31-7.346,6.044-9.679.124,2.1.154,4.21.156,6.318-.047,8.379-.165,16.824-.665,25.192a36.011,36.011,0,0,0-3.765-.06c-2.05.062-1.268,3.307-1.464,4.571-.079,0-10.724-.229-10.8-.227a1.861,1.861,0,1,0,.079,3.722l12.279-.261c2.377.038,1.4-3.5,1.527-4.9,3.816-.182,8.657.55,12.039-1.6.93-1.075.381-2.687.462-3.936a16.463,16.463,0,0,1,6.576-.582c.836.043,1.68.1,2.533.156a.838.838,0,0,0,.154-1.666m-11.6,4.592c-.006.008,0-.023.011-.036a.354.354,0,0,0-.011.036" transform="translate(466.962 4994.465)" fill="#bc756a"/>
    <path id="Path_1001" data-name="Path 1001" d="M381.329,137.093c.361-4.909-3.957-8.49-8.635-6.478a6.48,6.48,0,0,0-3.457,7.59c1.537,6.9,12.043,6.168,12.092-1.112m-3.874-2.97a3.183,3.183,0,0,1,1.775,2.983c.295,4.2-5.726,4.979-7.017,1.291-.911-3.339,2.2-5.589,5.242-4.274" transform="translate(474.712 4993.803)" fill="#bc756a"/>
  </g>
</svg>
