<svg xmlns="http://www.w3.org/2000/svg" width="59.035" height="59.783" viewBox="0 0 59.035 59.783">
  <g id="Group_921" data-name="Group 921" transform="translate(-205 -5175.096)">
    <path id="Path_993" data-name="Path 993" d="M256.278,44.161c-2.851-14.494-20.2-24.036-33.634-17.072a24.17,24.17,0,0,0-9.239,36.778q.819,1.14,1.686,2.133c-1.188,1.006-2.279,2.746-3.447,3.4-4.311,3.967-9.347,8.152-13.643,12.14-1.608,6.782,5.216.283,6.775-1.878,3.16-4.007,8.963-7.959,11.506-12.383,14.794,14.841,37.532,1.076,26.765.636A22.435,22.435,0,0,1,235.9,70.6c-24.221,3.1-34.914-30.415-12.193-41.326,18.6-9.268,38.743,12.658,27.7,30.408a1.3,1.3,0,1,0,2.277,1.268A32.041,32.041,0,0,0,255.047,58a23.884,23.884,0,0,0,1.231-13.842" transform="translate(7.242 5150.333)" fill="#bc756a"/>
    <path id="Path_994" data-name="Path 994" d="M230.566,46.776a10.346,10.346,0,0,0-3.589-2.792,7.084,7.084,0,0,0,2.656-7.713c-1.676-6.316-11.519-6.108-13.162.124a7.51,7.51,0,0,0,2.056,7.186c.04.033.078.065.119.1-6.816,3.064-11.429,12.1-.269,12.112a49.5,49.5,0,0,0,8.928-1,16.107,16.107,0,0,1,2.741-.375c4.122-.274,2.229-5.659.52-7.64m-12.29-8.253a2.882,2.882,0,0,1,.595-1.826c1.855-2.026,6.342-2.361,7.709.328a4.562,4.562,0,0,1,0,3.746,4.449,4.449,0,0,1-3.02,2.23,10.167,10.167,0,0,0-1.927-.044,4.376,4.376,0,0,1-3.36-4.434m12,13.833c-.019,0-.065.021-.077.024a.041.041,0,0,1,.031.024c-4.86-1.046-10.044.6-14.871-.6a1.079,1.079,0,0,1-.321-.16c.331-2.133,2.185-3.868,3.866-5.118a6.685,6.685,0,0,1,4.53-1.146,7.847,7.847,0,0,1,6.572,4.541c.181.579.841,2.075.269,2.438" transform="translate(16.554 5155.438)" fill="#f4c985"/>
  </g>
</svg>
