<svg xmlns="http://www.w3.org/2000/svg" width="58.071" height="57.295" viewBox="0 0 58.071 57.295">
  <g id="Group_920" data-name="Group 920" transform="translate(-213.614 -4981.554)">
    <path id="Path_972" data-name="Path 972" d="M13.656,143.962a38.119,38.119,0,0,1-9.236-8.543c2.076-.56,4.272-.009,6.437.254a1.725,1.725,0,0,0-.017-3.449C.984,131.877.242,134.46.1,143.6a1.26,1.26,0,1,0,2.5-.058,13.86,13.86,0,0,1,.237-6.284c3.089,2.856,5.625,6.346,8.606,9.324a1.726,1.726,0,1,0,2.221-2.619" transform="translate(213.688 4849.36)" fill="#f2d499"/>
    <path id="Path_973" data-name="Path 973" d="M9.221,157.128a11.923,11.923,0,0,0-1.879,2.651,19.342,19.342,0,0,1-4.466,4.526c-1.009-1.633-.789-4.176-.28-6a1.261,1.261,0,1,0-2.476-.334C-.658,166.327,2.279,169.455,10.8,169a1.722,1.722,0,1,0-.338-3.417c-2.052.361-4.156.7-6.091.008,3.258-2.551,7.154-4.84,9.007-8.689.406-2.811-3.275-.817-4.158.227" transform="translate(213.614 4869.806)" fill="#f2d499"/>
    <path id="Path_974" data-name="Path 974" d="M24.765,145.228c3.147-2.478,6.269-5,9.174-7.763.229,1.527-.026,3.361.122,4.657,1.437,3.791,5.542-4.186,1.858-7.744-2.365-2.643-6.177-2.01-9.245-1.3A.954.954,0,0,0,27,134.952a11.845,11.845,0,0,1,4.911-.156c-2.546,3.256-5.473,6.207-8.208,9.311a.779.779,0,0,0,1.063,1.122" transform="translate(234.271 4849.591)" fill="#f2d499"/>
    <path id="Path_975" data-name="Path 975" d="M34.372,157.72c-.374,1.407-.425,3.066-.793,4.55-2.948-2.4-5.871-4.569-8.935-6.775a.779.779,0,0,0-1.03,1.152c2.647,2.873,5.674,5.595,8.2,8.584a6.145,6.145,0,0,1-5.542.678.964.964,0,0,0-.566,1.843c6.649,2.574,14.31-3.667,10.536-10.527a1.031,1.031,0,0,0-1.873.494" transform="translate(234.185 4869.701)" fill="#f2d499"/>
    <path id="Path_976" data-name="Path 976" d="M28.469,163.407c3.329-4.753,2.343-10.444,2.416-15.924.167-2.925-1.266-5.606-4.336-6.119-4.706-.776-11.909-2.07-15.432,2.022-1.4,1.781-1.347,5.8-1.554,8.1a39.054,39.054,0,0,0,.537,8.988c.426,2.022,2.7,3.68,3.774,4.83,1.571,4.8.487,9.918.372,14.893a1.717,1.717,0,0,0,3.434.064c-.062-5.439,1.073-11.34-1.259-16.508-1.078-1.618-3.3-2.4-3.628-4.411a42.5,42.5,0,0,1-.2-12.482c.5-5.691,10.055-3.7,13.92-3.13,1.8.38,2.192,2.194,2.153,3.821,1.789,22-7.271,8.24-4.791,32.7a1.25,1.25,0,1,0,2.489-.22c-.376-4.334-1.232-8.873-.348-13.161.426-1.362,1.728-2.207,2.454-3.461" transform="translate(221.974 4856.692)" fill="#bc756a"/>
    <path id="Path_977" data-name="Path 977" d="M20.013,143.9A5.953,5.953,0,0,0,24,136.163c-2.115-5.937-11.688-4.607-11.571,1.89a5.86,5.86,0,0,0,7.586,5.843m1.512-5.569c-.8,3.265-6.872,3.278-7.162-.286-.359-5.065,8.156-4.637,7.162.286" transform="translate(224.53 4849.512)" fill="#bc756a"/>
  </g>
</svg>
