<?xml version="1.0" encoding="UTF-8"?>
<svg id="Layer_2" data-name="Layer 2" xmlns="http://www.w3.org/2000/svg" viewBox="0 0 1400 692.69">
  <defs>
    <style>
      .cls-1 {
        fill: #a9746a;
        stroke-width: 0px;
      }
    </style>
  </defs>
  <g id="Layer_1-2" data-name="Layer 1">
    <path class="cls-1" d="M1398.8,42.69c-4.06.25-8.11.58-12.11,1.03-35.47,3.52-68.44,12.63-100.56,25-34.33,13.28-66.36,29.53-100.37,43.24-8.92,3.55-17.98,6.88-27.14,10.05-.11.04-.29.09-.5.18-.08,0-.16,0-.23.04-.15.05-.3.09-.48.16-.16.06-.33.11-.5.15l-.18.07h-.03c-.06,0-.11.05-.14.05-.04-.01-.08.01-.09.04-.09,0-.15.05-.21.05h-.03c-.09.03-.18.05-.27.06l-.03.02s-.08.02-.12.03c0,.02-.03.02-.03.02-.02,0-.05.02-.08.02-1.04.31-2.08.65-3.12.96-4.62,1.34-9.3,2.59-14.04,3.71-9.02,2.19-18.14,3.9-27.34,5.13-.75.09-2.58.29-3.65.43h-.03c-.09,0-.18.02-.26.02-.12.02-.18.04-.24.02-1.19.09-2.37.18-3.53.25-4.29.29-8.58.44-12.88.44-4.95.05-9.9-.04-14.82-.29-1.95-.13-7.29-.62-7.29-.53-6.87-.81-13.68-1.92-20.41-3.26-8.47-1.72-16.71-3.93-24.91-6.25-.63-.21-1.13-.32-1.51-.43-.06-.02-.12-.04-.18-.04-1.34-.45-2.67-.92-4-1.39-3.65-1.24-7.26-2.54-10.85-3.9-30.98-11.75-59.45-26.84-87.63-41.95-62.78-33.62-125.97-66.53-204.3-74.1-13.42-1.27-26.9-1.84-40.39-1.7-13.48-.14-26.96.43-40.38,1.7-78.33,7.57-141.52,40.48-204.3,74.1-28.18,15.11-56.65,30.2-87.64,41.95-3.58,1.35-7.19,2.65-10.84,3.9-1.33.47-2.67.94-4,1.39-.06,0-.12.02-.18.04-.38.11-.89.23-1.51.43-8.2,2.32-16.44,4.53-24.91,6.25-6.73,1.34-13.54,2.46-20.42,3.26,0-.09-5.33.4-7.28.53-4.92.25-9.87.34-14.82.29-4.29,0-8.58-.15-12.88-.44-1.16-.07-2.34-.16-3.53-.25-.06.02-.12,0-.24-.02-.09,0-.18-.01-.26-.02h-.03c-1.07-.14-2.91-.34-3.65-.43-9.2-1.23-18.32-2.94-27.34-5.13-4.75-1.12-9.42-2.37-14.05-3.71-1.03-.31-2.07-.65-3.11-.96-.03,0-.06-.01-.09-.02,0,0-.03,0-.03-.02-.03-.01-.07-.02-.11-.03l-.03-.02c-.1-.01-.19-.03-.27-.06h-.03c-.06,0-.12-.05-.21-.05-.02-.03-.05-.05-.09-.04-.03,0-.09-.05-.15-.05h-.03l-.17-.07c-.17-.04-.34-.09-.5-.15-.18-.07-.33-.11-.48-.16-.07-.03-.15-.04-.23-.04-.2-.09-.39-.14-.5-.18-9.16-3.17-18.23-6.5-27.14-10.05-34.01-13.71-66.04-29.96-100.38-43.24-20.35-7.84-41.05-14.37-62.51-18.99v558.82c21.46,4.62,42.16,11.15,62.51,18.99,34.34,13.28,66.37,29.53,100.38,43.24,8.91,3.55,17.98,6.88,27.14,10.05.11.04.3.09.5.18.08,0,.16.01.23.04.15.05.3.09.48.16.16.06.33.11.5.15l.17.07h.03c.06,0,.12.05.15.05.04-.01.07.01.09.04.09,0,.15.05.21.05h.03c.08.03.17.05.27.06l.03.02s.08.02.11.03c0,.02.03.02.03.02.03.01.06.02.09.02,1.04.31,2.08.65,3.11.96,4.63,1.34,9.3,2.59,14.05,3.71,9.02,2.19,18.14,3.9,27.34,5.13.74.09,2.58.29,3.65.43h.03c.08.01.17.02.26.02.12.02.18.04.24.02,1.19.09,2.37.18,3.53.25,4.3.29,8.59.44,12.88.44,4.95.05,9.9-.04,14.82-.29,1.95-.13,7.28-.62,7.28-.53,6.88-.8,13.69-1.92,20.42-3.26,8.47-1.72,16.71-3.93,24.91-6.25.62-.2,1.13-.32,1.51-.43.06-.02.12-.04.18-.04,1.33-.45,2.67-.92,4-1.39,3.65-1.25,7.26-2.55,10.84-3.9,30.99-11.75,59.46-26.84,87.64-41.95,62.78-33.62,125.97-66.53,204.3-74.1,13.42-1.27,26.9-1.84,40.38-1.7,13.49-.14,26.97.43,40.39,1.7,78.33,7.57,141.52,40.48,204.3,74.1,28.18,15.11,56.65,30.2,87.63,41.95,3.59,1.36,7.2,2.66,10.85,3.9,1.33.47,2.66.94,4,1.39.06,0,.12.02.18.04.38.11.88.22,1.51.43,8.2,2.32,16.44,4.53,24.91,6.25,6.73,1.34,13.54,2.45,20.41,3.26,0-.09,5.34.4,7.29.53,4.92.25,9.87.34,14.82.29,4.3,0,8.59-.15,12.88-.44,1.16-.07,2.34-.16,3.53-.25.06.02.12,0,.24-.02.08,0,.17-.01.26-.02h.03c1.07-.14,2.9-.34,3.65-.43,9.2-1.23,18.32-2.94,27.34-5.13,4.74-1.12,9.42-2.37,14.04-3.71,1.04-.31,2.08-.65,3.12-.96.03,0,.06-.01.08-.02,0,0,.03,0,.03-.02.04-.01.08-.02.12-.03l.03-.02c.09-.01.18-.03.27-.06h.03c.06,0,.12-.05.21-.05.01-.03.05-.05.09-.04.03,0,.08-.05.14-.05h.03l.18-.07c.17-.04.34-.09.5-.15.18-.07.33-.11.48-.16.07-.03.15-.04.23-.04.21-.09.39-.14.5-.18,9.16-3.17,18.22-6.5,27.14-10.05,34.01-13.71,66.04-29.96,100.37-43.24,32.12-12.37,65.09-21.48,100.56-25,4-.45,8.05-.78,12.11-1.03.4-.03.8-.05,1.2-.07V42.62c-.4.02-.8.04-1.2.07Z"/>
  </g>
</svg>