<svg id="save-nature_7411253" xmlns="http://www.w3.org/2000/svg" width="68.021" height="82.765" viewBox="0 0 68.021 82.765">
  <path id="Path_1200" data-name="Path 1200" d="M197.661,16.67c.2-4.347-12.9-21.14-16.418-15.537a2.485,2.485,0,0,0-.336,1.417c-15.279,9.122-15.427,29.563-.229,38.564-.124,1.736-.245,3.471-.351,5.2a2.514,2.514,0,0,0,4.99-.619c-.16-1.6-.284-3.206-.384-4.814a2.452,2.452,0,0,0,.176-.3,2.487,2.487,0,0,0,.249-1.28c.44-.258.877-.52,1.3-.791,7.468-4.728,13.064-12.647,11-21.843ZM184.732,36.885c-.111-2.833-.166-5.669-.213-8.5a27.594,27.594,0,0,1,.442-5.735,1.845,1.845,0,1,0-3.634-.182,37.107,37.107,0,0,1,.138,5.86c-.095,2.437-.241,4.877-.4,7.318-11.134-7.343-9.983-23.715,1.062-31.109l.035.022C197.445,12.922,198.02,27.6,184.732,36.885Z" transform="translate(-149.358 0)" fill="#5f7766"/>
  <path id="Path_1201" data-name="Path 1201" d="M111.424,314.986c-12.221.114-24.846.943-37.048.784-6.451.162-11.111-.418-14.593-6.5-1.795-2.607-3.333-5.685-5.2-8.147-2.833-4.135-7.164-9.129-5.043-14.3,1.092-1.522,3.305-2.512,4.84-1.22,6.336,4.691,7.833,14.276,14.723,18.383A11.064,11.064,0,0,0,75.45,305.8a2.379,2.379,0,0,0,.336-.04c4.234.359,8.62-.716,12.9-.946a1.131,1.131,0,0,0,.064-2.249,54.267,54.267,0,0,0-6.411-.141,18.536,18.536,0,0,1-6.163-.314,2.212,2.212,0,0,0-.481-.127c-3.869-1.1-5.648-3.585-7.065-5.348a4.741,4.741,0,0,1,.01-.95c.354-2.12,3.114-2.641,4.3-2.772,3.328-.089,7.752-.579,11.078-.89,6.776-.462,14.065-1.451,20.3,1.475a7.964,7.964,0,0,1,4.322,6.908,2.5,2.5,0,1,0,4.977-.493C112.458,285.5,94.17,286.231,83.582,287.7c-6.085,1.4-15.651-.874-18.617,6.074-2.679-4.431-5.258-9.7-10.272-11.934-8.043-2.029-11.136,7.462-7.71,13.437,2.091,4.522,5.787,8.19,8.057,12.479,4.318,7.358,8.341,11.48,17.431,11,12.948.255,25.976-.528,38.912-.139a1.819,1.819,0,1,0,.04-3.639Z" transform="translate(-45.602 -236.05)" fill="#f2d499"/>
</svg>
