<svg xmlns="http://www.w3.org/2000/svg" xmlns:xlink="http://www.w3.org/1999/xlink" width="77.22" height="60.242" viewBox="0 0 77.22 60.242">
  <defs>
    <clipPath id="clip-path">
      <rect id="Rectangle_310" data-name="Rectangle 310" width="67.958" height="38.441" fill="#f2d499"/>
    </clipPath>
  </defs>
  <g id="Group_913" data-name="Group 913" transform="translate(53.175 56.3) rotate(-159)">
    <g id="Group_548" data-name="Group 548" transform="translate(-11 0)" clip-path="url(#clip-path)">
      <path id="Path_1197" data-name="Path 1197" d="M7.5,16.585a2.114,2.114,0,0,1-1.952-1.27L.175,2.952A2.11,2.11,0,1,1,4.046,1.27L9.42,13.634A2.111,2.111,0,0,1,7.5,16.585" transform="translate(3.912 13.787)" fill="#f2d499"/>
      <path id="Path_1196" data-name="Path 1196" d="M2.126,16.657a2.136,2.136,0,0,1-.83-.164A2.11,2.11,0,0,1,.165,13.731L5.37,1.3A2.11,2.11,0,1,1,9.264,2.926L4.06,15.362a2.11,2.11,0,0,1-1.934,1.3" transform="translate(51.508 13.431)" fill="#f2d499"/>
      <path id="Path_1195" data-name="Path 1195" d="M2.215,17.7A2.111,2.111,0,0,1,.09,15.6L0,2.125A2.111,2.111,0,1,1,4.221,2.1l.09,13.479a2.11,2.11,0,0,1-2.1,2.125" transform="translate(30.275 7.677)" fill="#f2d499"/>
    </g>
  </g>
</svg>
