<svg xmlns="http://www.w3.org/2000/svg" xmlns:xlink="http://www.w3.org/1999/xlink" width="104.663" height="76.48" viewBox="0 0 104.663 76.48">
  <defs>
    <clipPath id="clip-path">
      <rect id="Rectangle_364" data-name="Rectangle 364" width="31.61" height="29.04" fill="#5f7766"/>
    </clipPath>
    <clipPath id="clip-path-2">
      <rect id="Rectangle_362" data-name="Rectangle 362" width="30.887" height="28.955" fill="#f2d499"/>
    </clipPath>
    <clipPath id="clip-path-3">
      <rect id="Rectangle_363" data-name="Rectangle 363" width="51.889" height="28.557" fill="#f2d499"/>
    </clipPath>
  </defs>
  <g id="Group_911" data-name="Group 911" transform="translate(-701.562 -970.383)">
    <g id="Group_667" data-name="Group 667" transform="translate(701.562 970.383)">
      <g id="Group_666" data-name="Group 666" clip-path="url(#clip-path)">
        <path id="Path_37524" data-name="Path 37524" d="M12.062.037c-.409.05-.807.131-1.227.224A13.338,13.338,0,0,0,6.012,2.556c-.239.193-.495.417-.76.668a4.065,4.065,0,0,1-1.264.962c-.171.2-.314.416-.471.623l-.451.57s.171-.326-.056-.041a3.2,3.2,0,0,0-.464.753c-.237.462.26-.288.07.045s-.6,1.021-.809,1.433a9.921,9.921,0,0,0-.471,1.082C1.13,9.176,1,9.51.853,10c-.1.366-.165.616-.254,1.009-.057.211-.1.43-.145.642a17.824,17.824,0,0,0-.326,1.914c-.049.358-.055,1.648-.1,1.7a4.388,4.388,0,0,0,.1,1.5l-.083.011c.061.452.143.9.25,1.352q.131.6.322,1.2l.044.154-.078.028-.005,0c.107.346.235.691.378,1.029l.235.419c.214.5.451.967.664,1.36l.035.2A18.069,18.069,0,0,0,4.124,24.7c.324.27.886.727,1.56,1.2.174.13.311.209.45.3a7.445,7.445,0,0,0,.919.545c.228.124.459.242.7.347.406.229.637.344.637.344s-.215-.06-.13,0a.584.584,0,0,0,.1.06c.164.084.245.125.349.168a4.632,4.632,0,0,0,.471.161c.5.144-.332-.2.032-.077s1.109.424,1.552.569a11.461,11.461,0,0,0,1.152.3c.556.121.911.2,1.425.269l1.049.093.667.038c.607.031,1.254.038,1.672.016l.3-.011c.3-.023,1.229-.151,1.578-.2.268-.062.5-.153.78-.236a17.284,17.284,0,0,0,1.846-.677,9.365,9.365,0,0,0,1.432-.721c.224-.129.443-.264.654-.412.4-.227.621-.364.621-.364s-.269.248.038.058a3.618,3.618,0,0,0,.7-.529c.378-.353-.339.181-.049-.068l.116-.093c.327-.25.845-.668,1.16-.935a11.619,11.619,0,0,0,.84-.825c.383-.412.636-.667.952-1.071.24-.294.373-.517.616-.838l.058-.077.089-.139a11.659,11.659,0,0,0,.638-1.078l.154-.294c.116-.227.214-.466.32-.7l.312-.645s-.1.35.064.028a3.274,3.274,0,0,0,.284-.827c.124-.5-.186.336-.078-.029s.358-1.119.476-1.565a9.4,9.4,0,0,0,.214-1.162,13.327,13.327,0,0,0,.138-1.44c0-.386,0-.646-.033-1.056,0-.223-.029-.451-.052-.67a10.725,10.725,0,0,0-.354-1.966c-.074-.372-.629-1.581-.622-1.648a3.921,3.921,0,0,0-.8-1.324l.067-.049A10.355,10.355,0,0,0,28.3,6.4c-.269-.309-.561-.589-.856-.868l-.111-.109.058-.067c-.262-.231-.517-.477-.794-.688l-.383-.25c-.386-.31-.757-.6-1.091-.842-.469-.256-.243-.079-.728-.28a4.33,4.33,0,0,0-1.131-.286,11.866,11.866,0,0,0-1.755-.729A8.879,8.879,0,0,0,20,1.865c-1.547-.327-1.124-.127-2.472-.4a8.679,8.679,0,0,0-2.11-.146l-.876.136a4.971,4.971,0,0,0-.807.182s-.563.112-.458.256-.725.109-.584.178c-.565.484-.17.564.185.7.267.131.751-.028.429.244-.166.146-.285-.034-.621.457-.1.146-.227.146.336.129A6.681,6.681,0,0,1,14.1,3.517c.172.059.722-.1.63.027a13.071,13.071,0,0,1,3.1.317c.361.089.721.195,1.079.306.678.194,1.363.43,2.018.689l.323.138a7.969,7.969,0,0,1,1.669.742,11.348,11.348,0,0,1,.995.641c-.013.008-1.266-.665.534.487A12.14,12.14,0,0,1,27.092,9.3a6.792,6.792,0,0,1,1.28,4.073,13.805,13.805,0,0,1-.563,3.756,13.152,13.152,0,0,1-3.036,5.02c-.335.366-.665.7-1.012,1.017l-.053-.064-.085.06c-.21.168-.437.316-.653.475l-.751.508-.044-.071a2.212,2.212,0,0,1-.884.475c-.052-.022-.826.347-1.051.432-.208.071-.742.245-1.235.372-.136.045-.28.081-.421.113-.258.065-.418.128-.664.176a9.259,9.259,0,0,1-.934.15,5.052,5.052,0,0,1-.775.08l-1.088.012c-.254.009.34.048,0,.083a1.855,1.855,0,0,1-.586.009c-.239-.04.006-.069.006-.069l-.476-.067c-.172,0-.344-.013-.516-.03a6.216,6.216,0,0,1-1.061-.159c-.536-.115-1.006-.233-1.277-.313-.255-.057-.478-.126-.713-.194a14.47,14.47,0,0,1-3.112-1.9l-.054.071A13.209,13.209,0,0,1,5.176,21.2l-.2-.262a7.065,7.065,0,0,1-1-1.334,7.677,7.677,0,0,1-.473-.964s.258.517.224.345l-.013-.024c-.094-.191-.181-.387-.261-.588-.131-.3-.164-.418-.137-.426l.029-.008-.138-.429a5.114,5.114,0,0,1-.2-.594l-.125-.7a11.826,11.826,0,0,1-.135-1.485l.042-.469c.034-.34-.033-.388-.033-.388L2.7,14.51a12.6,12.6,0,0,1,.224-2.317l.15-.365s.005.218.052.011a4.425,4.425,0,0,0,.142-.716l-.025-.007-.025-.1a12.8,12.8,0,0,1,.6-1.632l.17-.23.235-.409c.131-.22.244-.451.386-.662a2.145,2.145,0,0,1,.253-.294l.392-.573.227-.333.112-.128.2-.215c.168-.182.2-.271.2-.3,0-.011,0-.018,0-.018l-.428.467A10.794,10.794,0,0,1,6.792,5.17l.224-.129.111-.064s-.122.174.035.04a6.153,6.153,0,0,0,.529-.478l-.016-.021.016-.041.024-.059a11.588,11.588,0,0,1,1.147-.8L9.085,3.5c.168-.139.35-.258.529-.385.145-.06.3-.107.445-.155.214-.142.437-.268.664-.391a1.208,1.208,0,0,1,.388-.054c.328-.093.583-.268.787-.308s.348-.064.472-.084l0,0c.2-.153.359.015.4-.1a8.545,8.545,0,0,0,1.173-.231,4.93,4.93,0,0,0,.814-.19,1.356,1.356,0,0,0,.351-.1c.225-.086-.049-.2-.624-.234-.574,0-.154-.172-.154-.172s-.135-.1-.857-.044.256-.168.88-.22.239-.258.26-.312,1-.3.108-.391A8.174,8.174,0,0,0,12.843.2s.459-.3-.781-.159" transform="translate(0 0)" fill="#5f7766"/>
        <path id="Path_37525" data-name="Path 37525" d="M44.026,33.573l-.079.476a14.564,14.564,0,0,0-.125,2.066l.046.387c.055.471-.173.617-.173.617l.068.294.013.282s-.071-.137-.069.008a1.026,1.026,0,0,0,.1.44c.108.3.018-.246.082-.017a8.126,8.126,0,0,0,.273.96,2.263,2.263,0,0,0,.351.6,2.406,2.406,0,0,0,.591.583,2.431,2.431,0,0,0,.542.259,2.51,2.51,0,0,0,.365.108,2.92,2.92,0,0,0,1.127.031c.219-.013.946-.332,1-.309.025.018.159-.029.322-.119a1.616,1.616,0,0,0,.354-.258l.047.069.418-.293.378-.237.052-.025.048.068,0,0,.341-.185.124-.116.508-.2.1.031a11.347,11.347,0,0,1,.77-.846l.534-.492.15-.132.289-.27.2-.208.218-.154s-.041.078,0,.071a.091.091,0,0,0,.041-.017.6.6,0,0,0,.114-.084,1.416,1.416,0,0,0,.115-.148c.116-.16-.148.04-.052-.065a4.131,4.131,0,0,1,.476-.38,3.564,3.564,0,0,0,.335-.283l.412-.336.286-.259.192-.15.505-.343.09-.062a4.472,4.472,0,0,1,.467-.335l.193-.227.509-.5c.331-.309.417-.411.417-.411l.19-.213.212-.157s-.066.127.044.054.11-.074.221-.234-.146.042-.053-.064l.039-.038a4.919,4.919,0,0,1,.423-.345,3.552,3.552,0,0,0,.325-.285l.4-.334.281-.256.028-.022.044-.041c.331-.3.418-.405.418-.405l.191-.21.213-.152s-.067.125.044.054.111-.071.223-.229-.146.039-.052-.065a3.957,3.957,0,0,1,.466-.373,3.54,3.54,0,0,0,.328-.277l.412-.32.286-.248.192-.143c.23-.16.5-.312.6-.375s.481-.348.529-.314.3-.127.446-.3l.049.067.39-.28.361-.226.05-.024.051.072.325-.175.117-.112a4.41,4.41,0,0,1,.472-.165c.147-.118.044-.092.169-.238a1.128,1.128,0,0,0,.21-.428,6.5,6.5,0,0,0,.6-.354c.425-.264,0,0,.458-.356s.262-.364.715-.584a2.823,2.823,0,0,0,.655-.388s.176-.207.221-.248a1.308,1.308,0,0,0,.209-.233l.114-.1c.078-.075.158-.21.072-.24-.092-.054.073-.085.213-.432a.746.746,0,0,0,.034-.27.675.675,0,0,0-.149-.37c-.173-.184-.261-.18-.179-.121-.516-.126-.542.107-.647.2-.076.144-.018.2.05.2.161-.038.27.171.252.169,0,0,.012-.009,0,0-.14.022-.026,0-.06.01a.264.264,0,0,1-.081-.041c-.078-.071-.1-.08.025.017.089.03,0,.031.115.014-.007-.069.018.191-.063-.011-.032.008.06-.037.033-.026,0,.009-.057.028-.035.025.041,0,.058.156.056.041,0-.009.026-.041.013-.03-.137.019-.015.02-.121-.014a1.121,1.121,0,0,1-.294-.343l-.108-.18-.1-.169-.02,0-.08.015c-.105-.035-.275.185-.288.067-.406.192-.83.385-1.263.613l-.452.2-.821.437-.136.073a4.959,4.959,0,0,1-1.154.673s.484-.446-.336.086a8.842,8.842,0,0,0-1.322,1.079s-.89.7-1.706,1.221a7.756,7.756,0,0,0-1.387,1.093l-2.017,1.712-.448.451-.053-.064-.041.022-.291.21-.31.257-.053-.064c-.111.156-.313.3-.361.266s-.345.213-.433.276l-.49.322-.155.122-.228.214-.331.274a2.394,2.394,0,0,1-.265.234,2.73,2.73,0,0,0-.379.31c-.074.089.138-.073.053.065s-.085.138-.177.195-.044-.054-.044-.054l-.175.124-.151.177a4.264,4.264,0,0,1-.337.338l-.411.407-.207.254-1.324.883.054.07-1.095.738-.125.076a7.542,7.542,0,0,1-.929.839s.19-.186.106-.169l-.009.009-.222.194c-.1.106-.147.141-.165.116l-.017-.025L47.6,37.3a1.776,1.776,0,0,1-.186.215l-.227.18a1,1,0,0,0-.209.188l-.049-.016c-.031-.009-.026.064-.026.064l.07.012a.405.405,0,0,1-.251.073l-.015-.09s.036-.05.02-.058c-.036-.02-.076.016-.076.016l-.014.027-.038.05a.294.294,0,0,1-.109-.158l.038-.064.019-.061.008-.07a.175.175,0,0,1,.061-.046c.006-.018.009-.018,0-.106l-.031-.148.008-.072.007-.123c0-.1-.032-.137-.051-.147l-.012,0-.011.266c-.043-.3-.157-.474-.177-.8l.045-.108.022-.054s.055.084.053,0a.682.682,0,0,0-.051-.3h-.026l-.023-.015-.033-.021c0-.2-.065-.382-.058-.581l0-.1-.1-.269.042-.194L46.1,34.46a.449.449,0,0,1,.076-.157c.017-.141-.087-.267-.075-.353l.025-.2,0,0c-.109-.1.093-.139-.017-.171a.864.864,0,0,0-.079-.5c-.127-.365-.158-.355-.158-.355a.392.392,0,0,0-.1-.154c-.087-.1-.2,0-.236.231s-.179.043-.179.043-.08.045-.109.333-.115-.119-.152-.372-.251-.122-.3-.136-.3-.424-.388-.084a3.109,3.109,0,0,0-.09.723s-.207-.207-.293.267" transform="translate(-37.427 -19.545)" fill="#5f7766"/>
      </g>
    </g>
    <g id="Group_910" data-name="Group 910" transform="translate(736.396 979.996)">
      <g id="Group_663" data-name="Group 663" transform="translate(38.943 37.913)">
        <g id="Group_662" data-name="Group 662" clip-path="url(#clip-path-2)">
          <path id="Path_37520" data-name="Path 37520" d="M12.027.037c-.408.049-.8.13-1.224.224A13.3,13.3,0,0,0,5.994,2.548c-.239.193-.493.416-.758.666a4.053,4.053,0,0,1-1.26.96c-.17.2-.314.415-.47.622l-.449.568s.17-.325-.056-.041a3.19,3.19,0,0,0-.463.751c-.236.46.26-.287.07.045s-.6,1.018-.807,1.429a9.921,9.921,0,0,0-.47,1.079C1.127,9.149,1,9.482.851,9.973c-.1.365-.165.614-.253,1.006-.057.211-.1.429-.144.641a17.772,17.772,0,0,0-.325,1.908c-.048.357-.055,1.643-.1,1.7a4.375,4.375,0,0,0,.1,1.5l-.082.011c.061.451.143.9.249,1.348q.131.6.321,1.192l.044.153-.078.028-.005,0c.107.345.234.689.376,1.026l.234.418c.213.5.449.964.662,1.356l.034.2a18.016,18.016,0,0,0,2.225,2.17c.323.269.884.725,1.555,1.194.173.13.31.209.449.3a7.423,7.423,0,0,0,.916.543c.227.124.457.241.694.346.4.228.635.343.635.343s-.214-.06-.129,0a.582.582,0,0,0,.1.06c.163.084.245.125.348.167a4.618,4.618,0,0,0,.47.161c.5.144-.331-.2.032-.077s1.105.422,1.547.568a11.432,11.432,0,0,0,1.149.3c.554.121.908.2,1.42.268l1.046.093.665.038c.605.031,1.251.038,1.667.016l.3-.011c.3-.023,1.225-.15,1.573-.2.267-.062.5-.152.778-.236a17.234,17.234,0,0,0,1.84-.675A9.338,9.338,0,0,0,22.6,27.1c.223-.129.442-.263.652-.411.4-.226.619-.363.619-.363s-.268.248.038.058a3.607,3.607,0,0,0,.7-.527c.377-.352-.338.18-.049-.067l.115-.093c.326-.249.843-.666,1.156-.932a11.585,11.585,0,0,0,.837-.823c.382-.411.634-.665.949-1.068.239-.293.372-.515.614-.835l.058-.077.088-.139a11.659,11.659,0,0,0,.637-1.075l.153-.294c.116-.226.213-.465.319-.7l.312-.643s-.1.349.064.027a3.264,3.264,0,0,0,.284-.825c.124-.5-.185.335-.078-.028s.357-1.115.474-1.561a9.341,9.341,0,0,0,.213-1.159,13.287,13.287,0,0,0,.137-1.435c0-.385,0-.645-.033-1.053,0-.222-.029-.449-.052-.668a10.706,10.706,0,0,0-.353-1.96c-.074-.37-.627-1.577-.62-1.643a3.91,3.91,0,0,0-.8-1.32l.067-.049a10.3,10.3,0,0,0-.881-1.063c-.268-.308-.56-.587-.853-.865l-.11-.109.057-.067c-.261-.23-.516-.476-.792-.686L26.141,4.4c-.384-.309-.755-.6-1.088-.839-.468-.255-.243-.078-.725-.28A4.317,4.317,0,0,0,23.2,3a11.831,11.831,0,0,0-1.75-.727,8.853,8.853,0,0,0-1.512-.411c-1.543-.326-1.12-.126-2.465-.4a8.654,8.654,0,0,0-2.1-.146l-.873.135a4.956,4.956,0,0,0-.8.181s-.561.111-.457.256-.723.109-.582.177c-.563.483-.17.563.185.7.266.131.749-.028.428.243-.165.146-.284-.034-.619.456-.1.146-.226.145.335.128a6.661,6.661,0,0,1,1.075-.083c.172.059.72-.095.628.027a13.033,13.033,0,0,1,3.09.316c.36.089.718.194,1.075.3.676.194,1.359.429,2.012.687l.322.137a7.946,7.946,0,0,1,1.664.74,11.315,11.315,0,0,1,.992.639c-.013.008-1.263-.663.533.486a12.1,12.1,0,0,1,2.64,2.426,6.771,6.771,0,0,1,1.276,4.061,13.768,13.768,0,0,1-.561,3.745,13.113,13.113,0,0,1-3.027,5c-.334.365-.663.7-1.009,1.014l-.053-.063-.084.06c-.21.168-.435.315-.651.474l-.749.507L22.11,24a2.2,2.2,0,0,1-.881.474c-.052-.022-.824.346-1.048.43-.207.071-.74.245-1.231.371-.136.045-.279.08-.419.113-.257.065-.417.128-.662.175a9.232,9.232,0,0,1-.931.15,5.038,5.038,0,0,1-.773.08l-1.084.012c-.253.009.339.048,0,.083a1.85,1.85,0,0,1-.584.009c-.238-.04.006-.069.006-.069l-.475-.067c-.172,0-.343-.013-.515-.03a6.2,6.2,0,0,1-1.057-.159c-.534-.115-1-.232-1.273-.312-.254-.057-.477-.126-.711-.194a14.432,14.432,0,0,1-3.1-1.9l-.053.071a13.17,13.17,0,0,1-2.151-2.11l-.2-.262a7.038,7.038,0,0,1-1-1.33,7.644,7.644,0,0,1-.472-.961s.257.516.224.344L3.705,18.9c-.094-.19-.18-.386-.26-.586-.13-.3-.164-.417-.136-.425l.029-.008L3.2,17.454a5.1,5.1,0,0,1-.2-.593l-.125-.7a11.764,11.764,0,0,1-.135-1.481l.042-.468c.034-.339-.033-.386-.033-.386l-.063.643a12.558,12.558,0,0,1,.224-2.31l.149-.364s.005.217.052.011a4.412,4.412,0,0,0,.141-.714l-.025-.007-.025-.1a12.765,12.765,0,0,1,.6-1.627l.169-.229.234-.408c.13-.22.243-.449.385-.66a2.139,2.139,0,0,1,.252-.293l.391-.572.226-.332.112-.127.2-.215c.167-.181.2-.27.2-.3,0-.011,0-.018,0-.018l-.426.466A10.762,10.762,0,0,1,6.772,5.155L7,5.026l.111-.064s-.122.173.034.04a6.135,6.135,0,0,0,.527-.476l-.016-.021.016-.041.023-.059a11.569,11.569,0,0,1,1.144-.8l.222-.119c.168-.139.349-.257.527-.384.145-.06.294-.107.443-.154.214-.141.436-.267.662-.389a1.2,1.2,0,0,1,.387-.054c.327-.093.581-.267.784-.307s.347-.064.47-.084l0,0c.2-.153.358.015.4-.1a8.52,8.52,0,0,0,1.17-.23,4.916,4.916,0,0,0,.812-.189,1.352,1.352,0,0,0,.35-.1c.224-.086-.049-.2-.622-.234-.573,0-.154-.171-.154-.171s-.134-.1-.854-.044.255-.167.878-.219.238-.258.26-.311,1-.3.107-.389A8.15,8.15,0,0,0,12.805.2s.457-.3-.778-.158" transform="translate(0 0)" fill="#f2d499"/>
          <path id="Path_37521" data-name="Path 37521" d="M58.81,25.613a.626.626,0,0,0-.308-.654c-.145-.138-.275-.015-.247-.247.015-.125.114.04.1-.372-.005-.125.05-.112-.182-.148a2.831,2.831,0,0,1-.4.057c-.089-.049-.226.134-.239.019-.337.116-.681.244-1.04.39l-.378.112-.684.273-.115.043a3.225,3.225,0,0,1-.978.414s.412-.329-.284.015a5.433,5.433,0,0,0-1.143.74,13.069,13.069,0,0,1-1.491.775,5.37,5.37,0,0,0-1.227.72l-1.794,1.17-.4.327-.045-.069-.036.012-.257.139-.274.18-.045-.069c-.1.124-.279.219-.321.179s-.307.132-.384.176l-.432.215-.137.087-.2.161-.293.2a1.641,1.641,0,0,1-.232.177,1.822,1.822,0,0,0-.332.232c-.064.072.121-.048.048.068s-.073.116-.153.155-.04-.057-.04-.057l-.153.089-.131.143a3.058,3.058,0,0,1-.289.269c-.093.08-.147.137-.214.2l-.323-.474-.044-.075a3,3,0,0,1-.564-.48s.129.094.127.036l-.006,0-.131-.115c-.074-.05-.1-.073-.074-.092l.023-.019-.092-.078a.7.7,0,0,1-.154-.083l-.129-.131-.277-.262a.647.647,0,0,0-.046-.115c-.038-.08-.1-.046-.1-.046l.071.15L41.98,29.5v-.123s.072.011.042-.032a.271.271,0,0,0-.142-.121l-.02.016-.057.014-.249-.357,0-.092-.041-.118-.1-.17a.268.268,0,0,1,0-.119l-.095-.151-.074-.074-.014-.043-.03-.071c-.027-.059-.068-.057-.087-.052l-.011,0,.069.151c-.124-.144-.271-.17-.388-.331l0-.082v-.041s.072.013.043-.031a.27.27,0,0,0-.139-.125l-.021.015-.024.005-.034.008c-.071-.1-.182-.157-.248-.26l-.035-.053-.181-.07-.039-.118L39.9,27a.271.271,0,0,1,0-.12c-.042-.076-.173-.072-.2-.117l-.06-.105h0c-.127.022.015-.119-.084-.066,0,0-.018-.094-.275-.17S39,26.369,39,26.369a.291.291,0,0,0-.143,0c-.111.014-.152.126-.079.243s-.119.13-.119.13-.042.069.057.206-.137.02-.274-.059-.246.109-.289.133-.414.024-.335.21a1.176,1.176,0,0,0,.228.345s-.241.042-.125.29l.117.248a10.891,10.891,0,0,0,.592,1l.151.159a.316.316,0,0,1,.028.4l.134.108.082.133s-.091-.029-.055.042.036.07.145.127,0-.1.066-.05a1.4,1.4,0,0,1,.214.283,1.253,1.253,0,0,0,.163.2c.082.091.113.164.19.246l.154.165.084.115.207.371c.042.066.212.285.175.328s.059.194.181.267l-.065.052.181.225.142.215.013.031-.064.052,0,0,.1.2.079.061a2.945,2.945,0,0,1,.09.323l-.042.083a4.222,4.222,0,0,1,.583.361l.013.012a8.957,8.957,0,0,1-.643.644s.146-.17.073-.156L41,34.116l-.173.177c-.08.1-.113.129-.132.106l-.019-.023-.118.123a1.366,1.366,0,0,1-.137.2l-.191.181-.385.389a1.138,1.138,0,0,0-.153.086c-.108.067-.075.129-.075.129l.2-.126-.627.571-.157.037s.025-.089-.035-.039a.546.546,0,0,0-.174.21l.017.019.011.063-.483.424-.116.029-.153.1-.224.187a.491.491,0,0,1-.152.056l-.2.185-.1.124-.056.038-.091.073c-.076.064-.074.111-.068.132l0,.011.193-.16c-.184.226-.224.409-.419.645l-.1.043-.051.022s.015-.095-.041-.034a.537.537,0,0,0-.15.243l.02.016.008.026.012.037c-.122.151-.184.315-.3.465l-.061.079-.063.265-.135.13-.059.317a.544.544,0,0,1-.139.089c-.079.11-.043.264-.089.33l-.106.154v0c.06.133-.136.081-.049.155,0,0-.1.1-.1.463s.044.361.044.361a.336.336,0,0,0,.05.162c.056.111.19.059.283-.117s.178.026.178.026.083-.01.193-.223.062.135.041.344.206.178.247.206.195.4.345.193a2.6,2.6,0,0,0,.251-.465s.133.22.334-.05l.214-.262c.258-.317.594-.748.926-1.113l.154-.229a.378.378,0,0,1,.439-.179l.109-.183.145-.133s-.027.109.051.047.077-.061.136-.2-.116.033-.06-.058a2.015,2.015,0,0,1,.319-.322,2.675,2.675,0,0,0,.227-.237c.107-.116.193-.17.293-.275l.2-.212.142-.12c.173-.133.38-.258.457-.313s.361-.3.409-.263.238-.1.345-.251l.053.064.3-.242.283-.2.04-.02.052.064,0,0,.259-.149.086-.1c.142-.058.278-.11.4-.147l.091.037c.053-.079.136-.171.2-.255l.147.09c.073.055.2.152.326.271a2.259,2.259,0,0,0,.266.223l.143.094.094.124s-.094-.019-.051.047.043.066.157.112-.011-.1.061-.056l.025.021a1.728,1.728,0,0,1,.215.24,1.239,1.239,0,0,0,.181.179c.09.083.128.154.212.227l.169.15.014.016.027.023a2.327,2.327,0,0,0,.272.216l.144.092.1.123s-.093-.018-.05.048.043.066.158.11-.013-.1.06-.058a1.41,1.41,0,0,1,.247.254,1.237,1.237,0,0,0,.186.174L47.14,39l.171.147.1.105.25.342c.049.06.245.256.213.3s.08.187.209.246l-.058.059.2.2.167.2.017.029-.061.063.127.187.086.05a3.026,3.026,0,0,1,.12.3c.094.068.074,0,.192.041a.715.715,0,0,0,.345,0,1.775,1.775,0,0,0,.282.312c.22.208,0,0,.3.2s.294.051.486.288a1.041,1.041,0,0,0,.347.3s.175.037.211.05a.6.6,0,0,0,.2.047.148.148,0,0,0,.2-.061c.1-.134.089.14.131.053a.823.823,0,0,0,.484-.537c.086-.174-.041-.215.157-.3.107-.047-.011.105.327-.1.1-.062.1-.015.089-.206a1.6,1.6,0,0,1-.121-.273c.025-.089-.152-.107-.06-.17l-.506-.6-.153-.236-.332-.4-.053-.069c-.215-.072-.48-.572-.48-.572s.327.182-.047-.212a3.165,3.165,0,0,0-.755-.586,5.277,5.277,0,0,1-.791-.872,2.81,2.81,0,0,0-.694-.713l-1.069-1.052-.289-.223.061-.056-.011-.025L47,35.086l-.156-.169.061-.056c-.108-.045-.19-.161-.154-.206s-.111-.209-.147-.259-.1-.182-.174-.291l-.072-.088-.134-.12a.383.383,0,0,1-.032-.036l.213-.153.235-.189.159-.106.422-.228.075-.041a2.518,2.518,0,0,1,.394-.221l.162-.172.429-.366c.281-.22.357-.295.357-.295l.164-.157.182-.1s-.057.1.038.058.095-.045.19-.171-.125.01-.045-.07l.034-.027a2.67,2.67,0,0,1,.367-.23,2.243,2.243,0,0,0,.283-.193l.352-.223.245-.178.024-.014.039-.029a4.07,4.07,0,0,0,.368-.283l.169-.152.186-.1s-.06.1.036.059.1-.043.2-.165-.126,0-.043-.071a2.545,2.545,0,0,1,.411-.243,2.255,2.255,0,0,0,.289-.185l.359-.212.253-.167.169-.091.522-.223c.093-.047.42-.225.461-.183s.258-.056.391-.185l.04.073.339-.186.314-.141.043-.012.041.078.283-.1.1-.082c.144-.029.281-.054.406-.068.127-.086.039-.08.148-.2a.9.9,0,0,0,.187-.363,3.174,3.174,0,0,0,.516-.226c.362-.183,0,0,.392-.265s.227-.3.612-.437a2.028,2.028,0,0,0,.552-.28s.148-.171.186-.2a.921.921,0,0,0,.174-.191.162.162,0,0,0,.055-.226c-.091-.14.215-.054.143-.122" transform="translate(-30.493 -20.732)" fill="#f2d499"/>
        </g>
      </g>
      <g id="Group_665" data-name="Group 665" transform="translate(3.48 0) rotate(7)">
        <g id="Group_664" data-name="Group 664" transform="translate(0 0)" clip-path="url(#clip-path-3)">
          <path id="Path_37522" data-name="Path 37522" d="M.047,6.085c.047-.124.008.179.1.016a.519.519,0,0,0,.113-.271c.02-.114-.08-.019-.08-.019A1.559,1.559,0,0,1,.238,5.59l.151-.2A1.7,1.7,0,0,1,.766,5c.217-.191.418-.347.535-.435a1.741,1.741,0,0,1,.347-.2L2.822,3.339l.059.086L3.6,2.842l.078-.069A4.239,4.239,0,0,0,4.5,2.442s-.183.054-.158-.009l.009,0,.195-.077c.1-.027.139-.043.121-.074l-.018-.03.135-.05A.87.87,0,0,0,5,2.17l.2-.091.422-.168a.768.768,0,0,1,.1-.1c.079-.069.129-.005.129-.005l-.149.13.621-.309.061-.132s-.083-.022-.029-.055a.326.326,0,0,1,.214-.062l.014.027.054.043.451-.254.044-.1.107-.1.2-.126a.32.32,0,0,0,.07-.123L7.69.633,7.809.6l.04-.037L7.922.5c.063-.046.1-.021.121-.005l.009.01-.16.118c.213-.08.38-.026.6-.123L8.536.416,8.56.374S8.478.345,8.535.317A.328.328,0,0,1,8.754.273L8.766.3,8.787.32l.03.028C8.953.286,9.1.3,9.228.233L9.3.2l.226.042L9.638.149,9.9.2A.318.318,0,0,0,9.981.088c.091-.047.218.043.273.016l.128-.063,0,0c.108.1.065-.126.125-.009,0,0,.082-.079.379.021s.3.139.3.139.041.006.136.1.057.225-.088.286.026.205.026.205-.006.094-.186.157.117.112.293.132.156.272.181.324.358.31.172.429a1.168,1.168,0,0,1-.415.165.22.22,0,0,1-.056.358L11,2.5c-.3.18-.721.389-1.089.579l-.224.06a.336.336,0,0,0-.222.375l-.179.027-.141.083s.1.024.034.074-.066.049-.2.043.048-.1-.042-.088a1.323,1.323,0,0,0-.337.159,1.182,1.182,0,0,1-.246.107c-.12.046-.182.1-.292.146l-.221.089-.13.075c-.147.1-.292.231-.352.275s-.322.188-.3.251-.127.175-.276.194l.049.084-.26.15-.214.162-.023.027.05.083,0,.006-.085.083a20.657,20.657,0,0,1,2.408-.172l1.157-.023c.726.043,1.452.094,2.173.2l.36.041c.412.151,1.191.26,1.849.419.665.132,1.221.266,1.221.266s-1.43-.593.775.11a15.373,15.373,0,0,1,3.63,1.764,39.65,39.65,0,0,1,4.173,2.77,11.653,11.653,0,0,1,1.358,1.22c.183-.033.365-.073.551-.1l.011.1a17.245,17.245,0,0,1,3.413-.076l.37.032c.436.113,1.218.241,1.86.428.652.16,1.187.312,1.187.312s-.623-.209-.425-.2l.03.009c.241.056.465.152.7.226.343.132.472.174.482.14l.01-.034.475.167.619.294.714.284c.494.189.962.424,1.433.652l.469.161c.338.124.345.215.345.215l-.635-.232c.727.309,1.416.712,2.157,1.075l.393.115s-.163-.161.03-.054a3.458,3.458,0,0,1,.635.416l-.015.026.053.1c.535.288,1.047.606,1.538.914l.279.1.436.227c.233.132.447.29.672.434a2.057,2.057,0,0,0,.372.168l.607.414.331.27.151.1.256.175c.217.152.264.24.274.276l0,.019-.55-.384c.6.506.894.852,1.506,1.4l.239.131.119.066s-.126-.189.041-.047a3.428,3.428,0,0,1,.537.532l-.02.022.012.046.018.065c.393.335.654.712,1.022,1.048l.191.181.39.557.364.325.425.675a2.039,2.039,0,0,0,.33.237c.255.246.336.573.48.727l.326.368v0c.04.26.305.217.24.344a3.049,3.049,0,0,1,.63,1.046c.356.8.3.79.3.79a1.129,1.129,0,0,1,.093.35c.031.236-.227.082-.56-.349s-.25,0-.25,0-.145-.049-.542-.582.036.29.307.782-.126.346-.16.4.164.906-.326.336a15.039,15.039,0,0,1-.953-1.233s.05.463-.639-.271l-.686-.733c-.854-.865-2.011-2.022-3.119-2.964l-.585-.558c-.716-.684-1.117-.6-1.117-.6l-.449-.42-.459-.342s.185.229-.049.065a2.265,2.265,0,0,1-.536-.441c-.3-.289.288.119.057-.079a11.394,11.394,0,0,0-1.068-.756c-.314-.192-.411-.267-.782-.521s-.623-.39-.973-.6l-.707-.433-.46-.253L36.425,17.6a7.372,7.372,0,0,0-1.25-.469,4.125,4.125,0,0,1-1.1-.4l-.034.091c-.326-.114-.647-.247-.976-.347l-.884-.229-.115-.022-.025.093,0,.006a6.27,6.27,0,0,0-.768-.138l-.324-.1a6.685,6.685,0,0,0-1.069-.039l-.139.083a10.407,10.407,0,0,0-1.834-.385,9.172,9.172,0,0,1,.911,5.242,6.322,6.322,0,0,1-.206.933,4.394,4.394,0,0,1-.5,1.1l.082.052-.094.165a3.614,3.614,0,0,1-1.051,1.041,4.433,4.433,0,0,1-1.478.577l.019.1c-.672.091-1.464.057-1.526.119a4.578,4.578,0,0,1-1.658-.277,6.379,6.379,0,0,1-1.734-.844,6.649,6.649,0,0,1-.516-.424,5.329,5.329,0,0,1-.7-.8,5.9,5.9,0,0,1-.747-1.271,8.481,8.481,0,0,1-.357-1.132,5.273,5.273,0,0,1-.16-1.625c.035-.377.028.509.1,0a7.579,7.579,0,0,0,.128-.85c.05-.352-.08-.013-.08-.013a4.87,4.87,0,0,1,.142-.708,6.339,6.339,0,0,1,.31-.718l.16-.29a6.657,6.657,0,0,1,.684-1.022,6.273,6.273,0,0,1,1.355-1.219,6.546,6.546,0,0,1,.847-.453c.1-.062.207-.107.309-.164l-.136-.125-.4-.317c-.492-.347-1.048-.709-1.271-.836a5.976,5.976,0,0,0-1.157-.649,3.675,3.675,0,0,1-1.026-.544l-.046.086c-.309-.154-.608-.329-.925-.467l-.849-.355-.113-.034-.04.1-.754-.238-.312-.149-1.032-.183c-.382-.13-.164-.109-.532-.275a4.147,4.147,0,0,1-.793-.492l-1.486-.247c-1.073-.163,0-.022-1.234-.227a7.161,7.161,0,0,0-1.977-.234c-.593.029-.9.05-1.657.064a4.319,4.319,0,0,0-.694-.046,4.67,4.67,0,0,1-.656-.026,1.2,1.2,0,0,1-.26-.006c.008.012.012.015.022.03.072.1.143.148.208.244a1.664,1.664,0,0,0,.137.19l.015.016.021.031a2.175,2.175,0,0,1,.2.3l.082.16.125.1s-.009-.1.059-.056.068.047.1.173-.111-.013-.07.068a1.178,1.178,0,0,0,.259.266,1.171,1.171,0,0,1,.181.2c.082.1.158.138.232.228l.156.178.114.1c.141.1.312.2.374.24s.285.236.337.193.2.062.273.194l.063-.075.23.187.222.144.033.013.064-.081.21.1.061.081a2.734,2.734,0,0,0,.327.056c.08.085.007.081.061.2a.827.827,0,0,1,.043.371,1.569,1.569,0,0,1,.372.213c.256.167,0,0,.259.25s.108.31.4.416a.911.911,0,0,1,.4.243,1.027,1.027,0,0,0,.111.2.62.62,0,0,1,.108.183s.1.079,0,.239.171.03.1.114a1.028,1.028,0,0,1-.367.764c-.148.17-.246.048-.256.3,0,.138.106-.058.035.405-.021.14.033.121-.185.185a2.1,2.1,0,0,0-.363-.025c-.09.063-.191-.128-.222,0-.3-.1-.588-.233-.9-.371L8.1,14.913l-.575-.285-.1-.047c-.148-.23-.8-.456-.8-.456s.288.361-.262-.023a3.31,3.31,0,0,1-.83-.827,9.346,9.346,0,0,0-1.109-.9,3.177,3.177,0,0,1-.862-.847c-.408-.451-.8-.911-1.181-1.394l-.226-.386-.075.061-.029-.018-.179-.179-.176-.224-.077.059c-.008-.106-.207-.336-.284-.328s-.358-.378-.431-.49l-.467-.6a1.66,1.66,0,0,1-.132-.212l-.1-.345L.043,7C.027,6.817.024,6.782.011,6.631a1.357,1.357,0,0,1,.036-.546M22.023,17.963a2.29,2.29,0,0,0-.152.51,2.723,2.723,0,0,0-.023.347,2.479,2.479,0,0,0,.177.842l.057.139a1.843,1.843,0,0,0,.4.639,2.078,2.078,0,0,0,.219.328,2.778,2.778,0,0,0,1.613.85,3.31,3.31,0,0,0,.4.048,1.285,1.285,0,0,0,.318-.072s-.158-.029-.021-.079.079-.036.223-.042-.042.108.054.081l.036-.018a.5.5,0,0,0,.223-.321,4.832,4.832,0,0,0,.138-.653,4.315,4.315,0,0,0,.03-.93,3.4,3.4,0,0,0-.06-.686l-.011-.064-.013-.11a8.152,8.152,0,0,0-.206-.838l-.061-.225-.175-.521-.255-.453s.063.26-.071.039a2.486,2.486,0,0,1-.284-.568c-.144-.355.206.2.082-.052-.023-.047-.081-.122-.118-.181l-.39.157s.149-.01.095.036a.211.211,0,0,1-.064.039,1.741,1.741,0,0,1-.217.1l-.295.087c-.306.1.172-.175-.046-.086a2.874,2.874,0,0,0-.8.545,6.041,6.041,0,0,0-.44.461,3.052,3.052,0,0,0-.357.649M4.228,6.7a.2.2,0,0,0-.053-.007.041.041,0,0,1-.017.014.155.155,0,0,0-.066.039.088.088,0,0,0-.006.037c.011.039.067.076.1.094l.021.013c.008.006.031.017.045.029.128-.075.2-.128-.023-.219" transform="translate(0 0)" fill="#f2d499"/>
        </g>
      </g>
    </g>
  </g>
</svg>
