<svg xmlns="http://www.w3.org/2000/svg" xmlns:xlink="http://www.w3.org/1999/xlink" width="81.968" height="117.223" viewBox="0 0 81.968 117.223">
  <defs>
    <clipPath id="clip-path">
      <rect id="Rectangle_310" data-name="Rectangle 310" width="66.504" height="26.468" fill="#f2d499"/>
    </clipPath>
  </defs>
  <g id="Group_912" data-name="Group 912" transform="translate(-1063.843 -904.223)">
    <g id="Group_549" data-name="Group 549" transform="translate(1074.808 904.223)">
      <g id="Group_548" data-name="Group 548" transform="translate(0 0)" clip-path="url(#clip-path)">
        <path id="Path_1195" data-name="Path 1195" d="M19.008,20.643A2.462,2.462,0,0,1,16.53,18.2l-.1-15.72a2.462,2.462,0,0,1,4.923-.034l.1,15.72a2.461,2.461,0,0,1-2.445,2.478" transform="translate(14.32 0)" fill="#f2d499"/>
        <path id="Path_1196" data-name="Path 1196" d="M32.134,23.011a2.491,2.491,0,0,1-.968-.191,2.461,2.461,0,0,1-1.32-3.221l6.07-14.5A2.461,2.461,0,1,1,40.458,7L34.389,21.5a2.461,2.461,0,0,1-2.256,1.511" transform="translate(25.853 3.126)" fill="#f2d499"/>
        <path id="Path_1197" data-name="Path 1197" d="M8.745,23.149a2.466,2.466,0,0,1-2.276-1.481L.2,7.25A2.461,2.461,0,1,1,4.719,5.288l6.267,14.419a2.462,2.462,0,0,1-2.241,3.442" transform="translate(0 3.319)" fill="#f2d499"/>
      </g>
    </g>
    <g id="promotion_7948549" transform="translate(1063.843 939.554)">
      <path id="Path_1198" data-name="Path 1198" d="M354.72,243.695a2.515,2.515,0,0,0-2.409,2.617c.076,1.845.129,3.694.173,5.546-2.656.462-5.417.9-8.067,1.326a39.728,39.728,0,0,1-7.934.754c-.13-3.879-.54-7.973-1.969-7.8a1.133,1.133,0,0,0-1.059,1.2,108.76,108.76,0,0,1-.322,15.257c-.365,7.534-.307,15.075-.541,22.594a2.516,2.516,0,1,0,5.028-.016q-.054-1.849-.14-3.7c5.159-.238,10.354.059,15.524-.209.369,4.983,1.131,7.88,2.679,4.9.134-13.322,1.351-26.583,1.656-39.91A2.518,2.518,0,0,0,354.72,243.695Zm-14.17,13.164a93.6,93.6,0,0,1,12.09-.072c.1,1.538.039,5.734.032,10.546-5.32-.485-10.639-2.16-15.961-1.492-.062-1.839-.1-3.679-.1-5.519-.045-.493-.049-1.549-.06-2.874A18.748,18.748,0,0,1,340.55,256.859Zm-3.314,19.771c-.115-2.113-.234-4.225-.338-6.337a14.574,14.574,0,0,0,2.164.366c3.358.147,6.7-.941,10.089-.578,1.17.03,2.348.048,3.524.081.013,2.93.059,5.936.181,8.6C347.647,278.066,342.484,277.1,337.236,276.63Z" transform="translate(-279.954 -205.894)" fill="#5f7766"/>
      <path id="Path_1199" data-name="Path 1199" d="M82.5,27.927c-6.655-9.285-19.356.776-27.063-5.246-3.134-5.949-2.16-13.4-5.641-19.314C47.76-.2,42.731-.9,39.355,1.1c-3.031.995-8.178,10.856-5.441,13.485C30.59,36.077,12.429,16.28,2.059,29.411c-5.988,11.5,13.528,12.678,16.293,20.92.729,2.883-.632,5.731-1.75,8.428-3.146,6.138-7.069,16.7,1.64,20.171,6.618,2.275,11.823-3.891,16.206-7.813,2.239-2.009,5.093-4.968,8.14-5.285a1.382,1.382,0,0,0,.045-2.758c-6.723-.059-11.264,6.077-16.446,9.446-2.5,1.985-6.86,3.685-8.229-.311-.948-6.53,4.691-12.264,4.994-18.838C24.02,41.065,8.351,41.666,4.34,33.617c-.361-3.331,3.531-5.433,6.39-5.9,10.613-.638,21.556,4.834,25.129-9.536.286-1.058.522-2.12.719-3.184,2.758-1.306.6-8.351,5.729-10.6A3.463,3.463,0,0,1,47.06,6.505c4.907,13.146,1.756,24.407,20.965,20.636,3.976-.513,9.2-1.227,11.515,2.78A1.787,1.787,0,1,0,82.5,27.927Z" transform="translate(-0.924 0)" fill="#f2d499"/>
    </g>
  </g>
</svg>
