<svg xmlns="http://www.w3.org/2000/svg" xmlns:xlink="http://www.w3.org/1999/xlink" width="58.512" height="68.952" viewBox="0 0 58.512 68.952">
  <defs>
    <clipPath id="clip-path">
      <rect id="Rectangle_260" data-name="Rectangle 260" width="19.381" height="34.989" fill="#f2d499"/>
    </clipPath>
  </defs>
  <g id="Group_918" data-name="Group 918" transform="translate(-760 -4701.826)">
    <g id="Group_479" data-name="Group 479" transform="translate(-16.896 -58.285)">
      <path id="Path_1003" data-name="Path 1003" d="M378.5,32.885c-.069-4.1-6.57-4.522-6.134,0,.214,3.885,6.408,4.362,6.134,0" transform="translate(450.635 4745.991)" fill="#f2d499"/>
      <path id="Path_1005" data-name="Path 1005" d="M371.148,37.3c.592,4.107,7.139,3.314,6-1.005-.87-3.421-6.638-2.833-6,1.005" transform="translate(449.535 4749.849)" fill="#f2d499"/>
      <path id="Path_1007" data-name="Path 1007" d="M356.287,36.193c3.662-.592,4.1-6.827-.122-6.553-4.293.295-4.695,7.419.122,6.553" transform="translate(433.463 4745.975)" fill="#f2d499"/>
      <path id="Path_1009" data-name="Path 1009" d="M354.17,37.113c-.2,4.317,6.745,3.684,6.339-.423-.137-3.782-6.273-3.053-6.339.423" transform="translate(434.656 4749.957)" fill="#f2d499"/>
      <path id="Path_1010" data-name="Path 1010" d="M404.815,69.585c-9.253-.2-18.645,1.725-27.8-.237a34.251,34.251,0,0,1-18.4-10.671c-3.01-2.833-6.638-5.668-7.786-9.792a3.637,3.637,0,0,1,.152-3.132c2.23-2.585,6.115.462,7.973,2.305,10.209,11.455,10.527,13.85,26.52,11.423a1.039,1.039,0,0,0,.141-2.048c-4.836-.983-10.209.859-14.541-1.98a2.735,2.735,0,0,1,.2-3.726c1.805-1.137,4.184-.09,6.271-.56,8.558.092,29.333-6.393,26.475,8.92a1,1,0,0,0,1.975.374c.969-4.037-.026-9.151-4.052-11.1-8.246-3.81-17.527-.581-26.173-1.325-3.521-.673-7.68-.148-8.655,4.058-3.54-3.731-6.6-8.146-11.537-9.942-8.437-2.283-9.707,6.523-5.159,11.945,5.661,6.177,11.729,12.484,19.612,15.488,11.028,4.759,23.133,1.869,34.67,2.642a1.325,1.325,0,0,0,.124-2.647" transform="translate(429.078 4756.656)" fill="#bc756a"/>
    </g>
    <g id="Group_481" data-name="Group 481" transform="translate(781.472 4701.827)">
      <g id="Group_480" data-name="Group 480" transform="translate(0 0)" clip-path="url(#clip-path)">
        <path id="Path_1126" data-name="Path 1126" d="M16.415,2.221A10.743,10.743,0,0,0,9.995,0C4.234-.182-1.248,5.39.25,11.369a11.015,11.015,0,0,0,1.271,3.173,22.072,22.072,0,0,1,3.514,7.845c.815,2.666-.28,6.634,2.174,8.433a3.314,3.314,0,0,0-.141,1.012c-.212,4.842,6.582,3.71,5.75-.663a4.438,4.438,0,0,0,2.292-2.912c.706-2.9.2-5.707,1.13-8.557.65-1.977,1.838-3.71,2.591-5.666A10.715,10.715,0,0,0,17.1,4.05a1.717,1.717,0,0,0-.681-1.828m-4.9,25.935a2.321,2.321,0,0,1-1.509.65c-.31,0-.618.069-.927.071a1.127,1.127,0,0,1-.9-.513,20.737,20.737,0,0,1-.74-4.774c1.014.019,2.007.028,3.015.028.531,0,1.066,0,1.613-.008a17.874,17.874,0,0,1-.548,4.545m5.172-15.281c-1.079,2.416-2.994,4.517-3.858,7.089-1.909.024-3.674.021-5.5-.013a1.914,1.914,0,0,0-.642.1,25.989,25.989,0,0,0-3.154-6.809C-.458,6.139,8.617.019,14.194,5.067a1.662,1.662,0,0,0,1.447.43,8.159,8.159,0,0,1,1.044,7.378" transform="translate(0 0)" fill="#f2d499"/>
      </g>
    </g>
  </g>
</svg>
