<?xml version="1.0" standalone="no"?>
<svg xmlns:xlink="http://www.w3.org/1999/xlink" id="wave" style="transform:rotate(180deg); transition: 0.3s" viewBox="0 0 1440 100" version="1.1" xmlns="http://www.w3.org/2000/svg"><defs><linearGradient id="sw-gradient-0" x1="0" x2="0" y1="1" y2="0"><stop stop-color="rgba(188, 117, 106, 1)" offset="0%"/><stop stop-color="rgba(188, 117, 106, 1)" offset="100%"/></linearGradient></defs><path style="transform:translate(0, 0px); opacity:1" fill="url(#sw-gradient-0)" d="M0,30L13.3,33.3C26.7,37,53,43,80,46.7C106.7,50,133,50,160,43.3C186.7,37,213,23,240,26.7C266.7,30,293,50,320,53.3C346.7,57,373,43,400,45C426.7,47,453,63,480,68.3C506.7,73,533,67,560,66.7C586.7,67,613,73,640,65C666.7,57,693,33,720,21.7C746.7,10,773,10,800,10C826.7,10,853,10,880,15C906.7,20,933,30,960,30C986.7,30,1013,20,1040,18.3C1066.7,17,1093,23,1120,28.3C1146.7,33,1173,37,1200,31.7C1226.7,27,1253,13,1280,15C1306.7,17,1333,33,1360,41.7C1386.7,50,1413,50,1440,51.7C1466.7,53,1493,57,1520,56.7C1546.7,57,1573,53,1600,45C1626.7,37,1653,23,1680,28.3C1706.7,33,1733,57,1760,63.3C1786.7,70,1813,60,1840,60C1866.7,60,1893,70,1907,75L1920,80L1920,100L1906.7,100C1893.3,100,1867,100,1840,100C1813.3,100,1787,100,1760,100C1733.3,100,1707,100,1680,100C1653.3,100,1627,100,1600,100C1573.3,100,1547,100,1520,100C1493.3,100,1467,100,1440,100C1413.3,100,1387,100,1360,100C1333.3,100,1307,100,1280,100C1253.3,100,1227,100,1200,100C1173.3,100,1147,100,1120,100C1093.3,100,1067,100,1040,100C1013.3,100,987,100,960,100C933.3,100,907,100,880,100C853.3,100,827,100,800,100C773.3,100,747,100,720,100C693.3,100,667,100,640,100C613.3,100,587,100,560,100C533.3,100,507,100,480,100C453.3,100,427,100,400,100C373.3,100,347,100,320,100C293.3,100,267,100,240,100C213.3,100,187,100,160,100C133.3,100,107,100,80,100C53.3,100,27,100,13,100L0,100Z"/></svg>