<svg xmlns="http://www.w3.org/2000/svg" xmlns:xlink="http://www.w3.org/1999/xlink" width="185.433" height="98.208" viewBox="0 0 185.433 98.208">
  <defs>
    <clipPath id="clip-path">
      <rect id="Rectangle_414" data-name="Rectangle 414" width="185.433" height="98.208" fill="#f2d499"/>
    </clipPath>
  </defs>
  <g id="Group_798" data-name="Group 798" clip-path="url(#clip-path)">
    <path id="Path_84073" data-name="Path 84073" d="M90.125,58.127a16.692,16.692,0,0,1,.419,3.033V65.5H67.833c.07-.819.08-1.577.087-2.276V63.2c0-.5.012-.961.04-1.348,0-.014,0-.026,0-.04a16.627,16.627,0,0,1,.711-3.685c1.925-6.115,7.1-9.739,10.78-9.739a9.453,9.453,0,0,1,8.41,4.287,16.29,16.29,0,0,1,2.261,5.452" transform="translate(11.798 8.415)" fill="#f2d499"/>
    <path id="Path_84074" data-name="Path 84074" d="M111.461,60.913V69H99.356V64.61c0-.035,0-.07,0-.1a22.339,22.339,0,0,0-.3-2.876,22.624,22.624,0,0,0-3.433-8.894,15.586,15.586,0,0,0-13.5-6.991c-4.011,0-8.235,2-11.585,5.494a21.944,21.944,0,0,0-5.546,10.39,22.335,22.335,0,0,0-.49,3.259c-.012.142-.019.285-.026.426-.021.445-.026.887-.031,1.317l3.073.036-3.073-.009A19.525,19.525,0,0,1,64.321,69H52.5c.059-1.165.07-2.294.085-3.411v-.067c0-.07,0-.141,0-.209.014-1.1.031-2.132.1-3.062.016-.209.033-.416.054-.623A39.925,39.925,0,0,1,63.563,37.581c5.615-5.846,12.7-9.336,18.96-9.336,9.626,0,17.1,3.833,22.216,11.4a42.906,42.906,0,0,1,6.722,21.273" transform="translate(9.131 4.912)" fill="#f2d499"/>
    <path id="Path_84075" data-name="Path 84075" d="M131,61.3V72.025H120.126V63.881c0-.033,0-.068,0-.1-.223-6.653-2.385-16.6-7.774-24.56-6.33-9.354-15.518-14.094-27.305-14.094-8.017,0-16.543,4.091-23.393,11.225A46.134,46.134,0,0,0,49.1,64.653c0,.052-.007.106-.012.157-.089,1.145-.106,2.3-.117,3.528,0,.045,0,.092,0,.139v.085c-.012,1.136-.026,2.293-.094,3.464H38c.077-1.241.106-2.473.122-3.687,0-.328.007-.652.012-.977.009-.927.019-1.825.045-2.708.023-.72.056-1.425.108-2.129.918-12.162,6.379-25.26,14.609-35.037,9.022-10.718,20.494-16.62,32.307-16.62,15.4,0,27.4,6.2,35.675,18.422C129.717,42.345,130.858,57.032,131,61.3" transform="translate(6.61 1.889)" fill="#f2d499"/>
    <path id="Path_84076" data-name="Path 84076" d="M154.021,70.121a3.685,3.685,0,0,1-3.685,3.793H140.011V63.048c-.146-4.625-1.376-20.841-11.171-35.315a46.588,46.588,0,0,0-21.026-17.426l-.009,0a51.55,51.55,0,0,0-19.727-3.7c-10.233,0-20.179,3.751-28.819,10.733a.1.1,0,0,1-.026.019,60.567,60.567,0,0,0-8.165,8.057A69.474,69.474,0,0,0,35.034,63.951c-.063.866-.1,1.733-.124,2.591-.028.892-.038,1.775-.047,2.64,0,.351-.007.7-.014,1.045-.016,1.261-.045,2.49-.133,3.687H25.178a3.692,3.692,0,0,1-2.814-1.3c-.061-.072-.117-.144-.171-.22l0,0a3.707,3.707,0,0,1-.648-2.767c.019-.117.04-.247.054-.365s.023-.27.053-.437a85.5,85.5,0,0,1,4.585-17.882h0A93.506,93.506,0,0,1,42.241,23.272,69.785,69.785,0,0,1,62.5,6.619,55.242,55.242,0,0,1,88.708,0c11.494,0,21.873,2.493,30.842,7.411a59.426,59.426,0,0,1,20.092,18.257,81.137,81.137,0,0,1,11.672,25.9v0a83.832,83.832,0,0,1,2.706,18.549" transform="translate(3.738 0)" fill="#f2d499"/>
    <path id="Path_84077" data-name="Path 84077" d="M28.928,70.909a4.3,4.3,0,0,1-.457-.025,4.183,4.183,0,0,1-3.707-4.61C26.227,52.787,7.889,21.77.7,10.957A4.183,4.183,0,0,1,7.666,6.325c.277.417,6.867,10.354,13.323,22.681C29.912,46.045,33.98,58.888,33.081,67.177a4.184,4.184,0,0,1-4.153,3.732" transform="translate(0 0.775)" fill="#f2d499"/>
    <path id="Path_84078" data-name="Path 84078" d="M162.344,12.61a149.476,149.476,0,0,0-15.62,27.305,147.7,147.7,0,0,0-9.633,29.111q-.423,1.993-.783,3.969h-8.73c.324-1.967.708-3.943,1.133-5.919a156.66,156.66,0,0,1,10.264-30.9,154.113,154.113,0,0,1,16.573-28.83,4.3,4.3,0,0,1,6.8,5.264" transform="translate(22.188 0.987)" fill="#f2d499"/>
  </g>
</svg>
