<svg xmlns="http://www.w3.org/2000/svg" width="77" height="80.871" viewBox="0 0 77 80.871">
  <g id="Group_61" data-name="Group 61" transform="translate(0 0.51)">
    <g id="Group_59" data-name="Group 59" transform="translate(0 62.36)">
      <text id="DIVERSITY" transform="translate(0 13)" fill="#eae6db" font-size="14" font-family="DIN2014-Bold, 'DIN \32 014'" font-weight="700" letter-spacing="0.1em"><tspan x="0" y="0">DIVERSITY</tspan></text>
    </g>
    <g id="Group_51" data-name="Group 51" transform="translate(14 0)">
      <g id="Group_127" data-name="Group 127" transform="translate(0)">
        <path id="Union_5" data-name="Union 5" d="M.14,45.526a12.5,12.5,0,0,0,1.534-6.917C1.248,34.978-.31,31.323.323,27.585c1.493-7.88,3.532-17.611,14.342-12.306,3.188,1.363,4.846,4.58,7.241,6.761a5.7,5.7,0,0,0,1.4.983,1.916,1.916,0,0,1,1.006-.5c3.251-.39,6.072-5.645,9.356-7.188,3.879-2.514,10.921-2.757,12.77,2.128.435,1.325.72,2.726,1.034,4.073.493,2.666,1.422,5.214,1.363,7.919.007,2.486-.785,4.9-1.284,7.3A12.137,12.137,0,0,0,48,43.482a18.873,18.873,0,0,0,.935,2.145c.619,1.247-1.445,2.113-1.983.8-3.77-8.582.855-11.674-.177-19.229-.731-2.833-1.316-5.692-2.141-8.5a4,4,0,0,0-.72-1.492c-2.2-2.386-6.512-1.532-8.949.116-2.657,1.61-4.256,4.4-6.727,6.364-3.049,2.435-4.919,1.682-5.256.59-3.177-1.069-5.022-5.042-7.723-6.761-2.908-1.693-7.652-3.329-9.716.282C3.85,20.646,3.451,24.1,2.792,27.3c-.046.342-.092.772-.114,1.117-.106,7.239,4.046,9.983.171,18.253a1.377,1.377,0,0,1-1.288.823A1.41,1.41,0,0,1,.14,45.526Zm35.842.439c-1.271-8.277,4.993-14.039,2.241-21.98-.085-.7-1.063-1.777-.08-2.208.977-.309,1.259,1.516,1.616,2.115,2.377,5.614.01,10.608-.932,16.134a17.7,17.7,0,0,0,.093,5.565,1.4,1.4,0,0,1-1.5,1.607A1.367,1.367,0,0,1,35.982,45.965Zm-24.4.13c.061-5.046-2.7-9.521-3.429-14.5a7.752,7.752,0,0,1,.363-4.359c.526-1.671,1.171-3.471,1.763-5.127.329-.97,1.941-.464,1.58.5a54.547,54.547,0,0,0-1.937,6.649c.094,4.45,3.65,8.007,3.988,12.445a8.886,8.886,0,0,1-.694,4.7.791.791,0,0,1-.752.462A.825.825,0,0,1,11.585,46.094ZM4.625,5.459A5.161,5.161,0,0,1,10.508.073c5.173.834,6.383,8.141,1.157,9.9a5.522,5.522,0,0,1-1.92.354A5.2,5.2,0,0,1,4.625,5.459Zm1.666-.13c.467,6.2,9.956,2.375,5.021-1.992l.061.066a3.081,3.081,0,0,0-1.861-.578C7.969,2.825,6.378,3.786,6.291,5.329Zm28.454.718A4.935,4.935,0,0,1,39.827.166,4.863,4.863,0,0,1,44.695,5.4c-.157,2.8-2.61,4.259-5.055,4.259A4.715,4.715,0,0,1,34.745,6.047Zm2.763-1.884c-2.449,4.057,5.418,5.509,5.518,1.154.06-1.528-1.49-2.369-3-2.369A2.824,2.824,0,0,0,37.508,4.163Z" transform="translate(0 0)" fill="#eae6db" stroke="rgba(0,0,0,0)" stroke-miterlimit="10" stroke-width="1"/>
      </g>
    </g>
  </g>
</svg>
