<svg xmlns="http://www.w3.org/2000/svg" width="113" height="86.649" viewBox="0 0 113 86.649">
  <g id="Group_59" data-name="Group 59" transform="translate(0 0.541)">
    <text id="EMPOWERMENT" transform="translate(0 81.108)" fill="#eae6db" font-size="14" font-family="DIN2014-Bold, 'DIN \32 014'" font-weight="700" letter-spacing="0.1em"><tspan x="0" y="0">EMPOWERMENT</tspan></text>
    <g id="Group_60" data-name="Group 60" transform="translate(30)">
      <path id="Union_7" data-name="Union 7" d="M19.967,52.323a1.6,1.6,0,0,1,.067-.493c0-.027,0-.054,0-.081.166-2.764.287-5.962.372-8.733-2.51-2.916-5.394-6.238-5.235-10.362.078-1.082.006-3.071,1.587-2.849,1.641.428.612,1.921.468,3-.39,3.785,2.926,6.452,5.25,9.022.525.465.265,2.436.387,3.06.078,1.771.182,3.951.3,5.841,2.646.056,7.579.162,7.629.162.167-1.085-.5-3.869,1.255-3.922a30.58,30.58,0,0,1,3.23.052c.43-7.18.531-14.425.571-21.615,0-1.808-.028-3.617-.134-5.42-2.346,2-3.784,5.881-5.187,8.3-.593.873-2.534,5.256-3.815,4.036a1.258,1.258,0,0,1-.188-.242c-.653-.424-1.311-1.386-1.79-1.69-4.135-3.5-8.582-10.38-14.772-8.06-.04,5.223.219,10.5.361,15.717.068,4.257.684,6.638-2.253,10.121a48.69,48.69,0,0,1-3.618,4.619.918.918,0,0,1-1.513-.956,43.134,43.134,0,0,1,2.085-4.546c.677-1.239,1.762-2.5,2.1-3.835,1.014-6.682.935-13.424,1.02-20.174-3.974,2.718-5.682,8.208-4.809,12.781a1.6,1.6,0,1,1-3.147.549C-1.688,24.577,10.8,13.043,20.646,23.833c1.72,1.723,3.535,3.672,5.212,5.442a9.527,9.527,0,0,0,1.168,1.18,4.583,4.583,0,0,0,.785-1.109c1.147-1.858,2-3.887,2.988-5.844,1.613-3.116,4-7.142,7.952-7.184.4-.01.8,0,1.192.007a8.452,8.452,0,0,0,3.272-.354c4.418-1.63,7.217-6.29,7.811-10.825a12.96,12.96,0,0,0,0-2.943.9.9,0,0,1,.809-.989c1.412-.056,1.572,2.906,1.712,3.97.446,7.135-5.838,14.781-13.358,13.649a4.893,4.893,0,0,0-2.314-.009c-.309,9.167.4,19.177.585,28.309a12.445,12.445,0,0,0,3.739-.529c.089-.953-.187-2.09.3-3.01,1.114-1.032,3.035-1.228,4.981-1.15a1.8,1.8,0,0,1,.067-.554c1.27-4.053-1.31-7.892-3.865-10.849-1.181-1.384-.319-3.292-.246-4.825a.719.719,0,0,1,1.428-.146c.267,1.207-.452,2.763.306,3.716,3.5,3.245,6.619,7.844,5.484,12.847-.008.036-.018.069-.027.1.547.068,1.052.131,1.489.173a.719.719,0,0,1-.131,1.429c-.733-.045-1.456-.1-2.173-.134a14.138,14.138,0,0,0-5.641.5c-.069,1.072.4,2.456-.4,3.377-2.2,1.4-5.128,1.378-7.841,1.352-.86-.007-1.7-.015-2.488.023-.112,1.2.728,4.234-1.311,4.2L21.6,53.884h-.036A1.6,1.6,0,0,1,19.967,52.323Zm22.193-5.473a.247.247,0,0,1,.009-.03C42.162,46.831,42.155,46.856,42.159,46.849ZM7.612,10.6c.23-9.381,14.265-6.385,10.9,2.353a5.385,5.385,0,0,1-5.025,3.219A5.711,5.711,0,0,1,7.612,10.6Zm1.8-.063c-.193,4.328,6.434,5.1,7.013.863.173-2.345-1.728-3.471-3.6-3.471C11.17,7.933,9.536,8.824,9.413,10.541ZM34.365,7A5.563,5.563,0,0,1,37.333.49c4.012-1.726,7.717,1.346,7.408,5.557a4.963,4.963,0,0,1-5.183,5.059A5.156,5.156,0,0,1,34.365,7Zm2.554.165c1.107,3.164,6.274,2.494,6.022-1.108A2.728,2.728,0,0,0,41.417,3.5a3.851,3.851,0,0,0-1.53-.327A3.023,3.023,0,0,0,36.919,7.167Z" transform="translate(0 0)" fill="#eae6db" stroke="rgba(0,0,0,0)" stroke-miterlimit="10" stroke-width="1"/>
    </g>
  </g>
</svg>
