<svg xmlns="http://www.w3.org/2000/svg" width="110" height="81.941" viewBox="0 0 110 81.941">
  <g id="Group_59" data-name="Group 59" transform="translate(0 0.613)">
    <g id="Group_53" data-name="Group 53" transform="translate(32)">
      <g id="Group_126" data-name="Group 126" transform="translate(0 0)">
        <path id="Union_8" data-name="Union 8" d="M.193,44.96C3.6,41.8,7.588,38.488,11,35.346c.926-.515,1.791-1.893,2.732-2.69q-.687-.787-1.337-1.689A19.133,19.133,0,0,1,19.721,1.843c10.649-5.516,24.394,2.04,26.653,13.519A18.9,18.9,0,0,1,45.4,26.323a25.216,25.216,0,0,1-1.074,2.332,1.032,1.032,0,1,1-1.8-1C51.269,13.6,35.31-3.768,20.567,3.571,2.561,12.212,11.034,38.748,30.229,36.3a17.8,17.8,0,0,0,5.659-2.127c8.532.348-9.487,11.249-21.21-.5-2.015,3.5-6.614,6.632-9.117,9.806C4.728,44.627,2,47.343.7,47.343.072,47.343-.222,46.709.193,44.96ZM24.527,28.613c-8.843-.009-5.189-7.165.213-9.592l-.095-.076a5.947,5.947,0,0,1-1.628-5.691c1.3-4.935,9.1-5.1,10.43-.1a5.608,5.608,0,0,1-2.1,6.108,8.185,8.185,0,0,1,2.844,2.21c1.355,1.569,2.855,5.833-.412,6.051a12.684,12.684,0,0,0-2.172.3,39.843,39.843,0,0,1-6.946.791Zm9.395-2.68a.035.035,0,0,0-.026-.019c.009,0,.046-.017.061-.02.453-.287-.07-1.472-.213-1.93a6.219,6.219,0,0,0-5.208-3.6,5.3,5.3,0,0,0-3.59.907c-1.333.991-2.8,2.364-3.064,4.053a.824.824,0,0,0,.256.127,20.5,20.5,0,0,0,6.052.277c.864-.045,1.728-.09,2.587-.09A14.9,14.9,0,0,1,33.922,25.932Zm-5.285-7.447a3.523,3.523,0,0,0,2.393-1.766,3.61,3.61,0,0,0,0-2.967c-1.083-2.129-4.639-1.864-6.109-.259a2.28,2.28,0,0,0-.471,1.445,3.466,3.466,0,0,0,2.663,3.512q.29-.021.58-.021A8.175,8.175,0,0,1,28.637,18.485Z" fill="#eae6db" stroke="rgba(0,0,0,0)" stroke-miterlimit="10" stroke-width="1"/>
      </g>
    </g>
    <text id="INDIVIDUALITY" transform="translate(0 76.328)" fill="#eae6db" font-size="14" font-family="DIN2014-Bold, 'DIN \32 014'" font-weight="700" letter-spacing="0.1em"><tspan x="0" y="0">INDIVIDUALITY</tspan></text>
  </g>
</svg>
