<svg xmlns="http://www.w3.org/2000/svg" width="90" height="83.954" viewBox="0 0 90 83.954">
  <g id="Group_59" data-name="Group 59" transform="translate(0 0.555)">
    <text id="INNOVATION" transform="translate(0 78.399)" fill="#eae6db" font-size="14" font-family="DIN2014-Bold, 'DIN \32 014'" font-weight="700" letter-spacing="0.1em"><tspan x="0" y="0">INNOVATION</tspan></text>
    <g id="Group_49" data-name="Group 49" transform="translate(21)">
      <g id="Group_128" data-name="Group 128" transform="translate(0 0)">
        <path id="Union_6" data-name="Union 6" d="M18.133,48.02c-6.438-2.453-11.393-7.6-16.017-12.648C-1.6,30.943-.561,23.752,6.33,25.616c4.029,1.467,6.532,5.072,9.422,8.119.8-3.435,4.194-3.863,7.069-3.314a48.14,48.14,0,0,0,7.78-.187c4.639-.36,9.289-.72,13.594,1.27,3.289,1.588,4.1,5.764,3.31,9.062a.821.821,0,0,1-1.613-.306c1.793-9.607-7.8-8.709-15.518-7.81a54.858,54.858,0,0,1-6.1.525,7.573,7.573,0,0,1-2.168.056,4.748,4.748,0,0,0-2.953.4,2.233,2.233,0,0,0-.159,3.042c2.206,1.445,4.743,1.4,7.3,1.364a21.289,21.289,0,0,1,4.578.253.849.849,0,0,1-.115,1.672c-13.061,1.983-13.32.026-21.658-9.329C7.574,28.93,4.4,26.441,2.58,28.552a2.971,2.971,0,0,0-.125,2.558c.938,3.368,3.9,5.683,6.358,8a27.977,27.977,0,0,0,15.03,8.715c4.831,1.034,9.742.743,14.651.453,2.689-.159,5.379-.319,8.054-.26a1.082,1.082,0,0,1-.1,2.162,91.117,91.117,0,0,0-9.253.014c-1.832.065-3.665.129-5.49.129C27.076,50.32,22.5,49.9,18.133,48.02ZM22.7,26.177a2.71,2.71,0,0,1,.115-.827c-2.005-1.469-1.111-4.713-1.777-6.892a18.04,18.04,0,0,0-2.872-6.412,8.994,8.994,0,0,1-1.039-2.593C15.907,4.567,20.387.013,25.1.165a8.782,8.782,0,0,1,5.247,1.812A1.4,1.4,0,0,1,30.9,3.472a8.758,8.758,0,0,1,1.418,8.161c-.615,1.6-1.586,3.015-2.117,4.631-.758,2.329-.347,4.623-.924,6.993a3.628,3.628,0,0,1-1.873,2.38,2.542,2.542,0,0,1-2.53,3.121A2.181,2.181,0,0,1,22.7,26.177Zm.9-2.834a.92.92,0,0,0,.738.419c.253,0,.5-.056.758-.058a1.9,1.9,0,0,0,1.233-.531,14.587,14.587,0,0,0,.448-3.714c-.447,0-.883.006-1.318.006-.824,0-1.636-.008-2.464-.023A16.933,16.933,0,0,0,23.608,23.344Zm-3.8-12.362a21.243,21.243,0,0,1,2.578,5.565,1.572,1.572,0,0,1,.525-.08c1.5.028,2.938.031,4.5.011.705-2.1,2.271-3.819,3.152-5.794a6.667,6.667,0,0,0-.852-6.029A1.359,1.359,0,0,1,28.528,4.3,5.649,5.649,0,0,0,24.694,2.79C20.873,2.79,17.386,6.664,19.81,10.982ZM9.743,16.025c.054-2.838,5.065-3.433,5.177-.345a2.582,2.582,0,0,1-2.78,2.763A2.217,2.217,0,0,1,9.743,16.025Zm26.017.063c-.523-3.135,4.187-3.615,4.9-.821a2.279,2.279,0,0,1-2.328,3.021A2.5,2.5,0,0,1,35.76,16.088ZM10.4,6.671c3.449-.224,3.09,4.868.1,5.352a3.58,3.58,0,0,1-.633.06C6.613,12.081,7.093,6.9,10.4,6.671ZM37.656,9.332c-.356-3.691,4.952-3.344,5.01,0a2.172,2.172,0,0,1-2.246,2.527A2.7,2.7,0,0,1,37.656,9.332ZM36.4,4.375a2.524,2.524,0,1,1,4.187-2.7A2.529,2.529,0,0,1,38.33,5.285,2.59,2.59,0,0,1,36.4,4.375ZM9.679,3.183C9.248.837,12.01-.976,13.834.581A2.8,2.8,0,0,1,14,4.072,2.383,2.383,0,0,1,11.958,5.14,2.159,2.159,0,0,1,9.679,3.183Z" transform="translate(0 0)" fill="#eae6db" stroke="rgba(0,0,0,0)" stroke-miterlimit="10" stroke-width="1"/>
      </g>
    </g>
  </g>
</svg>
