<svg xmlns="http://www.w3.org/2000/svg" xmlns:xlink="http://www.w3.org/1999/xlink" width="1217.528" height="1195.607" viewBox="0 0 1217.528 1195.607">
  <defs>
    <clipPath id="clip-path">
      <rect id="Rectangle_377" data-name="Rectangle 377" width="917.245" height="805.869" fill="#7a9280"/>
    </clipPath>
    <clipPath id="clip-path-2">
      <rect id="Rectangle_376" data-name="Rectangle 376" width="915.964" height="804.597" fill="#7a9280"/>
    </clipPath>
  </defs>
  <g id="Group_711" data-name="Group 711" transform="matrix(0.799, 0.602, -0.602, 0.799, 484.984, 0)">
    <g id="Group_710" data-name="Group 710" clip-path="url(#clip-path)">
      <g id="Group_709" data-name="Group 709" transform="translate(0.636 0.637)">
        <g id="Group_708" data-name="Group 708" clip-path="url(#clip-path-2)">
          <g id="Group_707" data-name="Group 707">
            <g id="Group_706" data-name="Group 706" clip-path="url(#clip-path-2)">
              <path id="Path_37702" data-name="Path 37702" d="M757.32,210.185c-2.966,3.662-5.88,7.247-8.795,10.806-5,6.112-10.6,11.838-14.907,18.389a114.566,114.566,0,0,1-18.6,22.154c-22.18,20.3-41.859,42.968-62.156,65.045-22.154,24.089-44.438,48.074-66.543,72.189-13.563,14.8-26.872,29.84-40.386,44.7A409.57,409.57,0,0,1,497.967,487.9c-26.9,21.51-54.006,42.787-81.009,64.194-16.223,12.844-35.153,21.252-52.82,31.749-7.66,4.539-15.526,8.717-23.367,12.973-14.623,7.944-30.511,11.58-46.862,13.54-5.622.671-10.729-.774-15.913-3.146-.516-4.72,1.29-8.537,3.275-12.148a100.212,100.212,0,0,1,19.163-25.43q11.722-10.871,23.005-22.18c4.591-4.642,5.339-7.531,3.018-9.439-3.766-3.095-6.474.335-9.207,2.063-17.564,11.167-34.972,22.567-52.588,33.657-6.061,3.791-12.276,7.711-18.956,10.11A440.18,440.18,0,0,1,203.177,597c-7.557,1.831-15.758,1.6-23.624,1.238-10.5-.464-15.5-7.531-13.024-17.925,3.069-12.766,10.007-23.289,20.916-30.614,10.677-7.2,22.051-13.36,32.754-20.53,11.09-7.428,21.793-15.474,32.574-23.392a17.423,17.423,0,0,0,4.384-4.926c.645-1.057.774-3.25.1-4.023-.954-1.083-3.018-2.089-4.333-1.78a16.3,16.3,0,0,0-6.628,3.172c-21.406,17.512-46.939,27.467-71.441,39.331-11.864,5.726-23.7,11.735-36.8,13.669-8.975,1.341-18.26,1.29-27.364.877-7.041-.335-10.265-5.132-9.775-12.276.774-11.632,4.926-21.587,14.03-29.324,18.518-15.707,36.6-31.955,57.2-45.031.825-.542,1.651-1.083,2.424-1.7,19.472-15.346,38.97-30.614,58.287-46.14a66.015,66.015,0,0,0,10.187-10.755,6.951,6.951,0,0,0,.774-5.958c-.438-1.109-3.353-1.909-5.055-1.728-6.628.748-13.282,1.676-19.807,3.043-17.228,3.662-34.482,3.224-51.814,1.186-5.648-.671-11.348-.954-17.022-1.5-3.714-.361-7.428-.619-11.064-1.341-7.3-1.418-13.153-5.313-15.294-12.56-2.089-7.067,1.006-13.1,6.216-17.976a50.077,50.077,0,0,1,23.547-12.044c9.439-2.115,18.982-3.74,28.37-5.983,22.232-5.261,43.819-12.405,64.09-23.109,3.069-1.625,6.19-3.172,9.31-4.668,24.785-11.683,46.449-27.519,64.168-48.538,7.015-8.33,13.953-16.764,20.891-25.172,4.746-5.726,9.207-11.709,14.211-17.2a522.711,522.711,0,0,0,49.364-63.265c3.688-5.571,7.712-10.935,11.812-16.222,10.858-13.876,21.2-28.06,29.866-43.483,4-7.092,8.975-13.669,13.721-20.323,12.405-17.357,25.043-34.534,37.319-51.943,5.261-7.479,9.775-15.5,14.856-23.109,3.275-4.926,6.961-9.568,10.729-14.727a276.894,276.894,0,0,1,48.848,29.892c6.058,4.642,10.806,10.961,16.738,15.81,17.045,14,34.56,27.441,51.556,41.472,8,6.628,15.268,14.108,22.8,21.277,2.682,2.579,4.952,5.571,7.66,8.124a960.521,960.521,0,0,1,72.318,76.857c4.617,5.493,9.7,10.574,15.165,16.506" transform="translate(158.644 -0.247)" fill="#7a9280"/>
              <path id="Path_37703" data-name="Path 37703" d="M426.157,392.782c.232,4.256,1.934,8.459,3.172,13.592-3.559,2.734-8.795,3.172-13.824,3.74-23.624,2.631-47.326,4.771-70.951,7.608-11.271,1.367-22.49,3.508-33.605,5.906-8.047,1.754-15.5,5.107-19.782,12.947a22.4,22.4,0,0,0-2.476,5.287c-4.746,20.994-10.033,41.91-13.85,63.084-4.2,23.186-8.743,46.269-14.959,68.991-1.934,7.067-3.585,14.185-5.365,21.278-.542.155-1.057.31-1.6.464-5.081-7.221-10.316-14.34-15.242-21.664-8.021-11.915-15.6-24.114-23.779-35.927-10.729-15.5-22.077-30.562-32.651-46.14-4-5.88-6.706-12.663-9.878-19.085-3.146-6.448-6.164-12.973-9.207-19.472-1.341-2.837-3.508-4.2-6.5-5.442-7.789-3.25-15.732-3.559-23.986-3.765-22-.542-43.509,2.914-64.967,6.912-20.117,3.74-40.027,1.341-59.99-.877-2.089-.232-4.075-1.393-6.474-2.27C4.606,434.77,14.2,426.981,22.5,418.186c2.528-2.682,4.874-5.545,7.3-8.382,4-4.694,7.815-9.594,12.019-14.108C57.5,378.778,73.777,362.4,87.5,343.78c4.926-6.68,4.823-7.969,1.186-15.4a216.072,216.072,0,0,1-9.336-22.619c-9.311-26.152-18.183-52.459-27.622-78.559-3.972-10.935-9.027-21.484-13.514-32.213-1.393-3.379-2.5-6.835-4.2-11.529,3.327.7,5.442.954,7.428,1.6,29.556,9.543,57.668,22.593,85.523,36.159,8.692,4.23,17.641,7.892,26.178,12.405A200.65,200.65,0,0,1,172.4,245.542c2.5,1.7,4.255,2.115,6.345-.232,13.643-15.371,26.926-31.1,41.085-45.959,11.606-12.2,24.4-23.263,36.442-35.024,5.158-5,9.62-10.677,14.7-15.758,5.39-5.39,11.116-10.445,16.919-15.861,3.482,3.817,2.424,8.1,4.281,11.5-4.642,3.456-8.717,6.628-12.973,9.568-3.946,2.708-5.932,6.577-6.938,11.038-2.682,11.915,1.315,22.515,6.809,32.729.671,1.238,2.6,2.192,4.127,2.553,5.184,1.212,10.445,2.089,16.248,3.224.877,7.892,1.831,15.217,2.476,22.541.8,9.156,1.186,18.337,2.089,27.467.387,3.92-.877,6.422-3.817,8.924q-14.2,12.031-27.931,24.553c-10.342,9.388-17.615,20.659-21.149,34.328-2.063,7.944-.774,15.242,2.889,22.283,2.45,4.642,6.5,7.376,11.58,8.614,9.594,2.347,19.137,1.883,28.705-.464,10.033-2.45,20.143-4.565,31.31-7.092-1.805,2.553-2.837,4.178-4.049,5.674-5.984,7.325-7.969,15.836-7.376,25.069.722,11.322,10.084,21.819,21.329,23.5a45.521,45.521,0,0,0,12.56.155c8.846-1.161,17.641-2.708,26.384-4.41,11.993-2.3,23.521-5.88,34.276-11.864,8.176-4.539,16.893,1.006,17.435,10.187" transform="translate(-0.246 208.919)" fill="#f2d499"/>
            </g>
          </g>
        </g>
      </g>
    </g>
  </g>
</svg>
