<svg xmlns="http://www.w3.org/2000/svg" xmlns:xlink="http://www.w3.org/1999/xlink" width="204.681" height="102.128" viewBox="0 0 204.681 102.128">
  <defs>
    <clipPath id="clip-path">
      <rect id="Rectangle_311" data-name="Rectangle 311" width="196.947" height="56.15" fill="#f2d499"/>
    </clipPath>
  </defs>
  <g id="Group_566" data-name="Group 566" transform="translate(0 47.646) rotate(-14)">
    <g id="Group_565" data-name="Group 565" clip-path="url(#clip-path)">
      <path id="Path_1222" data-name="Path 1222" d="M276.8,35.449a4.226,4.226,0,0,1-4.227-4.227v-27a4.227,4.227,0,1,1,8.453,0v27a4.226,4.226,0,0,1-4.227,4.227" transform="translate(-182.087 0)" fill="#f2d499"/>
      <path id="Path_1223" data-name="Path 1223" d="M404.161,69.072a4.229,4.229,0,0,1-3.887-5.886l10.593-24.831a4.227,4.227,0,0,1,7.776,3.317L408.051,66.5a4.227,4.227,0,0,1-3.89,2.569" transform="translate(-267.169 -23.905)" fill="#f2d499"/>
      <path id="Path_1224" data-name="Path 1224" d="M128.115,69.071a4.227,4.227,0,0,1-3.89-2.569L113.632,41.671a4.227,4.227,0,0,1,7.776-3.317L132,63.185a4.229,4.229,0,0,1-3.887,5.886" transform="translate(-75.683 -23.905)" fill="#f2d499"/>
      <path id="Path_1227" data-name="Path 1227" d="M27.163,392.855a.459.459,0,0,0-.053.007.079.079,0,0,1,.027-.007h.027Z" transform="translate(-18.11 -262.44)" fill="#f2d499"/>
      <path id="Path_1228" data-name="Path 1228" d="M593.054,405.374a.544.544,0,0,1,.073.033.048.048,0,0,1-.02-.007.267.267,0,0,0-.053-.027" transform="translate(-396.179 -270.803)" fill="#f2d499"/>
    </g>
  </g>
</svg>
