<svg xmlns="http://www.w3.org/2000/svg" xmlns:xlink="http://www.w3.org/1999/xlink" width="542.077" height="340.393" viewBox="0 0 542.077 340.393">
  <defs>
    <clipPath id="clip-path">
      <rect id="Rectangle_379" data-name="Rectangle 379" width="536.38" height="331.082" fill="#f2d499"/>
    </clipPath>
  </defs>
  <g id="Group_723" data-name="Group 723" transform="matrix(1, -0.017, 0.017, 1, 0, 9.361)">
    <g id="Group_722" data-name="Group 722" clip-path="url(#clip-path)">
      <path id="Path_37706" data-name="Path 37706" d="M143.406,298.02c.735-.885,1.306-1.523,1.823-2.2,5.705-7.5,11.431-14.983,17.088-22.519a20.956,20.956,0,0,1,12.618-8.429,82.532,82.532,0,0,1,18.92-1.613,190.143,190.143,0,0,0,18.983-1.167,18.77,18.77,0,0,0,9.335-3.528c2.248-1.6,2.778-3.453,1.263-5.68-2.12-3.116-4.613-5.924-8.2-7.476-4.055-1.76-8.134-3.461-12.166-5.269-2.735-1.226-5.373-2.593-8.521-1.276a2.131,2.131,0,0,1-1.965-.61c-.307-.448-.068-1.414.169-2.066.762-2.091,2.711-2.916,4.49-3.806,5.843-2.921,11.77-5.674,17.59-8.637,6.422-3.273,12.83-6.583,19.113-10.111,5.02-2.819,9.9-5.893,14.731-9.038a18.54,18.54,0,0,0,7.435-8.96c1.039-2.707-.149-6.97-2.443-8.231-2.813-1.548-5.9-2.725-9.083-2.454-5.73.486-11.5.8-17.1,2.4-3.875,1.108-7.824,1.972-11.76,2.853a17.874,17.874,0,0,1-4,.4,2.659,2.659,0,0,1-2.593-1.944c-.408-1.265.594-1.724,1.418-2.461,1.556-1.393,3.489-1.526,5.287-2.069,8.371-2.525,16.766-4.966,25.148-7.454a13.361,13.361,0,0,0,2.684-1.008,6.363,6.363,0,0,0,1.918-9.462,2.937,2.937,0,0,0-1.67-.955,79.738,79.738,0,0,0-7.975-1.209,71.293,71.293,0,0,0-31.438,4.412c-2.545.98-5.123.179-7.66.614-.415.073-1.257-.64-1.395-1.13a2.028,2.028,0,0,1,.63-1.7,20.733,20.733,0,0,1,3.561-2.422c4.282-2.246,8.785-4.11,13.6-4.558,5.614-.522,10.182-3.24,14.78-6.015a19.108,19.108,0,0,0,3.564-2.908c1.8-1.8,1.8-3.228.249-5.286a11.407,11.407,0,0,1-1.166-1.643,3.186,3.186,0,0,0-2.484-1.75c-3.027-.532-6.036-1.241-9.086-1.554a119.264,119.264,0,0,0-30.958.821c-3.887.617-7.726,1.542-11.585,2.337-12.908,2.663-25.715,5.651-37.88,10.927-5.641,2.446-11.415,4.584-17.1,6.922-7.2,2.959-14.521,5.7-21.107,9.929-12.856,8.268-25.8,16.4-37.731,26.026-10.632,8.578-21.254,17.153-30.76,27.007-.642.665-1.24,1.37-2.322,2.574a27.523,27.523,0,0,1,2.523,1.8c7.207,6.5,14.334,13.1,21.594,19.542,11.394,10.114,24.714,17.273,38.09,24.271,13.876,7.26,27.9,14.242,41.882,21.294,3.155,1.591,6.417,2.973,9.671,4.471" fill="#f2d499"/>
      <path id="Path_37707" data-name="Path 37707" d="M490.622,185.379c-.955-1.543-1.585-2.74-2.379-3.815-4.91-6.647-9.9-13.237-14.782-19.9-8.184-11.167-16.336-22.352-22.8-34.663-1.646-3.138-3.794-6.01-5.671-9.029-3.5-5.638-6.814-11.356-8.829-17.757-2.71-8.61-5.592-17.167-8.424-25.739-.316-.953-.794-1.852-1.237-2.87-.614.357-.96.52-1.265.741q-13.08,9.471-26.155,18.949c-1.558,1.127-3.165,2.185-4.715,3.323a33.491,33.491,0,0,0-3.132,2.518c-2.347,2.2-2.662,2.222-4.731-.14-3.622,1.279-4.29,1.265-7.019.869-5.387-.782-9.031-4.011-11.918-8.305a45.954,45.954,0,0,1-7.51-18.863,7.636,7.636,0,0,0-2.045-4c-2.136-2.459-5.253-3.1-7.937-4.549a4.586,4.586,0,0,0-4.662.162,14.974,14.974,0,0,0-6.55,7.418,31.933,31.933,0,0,0-2.67,15.472c.389,5.656.653,11.322,1.124,16.971.448,5.362,1.037,10.714,1.69,16.055a16.6,16.6,0,0,0,1.247,3.78,24.967,24.967,0,0,0,6.2,8.583c3.272,3.238,6.57,6.5,10.794,8.569,3.795,1.861,7.531,3.852,11.379,5.6,4.668,2.118,7.8,5.557,10.4,9.956,3.395,5.746,6.283,11.47,7.681,18.153,1.686,8.06,4.6,15.857,6.844,23.809,1.845,6.556,4.154,12.991,5.15,19.78.343,2.333,1.092,4.606,1.744,7.271,2.359-.344,4.432-.57,6.472-.963,2.637-.508,5.233-1.237,7.876-1.705,2.356-.417,4.781-.46,7.125-.922,11.853-2.337,22.467-7.816,33.034-13.33,8.521-4.445,16.876-9.208,25.354-13.739,3.771-2.017,6.729-5.012,10.315-7.685" fill="#f2d499"/>
      <path id="Path_37708" data-name="Path 37708" d="M401.815,229.067c.812,3.669,1.68,7.312,2.416,10.982,1.38,6.877,2.672,13.773,4.026,20.656.477,2.43,1.268,3.054,3.724,3.056a13.431,13.431,0,0,0,1.723-.129,102.552,102.552,0,0,0,31.552-9.653c2.332-1.133,4.714-2.172,7.111-3.16,8.262-3.406,16.587-6.661,24.8-10.181,9.219-3.95,18.138-8.428,25.233-15.824a55.88,55.88,0,0,1,5.083-4.256c.883-.724,1.915-1.148,2.881-.336,1.069.9.833,2.068.147,3.125a9.95,9.95,0,0,1-1.426,1.8,47.421,47.421,0,0,1-5.528,5.044c-7.912,5.447-15.747,11.033-24.5,15.138-5.394,2.531-10.716,5.215-16.112,7.742-7.049,3.3-14.081,6.69-21.814,8.143a52.586,52.586,0,0,0-11.559,3.467c-2.01.881-4.232,1.267-6.3,2.037-2.765,1.03-5.82,1.108-8.413,2.722a1.683,1.683,0,0,1-2.61-.89c-.505-1.15-1.252-1.244-2.366-.787,1.649,12.051,5.833,23.279,9.21,34.825a13.657,13.657,0,0,0,2.826-.2,70.947,70.947,0,0,1,16.6-2.824A15.787,15.787,0,0,0,442.5,299c7.573-2.48,15.353-4.519,22.605-7.739,9.466-4.2,18.64-9.129,27.7-14.174,14.514-8.084,25.948,10.779,38.577-.277.555-.486,2.482-2.005,2.976-2.443-.138-.378,11.85,6.391,11.741,6.25-3.654-4.817-17.769-40.257-20.466-45.771a2.607,2.607,0,0,0-.955-.881,21.1,21.1,0,0,1-3.006-3.187c-2.286-2.715-4.489-5.509-6.578-8.379-2.77-3.808-5.209-7.869-8.148-11.537a76.549,76.549,0,0,1-7.592-11.536c-1.006-1.858-2.1-3.669-3.2-5.475-.686-1.125-1.456-2.2-2.35-3.536-1.328,1.11-2.493,1.946-3.488,2.95-1.209,1.22-2.436,1.862-3.872.776-5.7,3.976-11.193,7.864-16.753,11.647A56.849,56.849,0,0,1,462.546,210c-6.909,3.347-13.927,6.467-20.86,9.768a39.678,39.678,0,0,1-14.726,3.673,42.859,42.859,0,0,0-6.876.636c-5.983,1.379-11.91,3.005-17.858,4.539-.076.02-.127.133-.411.448" fill="#f2d499"/>
      <path id="Path_37709" data-name="Path 37709" d="M140.653,301.872c-3.319-1.258-6.167-2.4-9.06-3.42a196.189,196.189,0,0,1-33.712-15.581c-12.378-7.2-24.748-14.458-35.745-23.757-.439-.371-.932-.679-1.407-1.006-11.724-8.072-23.321-16.312-33.92-25.862-.548-.493-1.188-.884-1.854-1.374C15.94,239.012,7.339,247.309,0,256.773a8.509,8.509,0,0,0,.695.93C11.3,267.782,22.213,277.48,34.713,285.232c3.509,2.176,6.809,4.686,10.266,6.951q7.353,4.813,14.8,9.482c4.317,2.7,8.709,5.283,13.05,7.946,7.378,4.525,14.852,8.818,23.032,11.824,6.668,2.449,13.2,5.275,19.781,7.948,1.411.573,2.8,1.206,3.936,1.7,1.682-1.768,3.207-3.306,4.65-4.918A16.6,16.6,0,0,0,125.648,324c2.807-4.357,5.552-8.756,8.443-13.056,2.024-3.012,4.248-5.89,6.562-9.075" fill="#f2d499"/>
      <path id="Path_37710" data-name="Path 37710" d="M362.44,64.167a41.436,41.436,0,0,0,1.083,4.508c1.423,3.967,2.906,7.916,4.489,11.822a88.515,88.515,0,0,0,4.008,8.9c1.286,2.382,3.6,3.616,6.24,4.278a3.747,3.747,0,0,0,3.686-.836c3.4-2.825,6.807-5.654,10.4-8.21,10.029-7.126,20.264-13.965,30.211-21.2,9.788-7.122,19.328-14.585,28.959-21.922a25.863,25.863,0,0,0,2.2-2.125,8.408,8.408,0,0,0-.918-1.14,35.159,35.159,0,0,1-8.6-10.712,10.942,10.942,0,0,0-2-2.44c-2.262-2.214-4.67-4.286-6.843-6.582a44.01,44.01,0,0,1-3.414-4.7c-2.214,1.715-4.3,3.4-6.461,4.992C417.532,24.682,409.6,30.6,401.554,36.371c-4.837,3.467-9.942,6.559-14.784,10.019-8.048,5.752-15.982,11.664-24.33,17.777" fill="#f2d499"/>
      <path id="Path_37711" data-name="Path 37711" d="M337.551,63.711a18.37,18.37,0,0,1,11.1-6.032c.163-2.573.16-4.778.468-6.94.811-5.709,3.765-10.455,7.265-14.831,5.442-6.8,11.864-12.058,21.2-12.221A22.412,22.412,0,0,0,381.027,23c-2.973-1.3-5.288-2.464-7.706-3.339-2.613-.945-5.319-1.8-8.156-1.393-3.41.488-6.794,1.146-10.192,1.713a19.858,19.858,0,0,0-12.046,6.773,13.54,13.54,0,0,1-1.666,1.59,16.245,16.245,0,0,0-5.06,7.894c-.948,2.918-1.6,5.931-2.556,8.847-1.362,4.166-1.061,8.294-.255,12.506a9.6,9.6,0,0,0,4.161,6.118" fill="#f2d499"/>
      <path id="Path_37712" data-name="Path 37712" d="M335.273,66.818a10.323,10.323,0,0,0-.769-.92c-5.042-4.458-6.742-10.075-5.834-16.627.179-1.288.208-2.6.309-3.936a10.539,10.539,0,0,0-6.409,2.237,18.913,18.913,0,0,0-6.788,9.437,42.684,42.684,0,0,0,0,24.948,8.532,8.532,0,0,0,3.741,5.269,23.1,23.1,0,0,0,6.2,2.612c3.372.754,4.973-.693,5.134-4.058.314-6.558.93-13.048,4.408-18.962" fill="#f2d499"/>
      <path id="Path_37713" data-name="Path 37713" d="M459.449,35.86c3.031-1.784,6.155-3.463,9.107-5.405,2.825-1.859,3.391-4.009,2.281-7.243a13.728,13.728,0,0,0-1.116-2.648c-1.931-3.2-3.919-6.365-5.911-9.528-1.687-2.678-3.486-5.289-5.094-8.014-1.908-3.235-3.521-3.816-6.854-2.014-2.2,1.185-4.327,2.494-6.433,3.835-1.687,1.073-3.291,2.277-5.01,3.478.481.874.825,1.544,1.211,2.19q2.652,4.446,5.324,8.879c.988,1.638,1.984,3.271,3,4.889.663,1.055,1.459,2.033,2.046,3.126a25.255,25.255,0,0,0,7.447,8.455" fill="#f2d499"/>
      <path id="Path_37714" data-name="Path 37714" d="M394.993,32.006c-.048-.27-.1-.541-.145-.811-4.668-2.174-9.33-4.243-14.776-3.629-8.545.965-15.113,5.347-20.452,11.763A31.417,31.417,0,0,0,353,54.177c-.518,2.891.554,4.169,3.393,4.923,1.492.4,2.109-.626,2.952-1.3a317.254,317.254,0,0,1,29.089-21.247c2.25-1.413,4.373-3.026,6.555-4.547" fill="#f2d499"/>
    </g>
  </g>
</svg>
