<svg xmlns="http://www.w3.org/2000/svg" xmlns:xlink="http://www.w3.org/1999/xlink" width="1633.339" height="1271.776" viewBox="0 0 1633.339 1271.776">
  <defs>
    <clipPath id="clip-path">
      <rect id="Rectangle_373" data-name="Rectangle 373" width="1633.339" height="1271.776" transform="translate(0 -701)" fill="#eae6db"/>
    </clipPath>
  </defs>
  <g id="Group_703" data-name="Group 703" transform="translate(0 701)" opacity="0.365">
    <g id="Group_702" data-name="Group 702" transform="translate(0 0)" clip-path="url(#clip-path)">
      <path id="Path_37696" data-name="Path 37696" d="M356.868,278.1a155.392,155.392,0,0,1,3.909,28.3v40.492H148.83c.659-7.642.747-14.712.813-21.234v-.22c.044-4.633.11-8.981.373-12.582,0-.132.022-.242.022-.373a154.957,154.957,0,0,1,6.632-34.388c17.984-57.071,66.272-90.888,100.615-90.888,34.585,0,60.255,13.087,78.481,40.009,10.584,15.635,17.326,34.146,21.1,50.879" transform="translate(177.983 -346.895)" fill="#eae6db"/>
      <path id="Path_37697" data-name="Path 37697" d="M622.584,391.586v75.494H509.606v-41c0-.329,0-.659-.022-.966a209.3,209.3,0,0,0-2.811-26.834c-3.733-22.464-12.341-53.909-32.038-83-28.876-42.688-72.442-65.24-125.978-65.24-37.44,0-76.856,18.687-108.125,51.274a204.8,204.8,0,0,0-51.757,96.97,209.469,209.469,0,0,0-4.567,30.413c-.11,1.318-.176,2.657-.242,3.975-.2,4.15-.242,8.279-.286,12.3v.242a181.711,181.711,0,0,1-1.142,21.871H72.34c.549-10.87.659-21.41.791-31.84v-.615c0-.659.022-1.318.022-1.954.132-10.233.285-19.895.944-28.568.154-1.954.307-3.887.505-5.819,7.686-85,43.413-164.494,100.967-224.441C227.962,119.275,294.1,86.71,352.513,86.71c89.834,0,159.575,35.771,207.335,106.347,43.347,64.032,60.8,144.445,62.736,198.53" transform="translate(86.51 -467.081)" fill="#eae6db"/>
      <path id="Path_37698" data-name="Path 37698" d="M867.879,470.709V570.776H766.429v-76c0-.307,0-.637-.022-.966-2.086-62.078-22.266-154.876-72.552-229.206C634.786,177.318,549.036,133.07,439.023,133.07c-74.814,0-154.392,38.186-218.315,104.766-67.721,70.532-109.289,164.3-117.172,264.143-.044.483-.066.988-.11,1.471-.834,10.672-.988,21.5-1.1,32.916-.022.417-.022.856-.022,1.3v.791c-.11,10.606-.242,21.388-.878,32.323H0C.725,559.2.988,547.7,1.142,536.366c.044-3.052.066-6.083.11-9.113.088-8.652.176-17.04.417-25.275.22-6.719.527-13.307,1.01-19.873,8.564-113.505,59.53-235.75,136.342-326.989C223.211,55.095,330.283,0,440.538,0,584.258,0,696.27,57.84,773.477,171.938c82.455,121.849,93.105,258.917,94.4,298.772" transform="translate(0 -570.776)" fill="#eae6db"/>
      <path id="Path_37699" data-name="Path 37699" d="M502.378,328.727a155.4,155.4,0,0,1-3.909-28.3V259.93H710.416c-.659,7.642-.747,14.712-.812,21.234v.22c-.044,4.633-.11,8.981-.373,12.582,0,.132-.022.242-.022.373a154.957,154.957,0,0,1-6.632,34.388C684.592,385.8,636.3,419.615,601.961,419.615c-34.585,0-60.255-13.087-78.481-40.009-10.584-15.635-17.326-34.146-21.1-50.879" transform="translate(596.11 -259.93)" fill="#eae6db"/>
      <path id="Path_37700" data-name="Path 37700" d="M420.9,335.424V259.93H533.877v41c0,.329,0,.659.022.966a209.325,209.325,0,0,0,2.811,26.834c3.733,22.464,12.341,53.909,32.038,83,28.876,42.688,72.442,65.24,125.978,65.24,37.44,0,76.856-18.687,108.125-51.274a204.8,204.8,0,0,0,51.757-96.97,209.443,209.443,0,0,0,4.568-30.413c.11-1.318.175-2.657.241-3.975.2-4.15.242-8.279.286-12.3V281.8a181.7,181.7,0,0,1,1.142-21.871h110.3c-.549,10.87-.659,21.41-.79,31.84v.615c0,.659-.022,1.318-.022,1.954-.132,10.233-.286,19.895-.944,28.568-.154,1.954-.307,3.887-.505,5.819-7.686,85-43.413,164.494-100.967,224.441C815.521,607.736,749.381,640.3,690.97,640.3c-89.833,0-159.575-35.771-207.335-106.347-43.347-64.032-60.8-144.445-62.736-198.53" transform="translate(503.346 -259.93)" fill="#eae6db"/>
      <path id="Path_37701" data-name="Path 37701" d="M348.589,360V259.93h101.45v76c0,.307,0,.637.022.966,2.086,62.078,22.266,154.876,72.552,229.206,59.069,87.286,144.818,131.533,254.832,131.533,74.814,0,154.392-38.186,218.315-104.766,67.721-70.532,109.289-164.3,117.172-264.143.044-.483.066-.988.11-1.471.835-10.672.988-21.5,1.1-32.916.022-.417.022-.856.022-1.3v-.791c.11-10.606.242-21.388.878-32.323h101.428c-.725,11.572-.988,23.079-1.142,34.41-.044,3.052-.066,6.083-.11,9.113-.088,8.652-.176,17.04-.417,25.275-.22,6.719-.527,13.307-1.01,19.873-8.564,113.505-59.53,235.75-136.342,326.989C993.256,775.611,886.185,830.706,775.93,830.706c-143.72,0-255.732-57.84-332.94-171.937-82.455-121.85-93.105-258.917-94.4-298.772" transform="translate(416.871 -259.93)" fill="#eae6db"/>
    </g>
  </g>
</svg>
