<svg xmlns="http://www.w3.org/2000/svg" xmlns:xlink="http://www.w3.org/1999/xlink" width="147.831" height="58.981" viewBox="0 0 147.831 58.981">
  <defs>
    <style>
      .cls-1 {
        fill: #7a9280;
      }

      .cls-2 {
        clip-path: url(#clip-path);
      }
    </style>
    <clipPath id="clip-path">
      <rect id="Rectangle_177" data-name="Rectangle 177" class="cls-1" width="147.831" height="58.981"/>
    </clipPath>
  </defs>
  <g id="Group_778" data-name="Group 778" transform="translate(0 0)">
    <g id="Group_323" data-name="Group 323" class="cls-2" transform="translate(0 0)">
      <path id="Path_1017" data-name="Path 1017" class="cls-1" d="M85.6,56.152a13.309,13.309,0,0,1,.334,2.418v3.459H67.833c.056-.653.064-1.257.069-1.815V60.2c0-.4.009-.766.032-1.074,0-.011,0-.021,0-.032a13.256,13.256,0,0,1,.567-2.938c1.535-4.875,5.661-7.764,8.594-7.764a7.536,7.536,0,0,1,6.7,3.418,12.987,12.987,0,0,1,1.8,4.346" transform="translate(-4.35 -3.103)"/>
      <path id="Path_1018" data-name="Path 1018" class="cls-1" d="M99.505,54.289v6.449H89.855v-3.5c0-.028,0-.056,0-.082a17.808,17.808,0,0,0-.241-2.293,18.036,18.036,0,0,0-2.736-7.09A12.426,12.426,0,0,0,76.114,42.2a13.19,13.19,0,0,0-9.236,4.38,17.494,17.494,0,0,0-4.421,8.283,17.805,17.805,0,0,0-.39,2.6c-.009.113-.015.227-.021.34-.017.355-.021.708-.024,1.05l2.45.029-2.45-.007a15.562,15.562,0,0,1-.1,1.868H52.5c.047-.928.056-1.829.067-2.72v-.053c0-.056,0-.112,0-.167.011-.874.024-1.7.08-2.441.013-.167.026-.331.043-.5A31.829,31.829,0,0,1,61.32,35.688c4.476-4.661,10.126-7.443,15.115-7.443,7.674,0,13.631,3.056,17.711,9.085a34.206,34.206,0,0,1,5.359,16.959" transform="translate(-3.367 -1.812)"/>
      <path id="Path_1019" data-name="Path 1019" class="cls-1" d="M112.139,51.075v8.548h-8.666V53.131c0-.026,0-.054,0-.082a39.365,39.365,0,0,0-6.2-19.579C92.228,26.012,84.9,22.233,75.505,22.233c-6.391,0-13.188,3.262-18.649,8.949A36.779,36.779,0,0,0,46.847,53.746c0,.041-.006.084-.009.125-.071.912-.084,1.837-.094,2.812,0,.036,0,.073,0,.11v.067c-.009.906-.021,1.828-.075,2.762H38c.062-.989.084-1.972.1-2.94,0-.261.006-.519.009-.779.007-.739.015-1.455.036-2.159.019-.574.045-1.136.086-1.7A51.084,51.084,0,0,1,49.878,24.116c7.192-8.545,16.339-13.25,25.756-13.25,12.277,0,21.845,4.94,28.441,14.687,7.043,10.409,7.953,22.118,8.064,25.522" transform="translate(-2.437 -0.697)"/>
      <path id="Path_1020" data-name="Path 1020" class="cls-1" d="M127.147,55.9a2.938,2.938,0,0,1-2.938,3.024h-8.231V50.263c-.116-3.687-1.1-16.615-8.906-28.154A37.141,37.141,0,0,0,90.31,8.217l-.007,0A41.1,41.1,0,0,0,74.576,5.269,36.443,36.443,0,0,0,51.6,13.826a.083.083,0,0,1-.021.015,48.285,48.285,0,0,0-6.509,6.423A55.386,55.386,0,0,0,32.288,50.983c-.051.691-.082,1.381-.1,2.065-.022.711-.03,1.415-.037,2.1,0,.28-.006.558-.011.833-.013,1.005-.036,1.985-.106,2.94h-7.6a2.944,2.944,0,0,1-2.243-1.039c-.049-.057-.094-.115-.137-.175l0,0a2.955,2.955,0,0,1-.517-2.206c.015-.094.032-.2.043-.291s.019-.215.042-.348a68.16,68.16,0,0,1,3.656-14.256h0A74.545,74.545,0,0,1,38.034,18.553,55.634,55.634,0,0,1,54.188,5.276,44.04,44.04,0,0,1,75.078,0,50.538,50.538,0,0,1,99.667,5.908a47.376,47.376,0,0,1,16.018,14.555,64.685,64.685,0,0,1,9.305,20.648v0A66.833,66.833,0,0,1,127.147,55.9" transform="translate(-1.378 0)"/>
      <path id="Path_1021" data-name="Path 1021" class="cls-1" d="M23.062,57.434a3.427,3.427,0,0,1-.364-.02,3.335,3.335,0,0,1-2.955-3.675C20.908,42.987,6.289,18.259.558,9.639A3.335,3.335,0,0,1,6.111,5.946c.221.332,5.475,8.254,10.621,18.082,7.114,13.584,10.357,23.823,9.64,30.431a3.335,3.335,0,0,1-3.311,2.975" transform="translate(0 -0.286)"/>
      <path id="Path_1022" data-name="Path 1022" class="cls-1" d="M155.294,11.2a119.165,119.165,0,0,0-12.453,21.768,117.753,117.753,0,0,0-7.68,23.208q-.337,1.589-.624,3.164h-6.96c.258-1.569.564-3.144.9-4.719a124.889,124.889,0,0,1,8.182-24.634A122.867,122.867,0,0,1,149.875,7.008a3.427,3.427,0,0,1,5.419,4.2" transform="translate(-8.181 -0.365)"/>
    </g>
  </g>
</svg>
