<?xml version="1.0" encoding="utf-8"?>
<!-- Generator: Adobe Illustrator 28.1.0, SVG Export Plug-In . SVG Version: 6.00 Build 0)  -->
<svg version="1.1" id="Layer_1" xmlns="http://www.w3.org/2000/svg" xmlns:xlink="http://www.w3.org/1999/xlink" x="0px" y="0px"
	 viewBox="0 0 124.1 72" style="enable-background:new 0 0 124.1 72;" xml:space="preserve">
<style type="text/css">
	.st0{fill:#6A806C;}
</style>
<g id="Group_779" transform="translate(-176.623 -964.988)">
	<path id="Path_1127" class="st0" d="M245.9,1010.4c-2.5,0.9-5.3-0.5-6.1-3c0,0,0,0,0,0l-10.1-29.2c-0.9-2.5,0.5-5.3,3-6.2
		c2.5-0.9,5.3,0.5,6.2,3l0,0l10.1,29.2C249.8,1006.8,248.4,1009.6,245.9,1010.4C245.9,1010.4,245.9,1010.4,245.9,1010.4"/>
	<path id="Path_1128" class="st0" d="M295.3,1005.2c-2.5,0.9-5.3-0.5-6.2-3c-0.2-0.6-0.3-1.3-0.2-1.9l2.2-30.8
		c0.2-2.7,2.5-4.7,5.2-4.5c2.7,0.2,4.7,2.5,4.5,5.2l-2.2,30.8C298.4,1002.9,297.1,1004.6,295.3,1005.2"/>
	<path id="Path_1129" class="st0" d="M203.8,1036.7c-1.8,0.6-3.9,0.1-5.2-1.3l-20.7-22.9c-1.8-2-1.6-5.1,0.4-6.8
		c2-1.7,5-1.6,6.8,0.3l20.7,22.9c1.8,2,1.6,5-0.4,6.8C204.9,1036.2,204.4,1036.5,203.8,1036.7"/>
</g>
</svg>
