<svg xmlns="http://www.w3.org/2000/svg" width="35.835" height="39.888" viewBox="0 0 35.835 39.888">
  <g id="protect_5188941" transform="translate(-26.013)">
    <path id="Path_923" data-name="Path 923" d="M61.2,7.185C58.458,5.869,55.707,4.6,52.986,3.3,47.384.621,44.165-1.718,38.1,1.723c-3.372,1.725-6.771,3.614-10.134,5.389A1.237,1.237,0,0,0,26.14,8.23c.087,2.575.032,5.162,0,7.75C25.487,23.1,27.3,31,33.1,35.646c5.607,4.8,14.082,5.975,20.066,1.183a.555.555,0,0,0-.652-.9,16.893,16.893,0,0,1-1.609.992c-6.927,3.91-15.94.112-19.881-6.329-4.237-6.64-2.31-14.669-2.412-22.079,1.127-.4,2.233-.847,3.324-1.314C34,6.321,36.113,5.316,38.16,4.386a30.287,30.287,0,0,1,2.975-1.372c2.875-1.354,5.893,0,8.586,1.214C53.154,5.684,56.706,7.079,60.111,8.6c.021,3.7.07,8.561.022,12.13a19.31,19.31,0,0,1-.243,3.119,18.164,18.164,0,0,1-1.813,5.224c-.248.667-1.319,1.54-.475,2.156,1.426,1,3.577-6,3.714-7.135a26.1,26.1,0,0,0,.333-4.421c.087-3.335.118-8.089.2-11.474a1.1,1.1,0,0,0-.65-1.019Z" transform="translate(0 0)" fill="#f2d499"/>
    <path id="Path_924" data-name="Path 924" d="M131.543,161.965c1.713,1.766,3.818,5.527,6.606,5.109,2.783-.957,3.791-5.055,5.628-7.2.551-.765,1.337-1.869,1.908-2.612.646-.876,1.324-1.723,1.988-2.586a1.234,1.234,0,1,1,1.868,1.608c-1.45,1.554-2.83,3.153-4.174,4.841-2.286,2.522-3.418,6.928-7.254,7.566-2.926.2-4.837-2.538-6.688-4.373a14.056,14.056,0,0,0-1.126-1.063A.9.9,0,1,1,131.543,161.965Z" transform="translate(-95.851 -142.184)" fill="#7a9280"/>
  </g>
</svg>
