<svg xmlns="http://www.w3.org/2000/svg" width="35.835" height="35.357" viewBox="0 0 35.835 35.357">
  <g id="expand_5760385" transform="translate(-0.001 -3.413)">
    <g id="Group_232" data-name="Group 232" transform="translate(0.001 3.413)">
      <path id="Path_925" data-name="Path 925" d="M9.793,10.675A23.527,23.527,0,0,1,4.094,5.4a10.519,10.519,0,0,1,3.972.156,1.064,1.064,0,0,0-.011-2.128c-6.082-.215-6.54,1.38-6.63,7.019a.778.778,0,1,0,1.541-.036,8.542,8.542,0,0,1,.146-3.878C5.017,8.3,6.583,10.454,8.423,12.292a1.065,1.065,0,1,0,1.37-1.616Z" transform="translate(-1.319 -3.413)" fill="#f2d499"/>
      <path id="Path_926" data-name="Path 926" d="M5.691,389.883a7.353,7.353,0,0,0-1.16,1.636,11.916,11.916,0,0,1-2.756,2.792,5.03,5.03,0,0,1-.173-3.7.778.778,0,1,0-1.528-.206c-.48,5.153,1.332,7.083,6.591,6.8a1.062,1.062,0,1,0-.209-2.108,7.34,7.34,0,0,1-3.758,0c2.01-1.574,4.415-2.986,5.559-5.361C8.507,388.009,6.235,389.238,5.691,389.883Z" transform="translate(-0.001 -361.878)" fill="#f2d499"/>
      <path id="Path_927" data-name="Path 927" d="M390.165,15.666c1.942-1.529,3.868-3.083,5.662-4.79.141.943-.017,2.073.075,2.874.886,2.339,3.42-2.583,1.146-4.78-1.459-1.631-3.812-1.24-5.7-.8a.589.589,0,0,0,.2,1.158,7.315,7.315,0,0,1,3.03-.1c-1.571,2.009-3.377,3.83-5.065,5.746A.481.481,0,0,0,390.165,15.666Z" transform="translate(-362.135 -7.479)" fill="#f2d499"/>
      <path id="Path_928" data-name="Path 928" d="M394.519,388.323c-.231.868-.261,1.892-.489,2.808-1.819-1.481-3.623-2.82-5.514-4.181a.481.481,0,0,0-.635.711c1.633,1.772,3.5,3.452,5.061,5.3a3.8,3.8,0,0,1-3.42.418.6.6,0,0,0-.35,1.137c4.1,1.588,8.832-2.263,6.5-6.5A.636.636,0,0,0,394.519,388.323Z" transform="translate(-360.615 -360.018)" fill="#f2d499"/>
    </g>
    <g id="Group_233" data-name="Group 233" transform="translate(11.03 3.615)">
      <path id="Path_929" data-name="Path 929" d="M169.281,155.756c2.054-2.933,1.446-6.445,1.491-9.827a3.332,3.332,0,0,0-2.676-3.776c-2.9-.479-7.348-1.278-9.523,1.248-.864,1.1-.83,3.579-.958,5a24.1,24.1,0,0,0,.332,5.546c.263,1.248,1.668,2.272,2.328,2.982.969,2.96.3,6.12.231,9.19a1.06,1.06,0,0,0,2.119.039c-.038-3.356.662-7-.777-10.187-.665-1-2.034-1.479-2.239-2.722a26.214,26.214,0,0,1-.124-7.7c.306-3.511,6.2-2.28,8.589-1.932,1.108.235,1.352,1.354,1.328,2.359,1.1,13.575-4.487,5.085-2.956,20.181a.771.771,0,1,0,1.536-.136c-.231-2.675-.758-5.476-.214-8.121C168.03,157.051,168.833,156.529,169.281,155.756Z" transform="translate(-157.584 -132.171)" fill="#bc756a"/>
      <path id="Path_930" data-name="Path 930" d="M210.463,13.4a3.675,3.675,0,0,0,2.46-4.773c-1.305-3.663-7.212-2.843-7.14,1.166A3.616,3.616,0,0,0,210.463,13.4Zm.934-3.437c-.494,2.016-4.241,2.023-4.419-.176C206.756,6.666,212.011,6.931,211.4,9.968Z" transform="translate(-202.407 -6.291)" fill="#bc756a"/>
    </g>
  </g>
</svg>
