<svg xmlns="http://www.w3.org/2000/svg" width="37.22" height="37.983" viewBox="0 0 37.22 37.983">
  <g id="idea_5760318" transform="translate(-5.142)">
    <path id="Path_910" data-name="Path 910" d="M41.61,259.987c-2.159-.377-.449,2.261-4.365,2.211-4.043-.183-8.088-.107-12.133.039a3.209,3.209,0,0,1,.26-2.055c1.646-4.9,7.824-5.885,11.954-3.543a.648.648,0,0,0,.789-.974,6.742,6.742,0,0,0-2.386-1.865c2.819-1.736,2.589-7.158-.551-8.79-5.97-2.8-10.612,5.018-5.5,8.847a9.606,9.606,0,0,0-5.383,5.464,10.874,10.874,0,0,0-5.948-5.641c5.489-3.295-.131-11.673-5.6-8.316a4.82,4.82,0,0,0-.415,7.932c-3.6.975-9.741,6.568-6.053,10.262.664.633,1.849,1.114,2.391.2,9.54.457,19.073-.256,28.587.508a5.441,5.441,0,0,0,4.213-1.41c.736-.777,1.5-2.36.14-2.87ZM28.7,249.071c.626-4.751,8.173-4.089,7.157,1.029-.948,3.816-7.346,2.961-7.157-1.029Zm-16.925.036c1.2-4.192,8.277-2.061,6.776,2.169-1.517,3.088-7.785,1.574-6.776-2.169ZM8.765,262.74c-.365-.778-1.849-.752-1.566-2.111.563-2.392,2.705-4.361,4.809-5.517,4.967-2.089,11.342,1.72,11.514,7.185-4.922.2-9.843.457-14.758.443Z" transform="translate(0 -226.285)" fill="#bc756a"/>
    <g id="Group_229" data-name="Group 229" transform="translate(9.898 0)">
      <g id="Group_227" data-name="Group 227" transform="translate(21.788 0)">
        <path id="Path_911" data-name="Path 911" d="M390.613,67.229c-.022-2.6-4.077-2.584-3.822.116C386.9,69.809,390.75,69.8,390.613,67.229Z" transform="translate(-385.012 -60.455)" fill="#f2d499"/>
        <path id="Path_912" data-name="Path 912" d="M366.619,2.533c.681,2,3.968,1.525,3.7-.706C370.077-1.023,365.582-.348,366.619,2.533Z" transform="translate(-366.203 0)" fill="#f2d499"/>
        <path id="Path_913" data-name="Path 913" d="M366.729,135.849c-.219-2.309-4.093-1.7-3.762.539C363.156,138.849,367.094,138.2,366.729,135.849Z" transform="translate(-362.947 -124.417)" fill="#f2d499"/>
      </g>
      <path id="Path_914" data-name="Path 914" d="M178.95,13.287c-1.9-5.648-11.282-4.092-11.112-1.622a5.688,5.688,0,0,0-1.285,1.938c-.764,2.364.929,4.568,1.769,6.664a11.329,11.329,0,0,1,.95,3.415,4.883,4.883,0,0,0,.381,2.429,2.429,2.429,0,0,0,1.21,1.157,2.247,2.247,0,0,0,.194,1.175,1.778,1.778,0,0,0,3.284-1.338.868.868,0,0,0,.126-.089c1.652-1.164.637-3.51,1.5-4.984C177.221,19.2,180.117,16.763,178.95,13.287ZM173.966,25.15a.823.823,0,0,1-.484.565c-.916-.009-2.17.413-1.974-1.53a4.143,4.143,0,0,0-.044-1.178,11.81,11.81,0,0,1,1.221-.236c.378-.129,1.117-.116,1.657-.258C174.153,23.389,174.209,24.343,173.966,25.15Zm.771-3.661-.006.01a.513.513,0,0,0-.144-.057c-.955-.209-1.92-.337-2.89-.459a4.11,4.11,0,0,0-.986-.088c-1.5-2.979-4.322-5.873-2.182-8.091a1.078,1.078,0,0,1,.124-.148,1.113,1.113,0,0,0,1-.214,5.041,5.041,0,0,1,2.3-1c2.038-.368,4.676.3,5.472,2.381C178.427,16.72,175.668,18.95,174.737,21.49Z" transform="translate(-159.156 -8.732)" fill="#f2d499"/>
      <g id="Group_228" data-name="Group 228" transform="translate(0 0.154)">
        <path id="Path_915" data-name="Path 915" d="M72.525,74.353c1.3-1.7-.467-4.4-2.472-3.031C67.95,73.06,70.414,76.5,72.525,74.353Z" transform="translate(-69.251 -65.837)" fill="#f2d499"/>
        <path id="Path_916" data-name="Path 916" d="M85.254,4.566c.627,2.792,4.215,1.486,3.608-1.2C88.089.977,84.837,2.229,85.254,4.566Z" transform="translate(-84.032 -2.08)" fill="#f2d499"/>
        <path id="Path_917" data-name="Path 917" d="M100.142,143.755c-.066-2.212-3.858-2.179-3.675.116C96.511,146.206,100.406,146.212,100.142,143.755Z" transform="translate(-94.442 -131.733)" fill="#f2d499"/>
      </g>
    </g>
  </g>
</svg>
