<svg xmlns="http://www.w3.org/2000/svg" width="40.495" height="35.439" viewBox="0 0 40.495 35.439">
  <g id="Group_945" data-name="Group 945" transform="translate(-648.031 -1919.061)">
    <g id="worldwide_5361463" transform="translate(653.541 1919.061)">
      <path id="Path_921" data-name="Path 921" d="M37.412,394.05c-5.388.065-10.837,0-16.228-.024.086-.726.163-1.593.228-2.24.058-.976.264-2,.3-2.975a1.072,1.072,0,0,0-2.13.237c.137,1.31.281,2.793.414,4.111a4.465,4.465,0,0,1,.076.839c-5.209-.183-10.649-.437-15.818-.347a1.065,1.065,0,1,0,.027,2.129c4.127-.266,8.258-.377,12.388-.286,4,.06,8.464-.079,12.437-.128,2.779-.022,5.562.023,8.333.236a.776.776,0,0,0-.03-1.551Z" transform="translate(-3.195 -360.342)" fill="#bc756a"/>
    </g>
    <g id="Group_234" data-name="Group 234">
      <path id="Path_922" data-name="Path 922" d="M68.9,12.493C68.3,5.518,61.76-.155,54.8.011a14.016,14.016,0,0,0-7.13,1.59c-5.414,2.82-8.968,9.327-7.722,15.406,1.265,6.865,7.433,12.441,14.512,12.058a3.816,3.816,0,0,0,1.054-.1A16.116,16.116,0,0,0,59.532,27.9c.6-.345,2.691-.888,2.286-1.778a.6.6,0,0,0-.81-.3,18.008,18.008,0,0,1-1.964.753l-.1.032c2.329-2.786,3.358-7.286,3.6-11.071,1.737.033,3.467.071,5.146.118q-.052.489-.141.981a12.6,12.6,0,0,1-1.915,4.9.6.6,0,0,0,.169.834c1.323.783,2.826-4.582,2.954-5.551a16.367,16.367,0,0,0,.146-4.338ZM51.746,26.334a12.394,12.394,0,0,1-2.29-3.659c1.367-.274,2.735-.549,4.128-.717l.1-.006c-.061,1.779-.121,3.554-.167,5.3q-.419-.034-.835-.094A4.478,4.478,0,0,1,51.746,26.334Zm-2.963-5.667a21.232,21.232,0,0,1-.658-5.319c0-.031,0-.064,0-.1,1.92.022,3.841.072,5.759.125-.038,1.667-.091,3.365-.148,5.068A28.305,28.305,0,0,0,48.783,20.668Zm-1.852-4.937a24.818,24.818,0,0,0,.706,5.143,13.7,13.7,0,0,0-3.25,1.114,13.849,13.849,0,0,1-2.561-6.667c1.7-.066,3.4-.085,5.1-.078,0,.166,0,.33,0,.487ZM49.154,8.26a34.933,34.933,0,0,0,4.676.32c.063,1.787.108,3.572.084,5.347q-2.847.04-5.692.032c.056-.513.125-1.027.169-1.464.209-1.364.411-2.826.763-4.235Zm5.888-5.766A6.164,6.164,0,0,1,58.85,5.683q.3.566.549,1.157a27.2,27.2,0,0,1-4.335.29C54.992,5.582,54.959,4.035,55.041,2.494Zm-3.236.7a3.6,3.6,0,0,1,1.82-.792c.027,1.558.088,3.12.148,4.682a30.639,30.639,0,0,1-4.105-.511A8.719,8.719,0,0,1,51.806,3.2ZM55.383,13.9c-.022-1.781-.142-3.564-.244-5.346a36.848,36.848,0,0,0,4.724-.473,21.731,21.731,0,0,1,.982,5.692Q58.117,13.852,55.383,13.9Zm7.191-1.376A25.764,25.764,0,0,0,61.835,7.7q1.783-.394,3.524-.959a12.792,12.792,0,0,1,2.389,6.814q-2.568.085-5.144.165C62.6,13.308,62.594,12.907,62.574,12.527Zm1.792-6.992a22.032,22.032,0,0,1-2.92.91,10.183,10.183,0,0,0-2.931-4.489l.239.072A12.774,12.774,0,0,1,64.367,5.534ZM49.915,2.32a9.96,9.96,0,0,0-1.89,3.891c-.9-.226-1.79-.491-2.652-.793A12.575,12.575,0,0,1,49.915,2.32Zm-5.9,4.824a32.967,32.967,0,0,0,3.627.876c-.24,1.459-.355,2.949-.511,4.349-.039.494-.092,1.037-.135,1.583q-2.619-.022-5.231-.1a10.821,10.821,0,0,1,1.368-5.1A11.983,11.983,0,0,1,44.019,7.143Zm1.5,16.22c.929-.117,1.847-.279,2.763-.456a13.954,13.954,0,0,0,2.073,3.677,11.1,11.1,0,0,1-2.994-1.6,12.936,12.936,0,0,1-1.843-1.626ZM55.59,27.259q-.041-1.224-.076-2.448c-.031-.939-.049-1.915-.062-2.906a23.12,23.12,0,0,1,4.211.409A8.958,8.958,0,0,1,56.218,27.2Q55.9,27.236,55.59,27.259Zm5.287-11.641a29.159,29.159,0,0,1-.86,5.541,33.194,33.194,0,0,0-3.816-.592l-.762-.046c-.013-1.72-.017-3.456-.039-5.1,1.783.032,3.627.061,5.478.093,0,.035,0,.07,0,.106Z" transform="translate(616.434 1919.061)" fill="#bc756a"/>
      <path id="Path_918" data-name="Path 918" d="M18.148,8.016a7.726,7.726,0,0,0-4.8-6.028,7.271,7.271,0,0,0-2.9-.442,7.424,7.424,0,0,0-6.93,6.813,7.269,7.269,0,0,0,2,5.411c-.774.749-1.785,1.737-2.521,2.423-.682.638-1.374,1.256-2.082,1.864-.347.345-1.285.833-.741,1.414.53.531,1.086-.359,1.439-.662,1.5-1.49,2.911-3.06,4.271-4.672a7.141,7.141,0,0,0,2.805,1.65,6.8,6.8,0,0,0,3.213.241,8.838,8.838,0,0,0,2.455-.786.4.4,0,1,0-.362-.709,6.647,6.647,0,0,1-4.534.763A6.68,6.68,0,0,1,4.23,8.419a6.6,6.6,0,0,1,6.685-6.043c4.677.081,7.925,5.533,5.388,9.585a.547.547,0,0,0,.942.555A7.18,7.18,0,0,0,18.148,8.016Z" transform="translate(647.581 1929.316) rotate(-17)" fill="#f2d499"/>
      <circle id="Ellipse_29" data-name="Ellipse 29" cx="6.5" cy="6.5" r="6.5" transform="translate(654 1928)" fill="rgba(242,212,153,0.33)"/>
    </g>
  </g>
</svg>
